<?xml version="1.0" standalone="no"?>
<!DOCTYPE svg PUBLIC "-//W3C//DTD SVG 1.1//EN" "http://www.w3.org/Graphics/SVG/1.1/DTD/svg11.dtd" >
<svg xmlns="http://www.w3.org/2000/svg">
<metadata></metadata>
<defs>
<font id="booster_next_fyregular" horiz-adv-x="1286" >
<font-face units-per-em="2048" ascent="1593" descent="-455" />
<missing-glyph horiz-adv-x="442" />
<glyph unicode="&#xfb01;" horiz-adv-x="1093" d="M156 66v921q0 211 106 329t305 118q97 0 175 -13q77 -13 120 -28q30 -11 41 -28q12 -18 12 -34q0 -33 -18 -49q-17 -16 -43 -16q-38 0 -99 20q-65 21 -171 21q-160 0 -223 -76q-62 -75 -68 -221h573q26 0 44 -18t18 -46v-725q0 -45 12 -70q12 -26 53 -26q24 0 35 -17 q12 -18 12 -40q0 -32 -19 -50t-60 -18q-94 0 -131 55t-37 160v668h-500v-817q0 -30 -20 -48q-19 -18 -48 -18q-31 0 -50 18t-19 48z" />
<glyph unicode="&#xfb02;" horiz-adv-x="1093" d="M156 154v833q0 212 107 329q108 118 312 118q109 0 181 -12q77 -13 123 -33q49 -22 49 -76v-1092q0 -45 12 -70q12 -26 53 -26q24 0 35 -17q12 -18 12 -40q0 -32 -19 -50t-60 -18q-91 0 -130 52q-38 51 -38 163v1057q-28 8 -87 22q-57 13 -124 13q-151 0 -217 -78 t-72 -219h231q28 0 45 -18q17 -19 17 -46t-17 -46q-16 -17 -45 -17h-231v-817q0 -30 -20 -48q-19 -18 -48 -18q-24 0 -39 15q-13 13 -20 38t-8 50q-2 36 -2 51z" />
<glyph horiz-adv-x="0" />
<glyph horiz-adv-x="0" />
<glyph unicode="&#xd;" horiz-adv-x="0" />
<glyph unicode=" "  horiz-adv-x="442" />
<glyph unicode="&#x09;" horiz-adv-x="442" />
<glyph unicode="&#xa0;" horiz-adv-x="442" />
<glyph unicode="!" horiz-adv-x="559" d="M176 104q0 49 28 77t75 28q45 0 75 -28q29 -27 29 -77q0 -49 -29 -76q-30 -28 -75 -28q-47 0 -75 28t-28 76zM201 1329q-2 50 15 76q18 29 63 29q46 0 64 -29q17 -27 17 -76l-18 -862q0 -29 -16 -48q-17 -20 -45 -20t-43 20q-15 19 -15 48z" />
<glyph unicode="&#x22;" horiz-adv-x="747" d="M178 1366q-4 32 15 51t45 19q27 0 48 -19q20 -18 15 -53l-16 -348q-5 -45 -45 -45t-45 45zM446 1366q-4 32 15 51t45 19q27 0 48 -19q20 -18 15 -53l-16 -348q-5 -45 -45 -45t-45 45z" />
<glyph unicode="#" horiz-adv-x="1413" d="M84 438q0 25 16 41q17 17 43 17h158l188 430h-112q-27 0 -43 15q-17 15 -17 40q0 22 17 39q16 16 43 16h162l159 361q7 22 22 30q16 9 28 9q21 0 38 -14q18 -14 19 -42q0 -12 -6 -24l-140 -320h373l160 361q16 37 51 37q23 2 39 -13t16 -43v-11q0 -8 -4 -13l-139 -318 h113q26 0 44 -15q17 -14 17 -40t-17 -40q-18 -15 -44 -15h-162l-188 -430h116q25 0 44 -16q18 -15 18 -40q0 -24 -18 -41q-17 -16 -44 -16h-166l-155 -358q-21 -43 -54 -43q-21 0 -39 15t-18 40v13q0 8 4 13l139 320h-372l-156 -358q-16 -43 -53 -43q-23 -2 -39 13 q-18 16 -19 42q0 3 5 26l141 320h-109q-27 0 -43 15t-16 40zM422 496h373l190 430h-375z" />
<glyph unicode="$" d="M152 266q0 35 23 51q25 17 44 17q36 0 60 -29q21 -29 48 -57q24 -26 65 -55q38 -27 88 -47q48 -19 116 -25v553q-63 17 -131 42q-70 26 -128 69q-57 43 -96 109q-38 65 -38 159q0 78 30 144t83 116q54 51 124 80q77 32 156 39v155q0 31 19 49q21 19 51 19q29 0 51 -19 q20 -17 20 -49v-160q115 -16 182 -54q75 -43 109 -68q39 -27 39 -66q0 -32 -21 -50t-45 -18q-19 0 -36 7q-13 5 -27 14q-27 16 -72 48t-129 48v-512h2q55 -15 140 -43q72 -24 130 -67q59 -44 96 -111q38 -68 38 -172q0 -71 -27 -137t-78 -120t-127 -91t-174 -49v-160 q0 -32 -20 -49q-22 -19 -51 -19q-30 0 -51 19q-19 18 -19 49v156q-88 6 -156 30q-65 23 -118 59t-85 68q-34 34 -53 64q-12 12 -22 29t-10 34zM346 1057q0 -95 69 -148q71 -54 181 -92v477q-120 -12 -185 -80t-65 -157zM737 123q113 17 188 84q74 67 74 166q0 58 -17 96 q-19 43 -50 71q-32 29 -82 52q-44 20 -113 43v-512z" />
<glyph unicode="%" horiz-adv-x="1490" d="M86 1085q0 79 22 148q20 64 59 109q38 44 89 68t111 24q122 0 202 -92t80 -257q0 -84 -21 -148q-20 -62 -60 -110q-36 -43 -89 -68q-51 -24 -112 -24q-123 0 -202 91t-79 259zM168 49q0 21 20 47l1022 1282q17 24 28 29q12 6 24 6q22 0 38 -15q17 -15 17 -40 q0 -15 -25 -49l-1016 -1280q-16 -21 -28 -28q-11 -7 -27 -7q-23 0 -38 16t-15 39zM197 1085q0 -124 47 -186q46 -61 123 -61q76 0 122 61q48 63 48 186t-47 185q-46 61 -123 61t-123 -60q-47 -61 -47 -186zM842 328q0 81 21 147q20 63 60 111q36 43 89 68q51 24 110 24 q124 0 203 -91q80 -92 80 -257q0 -81 -22 -150q-20 -64 -59 -109q-38 -44 -89 -68q-49 -23 -113 -23q-63 0 -112 23t-88 68q-38 44 -59 108t-21 149zM952 330q0 -125 47 -187q46 -61 123 -61t123 61q47 62 47 187q0 123 -46 184t-124 61q-77 0 -123 -61q-47 -62 -47 -184z " />
<glyph unicode="&#x26;" horiz-adv-x="1345" d="M115 334q0 74 27 135q27 62 74 115q48 54 103 99q45 36 119 89l-30 31q-94 91 -135 167q-40 74 -40 154q0 66 25 125t68 99t103 64t134 24q63 0 124 -22q58 -21 101 -61q44 -41 69 -96q26 -57 26 -122q0 -56 -22 -108t-58 -95t-84 -85q-38 -33 -98 -79l329 -324l140 148 q12 12 22 16q9 4 25 4q27 0 44 -17t17 -40q0 -22 -27 -49l-135 -148l250 -243q27 -24 27 -54q0 -23 -18 -42t-44 -19q-30 0 -57 27l-244 239l-18 -20q-62 -66 -116 -116t-108 -84q-49 -31 -113 -51q-59 -18 -126 -18q-79 0 -144 27t-112 74q-48 48 -73 112q-25 65 -25 144z M254 348q0 -53 16 -95q16 -43 48 -78q29 -32 76 -53q45 -20 100 -20q93 0 175 62q78 59 158 147l37 39l-348 344q-57 -43 -98 -78q-50 -42 -84 -80q-38 -43 -59 -89q-21 -47 -21 -99zM365 1126q0 -43 21 -94t93 -123l64 -63q84 60 150 129q63 66 63 145q0 40 -15 74 q-16 36 -41 60q-29 27 -62 41q-38 16 -79 16q-45 0 -83 -16q-35 -15 -60 -41q-26 -27 -38 -59q-13 -33 -13 -69z" />
<glyph unicode="'" horiz-adv-x="479" d="M178 1366q-4 32 15 51t45 19q27 0 48 -19q20 -18 15 -53l-16 -348q-5 -45 -45 -45t-45 45z" />
<glyph unicode="(" horiz-adv-x="634" d="M139 573q0 174 37 316q38 145 88 253q47 101 103 185q49 74 79 113q25 28 40 40q20 15 42 15q27 0 45 -19q19 -21 19 -42q0 -18 -10 -35q-13 -23 -33 -49q-38 -51 -82 -118q-49 -75 -88 -168q-43 -103 -70 -219q-28 -119 -28 -272q0 -152 28 -271q27 -116 70 -219 q39 -93 88 -168q44 -67 82 -118q22 -29 33 -50q10 -19 10 -36q0 -19 -19 -40q-18 -19 -45 -19q-22 0 -42 15q-15 12 -40 40q-30 39 -79 113q-56 84 -103 185q-50 108 -88 253q-37 142 -37 315z" />
<glyph unicode=")" horiz-adv-x="634" d="M43 -289q0 17 10 36q11 21 33 50q29 38 81 118q45 68 88 168t71 219t28 271q0 153 -28 272t-71 219t-88 168q-52 80 -81 118q-20 26 -33 49q-10 17 -10 35q0 22 18 42q18 19 45 19q22 0 42 -15q15 -12 40 -40q38 -50 80 -113q56 -84 103 -185q50 -108 88 -253 q37 -142 37 -316q0 -173 -37 -315q-38 -145 -88 -253q-47 -101 -103 -185q-42 -63 -80 -113q-25 -28 -40 -40q-20 -15 -42 -15q-27 0 -45 19t-18 40z" />
<glyph unicode="*" horiz-adv-x="960" d="M164 1192q11 36 36 43q26 8 54 -10l201 -101l-31 222q-8 34 8 54q16 21 49 21q36 0 50 -20q15 -21 8 -53l-33 -224l199 97q27 16 55 8q26 -7 37 -37q12 -33 -5 -56q-18 -24 -53 -26l-215 -39l150 -158q26 -22 25 -49t-23 -47q-27 -20 -55 -12q-27 7 -39 43l-105 194 l-100 -190q-16 -36 -41 -43q-27 -7 -53 10q-29 21 -29 47t29 49l153 160l-213 39q-33 4 -52 26q-18 21 -7 52z" />
<glyph unicode="+" d="M270 651q0 25 17 40q18 16 43 16h258v264q0 27 15 43t40 16t41 -16t16 -43v-264h256q25 0 43 -16q17 -15 17 -40q0 -24 -17 -41q-16 -16 -43 -16h-258v-266q0 -26 -15 -43t-40 -17t-40 17t-15 43v268h-258q-26 0 -43 15t-17 40z" />
<glyph unicode="," horiz-adv-x="559" d="M127 -240q0 23 29 35q22 7 44 23q24 17 40 37q17 21 31 57q13 34 18 86q-59 4 -86 33t-27 71q0 53 29 80t74 27q49 0 79 -34q31 -36 31 -109q0 -87 -24 -150q-22 -58 -60 -106q-33 -42 -74 -64q-37 -20 -65 -20q-39 0 -39 34z" />
<glyph unicode="-" horiz-adv-x="843" d="M135 526q0 29 20 47q21 19 48 19h438q27 0 48 -19q20 -18 20 -47t-20 -47q-19 -18 -48 -18h-438q-29 0 -48 18q-20 18 -20 47z" />
<glyph unicode="." horiz-adv-x="559" d="M176 104q0 49 28 77t75 28q43 0 74 -29q30 -28 30 -76q0 -50 -29 -77q-28 -27 -75 -27t-75 28t-28 76z" />
<glyph unicode="/" horiz-adv-x="819" d="M33 66q0 20 12 43l606 1253q24 51 66 51q29 0 49 -17t20 -48q0 -21 -14 -48l-602 -1245q-16 -31 -33 -44q-15 -11 -39 -11q-25 0 -45 17t-20 49z" />
<glyph unicode="0" horiz-adv-x="1230" d="M123 705q0 174 34 307q35 139 96 228q64 94 154 143q94 51 207 51q239 0 367 -193q127 -191 127 -536q0 -357 -127 -542q-127 -186 -367 -186q-242 0 -366 186q-125 187 -125 542zM264 705q0 -283 88 -438q88 -156 262 -156q176 0 264 156q89 157 89 438q0 132 -23 244 q-23 110 -66 188q-42 75 -111 119q-66 42 -153 42q-85 0 -151 -42q-68 -43 -110 -119q-43 -78 -66 -188q-23 -112 -23 -244z" />
<glyph unicode="1" horiz-adv-x="778" d="M74 1042q0 34 28 56l330 280q30 24 43 29q15 6 25 6q71 0 71 -65v-1282q0 -30 -19 -48q-20 -18 -48 -18t-49 18t-21 48v1140l-239 -200q-30 -27 -58 -27t-46 19q-17 18 -17 44z" />
<glyph unicode="2" horiz-adv-x="1054" d="M104 59q0 33 31 72l406 518q37 48 109 146q49 66 74 115q27 53 41 97q13 42 13 87q0 84 -61 144t-180 60q-105 0 -169 -41q-63 -41 -96 -100q-17 -30 -33 -39q-17 -10 -36 -10q-28 0 -46 18t-18 52q0 28 24 71q24 44 73 84q52 43 123 71q75 30 178 30q80 0 152 -23 q71 -23 122 -66q51 -44 80 -109q29 -66 29 -146q0 -58 -18 -113q-19 -60 -50 -114q-31 -55 -80 -123q-43 -60 -106 -140l-363 -471h576q71 0 71 -66q0 -63 -71 -63h-703q-25 0 -48 13q-24 14 -24 46z" />
<glyph unicode="3" horiz-adv-x="1056" d="M84 156q0 31 20 48t48 17q15 0 22 -4q2 -1 8.5 -4.5t10.5 -5.5q114 -96 274 -96q69 0 129 21q57 20 103 61q47 42 69 95q25 59 25 128q0 57 -20 111q-20 53 -58 90q-41 39 -97 60q-57 21 -131 21h-65q-30 0 -52 19t-22 49q0 28 22 45q20 16 56 16h59q55 0 106 19 q48 18 81 51t51 76t18 90q0 57 -21 102q-22 47 -57 76q-38 32 -84 46q-51 16 -102 16q-77 0 -133 -21t-115 -61q-21 -15 -41 -15q-22 0 -41 17q-18 17 -18 43q0 32 33 59q12 10 47 34q27 18 70 36q30 12 91 27q50 12 111 12q89 0 162 -27q76 -28 127 -73q54 -48 83 -110 q30 -64 30 -141q0 -104 -56 -184q-57 -81 -165 -125q138 -40 204 -138t66 -220q0 -100 -36 -183q-36 -82 -97 -139q-63 -58 -145 -88q-85 -31 -179 -31q-122 0 -210 32t-150 91q-17 15 -24 30q-7 14 -7 28z" />
<glyph unicode="4" horiz-adv-x="1087" d="M63 375q0 24 21 57l600 930q21 29 38 40t42 11q29 0 47 -19q18 -20 18 -55v-901h127q31 0 48 -16q18 -16 18 -47q0 -29 -18 -45q-19 -17 -48 -17h-129v-245q0 -33 -17 -50q-18 -18 -48 -18t-50 18t-20 50v245h-559q-70 0 -70 62zM229 438h463v738z" />
<glyph unicode="5" horiz-adv-x="1134" d="M145 270q0 27 19 48q18 20 47 20q30 0 53 -29q28 -55 67 -98q35 -37 77 -61q43 -24 85 -31q46 -8 87 -8q68 0 126 24q56 23 100 70q41 44 65 107t24 137q0 63 -22 126q-22 62 -61 104q-43 46 -96 70q-56 25 -126 25q-88 0 -155 -31q-62 -29 -124 -94q-16 -16 -26 -24 q-16 -13 -41 -13q-58 0 -56 72l27 657q2 68 64 68h614q30 0 47 -17q18 -18 18 -46q0 -30 -18 -48t-47 -18h-549l-22 -485q44 48 117 78q76 32 163 32q94 0 172 -30q75 -29 135 -89q57 -58 89 -140q32 -84 32 -187q0 -111 -36 -199q-35 -87 -97 -150q-61 -63 -143 -97 q-79 -33 -174 -33q-118 0 -198 35q-81 36 -135 83q-53 47 -77 97q-25 52 -25 75z" />
<glyph unicode="6" horiz-adv-x="1163" d="M125 555q0 187 50 349q49 160 144 279q94 118 228 184q136 67 297 67q34 0 67 -13q31 -12 31 -55q0 -61 -78 -61q-255 -6 -404 -156q-150 -151 -196 -473q18 45 54 84q34 37 82 68q45 29 101 46t111 17q96 0 175 -33q80 -33 136 -92q58 -61 87 -141q30 -83 30 -181 q0 -101 -36 -183q-36 -83 -99 -147q-62 -64 -143 -99q-80 -35 -174 -35q-104 0 -186 36q-83 36 -146 110q-62 72 -96 180q-35 110 -35 249zM270 438q0 -67 24 -127q24 -61 66 -104q44 -46 102 -71q57 -25 126 -25q66 0 123 24q55 23 100 68t68 103q24 60 24 134 q0 144 -84 234t-231 90q-65 0 -123 -26q-56 -25 -100 -69q-43 -43 -69 -104t-26 -127z" />
<glyph unicode="7" horiz-adv-x="931" d="M63 1350q0 27 19 46q17 17 47 17h684q34 0 54 -13q22 -14 22 -46q0 -13 -5 -30q-1 -4 -14 -32l-598 -1235q-17 -34 -32 -45q-16 -12 -37 -12q-27 0 -47 17q-21 18 -21 49q0 12 6 24q9 18 13 29l569 1169h-592q-28 0 -48 17t-20 45z" />
<glyph unicode="8" horiz-adv-x="1122" d="M115 408q0 130 78 231q78 100 194 145q-95 45 -141 127q-47 83 -47 172q0 75 26 136q27 63 75 111q49 49 115 76q68 28 146 28q79 0 147 -28q65 -27 113 -76q47 -49 74 -111q27 -63 27 -136q0 -94 -49 -174q-47 -77 -140 -127q122 -39 198 -139q77 -101 77 -235 q0 -92 -33 -170q-34 -80 -93 -136t-144 -90q-80 -32 -181 -32q-100 0 -180 32q-81 32 -140 90t-91 136q-31 77 -31 170zM256 418q0 -64 23 -122q23 -57 62 -98q42 -43 96 -66q55 -23 122 -23q69 0 124 23q56 24 97 66q43 44 64 98q22 56 22 122t-21 121q-20 53 -62 95 q-40 40 -96 62q-58 23 -126 23q-66 0 -124 -23q-56 -22 -96 -62q-39 -40 -62 -95q-23 -57 -23 -121zM336 1075q0 -48 16 -89q16 -42 47 -74q29 -30 72 -51q39 -19 90 -19q49 0 88 19q41 20 71 51q29 31 46 75q16 42 16 90q0 49 -16 88q-18 43 -45 72q-28 29 -70 48 q-41 18 -90 18q-103 0 -164 -66q-61 -65 -61 -162z" />
<glyph unicode="9" horiz-adv-x="1163" d="M121 973q0 101 37 185q39 88 99 147q62 61 144 95q81 34 174 34q102 0 186 -37q83 -36 146 -110t97 -180t34 -249q0 -188 -51 -349t-144 -279q-92 -117 -227 -184q-133 -66 -299 -66q-35 0 -65 12q-31 12 -31 55q0 62 76 62q258 6 411 161q155 156 189 467 q-18 -44 -53 -84q-32 -37 -81 -68q-45 -29 -100 -46q-56 -17 -110 -17q-91 0 -172 32q-80 32 -137 90q-57 59 -90 142q-33 84 -33 187zM260 973q0 -145 84 -233q84 -89 229 -89q65 0 123 26q60 27 101 68q42 42 68 103t26 127q0 67 -24 127q-24 61 -66 104q-44 46 -102 71 q-60 26 -126 26t-124 -26t-100 -71q-41 -44 -65 -104t-24 -129z" />
<glyph unicode=":" horiz-adv-x="559" d="M176 104q0 49 28 77t75 28q43 0 74 -29q30 -28 30 -76q0 -50 -29 -77q-28 -27 -75 -27t-75 28t-28 76zM176 901q0 49 28 77t75 28q43 0 74 -29q30 -28 30 -76q0 -51 -29 -78q-27 -26 -75 -26t-75 27q-28 28 -28 77z" />
<glyph unicode=";" horiz-adv-x="559" d="M127 -240q0 23 29 35q22 7 44 23q24 17 40 37q17 21 31 57q13 34 18 86q-59 4 -86 33t-27 71q0 53 29 80t74 27q49 0 79 -34q31 -36 31 -109q0 -87 -24 -150q-22 -58 -60 -106q-33 -42 -74 -64q-37 -20 -65 -20q-39 0 -39 34zM176 901q0 49 28 77t75 28q43 0 74 -29 q30 -28 30 -76q0 -51 -29 -78q-27 -26 -75 -26t-75 27q-28 28 -28 77z" />
<glyph unicode="&#x3c;" d="M317 651q0 19 10 32q9 12 25 22l484 294l24 12q13 5 27 5q19 0 38 -16q17 -14 17 -42t-39 -55l-426 -252l426 -252q39 -22 39 -53q0 -23 -16 -40t-39 -17q-25 0 -51 16l-484 293q-15 9 -25 23q-10 13 -10 30z" />
<glyph unicode="=" d="M270 473q0 25 17 40t43 15h626q26 0 43 -15t17 -40q0 -24 -17 -41q-16 -16 -43 -16h-626q-27 0 -43 16q-17 17 -17 41zM270 825q0 24 17 41t43 17h626q26 0 43 -17t17 -41q0 -25 -17 -40t-43 -15h-626q-26 0 -43 15t-17 40z" />
<glyph unicode="&#x3e;" d="M344 346q0 31 39 53l426 252l-426 252q-39 27 -39 55t17 42q19 16 38 16q14 0 27 -5q4 -2 25 -12l483 -294q16 -10 25 -22q10 -13 10 -32q0 -17 -10 -30q-10 -14 -25 -23l-483 -293q-26 -16 -52 -16q-23 0 -39 17t-16 40z" />
<glyph unicode="?" horiz-adv-x="1067" d="M145 1171q0 30 13 56q14 29 26 45q50 64 135 113q86 49 205 49q176 0 277 -95q100 -94 100 -249q0 -82 -27 -145q-26 -61 -73 -108q-44 -44 -111 -79q-60 -31 -139 -53v-240q0 -30 -17 -47q-19 -19 -51 -19t-49 19q-16 17 -16 47v278q0 34 18 52t47 24q136 29 205 96 q70 68 70 172q0 87 -61 151q-59 62 -173 62q-132 0 -217 -102q-19 -22 -47 -59q-21 -29 -51 -29q-29 0 -46 16q-18 16 -18 45zM379 104q0 50 29 77q30 28 75 28q47 0 75 -28t28 -77q0 -48 -28 -76t-75 -28q-45 0 -75 28q-29 27 -29 76z" />
<glyph unicode="@" horiz-adv-x="1617" d="M115 463q0 149 48 280q48 130 140 230q90 97 225 155q136 58 303 58q150 0 273 -48t212 -134q88 -85 138 -206q49 -119 49 -263q0 -113 -25 -191q-25 -79 -68 -131q-43 -53 -96 -76q-54 -24 -112 -24q-53 0 -89 15q-34 14 -59 39q-23 23 -35 53q-9 23 -15 59 q-30 -77 -95 -122q-64 -44 -143 -44q-69 0 -124 26t-96 73q-40 46 -63 111q-22 63 -22 138q0 80 24 143q24 64 67 108t96 68q56 25 114 25q78 0 136 -36t93 -114v82q0 51 53 51q25 0 40 -12q16 -13 16 -37v-387q0 -60 28 -94q29 -35 82 -35q32 0 65 19q32 18 56 54 q26 39 40 88q15 53 15 122q0 115 -31 215t-100 180q-69 79 -172 125q-106 47 -249 47q-147 0 -257 -49q-114 -51 -189 -132q-77 -83 -116 -193q-39 -109 -39 -232q0 -119 41 -231q40 -110 116 -195q75 -84 182 -133t243 -49q84 0 130 13q44 12 93 32q27 14 47 14 q23 0 35 -16q13 -18 13 -35q0 -33 -31 -55q-34 -22 -112 -45t-189 -23q-162 0 -287 59q-128 60 -216 159q-90 101 -136 229q-47 132 -47 272zM588 459q0 -101 58 -165q59 -65 145 -65t143 65q57 64 57 163q0 101 -56 166t-144 65q-90 0 -146 -65q-57 -66 -57 -164z" />
<glyph unicode="A" horiz-adv-x="1388" d="M84 61q0 15 6 33q5 16 29 68l489 1177q17 36 36 55t50 19q59 0 88 -74l490 -1177q20 -42 28 -67q7 -23 7 -29q0 -31 -23 -49q-21 -17 -51 -17q-32 0 -49 20q-19 22 -41 82l-113 281h-680l-135 -336q-11 -29 -26 -38t-37 -9q-28 0 -48 16t-20 45zM399 502h582l-289 719z " />
<glyph unicode="B" horiz-adv-x="1265" d="M180 70v1276q0 67 70 67h434q102 0 180 -29q75 -28 125 -75q49 -46 72 -109q22 -60 22 -129q0 -122 -59 -197q-58 -75 -133 -108q116 -33 188 -120t72 -224q0 -95 -32 -174q-31 -77 -90 -133q-58 -55 -142 -85t-189 -30h-448q-70 0 -70 70zM322 125h383q135 0 220 76 t85 223q0 122 -79 194t-233 72h-376v-565zM322 809h395q55 0 96 21q40 21 70 57q27 33 43 77q14 39 14 85q0 49 -15 92q-14 41 -46 76q-29 32 -77 52q-45 19 -110 19h-370v-479z" />
<glyph unicode="C" horiz-adv-x="1415" d="M115 709q0 165 49 297q50 134 135 228t205 147t260 53q99 0 183 -26q87 -27 146 -62q62 -37 107 -79q48 -45 70 -75q41 -58 41 -96q0 -34 -22 -50t-44 -16q-36 0 -57 29q-28 42 -73 87q-41 42 -94 76q-48 32 -117 54q-61 20 -140 20q-118 0 -210 -46q-96 -48 -160 -125 q-68 -81 -101 -186q-35 -110 -35 -230q0 -123 36 -231q36 -107 102 -187t162 -127t214 -47q136 0 238 60t176 167q24 33 53 33q27 0 45 -20q19 -21 19 -46q0 -10 -5 -27t-16 -32q-23 -33 -64 -79q-38 -42 -106 -89q-64 -44 -149 -74t-199 -30q-143 0 -260 52 q-120 53 -205 147q-85 93 -135 231q-49 134 -49 299z" />
<glyph unicode="D" horiz-adv-x="1394" d="M180 68v1278q0 67 72 67h410q145 0 258 -52q115 -53 194 -144q78 -90 123 -221q43 -126 43 -279q0 -146 -44 -278q-42 -126 -124 -228q-78 -97 -194 -155q-112 -56 -256 -56h-412q-70 0 -70 68zM322 125h331q111 0 201 45q89 45 153 125q60 76 96 188q34 106 34 234 q0 125 -34 228q-35 105 -97 181q-61 74 -155 119q-90 43 -208 43h-321v-1163z" />
<glyph unicode="E" horiz-adv-x="1181" d="M180 70v1273q0 31 20 51q19 19 52 19h780q30 0 47 -16q19 -17 19 -45q0 -27 -19 -46q-18 -18 -47 -18h-710v-502h491q29 0 48 -16q20 -17 20 -45t-20 -45q-19 -16 -48 -16h-491v-539h710q30 0 47 -17q19 -19 19 -47t-19 -45q-17 -16 -47 -16h-782q-33 0 -51 19 q-19 21 -19 51z" />
<glyph unicode="F" horiz-adv-x="1146" d="M180 68v1278q0 31 21 49t51 18h758q29 0 46 -16t17 -45t-17 -46q-18 -18 -46 -18h-688v-528h473q28 0 47 -17q18 -17 18 -45t-18 -45q-17 -16 -47 -16h-473v-569q0 -28 -19 -49q-18 -19 -53 -19q-33 0 -51 19q-19 21 -19 49z" />
<glyph unicode="G" horiz-adv-x="1472" d="M115 705q0 165 50 300q50 134 137 229q87 94 206 147q120 53 258 53q328 0 508 -248q24 -30 32 -49q9 -21 9 -37q0 -30 -19 -49t-45 -19q-17 0 -34 9t-41 42q-80 113 -178 163t-230 50q-120 0 -213 -46q-96 -47 -161 -127q-67 -83 -101 -188q-35 -110 -35 -230 q0 -125 37 -230q38 -108 103 -186q66 -79 161 -126q93 -46 211 -46q102 0 185 33q85 34 143 92q61 61 90 143t29 180v6h-340q-34 0 -52 18t-18 44q0 28 18 46q17 17 52 17h393q49 0 68 -30q20 -31 20 -86q0 -129 -40 -236t-117 -190q-75 -81 -187 -128q-110 -46 -250 -46 t-258 51q-119 51 -206 146q-85 92 -136 230q-49 132 -49 298z" />
<glyph unicode="H" horiz-adv-x="1447" d="M180 68v1278q0 28 20 48q19 19 50 19q33 0 52 -19q20 -20 20 -48v-555h804v555q0 28 20 48q19 19 52 19q31 0 50 -19q20 -20 20 -48v-1278q0 -29 -20 -49q-19 -19 -50 -19q-33 0 -52 19q-20 20 -20 49v598h-804v-598q0 -29 -20 -49q-19 -19 -52 -19q-31 0 -50 19 q-20 20 -20 49z" />
<glyph unicode="I" horiz-adv-x="501" d="M180 68v1278q0 28 20 48q19 19 50 19q33 0 52 -19q20 -20 20 -48v-1278q0 -29 -20 -49q-19 -19 -52 -19q-31 0 -50 19q-20 20 -20 49z" />
<glyph unicode="J" horiz-adv-x="1144" d="M84 313q0 34 24 52t48 18q37 0 61 -53q28 -54 44 -80q24 -39 60 -69q34 -29 85 -47q47 -17 118 -17q56 0 110 15q55 15 99 52q47 39 73 100q28 65 28 156v906q0 31 19 49t52 18q31 0 50 -18q20 -18 20 -49v-906q0 -120 -37 -206q-38 -88 -99 -143q-63 -57 -145 -84 t-172 -27q-96 0 -165 24q-65 23 -116 64q-49 40 -81 85q-35 49 -54 89q-22 44 -22 71z" />
<glyph unicode="K" horiz-adv-x="1241" d="M180 70v1273q0 31 20 51q19 19 50 19q33 0 52 -19q20 -20 20 -51v-688l647 729q23 29 57 29q29 0 48 -19q20 -20 20 -46q0 -16 -4 -28q-4 -14 -21 -30l-479 -534l536 -625q21 -27 25 -34q6 -12 6 -27q0 -35 -23 -52q-24 -18 -47 -18q-36 0 -61 31l-539 624l-165 -186 v-399q0 -31 -20 -51q-19 -19 -52 -19q-31 0 -50 19q-20 20 -20 51z" />
<glyph unicode="L" horiz-adv-x="1114" d="M180 70v1276q0 28 20 48q19 19 50 19q33 0 52 -19q20 -20 20 -48v-1221h659q32 0 50 -17q20 -18 20 -47q0 -28 -20 -45q-19 -16 -50 -16h-729q-33 0 -52 19q-20 20 -20 51z" />
<glyph unicode="M" horiz-adv-x="1685" d="M180 68v1271q0 35 20 55q19 19 54 19q30 0 48 -15q15 -13 38 -50l504 -883l506 883q19 35 39 51q17 14 45 14q32 0 52 -18q19 -18 19 -56v-1273q0 -30 -19 -49t-50 -19q-32 0 -51 19t-19 49v1064l-469 -819q-24 -43 -59 -43q-36 0 -60 45l-456 813v-1058q0 -32 -20 -50 t-52 -18q-30 0 -50 18t-20 50z" />
<glyph unicode="N" horiz-adv-x="1406" d="M180 68v1259q0 40 16 64q15 22 50 22q36 0 63 -35l778 -1102v1067q0 32 20 50q19 18 50 18t50 -18q20 -18 20 -50v-1275q0 -31 -16 -50q-15 -18 -48 -18q-39 0 -67 37l-774 1087v-1056q0 -32 -21 -50t-51 -18q-28 0 -49 18t-21 50z" />
<glyph unicode="O" horiz-adv-x="1533" d="M115 709q0 159 48 292t134 230q86 96 206 149q123 54 265 54q140 0 263 -54q120 -53 206 -149q86 -97 134 -230t48 -292t-48 -293q-48 -133 -134 -231q-84 -96 -206 -151q-120 -54 -263 -54q-145 0 -265 54q-122 55 -206 151q-86 98 -134 231q-48 134 -48 293zM258 709 q0 -123 36 -231q36 -109 101 -187q67 -81 161 -127q96 -47 212 -47q117 0 213 47q92 45 160 127q65 79 100 187q35 110 35 231q0 122 -36 230t-101 186t-160 125q-93 46 -211 46q-122 0 -215 -46q-95 -47 -160 -125q-66 -79 -100 -186q-35 -110 -35 -230z" />
<glyph unicode="P" horiz-adv-x="1226" d="M180 68v1278q0 28 20 48q19 19 50 19h403q236 0 358 -122t122 -339q0 -104 -33 -187t-96 -141q-62 -58 -154 -90q-91 -32 -205 -32h-323v-434q0 -29 -20 -49q-19 -19 -52 -19q-31 0 -50 19q-20 20 -20 49zM322 627h323q92 0 158 24q64 23 107 68t62 102q19 58 19 131 q0 160 -88 248t-262 88h-319v-661z" />
<glyph unicode="Q" horiz-adv-x="1533" d="M115 709q0 159 48 292t134 230q86 96 206 149q123 54 265 54q140 0 263 -54q120 -53 206 -149q86 -97 134 -230t48 -292q0 -172 -54 -313q-53 -138 -153 -238q34 -34 69 -49t71 -15q33 0 51 6t39 6q24 0 36 -16q11 -15 11 -35q0 -40 -43 -61q-44 -21 -103 -21 q-58 0 -113 26q-57 27 -108 85q-150 -104 -354 -104q-145 0 -265 54q-122 55 -206 151q-86 98 -134 231q-48 134 -48 293zM258 709q0 -123 36 -231q36 -109 101 -187q67 -81 161 -127q96 -47 212 -47q81 0 144 20q69 22 124 58q-44 47 -90 72q-47 26 -104 26q-32 0 -46 17 q-16 19 -16 38q0 28 18 46t54 18q68 0 135 -36q66 -35 133 -110q75 81 116 196q40 113 40 247q0 122 -36 230t-101 186t-160 125q-93 46 -211 46q-122 0 -215 -46q-95 -47 -160 -125q-66 -79 -100 -186q-35 -110 -35 -230z" />
<glyph unicode="R" horiz-adv-x="1236" d="M180 68v1275q0 31 21 51q20 19 51 19h385q231 0 350 -116t119 -314q0 -147 -81 -255q-80 -107 -247 -146l322 -443q19 -25 26 -43q7 -19 7 -33q0 -24 -20 -44q-19 -19 -52 -19q-43 0 -76 49l-360 516h-303v-497q0 -29 -20 -49q-19 -19 -52 -19q-31 0 -50 19 q-20 20 -20 49zM322 688h311q86 0 150 23t103 62t59 93t20 117q0 145 -87 225q-88 80 -249 80h-307v-600z" />
<glyph unicode="S" horiz-adv-x="1187" d="M94 266q0 34 24 51q25 17 44 17q30 0 59 -29q10 -13 57 -64q34 -37 77 -62q47 -27 108 -45q58 -17 145 -17q70 0 128 19q64 21 106 53q43 33 71 81q27 46 27 103q0 68 -26 115q-25 46 -76 79q-54 35 -126 58q-91 29 -173 49q-63 17 -131 42q-70 26 -128 69t-98 109 q-39 64 -39 159q0 86 36 155q38 72 97 120q65 52 144 78q86 28 176 28q73 0 133 -15q62 -15 106 -34q41 -17 79 -42q47 -31 57 -38q39 -27 39 -66q0 -31 -22 -50q-21 -18 -46 -18q-20 0 -36 7q-5 2 -14 7t-13 7q-18 11 -40 28q-14 11 -59 34q-34 18 -83 30q-48 12 -113 12 q-71 0 -125 -19q-56 -20 -93 -52q-40 -35 -58 -76q-19 -42 -19 -92q0 -63 29 -104q30 -42 82 -73q57 -34 125 -57q76 -25 157 -47q54 -14 138 -43q72 -24 129 -67q59 -44 96 -111q38 -68 38 -172q0 -81 -32 -151q-33 -72 -96 -129q-61 -55 -155 -90q-89 -33 -214 -33 q-101 0 -174 23q-77 24 -133 58q-59 36 -96 74q-34 35 -58 68q-12 14 -21 29q-10 17 -10 34z" />
<glyph unicode="T" horiz-adv-x="1239" d="M63 1352q0 28 19 45q17 16 47 16h981q30 0 47 -16q19 -17 19 -45q0 -27 -19 -46q-18 -18 -47 -18h-420v-1220q0 -30 -19 -49t-50 -19q-34 0 -53 19t-19 49v1220h-420q-29 0 -47 18q-19 19 -19 46z" />
<glyph unicode="U" horiz-adv-x="1423" d="M170 504v842q0 29 19 48t51 19q33 0 52 -19t19 -48v-828q0 -89 28 -167q26 -73 80 -127q53 -53 126 -80q74 -27 166 -27q186 0 294 109q107 108 107 300v820q0 28 20 48q19 19 50 19q33 0 51 -19q18 -20 18 -48v-836q0 -116 -39 -215q-39 -100 -109 -168 q-72 -70 -170 -109q-96 -38 -222 -38q-124 0 -222 38q-101 39 -171 108q-70 68 -109 165q-39 96 -39 213z" />
<glyph unicode="V" horiz-adv-x="1366" d="M84 1346q0 31 21 49t49 18q47 0 65 -49l467 -1145l469 1151q6 16 20 30q13 13 37 13q32 0 51 -15t19 -44q0 -10 -2 -22q-1 -8 -6 -19l-520 -1256q-10 -27 -26 -43q-14 -14 -44 -14t-45 14q-17 15 -27 43l-522 1254l-2 5q-1 6 -2 10q-2 12 -2 20z" />
<glyph unicode="W" horiz-adv-x="1841" d="M84 1352q0 22 18 42q18 19 54 19q28 0 43 -16q14 -16 22 -39l365 -1112l274 866q7 22 23 36q14 13 41 13t41 -13t22 -36l277 -866l360 1114q7 21 24 38q15 15 40 15q28 0 48 -16q21 -17 21 -45q0 -19 -8 -45l-426 -1256q-15 -51 -63 -51q-22 0 -39 12q-18 13 -25 39 l-279 860l-272 -860q-17 -51 -63 -51t-64 51l-426 1256q-8 24 -8 45z" />
<glyph unicode="X" horiz-adv-x="1302" d="M117 63q0 25 20 52l426 610l-411 580q-12 19 -14 25q-3 9 -3 20q0 21 17 43q16 20 49 20q23 0 37 -11q11 -9 28 -34l391 -545l381 547q16 22 30 33q13 10 36 10q26 0 46 -18q19 -18 19 -41q0 -16 -5 -29t-19 -33l-406 -583l426 -590q23 -29 23 -56q0 -24 -20 -44 q-19 -19 -48 -19q-24 0 -39 11t-32 36l-404 565l-401 -573q-17 -24 -32 -32q-14 -7 -30 -7q-29 0 -47 19q-18 20 -18 44z" />
<glyph unicode="Y" horiz-adv-x="1280" d="M84 1348q0 25 17 45t51 20q16 0 33 -7q18 -7 28 -28l428 -702l424 696q11 19 26 31q13 10 37 10q27 0 47 -17q21 -18 21 -44t-18 -54l-467 -757v-473q0 -29 -20 -49q-19 -19 -50 -19q-33 0 -52 19q-20 20 -20 49v473l-475 764q-10 20 -10 43z" />
<glyph unicode="Z" horiz-adv-x="1196" d="M104 59q0 24 19 54l784 1175h-684q-69 0 -69 64q0 29 19 45t50 16h803q66 0 66 -57q0 -29 -25 -70l-774 -1161h717q34 0 51 -17q18 -18 18 -47t-18 -45q-17 -16 -51 -16h-840q-30 0 -47 16q-19 17 -19 43z" />
<glyph unicode="[" horiz-adv-x="630" d="M176 -295v1737q0 23 15 38t40 15h310q25 0 41 -15t16 -44q0 -27 -16 -43q-17 -17 -39 -17h-228v-1605h226q23 0 41 -16q16 -15 16 -44q0 -27 -16 -43t-41 -16h-310q-25 0 -40 15t-15 38z" />
<glyph unicode="\" horiz-adv-x="819" d="M33 1348q0 31 20 48t49 17q39 0 66 -51l606 -1253q12 -22 12 -43q0 -32 -20 -49t-45 -17q-24 0 -39 11q-17 13 -33 44l-602 1245q-14 27 -14 48z" />
<glyph unicode="]" horiz-adv-x="630" d="M33 1436q0 29 16 44t41 15h309q26 0 41 -15t15 -38v-1737q0 -23 -15 -38t-39 -15h-311q-23 0 -39 16t-16 43q0 29 16 44q18 16 41 16h223v1605h-227q-22 0 -39 17q-16 16 -16 43z" />
<glyph unicode="^" horiz-adv-x="1024" d="M164 766q0 23 16 49l285 580q18 39 55 39q19 0 32 -11q10 -8 21 -28l289 -580q17 -28 17 -49q0 -22 -16 -38q-15 -15 -40 -15q-33 0 -57 37l-246 518l-244 -518q-22 -37 -57 -37q-25 0 -40 15t-15 38z" />
<glyph unicode="_" horiz-adv-x="1185" d="M135 -55q0 55 58 55h800q58 0 58 -55q0 -54 -58 -54h-800q-58 0 -58 54z" />
<glyph unicode="`" horiz-adv-x="1024" d="M328 1393q0 31 21 50q20 19 48 19q26 0 46 -17q28 -24 38 -34l205 -194q19 -19 19 -39q0 -15 -14 -31q-13 -14 -32 -14q-12 0 -30 12l-273 192q-28 21 -28 56z" />
<glyph unicode="a" horiz-adv-x="1255" d="M94 506q0 118 37 214q38 99 101 168q63 68 152 110q86 40 187 40q143 0 235 -68q93 -69 146 -184v172q0 26 19 43t49 17t50 -17t20 -43v-729q0 -43 11 -73q12 -33 52 -33q47 0 47 -57q0 -66 -80 -66q-92 0 -128 51q-35 50 -40 129v60q-56 -119 -153 -189 q-98 -71 -234 -71q-103 0 -186 38q-87 39 -150 109q-63 69 -99 167t-36 212zM233 504q0 -87 27 -160q27 -74 74 -127t113 -83t147 -30q74 0 141 29q64 27 115 82q49 52 77 126q27 72 27 163t-26 163q-27 74 -75 130t-115 86q-66 30 -144 30q-85 0 -151 -30q-65 -29 -112 -86 q-47 -56 -72 -130q-26 -76 -26 -163z" />
<glyph unicode="b" horiz-adv-x="1245" d="M156 66v1282q0 30 20 47q21 18 49 18q29 0 48 -18q20 -18 20 -47v-564q49 111 144 183q93 71 237 71q107 0 194 -40q89 -41 151 -110q62 -70 97 -168q35 -99 35 -212q0 -116 -37 -211q-39 -99 -101 -167q-65 -70 -153 -111q-85 -39 -192 -39q-131 0 -230 66 q-98 65 -145 181v-161q0 -28 -18 -47t-52 -19q-35 0 -51 19t-16 47zM293 508q0 -89 26 -160q27 -73 74 -128t114 -85q68 -31 144 -31q79 0 146 32q64 31 112 86q47 55 74 128t27 158q0 86 -27 160q-27 72 -74 129t-112 86q-66 30 -146 30q-78 0 -144 -30q-68 -31 -114 -86 q-47 -57 -74 -129q-26 -71 -26 -160z" />
<glyph unicode="c" horiz-adv-x="1081" d="M94 508q0 114 37 209q39 99 102 168q65 71 156 112t195 41q73 0 130 -16q56 -16 104 -42q47 -26 82 -58q37 -34 61 -64q9 -10 25 -38q11 -19 11 -42q0 -28 -18 -45q-17 -16 -41 -16q-20 0 -32 9q-8 6 -21 19q-13 19 -37 48q-22 26 -62 55q-37 27 -86 46q-48 19 -112 19 q-79 0 -144 -31t-112 -87q-48 -58 -73 -129q-26 -75 -26 -158q0 -85 26 -160q26 -74 72 -128q49 -56 110 -85q67 -31 145 -31q91 0 163 42q71 42 128 112q25 25 51 25q23 0 41 -15t18 -45t-18 -51q-56 -78 -155 -136q-96 -56 -230 -56q-112 0 -199 39q-91 41 -155 111 t-100 168t-36 210z" />
<glyph unicode="d" horiz-adv-x="1245" d="M94 506q0 117 37 215q38 100 101 169q64 70 153 109q88 39 188 39q143 0 235 -69q90 -68 144 -183v562q0 29 21 47t49 18t48 -18t20 -47v-1280q0 -35 -20 -52q-19 -16 -50 -16q-32 0 -50 18t-18 48v174q-60 -118 -154 -189q-93 -71 -231 -71q-100 0 -185 38 q-89 40 -151 108t-100 166q-37 96 -37 214zM233 506q0 -88 27 -162t74 -127t113 -83t147 -30q74 0 141 29q64 27 115 82q50 53 77 127q27 73 27 164q0 88 -27 163q-26 73 -76 129q-49 56 -114 85q-66 30 -143 30q-85 0 -151 -30q-65 -29 -112 -86q-47 -56 -72 -130 q-26 -76 -26 -161z" />
<glyph unicode="e" horiz-adv-x="1146" d="M94 504q0 113 38 212q37 96 104 169q66 72 154 112q90 41 194 41q101 0 184 -34t144 -95q62 -62 95 -137t33 -162q0 -50 -16 -81t-70 -31h-725q1 -85 29 -158q26 -70 74 -124q45 -51 113 -82q66 -30 151 -30q104 0 179 36q74 35 126 83q22 17 37 17q26 0 44 -21 q17 -20 17 -43q0 -15 -8 -31q-6 -12 -18 -24q-60 -57 -160 -99q-101 -42 -225 -42q-114 0 -202 39q-92 41 -156 111q-63 69 -100 166q-36 94 -36 208zM233 590h672q1 13 1 27q0 46 -16 91q-20 57 -65 103q-45 47 -104 74q-60 28 -137 28q-64 0 -122 -21t-106 -64 q-47 -43 -80 -102q-32 -59 -43 -136z" />
<glyph unicode="f" horiz-adv-x="716" d="M156 66v921q0 211 103 329t284 118q38 0 65 -3q25 -3 39 -8q30 -8 41 -25q12 -18 12 -36q0 -33 -17 -47q-18 -15 -42 -15q-16 0 -42 4q-20 3 -52 3q-134 0 -191 -76q-57 -77 -63 -221h231q28 0 45 -18q17 -19 17 -46t-17 -46q-16 -17 -45 -17h-231v-817q0 -30 -20 -48 q-19 -18 -48 -18q-31 0 -50 18t-19 48z" />
<glyph unicode="g" horiz-adv-x="1241" d="M94 506q0 115 38 214q38 98 102 168q63 68 152 110q86 40 185 40q147 0 237 -71q91 -71 144 -181v172q0 23 19 42q18 18 49 18q34 0 52 -18t18 -42v-878q0 -247 -121 -368q-122 -122 -351 -122q-108 0 -187 27t-140 61q-43 22 -43 62q0 27 16 44t41 17q22 0 48 -13 q10 -5 32.5 -15.5t33.5 -15.5q30 -14 89 -30q53 -14 119 -14q173 0 250 99q75 97 75 276v152q-61 -118 -155 -189q-95 -71 -232 -71q-101 0 -184 38q-88 40 -150 108t-100 166q-37 96 -37 214zM233 506q0 -86 28 -162q27 -73 76 -127q49 -53 114 -83q66 -30 141 -30t141 30 q64 29 115 83q50 53 77 127t27 162q0 91 -26 163q-27 75 -75 129q-49 55 -115 85t-144 30q-79 0 -145 -30t-113 -86q-48 -57 -74 -130q-27 -75 -27 -161z" />
<glyph unicode="h" horiz-adv-x="1148" d="M156 66v1282q0 29 18 47t51 18q31 0 49 -18q19 -19 19 -47v-510q39 86 119 144q77 56 200 56q98 0 170 -31q74 -31 123 -87q50 -56 74 -132q25 -80 25 -163v-559q0 -30 -21 -48t-49 -18t-48 18t-20 48v530q0 68 -18 126q-18 59 -55 100q-39 43 -92 67q-54 24 -123 24 q-70 0 -123 -24t-89 -68q-38 -46 -55 -102q-18 -60 -18 -127v-526q0 -30 -20 -48q-19 -18 -48 -18q-28 0 -49 18q-20 17 -20 48z" />
<glyph unicode="i" horiz-adv-x="456" d="M137 1300q0 40 23 65q22 24 63 24q42 0 66 -24t24 -65q0 -43 -24 -64q-25 -22 -66 -22q-37 0 -62 23q-24 23 -24 63zM156 215v737q0 29 18 47q19 19 51 19q30 0 49 -19t19 -47v-731q0 -45 12 -70q12 -26 51 -26q24 0 35 -17q12 -18 12 -40q0 -32 -19 -50q-20 -18 -60 -18 q-93 0 -130 55q-38 56 -38 160z" />
<glyph unicode="j" horiz-adv-x="446" d="M-104 -324q0 60 65 60q66 0 105 21q38 20 58 58q20 37 26 81q6 45 6 92v964q0 29 18 47q19 19 51 19q30 0 49 -19t19 -47v-991q0 -166 -77 -258t-236 -92q-42 0 -63 18t-21 47zM135 1300q0 41 24 65t64 24q41 0 65 -24q23 -23 23 -65q0 -43 -24 -64q-25 -22 -64 -22 t-64 23q-24 23 -24 63z" />
<glyph unicode="k" horiz-adv-x="1050" d="M156 66v1282q0 30 17 47q18 18 52 18q35 0 51 -18q17 -19 17 -47v-809l514 446q27 22 29 23q14 10 32 10q29 0 44 -20q16 -21 16 -42q0 -32 -33 -61l-369 -317l414 -461q8 -9 18 -25q9 -14 9 -29q0 -30 -22 -47q-20 -16 -46 -16q-28 0 -55 29l-416 465l-135 -117v-311 q0 -30 -18 -48t-50 -18q-34 0 -52 18q-17 17 -17 48z" />
<glyph unicode="l" horiz-adv-x="456" d="M156 215v1133q0 29 18 47t51 18q31 0 49 -18q19 -19 19 -47v-1127q0 -45 12 -70q12 -26 51 -26q24 0 35 -17q12 -18 12 -40q0 -32 -19 -50q-20 -18 -60 -18q-93 0 -130 55q-38 56 -38 160z" />
<glyph unicode="m" horiz-adv-x="1691" d="M156 66v886q0 30 17 47q19 19 52 19q28 0 48 -17t20 -45v-118q34 90 103 145q68 55 182 55q121 0 198 -59q78 -60 115 -164q39 102 110 162q71 61 189 61q176 0 266 -108t90 -285v-579q0 -30 -18 -48t-49 -18q-34 0 -52 18t-18 48v573q0 123 -63 199q-62 75 -181 75 q-118 0 -181 -75q-64 -76 -64 -199v-573q0 -29 -19 -48q-18 -18 -51 -18q-31 0 -49 18q-19 19 -19 48v573q0 123 -63 199q-62 75 -182 75q-114 0 -179 -75t-65 -199v-573q0 -29 -19 -48q-18 -18 -49 -18t-50 18t-19 48z" />
<glyph unicode="n" horiz-adv-x="1163" d="M156 66v892q0 24 17 41q19 19 52 19q34 0 51 -19t17 -41v-120q40 88 127 145q85 55 207 55q99 0 171 -30t122 -86q49 -55 73 -131q25 -80 25 -166v-559q0 -30 -20 -48t-50 -18q-29 0 -47 18t-18 48v530q0 140 -75 228q-75 89 -212 89q-73 0 -130 -24q-56 -23 -94 -68 q-39 -45 -59 -101t-20 -126v-528q0 -30 -20 -48q-19 -18 -48 -18q-28 0 -49 18q-20 17 -20 48z" />
<glyph unicode="o" horiz-adv-x="1181" d="M94 508q0 113 36 209q37 98 101 168q66 72 157 112q93 41 202 41t202 -41q90 -40 156 -112t102 -168q35 -93 35 -209q0 -115 -35 -210q-36 -98 -102 -168q-67 -72 -156 -111q-88 -39 -202 -39t-202 39q-91 40 -157 111q-64 69 -101 168q-36 98 -36 210zM236 508 q0 -85 24 -158q24 -72 70 -128t110 -86q67 -32 150 -32q81 0 149 31q64 29 112 85q47 55 71 128t24 158q0 86 -24 160q-24 73 -71 129q-46 55 -113 87q-65 31 -148 31q-85 0 -150 -31q-64 -30 -110 -86t-70 -128q-24 -74 -24 -160z" />
<glyph unicode="p" horiz-adv-x="1243" d="M156 -324v1282q0 24 17 41q19 19 52 19q35 0 51 -18q17 -19 17 -42v-172q52 108 146 180q95 72 235 72q103 0 189 -40q90 -42 151 -110q63 -70 99 -168q36 -97 36 -212t-36 -211q-36 -97 -99 -167t-152 -111q-85 -39 -192 -39q-135 0 -230 67q-96 67 -147 186v-557 q0 -28 -19 -47q-18 -18 -49 -18t-50 18t-19 47zM293 508q0 -89 26 -160q27 -73 74 -128t114 -85q68 -31 144 -31q80 0 146 30q65 30 112 84q48 56 73 128q26 75 26 162q0 85 -26 160q-25 71 -73 129q-47 56 -112 87t-146 31q-79 0 -144 -31q-68 -33 -114 -87 q-47 -57 -74 -129q-26 -71 -26 -160z" />
<glyph unicode="q" horiz-adv-x="1243" d="M94 506q0 112 36 210q36 97 99 169q62 70 151 112q88 41 189 41q142 0 238 -69t143 -183v172q0 24 18 42t50 18q27 0 49 -16q20 -14 20 -44v-1282q0 -29 -19 -47q-20 -18 -48 -18q-30 0 -50 18t-20 47v557q-60 -122 -155 -187q-96 -66 -232 -66q-100 0 -184 37 q-86 38 -150 108q-63 69 -99 167t-36 214zM233 506q0 -84 28 -160q26 -71 75 -128q46 -54 113 -84q66 -30 143 -30q75 0 141 30q65 30 114 83q49 54 76 127q27 74 27 162q0 91 -26 163q-27 75 -75 129q-49 56 -114 85q-66 30 -143 30q-79 0 -145 -30q-65 -30 -113 -85 q-47 -55 -74 -129q-27 -75 -27 -163z" />
<glyph unicode="r" horiz-adv-x="757" d="M156 66v890q0 26 17 43q19 19 48 19q32 0 49 -17t17 -45v-145q51 104 132 166q80 61 218 61q38 0 55 -16q19 -17 19 -43q0 -28 -17 -47t-51 -19q-156 0 -253 -97t-97 -273v-477q0 -30 -20 -48q-19 -18 -48 -18q-31 0 -50 18t-19 48z" />
<glyph unicode="s" horiz-adv-x="948" d="M96 190q0 22 18 42t42 20q13 0 27 -8q11 -6 24 -19q15 -18 43 -42t58 -40q35 -18 76 -30q46 -13 95 -13q105 0 168 45q64 46 64 127q0 60 -43 96q-40 33 -107 62q-56 24 -139 50q-73 23 -139 59q-64 35 -107 87t-43 136q0 61 27 112q28 53 73 89q44 35 111 56 q61 19 139 19q106 0 182 -36q77 -36 117 -82q23 -25 23 -52q0 -21 -14 -41t-41 -20q-10 0 -24 6q-12 5 -24 14q-32 32 -81 60q-54 31 -136 31q-33 0 -78 -9q-40 -8 -67 -25q-30 -19 -47 -47q-19 -32 -19 -73q0 -55 43 -89t107 -60q57 -23 138 -49q77 -25 138 -58 q63 -35 107 -86q43 -50 43 -133q0 -67 -27 -124q-28 -58 -75 -97q-50 -41 -119 -65q-66 -23 -156 -23q-122 0 -209 43t-147 116q-21 21 -21 51z" />
<glyph unicode="t" horiz-adv-x="737" d="M63 956q0 26 18 44t46 18h98v190q0 28 19 47t49 19t49 -19q18 -18 18 -47v-190h211q28 0 45 -17t17 -45t-17 -45q-16 -16 -45 -16h-211v-610q0 -98 31 -140q30 -41 96 -41q64 0 95 20q29 19 51 19q23 0 37 -17t14 -40q0 -37 -27 -55q-34 -27 -86 -39q-51 -12 -104 -12 q-67 0 -114 21q-45 20 -74 60t-41 92q-13 57 -13 113v629h-98q-29 0 -46 16q-18 17 -18 45z" />
<glyph unicode="u" horiz-adv-x="1105" d="M154 389v563q0 29 19 47q21 19 48 19t48 -19q20 -18 20 -47v-567q0 -123 67 -202t197 -79t197 79t67 202v567q0 29 21 47q22 19 49 19t48 -19q19 -18 19 -47v-563q0 -91 -26 -163q-26 -73 -77 -130q-50 -56 -125 -86t-173 -30q-99 0 -172 30q-74 30 -125 86 q-52 57 -77 130q-25 74 -25 163z" />
<glyph unicode="v" horiz-adv-x="1050" d="M66 954q0 29 20 46q21 18 49 18q29 0 42 -13q15 -15 20 -28l329 -778l328 774q7 17 22 32q13 13 35 13q32 0 54 -19q20 -17 20 -47q0 -8 -3 -17q-4 -12 -7 -17l-383 -869q-12 -24 -28 -37q-15 -12 -40 -12q-29 0 -44 12q-14 11 -25 39l-377 858q-2 4 -4.5 12t-3.5 11 q-4 11 -4 22z" />
<glyph unicode="w" horiz-adv-x="1474" d="M63 952q0 32 23 49t51 17q26 0 38 -11q15 -13 22 -34l278 -768l197 629q7 26 25 36q19 11 38 11q21 0 40 -11t26 -36l209 -629l270 766q17 47 59 47q30 0 52 -17q20 -16 20 -47q0 -13 -8 -39l-330 -866q-21 -49 -63 -49q-53 0 -68 49l-207 627l-198 -627q-7 -27 -27 -39 q-17 -10 -39 -10q-52 0 -68 49l-331 866q-9 27 -9 37z" />
<glyph unicode="x" horiz-adv-x="999" d="M90 59q0 21 16 47l300 408l-293 393q-19 29 -19 51t19 41t47 19q24 0 39 -12q7 -5 28 -31l281 -375l289 389q21 29 47 29q21 0 47 -16q24 -15 24 -44q0 -20 -14 -40l-317 -420l290 -387q21 -27 21 -50q0 -25 -18 -43t-48 -18q-21 0 -36 9q-12 7 -29 26l-281 377 l-270 -379q-11 -15 -24 -24t-33 -9q-25 0 -45 17q-21 18 -21 42z" />
<glyph unicode="y" horiz-adv-x="1011" d="M63 954q0 26 22 45t52 19q44 0 60 -43l305 -795l317 795q7 17 21 31q12 12 34 12q30 0 49 -18t19 -46q0 -9 -3 -21q-3 -13 -7 -18l-412 -1005q-34 -81 -64 -136t-72 -92q-41 -37 -92 -54q-50 -17 -126 -17q-84 0 -84 61q0 64 70 64q63 0 101 14q41 15 68 39q28 25 46 59 q14 27 34 76l37 94l-366 897q-4 11 -6 21q0 2 -1.5 8.5t-1.5 9.5z" />
<glyph unicode="z" horiz-adv-x="917" d="M76 63q0 24 22 56l566 774h-484q-30 0 -47 16q-18 17 -18 45t18 46t47 18h596q32 0 49 -17t17 -38q0 -18 -7 -32q-10 -20 -22 -38l-559 -768h518q64 0 64 -62q0 -63 -64 -63h-631q-65 0 -65 63z" />
<glyph unicode="{" horiz-adv-x="688" d="M98 573q0 28 16 50q14 20 52 20q50 0 77 30t27 93v299q0 93 15 173t49 136q35 57 95 89q61 32 151 32q39 0 57 -19q18 -20 18 -49t-18 -47t-49 -18q-97 0 -138 -73q-40 -71 -40 -226v-295q0 -74 -24 -121t-85 -74q61 -27 85 -73t24 -121v-297q0 -153 40 -224 q41 -73 138 -73q31 0 49 -18t18 -48q0 -29 -18 -48t-57 -19q-90 0 -151 32t-95 88t-49 135t-15 173v301q0 63 -27 93t-77 30q-37 0 -52 19q-16 21 -16 50z" />
<glyph unicode="|" horiz-adv-x="512" d="M186 -322v1909q0 31 20 49q21 19 50 19t50 -19q20 -18 20 -49v-1909q0 -31 -20 -49t-50 -18t-50 18t-20 49z" />
<glyph unicode="}" horiz-adv-x="688" d="M33 -281q0 30 19 48q20 18 50 18q96 0 137 73q40 71 40 224v297q0 75 24 121t86 73q-62 27 -86 74t-24 121v295q0 155 -40 226q-41 73 -137 73q-30 0 -50 18q-19 18 -19 47t18 49q18 19 60 19q88 0 149 -32q58 -30 95 -89q36 -57 51 -136q14 -74 14 -173v-299 q0 -63 27 -93t75 -30q38 0 52 -20q16 -22 16 -50q0 -29 -16 -50q-15 -19 -52 -19q-48 0 -75 -30t-27 -93v-301q0 -99 -14 -173q-15 -77 -51 -135q-36 -57 -95 -88q-61 -32 -149 -32q-42 0 -60 19t-18 48z" />
<glyph unicode="~" d="M307 643q0 24 17 49q29 40 76 69q48 30 120 30q48 0 82 -14q38 -15 61 -31q18 -12 54 -30q28 -14 63 -14q64 0 105 56q21 24 41 24q23 0 38 -16t15 -37q0 -23 -14 -43q-27 -41 -73 -73q-42 -29 -101 -29q-50 0 -82 14q-42 18 -64 31q-8 5 -17.5 10t-21.5 11l-18 9 q-28 15 -64 15q-46 0 -75 -18q-31 -20 -52 -42q-17 -18 -41 -18q-19 0 -33 13q-16 14 -16 34z" />
<glyph unicode="&#xa1;" horiz-adv-x="559" d="M176 934q0 50 29 77q28 27 76 27q47 0 74 -27q28 -28 28 -77t-28 -77t-74 -28t-76 28q-29 27 -29 77zM199 -291l18 862q0 30 16 47q17 19 46 19q27 0 43 -19q14 -17 16 -47l20 -864q5 -46 -13 -74t-64 -28q-47 0 -65 28q-17 27 -17 76z" />
<glyph unicode="&#xa2;" d="M205 508q0 102 29 188q30 88 84 157q53 67 128 115q71 45 162 62v160q0 30 21 50q22 20 49 20q29 0 51 -20q21 -19 21 -50v-156q116 -12 197 -65q76 -50 124 -111q14 -16 27 -38q12 -21 12 -42q0 -29 -19 -45t-42 -16q-19 0 -31 9q-16 12 -21 19q-19 26 -32 41 q-25 28 -52 50q-29 23 -71 45q-39 20 -92 28v-800q73 11 131 50q59 40 108 99q25 25 49 25q22 0 42 -15t20 -45t-21 -51q-52 -73 -135 -125q-85 -53 -194 -65v-156q0 -31 -21 -49q-22 -19 -51 -19q-27 0 -49 19q-21 18 -21 49v162q-96 16 -166 60q-75 48 -127 114 q-55 70 -82 155q-28 87 -28 191zM346 508q0 -147 71 -254q70 -106 191 -139v786q-60 -17 -107 -53q-50 -39 -83 -89q-35 -54 -53 -117q-19 -68 -19 -134z" />
<glyph unicode="&#xa3;" d="M145 63q0 29 22 46q20 16 56 16q58 0 109 19q50 19 96 58q44 38 69 93q25 54 25 127q0 12 -1 17t-1 18h-196q-27 0 -43 16q-17 17 -17 41t17 41q16 16 43 16h161q-25 57 -60 113q-34 54 -69 119q-31 57 -56 130q-24 69 -24 150q0 77 30 140q29 61 80 109q48 45 120 73 q69 27 149 27q100 0 178 -37q77 -36 123 -105q22 -33 37 -71q15 -39 15 -80q0 -76 -70 -76q-54 0 -66 63q-11 80 -62 125q-53 47 -163 47q-105 0 -166 -60t-61 -159q0 -79 25 -142q23 -57 61 -124q16 -27 73 -119q37 -60 60 -123h244q25 0 41 -16t16 -41t-16 -41t-41 -16 h-217v-23q0 -98 -55 -184q-54 -85 -165 -125h414q134 0 162 45q12 21 21 42q6 15 19 38q9 16 22 28q12 11 34 11q28 0 43 -18t15 -44q0 -47 -16 -90q-15 -41 -50 -71q-36 -31 -89 -49q-51 -17 -134 -17h-668q-32 0 -53 15t-21 48z" />
<glyph unicode="&#xa4;" d="M266 330q0 19 19 43l65 65q-59 88 -59 211q0 127 59 215l-63 66q-21 21 -21 41q0 21 16 40q14 17 42 17q21 0 41 -20l61 -62q45 35 96 53q55 19 117 19q126 0 217 -74l66 64q20 20 41 20q22 0 39 -16q18 -16 18 -41q0 -17 -19 -41l-71 -72q57 -92 57 -209t-57 -209 l71 -67q19 -24 19 -43q0 -20 -15 -38t-40 -18q-24 0 -43 19l-66 63q-89 -73 -217 -73q-65 0 -117 18q-51 18 -96 53l-61 -61q-19 -19 -43 -19q-20 0 -38 15t-18 41zM418 651q0 -106 57 -181t164 -75q106 0 164 73q57 72 57 179q0 55 -15 101q-14 44 -43 81q-28 35 -70 55 q-41 19 -93 19q-104 0 -163 -73q-58 -71 -58 -179z" />
<glyph unicode="&#xa5;" d="M88 1348q0 25 17 45t51 20q16 0 33 -7q18 -7 28 -28l428 -702l424 696q11 19 26 31q13 10 38 10q26 0 46 -17q21 -18 21 -44t-18 -54l-391 -632h215q24 0 41 -17q16 -16 16 -41q0 -23 -16 -40t-41 -17h-285l-6 -10v-197h291q25 0 41 -16t16 -41t-16 -41q-17 -17 -41 -17 h-291v-161q0 -29 -20 -49q-19 -19 -50 -19q-33 0 -51 19q-19 21 -19 49v161h-288q-24 0 -41 17t-17 41t17 41q16 16 43 16h286v197l-6 10h-282q-25 0 -41 17q-17 19 -17 40q0 24 17 41t43 17h209l-400 639q-10 20 -10 43z" />
<glyph unicode="&#xa6;" horiz-adv-x="512" d="M186 -322v680q0 32 20 50t50 18t50 -18t20 -50v-680q0 -31 -20 -49t-50 -18t-50 18t-20 49zM186 907v680q0 31 20 49q21 19 50 19t50 -19q20 -18 20 -49v-680q0 -31 -20 -49t-50 -18t-50 18t-20 49z" />
<glyph unicode="&#xa7;" horiz-adv-x="962" d="M104 190q0 22 18 42t42 20q13 0 27 -8q11 -6 24 -19q15 -18 43 -42t58 -40q34 -18 75 -30q44 -13 94 -13q107 0 170 45q64 46 64 127q0 60 -43 96q-42 35 -107 61q-68 27 -139 47q-77 21 -139 55q-65 36 -107 86q-43 52 -43 137q0 69 33 118q32 48 86 82q-53 34 -86 81 q-33 48 -33 122q0 62 27 113q26 49 74 88q44 36 110 56q65 20 140 20q104 0 181 -36q78 -37 118 -81q22 -23 22 -53q0 -20 -14 -40q-16 -22 -41 -22q-10 0 -24 6q-11 5 -25 17q-29 27 -81 57q-54 31 -136 31q-37 0 -77 -8q-37 -7 -68 -26t-48 -47q-18 -30 -18 -73 q0 -57 43 -91q41 -33 106 -59q68 -27 139 -47q76 -21 140 -56q62 -34 106 -84q43 -49 43 -132q0 -68 -28 -122q-27 -52 -78 -91q46 -33 76 -79q30 -47 30 -111q0 -65 -27 -122q-28 -58 -75 -97q-50 -41 -119 -65q-66 -23 -156 -23q-122 0 -209 43t-147 116q-21 21 -21 51z M270 764q0 -51 36 -84t91 -57q58 -25 122 -44q65 -19 130 -47q35 21 58 52q22 29 22 84q0 52 -34 86q-36 36 -86 59q-58 26 -116 44q-59 18 -126 44q-39 -17 -68 -47q-29 -31 -29 -90z" />
<glyph unicode="&#xa8;" horiz-adv-x="1024" d="M274 1300q0 84 82 84q37 0 61 -21q23 -20 23 -63q0 -81 -84 -81q-82 0 -82 81zM584 1300q0 84 82 84q35 0 59 -21q25 -22 25 -63q0 -40 -23 -61q-21 -20 -61 -20q-82 0 -82 81z" />
<glyph unicode="&#xa9;" horiz-adv-x="1581" d="M84 694q0 160 51 295t145 232q93 96 223 150q131 54 285 54q157 0 285 -52q131 -53 222 -146q94 -96 145 -226q51 -131 51 -288q0 -163 -51 -296t-145 -232q-92 -97 -222 -151q-129 -54 -285 -54t-285 52q-131 53 -223 146q-95 96 -145 226q-51 132 -51 290zM195 696 q0 -130 43 -240q45 -116 121 -193q78 -80 188 -127q107 -46 241 -46q133 0 240 46q109 47 187 128q78 80 122 197q43 113 43 252q0 130 -43 238q-44 111 -122 192t-187 128q-107 46 -240 46q-134 0 -241 -46q-111 -48 -188 -128q-77 -79 -121 -196q-43 -113 -43 -251z M395 696q0 100 30 183q29 80 83 140q52 58 127 90t162 32q63 0 117 -17t92 -39t65 -49t39 -45q23 -29 23 -61q0 -28 -19 -42t-37 -14q-25 0 -43 21q-41 54 -96 92q-56 39 -141 39q-64 0 -117 -25q-50 -24 -88 -69q-35 -42 -56 -106q-20 -62 -20 -130t20 -130q20 -63 56 -104 q39 -45 90 -70t121 -25q80 0 133 33q54 33 100 92q16 22 41 22q23 0 37 -17t14 -38q0 -12 -4 -23q-5 -13 -14 -26q-21 -27 -42 -49q-28 -30 -64 -52q-40 -24 -91 -41q-49 -16 -116 -16q-87 0 -162 32t-127 90q-54 60 -83 140q-30 83 -30 182z" />
<glyph unicode="&#xaa;" horiz-adv-x="870" d="M61 1053q0 80 26 149q25 67 71 117q45 49 104 76q58 26 127 26q91 0 152 -44q59 -43 94 -117v94q0 25 17 39t46 14q30 0 45 -14q17 -15 17 -39v-471q0 -27 8 -49q8 -21 33 -21q37 0 37 -51q0 -62 -76 -62q-66 0 -94 37q-30 39 -31 88v33q-39 -80 -102 -125 q-67 -47 -156 -47q-65 0 -124 27q-58 27 -101 74q-44 49 -68 116q-25 70 -25 150zM188 1051q0 -110 64 -182q63 -70 162 -70q94 0 158 68q65 70 65 182q0 115 -63 187q-64 73 -160 73q-105 0 -165 -74q-61 -75 -61 -184z" />
<glyph unicode="&#xab;" horiz-adv-x="1175" d="M88 510q0 27 25 49l417 336q20 16 45 16q23 0 39 -16q17 -17 17 -39q0 -27 -25 -49l-377 -293l375 -301q27 -21 27 -49q0 -21 -16 -39q-15 -16 -37 -16q-13 0 -25 5q-7 3 -21 11l-419 336q-25 22 -25 49zM543 510q0 28 24 49l418 336q20 16 45 16q23 0 39 -16t16 -39 q0 -28 -24 -49l-377 -293l375 -301q26 -20 26 -49q0 -22 -15 -39q-15 -16 -38 -16q-12 0 -24 5q-7 3 -21 11l-420 336q-24 21 -24 49z" />
<glyph unicode="&#xac;" d="M268 825q0 24 17 41t45 17h631q24 0 39 -17q16 -18 16 -41v-348q0 -27 -16 -45q-15 -16 -39 -16q-25 0 -40 16q-16 18 -16 45v293h-575q-28 0 -45 15t-17 40z" />
<glyph unicode="&#xad;" horiz-adv-x="843" />
<glyph unicode="&#xae;" horiz-adv-x="1329" d="M82 834q0 132 43 240q45 112 121 190q80 82 184 124q108 44 236 44q127 0 236 -44q106 -43 185 -123q77 -78 121 -188q43 -107 43 -239q0 -133 -43 -241q-44 -110 -121 -189q-80 -82 -185 -124q-109 -44 -236 -44q-128 0 -236 44q-106 43 -184 123q-77 79 -121 187 q-43 107 -43 240zM184 834q0 -106 35 -197t98 -157t153 -104t198 -38t195 37q93 40 153 102q64 67 98 158q35 93 35 203q0 102 -35 195q-34 91 -99 157q-63 64 -154 103q-90 38 -195 38q-110 0 -197 -37q-92 -39 -152 -102q-64 -67 -98 -157q-35 -93 -35 -201zM436 571v537 q0 25 17 40t41 15h188q116 0 181 -57t65 -152q0 -66 -36 -116q-36 -49 -106 -72l123 -143q19 -17 23 -30q4 -12 4 -28q0 -18 -14 -33q-15 -16 -43 -16q-33 0 -60 33l-157 199h-113v-177q0 -26 -15 -41q-14 -14 -40 -14q-58 0 -58 55zM549 846h131q65 0 99 28t34 80 q0 54 -37 82q-38 29 -98 29h-129v-219z" />
<glyph unicode="&#xaf;" horiz-adv-x="1024" d="M244 1335q0 27 16 44q16 18 43 18h418q27 0 43 -18q16 -17 16 -44q0 -25 -16 -42t-43 -17h-418q-27 0 -43 17t-16 42z" />
<glyph unicode="&#xb0;" horiz-adv-x="798" d="M125 1118q0 66 20 119q21 55 57 94t86 62q48 22 109 22q64 0 112 -22q49 -22 87 -62q35 -37 57 -94q21 -55 21 -119q0 -66 -21 -120q-22 -56 -57 -94q-36 -39 -87 -62t-112 -23q-58 0 -109 23q-52 24 -86 62q-36 41 -57 94q-20 51 -20 120zM225 1118q0 -32 11 -70 q11 -39 31 -64q20 -26 55 -45q31 -17 75 -17q47 0 78 17q33 18 54 45t32 64q10 34 10 70q0 35 -10 68t-32 63q-20 28 -54 46q-33 18 -78 18q-42 0 -75 -18q-35 -19 -55 -46t-31 -63t-11 -68z" />
<glyph unicode="&#xb1;" d="M270 57q0 22 17 39t43 17h626q26 0 43 -17t17 -41q0 -25 -17 -40t-43 -15h-626q-27 0 -43 16q-17 17 -17 41zM270 651q0 25 17 40q18 16 43 16h258v247q0 26 15 43t40 17q24 0 41 -17q16 -16 16 -43v-247h256q25 0 43 -16q17 -15 17 -40q0 -24 -17 -41q-16 -16 -43 -16 h-258v-250q0 -26 -15 -43q-15 -16 -40 -16t-40 16t-15 43v252h-258q-26 0 -43 15t-17 40z" />
<glyph unicode="&#xb2;" horiz-adv-x="675" d="M96 754q0 31 23 49l239 225q75 71 103 116q28 46 28 89q0 41 -32 67q-33 27 -97 27q-54 0 -89 -18q-33 -17 -52 -47q-25 -31 -55 -31q-22 1 -39 14q-16 12 -16 41q0 21 16 47q17 28 49 48q36 23 80 37q50 16 108 16q108 0 178 -52q68 -50 68 -147q0 -62 -38 -123 t-113 -127l-191 -178h303q60 0 60 -53q0 -52 -60 -52h-413q-18 0 -39 12t-21 40z" />
<glyph unicode="&#xb3;" horiz-adv-x="675" d="M84 801q0 23 17 37t42 14q17 0 31 -10q66 -45 156 -45q79 0 126 32q48 33 48 89q0 53 -40 84q-41 32 -118 32h-39q-23 0 -41 15t-18 36q0 24 18 36t47 12h29q62 0 96 28q35 29 35 70q0 47 -40 74q-39 26 -95 26q-50 0 -80 -11q-33 -12 -63 -30q-3 -1 -9 -3.5t-8 -3.5 q-6 -3 -16 -3q-21 0 -36 12t-15 35q0 28 28 49q19 15 71 37q50 21 130 21q114 0 185 -54q69 -52 69 -129q0 -53 -32 -94t-97 -63q82 -16 120 -67q38 -50 38 -107q0 -51 -23 -94q-22 -42 -60 -72q-39 -31 -90 -47q-54 -17 -114 -17q-70 0 -128 16q-55 15 -95 48 q-29 18 -29 47z" />
<glyph unicode="&#xb4;" horiz-adv-x="1024" d="M328 1178q0 21 18 39l205 194q10 10 38 34q20 17 44 17q27 0 49 -19q23 -20 23 -50q0 -34 -31 -56l-273 -192q-17 -12 -28 -12q-22 0 -33 14q-12 15 -12 31z" />
<glyph unicode="&#xb5;" horiz-adv-x="1126" d="M158 -260v1155q0 26 1 40q2 25 8 40q9 21 21 31q15 12 39 12q35 0 52 -18q16 -17 16 -42v-573q0 -122 68 -202q67 -79 196 -79q123 0 192 76q67 75 72 195v512q0 12 2 44q1 20 10 43q8 22 20 32q13 12 38 12q23 0 36 -12q12 -10 20 -32q8 -20 9 -43q0 -4 1.5 -20t1.5 -24 v-666q0 -45 12 -70q12 -26 51 -26q24 0 35 -17q12 -18 12 -40q0 -32 -19 -50q-20 -18 -59 -18q-89 0 -119 45q-29 44 -34 111q-89 -176 -281 -176q-97 0 -164 42t-100 115v-405q0 -12 -2 -40q-2 -22 -9 -40q-8 -18 -21 -30q-12 -11 -36 -11q-25 0 -38 12q-12 10 -20 32 q-7 19 -9 42q-2 30 -2 43z" />
<glyph unicode="&#xb6;" horiz-adv-x="983" d="M63 1065q0 73 27 136q26 61 74 109q43 43 115 72q67 27 147 27h328q24 0 38 -14q15 -15 15 -39v-1301q0 -25 -15 -40t-38 -15t-38 15q-16 16 -16 40v1245h-84v-1245q0 -25 -15 -40t-40 -15q-22 0 -37 15q-14 14 -14 40v672h-84q-72 0 -139 23t-115 65t-79 107 q-30 63 -30 143z" />
<glyph unicode="&#xb7;" horiz-adv-x="1024" d="M348 725q0 46 25 71q23 23 67 23q42 0 67 -24t25 -70q0 -48 -25 -69t-67 -21q-41 0 -66 22q-26 23 -26 68z" />
<glyph unicode="&#xb8;" horiz-adv-x="1024" d="M367 -389q0 24 16 36q15 11 39 11q60 0 88 25q27 24 27 63q0 40 -25 59t-70 25q-19 1 -29 10q-10 8 -10 31v129h97v-84q57 -11 102 -47q47 -38 47 -115q0 -52 -18 -90q-17 -35 -48 -60q-28 -23 -67 -35q-34 -11 -72 -11q-45 0 -61 13t-16 40z" />
<glyph unicode="&#xb9;" horiz-adv-x="675" d="M117 1214q0 25 20 41l203 148q16 14 30 17q12 3 19 3q60 0 60 -53v-614q0 -23 -17 -38q-18 -16 -43 -16q-23 0 -39 15t-16 39v506l-119 -86q-23 -15 -45 -15t-38 16q-15 15 -15 37z" />
<glyph unicode="&#xba;" horiz-adv-x="821" d="M61 1053q0 76 26 145q25 68 72 117q47 50 110 78t143 28q77 0 140 -28q65 -29 110 -78q44 -49 70 -117q26 -69 26 -145q0 -78 -26 -145q-26 -66 -70 -115q-45 -49 -110 -78q-66 -29 -140 -29q-77 0 -143 29q-63 28 -110 78t-72 115q-26 67 -26 145zM190 1055 q0 -106 58 -182q56 -74 164 -74q104 0 161 73q58 75 58 179q0 50 -16 100q-15 46 -43 82q-26 33 -68 55q-41 21 -92 21q-107 0 -164 -74q-58 -75 -58 -180z" />
<glyph unicode="&#xbb;" horiz-adv-x="1175" d="M88 164q0 28 27 49l374 301l-376 293q-25 22 -25 49q0 23 16 39t39 16q25 0 45 -16l418 -336q25 -22 25 -49t-25 -49l-420 -336q-16 -9 -21 -11q-13 -5 -24 -5q-23 0 -38 16q-15 17 -15 39zM543 164q0 29 26 49l375 301l-377 293q-24 21 -24 49q0 23 16 39t39 16 q25 0 45 -16l418 -336q24 -21 24 -49t-24 -49l-420 -336q-16 -9 -21 -11q-13 -5 -24 -5q-23 0 -38 16q-15 17 -15 39z" />
<glyph unicode="&#xbc;" horiz-adv-x="1474" d="M117 1214q0 25 20 41l203 148q16 14 30 17q12 3 19 3q60 0 60 -53v-614q0 -23 -17 -38q-18 -16 -43 -16q-23 0 -39 15t-16 39v506l-119 -86q-23 -15 -45 -15t-38 16q-15 15 -15 37zM213 49q0 21 20 47l1022 1282q17 23 27 29t25 6q23 0 39 -15t16 -40q0 -15 -25 -49 l-1018 -1280q-17 -22 -27 -28q-11 -7 -26 -7q-23 0 -38 16t-15 39zM846 201q0 22 20 43l340 440q18 22 35 30q15 7 39 7t41 -15q16 -15 16 -42v-422h64q22 0 38 -11q15 -11 15 -34q0 -25 -14 -36t-37 -11h-66v-97q0 -23 -15 -38t-42 -15q-24 0 -41 15q-16 15 -16 38v97h-324 q-53 0 -53 51zM967 242h256v331z" />
<glyph unicode="&#xbd;" horiz-adv-x="1474" d="M117 1214q0 25 20 41l203 148q16 14 30 17q12 3 19 3q60 0 60 -53v-614q0 -23 -17 -38q-18 -16 -43 -16q-23 0 -39 15t-16 39v506l-119 -86q-23 -15 -45 -15t-38 16q-15 15 -15 37zM139 49q0 20 21 47l1022 1282q18 24 26 29q10 6 25 6q23 0 39 -15t16 -40q0 -16 -24 -49 l-1018 -1280q-16 -21 -28 -28q-11 -7 -25 -7q-23 0 -38 16q-16 18 -16 39zM895 51q0 31 23 49l239 226q77 72 103 115q28 46 28 89q0 41 -33 68t-96 27q-53 0 -89 -19q-33 -17 -52 -47q-25 -31 -55 -31q-20 1 -39 15q-17 12 -17 41q0 19 17 47t49 48q36 23 80 37 q47 15 108 15q108 0 177 -51t69 -148q0 -61 -38 -122q-37 -59 -114 -127l-190 -179h303q59 0 59 -53q0 -51 -59 -51h-414q-20 0 -39 11q-20 11 -20 40z" />
<glyph unicode="&#xbe;" horiz-adv-x="1474" d="M84 801q0 23 17 37t42 14q17 0 31 -10q66 -45 156 -45q79 0 126 32q48 33 48 89q0 53 -40 84q-41 32 -118 32h-39q-23 0 -41 15t-18 36q0 24 18 36t47 12h29q62 0 96 28q35 29 35 70q0 47 -40 74q-39 26 -95 26q-50 0 -80 -11q-33 -12 -63 -30q-3 -1 -9 -3.5t-8 -3.5 q-6 -3 -16 -3q-21 0 -36 12t-15 35q0 28 28 49q19 15 71 37q50 21 130 21q114 0 185 -54q69 -52 69 -129q0 -53 -32 -94t-97 -63q82 -16 120 -67q38 -50 38 -107q0 -51 -23 -94q-22 -42 -60 -72q-39 -31 -90 -47q-54 -17 -114 -17q-70 0 -128 16q-55 15 -95 48 q-29 18 -29 47zM252 49q0 21 20 47l1022 1282q17 23 27 29q11 6 25 6q22 0 38 -15q17 -15 17 -40q0 -15 -25 -49l-1018 -1280q-17 -22 -27 -28q-11 -7 -26 -7q-23 0 -38 16t-15 39zM846 201q0 22 20 43l340 440q18 22 35 30q15 7 39 7t41 -15q16 -15 16 -42v-422h64 q22 0 38 -11q15 -11 15 -34q0 -25 -14 -36t-37 -11h-66v-97q0 -23 -15 -38t-42 -15q-24 0 -41 15q-16 15 -16 38v97h-324q-53 0 -53 51zM967 242h256v331z" />
<glyph unicode="&#xbf;" horiz-adv-x="1067" d="M166 -51q0 81 27 144q28 65 72 109q47 46 111 78t138 54v239q0 64 70 64q65 0 65 -64v-278q0 -33 -19 -51q-21 -19 -48 -25q-136 -29 -205 -96q-70 -68 -70 -172q0 -87 62 -151q61 -62 174 -62q61 0 117 25q57 26 98 77q22 24 48 59q20 27 50 27q31 0 48 -16 q18 -16 18 -45t-13 -55q-14 -27 -28 -43q-51 -70 -133 -115q-85 -47 -207 -47q-178 0 -276 94q-99 95 -99 250zM479 934q0 50 29 77q28 27 76 27q47 0 74 -27q28 -28 28 -77t-28 -77t-74 -28t-76 28q-29 27 -29 77z" />
<glyph unicode="&#xc0;" horiz-adv-x="1388" d="M84 61q0 15 6 33q5 16 29 68l489 1177q17 36 36 55t50 19q59 0 88 -74l490 -1177q20 -42 28 -67q7 -23 7 -29q0 -31 -23 -49q-21 -17 -51 -17q-32 0 -49 20q-19 22 -41 82l-113 281h-680l-135 -336q-11 -29 -26 -38t-37 -9q-28 0 -48 16t-20 45zM399 502h582l-289 719z M510 1802q0 30 21 50q22 20 49 20q25 0 46 -18q35 -30 38 -33l204 -195q19 -19 19 -39q0 -15 -14 -31q-13 -14 -31 -14q-13 0 -31 12l-272 193q-29 21 -29 55z" />
<glyph unicode="&#xc1;" horiz-adv-x="1388" d="M84 61q0 15 6 33q5 16 29 68l489 1177q17 36 36 55t50 19q59 0 88 -74l490 -1177q20 -42 28 -67q7 -23 7 -29q0 -31 -23 -49q-21 -17 -51 -17q-32 0 -49 20q-19 22 -41 82l-113 281h-680l-135 -336q-11 -29 -26 -38t-37 -9q-28 0 -48 16t-20 45zM399 502h582l-289 719z M510 1587q0 21 18 39l205 195q3 3 38 33q21 18 44 18q26 0 49 -20t23 -50q0 -33 -31 -55l-272 -193q-16 -12 -29 -12q-22 0 -33 14q-12 15 -12 31z" />
<glyph unicode="&#xc2;" horiz-adv-x="1388" d="M84 61q0 15 6 33q5 16 29 68l489 1177q17 36 36 55t50 19q59 0 88 -74l490 -1177q20 -42 28 -67q7 -23 7 -29q0 -31 -23 -49q-21 -17 -51 -17q-32 0 -49 20q-19 22 -41 82l-113 281h-680l-135 -336q-11 -29 -26 -38t-37 -9q-28 0 -48 16t-20 45zM397 1583q0 8 9 22 q5 9 18 23l223 221q23 23 51 23q31 0 54 -23l221 -221q24 -28 24 -45t-12 -29t-29 -12q-13 0 -38 19l-220 176l-219 -176q-18 -13 -22 -15q-7 -4 -19 -4q-16 0 -28 12q-13 13 -13 29zM399 502h582l-289 719z" />
<glyph unicode="&#xc3;" horiz-adv-x="1388" d="M84 61q0 15 6 33q5 16 29 68l489 1177q17 36 36 55t50 19q59 0 88 -74l490 -1177q20 -42 28 -67q7 -23 7 -29q0 -31 -23 -49q-21 -17 -51 -17q-32 0 -49 20q-19 22 -41 82l-113 281h-680l-135 -336q-11 -29 -26 -38t-37 -9q-28 0 -48 16t-20 45zM358 1667q0 29 21 51 q36 42 77 67t111 25q46 0 79 -13q36 -14 65 -30q14 -8 59 -29q30 -14 66 -14q32 0 54 17q22 18 44 45q16 26 41 26q21 0 37 -15t16 -42t-20 -53q-29 -43 -67 -66q-41 -24 -91 -24q-49 0 -82 13q-41 16 -66 31q-27 16 -60 31q-29 13 -69 13q-45 0 -70 -18t-48 -42 q-6 -9 -19 -16q-11 -6 -26 -6q-23 0 -37 14q-15 15 -15 35zM399 502h582l-289 719z" />
<glyph unicode="&#xc4;" horiz-adv-x="1388" d="M84 61q0 15 6 33q5 16 29 68l489 1177q17 36 36 55t50 19q59 0 88 -74l490 -1177q20 -42 28 -67q7 -23 7 -29q0 -31 -23 -49q-21 -17 -51 -17q-32 0 -49 20q-19 22 -41 82l-113 281h-680l-135 -336q-11 -29 -26 -38t-37 -9q-28 0 -48 16t-20 45zM399 502h582l-289 719z M457 1710q0 84 82 84q36 0 60 -21t24 -63q0 -82 -84 -82q-82 0 -82 82zM766 1710q0 84 82 84q35 0 59 -21q25 -22 25 -63q0 -40 -23 -61t-61 -21q-82 0 -82 82z" />
<glyph unicode="&#xc5;" horiz-adv-x="1388" d="M84 61q0 15 6 33q5 16 29 68l489 1177q17 36 36 55t50 19q59 0 88 -74l490 -1177q20 -42 28 -67q7 -23 7 -29q0 -31 -23 -49q-21 -17 -51 -17q-32 0 -49 20q-19 22 -41 82l-113 281h-680l-135 -336q-11 -29 -26 -38t-37 -9q-28 0 -48 16t-20 45zM399 502h582l-289 719z M496 1743q0 51 17 86t45 63q26 26 64 40q37 14 72 14q85 0 143 -58q56 -56 56 -145q0 -88 -56 -144q-57 -57 -143 -57q-37 0 -72 13q-38 14 -64 39t-45 64q-17 35 -17 85zM594 1745q0 -41 24 -74t76 -33q55 0 78 35t23 70q0 39 -23 74q-22 34 -78 34q-31 0 -51 -10 q-21 -11 -31 -26q-9 -14 -14 -35q-4 -16 -4 -35z" />
<glyph unicode="&#xc6;" horiz-adv-x="1857" d="M55 66q0 22 13 45l772 1253q30 49 88 49h792q30 0 47 -16q19 -17 19 -45t-18 -46t-48 -18h-710v-502h491q29 0 48 -16q20 -17 20 -45t-20 -45q-19 -16 -48 -16h-491v-539h710q31 0 48 -17q18 -18 18 -47t-18 -45q-17 -16 -48 -16h-780q-35 0 -53 19q-19 21 -19 51v329 h-462l-220 -358q-24 -41 -65 -41q-27 0 -46 16q-20 17 -20 50zM471 524h397v662z" />
<glyph unicode="&#xc7;" horiz-adv-x="1415" d="M115 709q0 165 49 297q50 134 135 228t205 147t260 53q99 0 183 -26q87 -27 146 -62q62 -37 107 -79q48 -45 70 -75q41 -58 41 -96q0 -34 -22 -50t-44 -16q-36 0 -57 29q-28 42 -73 87q-41 42 -94 76q-48 32 -117 54q-61 20 -140 20q-118 0 -210 -46q-96 -48 -160 -125 q-68 -81 -101 -186q-35 -110 -35 -230q0 -123 36 -231q36 -107 102 -187t162 -127t214 -47q136 0 238 60t176 167q24 33 53 33q27 0 45 -20q19 -21 19 -46q0 -10 -5 -27t-16 -32q-21 -31 -63 -79q-39 -45 -104 -88q-68 -45 -147 -73q-87 -31 -196 -32v-64q58 -11 104 -47 q48 -37 48 -115q0 -52 -20 -90q-19 -36 -49 -60q-29 -23 -65 -35q-33 -11 -71 -11q-48 0 -64 13t-16 40q0 25 17 36t40 11q59 0 87 25t28 63q0 41 -26 59q-28 19 -68 25q-19 1 -31 10q-10 7 -10 31v115q-126 15 -226 72q-104 59 -179 153q-74 94 -115 220q-41 128 -41 278z " />
<glyph unicode="&#xc8;" horiz-adv-x="1181" d="M180 70v1273q0 31 20 51q19 19 52 19h780q30 0 47 -16q19 -17 19 -45q0 -27 -19 -46q-18 -18 -47 -18h-710v-502h491q29 0 48 -16q20 -17 20 -45t-20 -45q-19 -16 -48 -16h-491v-539h710q30 0 47 -17q19 -19 19 -47t-19 -45q-17 -16 -47 -16h-782q-33 0 -51 19 q-19 21 -19 51zM463 1802q0 30 21 50q22 20 48 20t47 -18q28 -24 37 -33l205 -195q19 -19 19 -39q0 -15 -14 -31q-13 -14 -31 -14q-13 0 -31 12l-272 193q-29 21 -29 55z" />
<glyph unicode="&#xc9;" horiz-adv-x="1181" d="M180 70v1273q0 31 20 51q19 19 52 19h780q30 0 47 -16q19 -17 19 -45q0 -27 -19 -46q-18 -18 -47 -18h-710v-502h491q29 0 48 -16q20 -17 20 -45t-20 -45q-19 -16 -48 -16h-491v-539h710q30 0 47 -17q19 -19 19 -47t-19 -45q-17 -16 -47 -16h-782q-33 0 -51 19 q-19 21 -19 51zM463 1587q0 21 18 39l205 195q3 3 38 33q21 18 44 18q26 0 49 -20t23 -50q0 -33 -31 -55l-272 -193q-17 -12 -29 -12q-22 0 -33 14q-12 15 -12 31z" />
<glyph unicode="&#xca;" horiz-adv-x="1181" d="M180 70v1273q0 31 20 51q19 19 52 19h780q30 0 47 -16q19 -17 19 -45q0 -27 -19 -46q-18 -18 -47 -18h-710v-502h491q29 0 48 -16q20 -17 20 -45t-20 -45q-19 -16 -48 -16h-491v-539h710q30 0 47 -17q19 -19 19 -47t-19 -45q-17 -16 -47 -16h-782q-33 0 -51 19 q-19 21 -19 51zM350 1583q0 9 8 22q3 5 19 23l223 221q23 23 51 23q31 0 54 -23l221 -221q24 -28 24 -45t-12 -29t-29 -12q-14 0 -39 19l-219 176l-219 -176q-18 -13 -22 -15q-7 -4 -19 -4q-17 0 -29 12t-12 29z" />
<glyph unicode="&#xcb;" horiz-adv-x="1181" d="M180 70v1273q0 31 20 51q19 19 52 19h780q30 0 47 -16q19 -17 19 -45q0 -27 -19 -46q-18 -18 -47 -18h-710v-502h491q29 0 48 -16q20 -17 20 -45t-20 -45q-19 -16 -48 -16h-491v-539h710q30 0 47 -17q19 -19 19 -47t-19 -45q-17 -16 -47 -16h-782q-33 0 -51 19 q-19 21 -19 51zM410 1710q0 84 82 84q36 0 60 -21q23 -20 23 -63q0 -82 -83 -82q-82 0 -82 82zM719 1710q0 84 82 84q35 0 59 -21q25 -22 25 -63q0 -40 -23 -61q-22 -21 -61 -21q-82 0 -82 82z" />
<glyph unicode="&#xcc;" horiz-adv-x="501" d="M66 1802q0 30 21 50q22 20 48 20q25 0 46 -18q35 -30 38 -33l205 -195q18 -18 18 -39q0 -17 -13 -31t-32 -14q-12 0 -30 12l-273 193q-28 21 -28 55zM180 68v1278q0 28 20 48q19 19 50 19q33 0 52 -19q20 -20 20 -48v-1278q0 -29 -20 -49q-19 -19 -52 -19q-31 0 -50 19 q-20 20 -20 49z" />
<glyph unicode="&#xcd;" horiz-adv-x="501" d="M66 1587q0 21 18 39l205 195q3 3 38 33q21 18 44 18q26 0 49 -20q22 -19 22 -50q0 -34 -30 -55l-273 -193q-16 -12 -28 -12q-22 0 -33 14q-12 15 -12 31zM180 68v1278q0 28 20 48q19 19 50 19q33 0 52 -19q20 -20 20 -48v-1278q0 -29 -20 -49q-19 -19 -52 -19 q-31 0 -50 19q-20 20 -20 49z" />
<glyph unicode="&#xce;" horiz-adv-x="501" d="M-47 1583q0 9 8 22q3 5 19 23l223 221q23 23 51 23q30 0 53 -23l221 -221q25 -30 25 -45q0 -17 -12 -29t-29 -12q-14 0 -39 19l-219 176l-219 -176q-12 -8 -23 -15q-7 -4 -18 -4q-17 0 -29 12t-12 29zM180 68v1278q0 28 20 48q19 19 50 19q33 0 52 -19q20 -20 20 -48 v-1278q0 -29 -20 -49q-19 -19 -52 -19q-31 0 -50 19q-20 20 -20 49z" />
<glyph unicode="&#xcf;" horiz-adv-x="501" d="M12 1710q0 84 82 84q37 0 61 -21q23 -20 23 -63q0 -82 -84 -82q-82 0 -82 82zM180 68v1278q0 28 20 48q19 19 50 19q33 0 52 -19q20 -20 20 -48v-1278q0 -29 -20 -49q-19 -19 -52 -19q-31 0 -50 19q-20 20 -20 49zM322 1710q0 84 81 84q36 0 60 -21t24 -63q0 -40 -22 -61 q-23 -21 -62 -21q-81 0 -81 82z" />
<glyph unicode="&#xd0;" horiz-adv-x="1394" d="M10 733q0 30 21 48t51 18h98v547q0 67 72 67h410q145 0 258 -52q115 -53 194 -144q78 -90 123 -221q43 -126 43 -279q0 -146 -44 -278q-42 -126 -124 -228q-78 -97 -194 -155q-112 -56 -256 -56h-412q-70 0 -70 68v598h-98q-31 0 -51 19q-21 19 -21 48zM322 125h331 q111 0 201 45q89 45 153 125q60 76 96 188q34 106 34 234q0 125 -34 228q-35 105 -97 181q-61 74 -155 119q-90 43 -208 43h-321v-489h274q30 0 51 -18t21 -48q0 -29 -21 -48q-20 -19 -51 -19h-274v-541z" />
<glyph unicode="&#xd1;" horiz-adv-x="1406" d="M180 68v1259q0 40 16 64q15 22 50 22q36 0 63 -35l778 -1102v1067q0 32 20 50q19 18 50 18t50 -18q20 -18 20 -50v-1275q0 -31 -16 -50q-15 -18 -48 -18q-39 0 -67 37l-774 1087v-1056q0 -32 -21 -50t-51 -18q-28 0 -49 18t-21 50zM369 1667q0 30 20 51q36 42 77 67 t112 25q45 0 78 -13q36 -14 65 -30q14 -8 59 -29q30 -14 66 -14q32 0 54 17q22 18 44 45q16 26 41 26q21 0 37 -15t16 -42t-20 -53q-29 -43 -67 -66q-41 -24 -91 -24q-49 0 -82 13q-38 15 -65 31q-24 14 -61 31q-29 13 -68 13q-46 0 -71 -18t-48 -42q-6 -9 -19 -16 q-10 -6 -26 -6q-23 0 -37 14t-14 35z" />
<glyph unicode="&#xd2;" horiz-adv-x="1533" d="M115 709q0 159 48 292t134 230q86 96 206 149q123 54 265 54q140 0 263 -54q120 -53 206 -149q86 -97 134 -230t48 -292t-48 -293q-48 -133 -134 -231q-84 -96 -206 -151q-120 -54 -263 -54q-145 0 -265 54q-122 55 -206 151q-86 98 -134 231q-48 134 -48 293zM258 709 q0 -123 36 -231q36 -109 101 -187q67 -81 161 -127q96 -47 212 -47q117 0 213 47q92 45 160 127q65 79 100 187q35 110 35 231q0 122 -36 230t-101 186t-160 125q-93 46 -211 46q-122 0 -215 -46q-95 -47 -160 -125q-66 -79 -100 -186q-35 -110 -35 -230zM584 1802 q0 30 21 50q22 20 48 20q25 0 46 -18q35 -30 38 -33l205 -195q19 -19 19 -39q0 -15 -14 -31q-13 -14 -32 -14q-12 0 -30 12l-273 193q-28 21 -28 55z" />
<glyph unicode="&#xd3;" horiz-adv-x="1533" d="M115 709q0 159 48 292t134 230q86 96 206 149q123 54 265 54q140 0 263 -54q120 -53 206 -149q86 -97 134 -230t48 -292t-48 -293q-48 -133 -134 -231q-84 -96 -206 -151q-120 -54 -263 -54q-145 0 -265 54q-122 55 -206 151q-86 98 -134 231q-48 134 -48 293zM258 709 q0 -123 36 -231q36 -109 101 -187q67 -81 161 -127q96 -47 212 -47q117 0 213 47q92 45 160 127q65 79 100 187q35 110 35 231q0 122 -36 230t-101 186t-160 125q-93 46 -211 46q-122 0 -215 -46q-95 -47 -160 -125q-66 -79 -100 -186q-35 -110 -35 -230zM584 1587 q0 21 18 39l205 195q3 3 38 33q21 18 44 18q26 0 49 -20t23 -50q0 -33 -31 -55l-273 -193q-16 -12 -28 -12q-22 0 -33 14q-12 15 -12 31z" />
<glyph unicode="&#xd4;" horiz-adv-x="1533" d="M115 709q0 159 48 292t134 230q86 96 206 149q123 54 265 54q140 0 263 -54q120 -53 206 -149q86 -97 134 -230t48 -292t-48 -293q-48 -133 -134 -231q-84 -96 -206 -151q-120 -54 -263 -54q-145 0 -265 54q-122 55 -206 151q-86 98 -134 231q-48 134 -48 293zM258 709 q0 -123 36 -231q36 -109 101 -187q67 -81 161 -127q96 -47 212 -47q117 0 213 47q92 45 160 127q65 79 100 187q35 110 35 231q0 122 -36 230t-101 186t-160 125q-93 46 -211 46q-122 0 -215 -46q-95 -47 -160 -125q-66 -79 -100 -186q-35 -110 -35 -230zM471 1583q0 9 8 22 q3 5 19 23l223 221q23 23 51 23q30 0 53 -23l222 -221q24 -28 24 -45t-12 -29t-29 -12q-14 0 -39 19l-219 176l-219 -176q-12 -8 -23 -15q-7 -4 -18 -4q-17 0 -29 12t-12 29z" />
<glyph unicode="&#xd5;" horiz-adv-x="1533" d="M115 709q0 159 48 292t134 230q86 96 206 149q123 54 265 54q140 0 263 -54q120 -53 206 -149q86 -97 134 -230t48 -292t-48 -293q-48 -133 -134 -231q-84 -96 -206 -151q-120 -54 -263 -54q-145 0 -265 54q-122 55 -206 151q-86 98 -134 231q-48 134 -48 293zM258 709 q0 -123 36 -231q36 -109 101 -187q67 -81 161 -127q96 -47 212 -47q117 0 213 47q92 45 160 127q65 79 100 187q35 110 35 231q0 122 -36 230t-101 186t-160 125q-93 46 -211 46q-122 0 -215 -46q-95 -47 -160 -125q-66 -79 -100 -186q-35 -110 -35 -230zM432 1667 q0 29 21 51q37 43 76 67q41 25 112 25q46 0 79 -13t64 -30q8 -4 60 -29q30 -14 65 -14q33 0 55 17q22 18 44 45q16 26 41 26q19 0 36 -15t17 -42q0 -26 -21 -53q-30 -44 -66 -66q-41 -24 -91 -24q-49 0 -82 13q-41 16 -66 31q-27 16 -60 31q-29 13 -69 13q-45 0 -70 -18 q-28 -20 -49 -42q-7 -10 -18 -16q-10 -6 -27 -6q-23 0 -37 14t-14 35z" />
<glyph unicode="&#xd6;" horiz-adv-x="1533" d="M115 709q0 159 48 292t134 230q86 96 206 149q123 54 265 54q140 0 263 -54q120 -53 206 -149q86 -97 134 -230t48 -292t-48 -293q-48 -133 -134 -231q-84 -96 -206 -151q-120 -54 -263 -54q-145 0 -265 54q-122 55 -206 151q-86 98 -134 231q-48 134 -48 293zM258 709 q0 -123 36 -231q36 -109 101 -187q67 -81 161 -127q96 -47 212 -47q117 0 213 47q92 45 160 127q65 79 100 187q35 110 35 231q0 122 -36 230t-101 186t-160 125q-93 46 -211 46q-122 0 -215 -46q-95 -47 -160 -125q-66 -79 -100 -186q-35 -110 -35 -230zM530 1710 q0 84 82 84q37 0 61 -21q23 -20 23 -63q0 -82 -84 -82q-82 0 -82 82zM840 1710q0 84 82 84q35 0 59 -21q25 -22 25 -63q0 -40 -23 -61t-61 -21q-82 0 -82 82z" />
<glyph unicode="&#xd7;" d="M328 391q0 21 18 43l219 217l-217 217q-20 20 -20 41q0 22 15 40t42 18q20 0 41 -21l217 -217l217 217q21 21 41 21q21 0 40 -17q17 -16 17 -41q0 -19 -18 -41l-217 -217l217 -217q18 -23 18 -43t-15 -38q-14 -17 -40 -17q-25 0 -43 18l-217 217l-217 -217 q-18 -18 -43 -18q-21 0 -38 14t-17 41z" />
<glyph unicode="&#xd8;" horiz-adv-x="1533" d="M115 709q0 159 48 292t134 230q86 96 206 149q123 54 265 54q100 0 189 -27q92 -28 163 -76l54 76q11 17 23 21q18 6 26 6q28 0 43 -17q14 -15 14 -39q0 -21 -10 -35l-60 -86q99 -99 154 -236t55 -312q0 -159 -48 -293q-48 -133 -134 -231q-84 -96 -206 -151 q-120 -54 -263 -54q-113 0 -201 29q-94 31 -170 85l-57 -82q-22 -32 -51 -32q-27 0 -42 16q-16 18 -16 39q0 11 5 21q1 3 3.5 9t4.5 9l65 94q-93 101 -143 236q-51 138 -51 305zM258 709q0 -123 36 -231q36 -109 101 -187l645 923q-60 41 -126 61q-69 21 -146 21 q-122 0 -215 -46q-95 -47 -160 -125q-66 -79 -100 -186q-35 -110 -35 -230zM479 211q63 -47 131 -70q72 -24 158 -24q117 0 213 47q92 45 160 127q65 79 100 187q35 110 35 231q0 128 -39 239q-39 112 -111 191z" />
<glyph unicode="&#xd9;" horiz-adv-x="1423" d="M170 504v842q0 29 19 48t51 19q33 0 52 -19t19 -48v-828q0 -89 28 -167q26 -73 80 -127q53 -53 126 -80q74 -27 166 -27q186 0 294 109q107 108 107 300v820q0 28 20 48q19 19 50 19q33 0 51 -19q18 -20 18 -48v-836q0 -116 -39 -215q-39 -100 -109 -168 q-72 -70 -170 -109q-96 -38 -222 -38q-124 0 -222 38q-101 39 -171 108q-70 68 -109 165q-39 96 -39 213zM526 1802q0 30 22 50t48 20q25 0 46 -18q35 -30 38 -33l205 -195q18 -18 18 -39q0 -17 -13 -31t-32 -14q-13 0 -31 12l-272 193q-29 21 -29 55z" />
<glyph unicode="&#xda;" horiz-adv-x="1423" d="M170 504v842q0 29 19 48t51 19q33 0 52 -19t19 -48v-828q0 -89 28 -167q26 -73 80 -127q53 -53 126 -80q74 -27 166 -27q186 0 294 109q107 108 107 300v820q0 28 20 48q19 19 50 19q33 0 51 -19q18 -20 18 -48v-836q0 -116 -39 -215q-39 -100 -109 -168 q-72 -70 -170 -109q-96 -38 -222 -38q-124 0 -222 38q-101 39 -171 108q-70 68 -109 165q-39 96 -39 213zM526 1587q0 20 19 39l205 195q9 9 37 33q21 18 44 18q27 0 50 -20q22 -19 22 -50q0 -33 -31 -55l-272 -193q-16 -12 -29 -12q-21 0 -32 14q-13 16 -13 31z" />
<glyph unicode="&#xdb;" horiz-adv-x="1423" d="M170 504v842q0 29 19 48t51 19q33 0 52 -19t19 -48v-828q0 -89 28 -167q26 -73 80 -127q53 -53 126 -80q74 -27 166 -27q186 0 294 109q107 108 107 300v820q0 28 20 48q19 19 50 19q33 0 51 -19q18 -20 18 -48v-836q0 -116 -39 -215q-39 -100 -109 -168 q-72 -70 -170 -109q-96 -38 -222 -38q-124 0 -222 38q-101 39 -171 108q-70 68 -109 165q-39 96 -39 213zM414 1583q0 9 8 22q5 9 18 23l224 221q23 23 51 23q30 0 53 -23l221 -221q25 -30 25 -45q0 -16 -13 -29q-12 -12 -28 -12q-14 0 -39 19l-219 176l-219 -176 q-12 -8 -23 -15q-7 -4 -18 -4q-17 0 -29 12t-12 29z" />
<glyph unicode="&#xdc;" horiz-adv-x="1423" d="M170 504v842q0 29 19 48t51 19q33 0 52 -19t19 -48v-828q0 -89 28 -167q26 -73 80 -127q53 -53 126 -80q74 -27 166 -27q186 0 294 109q107 108 107 300v820q0 28 20 48q19 19 50 19q33 0 51 -19q18 -20 18 -48v-836q0 -116 -39 -215q-39 -100 -109 -168 q-72 -70 -170 -109q-96 -38 -222 -38q-124 0 -222 38q-101 39 -171 108q-70 68 -109 165q-39 96 -39 213zM473 1710q0 84 82 84q36 0 60 -21t24 -63q0 -82 -84 -82q-82 0 -82 82zM782 1710q0 84 82 84q36 0 60 -21t24 -63q0 -40 -22 -61t-62 -21q-82 0 -82 82z" />
<glyph unicode="&#xdd;" horiz-adv-x="1280" d="M84 1348q0 25 17 45t51 20q16 0 33 -7q18 -7 28 -28l428 -702l424 696q11 19 26 31q13 10 37 10q27 0 47 -17q21 -18 21 -44t-18 -54l-467 -757v-473q0 -29 -20 -49q-19 -19 -50 -19q-33 0 -52 19q-20 20 -20 49v473l-475 764q-10 20 -10 43zM455 1587q0 21 18 39 l205 195q3 3 38 33q21 18 44 18q26 0 49 -20q22 -19 22 -50q0 -34 -30 -55l-273 -193q-16 -12 -28 -12q-22 0 -33 14q-12 15 -12 31z" />
<glyph unicode="&#xde;" horiz-adv-x="1226" d="M180 68v1278q0 28 20 48q19 19 50 19q33 0 52 -19q20 -20 20 -48v-201h331q236 0 358 -116t122 -322q0 -202 -129 -316q-130 -115 -359 -115h-323v-208q0 -29 -20 -49q-19 -19 -52 -19q-31 0 -50 19q-20 20 -20 49zM322 399h323q92 0 158 24q65 24 107 64q42 41 62 98 q19 56 19 122q0 150 -88 232q-89 83 -262 83h-319v-623z" />
<glyph unicode="&#xdf;" horiz-adv-x="1177" d="M156 1006q0 113 31 194q31 82 87 133q57 53 129 76q77 25 158 25q189 0 289 -120q100 -119 100 -325q0 -45 -18 -69q-19 -25 -78 -25q-97 0 -147 -35t-50 -92q0 -50 34 -85q36 -38 85 -68q48 -29 110 -63q55 -29 109 -71q50 -38 85 -90q34 -50 34 -123q0 -58 -22 -109 t-66 -92t-105 -64q-60 -23 -143 -23q-58 0 -111 15q-49 14 -96 40q-42 23 -74 58t-48 71q0 1 -2 5t-3 7q-2 10 -2 21q0 22 17 41q17 18 45 18t51 -27q10 -18 32 -43q19 -22 47 -42q26 -19 64 -31q41 -13 84 -13q90 0 142 44q51 43 51 122q0 52 -34 89q-37 41 -85 70 q-55 34 -111 62q-51 25 -110 69q-49 36 -85 88q-34 49 -34 122q0 53 24 95q25 45 63 71q42 30 94 44q54 15 116 15q2 152 -65 236q-68 86 -193 86q-138 0 -198 -83q-60 -82 -60 -220v-940q0 -70 -70 -70q-69 0 -69 70z" />
<glyph unicode="&#xe0;" horiz-adv-x="1255" d="M94 506q0 118 37 214q38 99 101 168q63 68 152 110q86 40 187 40q143 0 235 -68q93 -69 146 -184v172q0 26 19 43t49 17t50 -17t20 -43v-729q0 -43 11 -73q12 -33 52 -33q47 0 47 -57q0 -66 -80 -66q-92 0 -128 51q-35 50 -40 129v60q-56 -119 -153 -189 q-98 -71 -234 -71q-103 0 -186 38q-87 39 -150 109q-63 69 -99 167t-36 212zM233 504q0 -87 27 -160q27 -74 74 -127t113 -83t147 -30q74 0 141 29q64 27 115 82q49 52 77 126q27 72 27 163t-26 163q-27 74 -75 130t-115 86q-66 30 -144 30q-85 0 -151 -30q-65 -29 -112 -86 q-47 -56 -72 -130q-26 -76 -26 -163zM442 1393q0 30 22 50q20 19 48 19q26 0 46 -17q28 -24 38 -34l205 -194q18 -18 18 -39q0 -17 -13 -31t-32 -14q-13 0 -31 12l-272 192q-29 21 -29 56z" />
<glyph unicode="&#xe1;" horiz-adv-x="1255" d="M94 506q0 118 37 214q38 99 101 168q63 68 152 110q86 40 187 40q143 0 235 -68q93 -69 146 -184v172q0 26 19 43t49 17t50 -17t20 -43v-729q0 -43 11 -73q12 -33 52 -33q47 0 47 -57q0 -66 -80 -66q-92 0 -128 51q-35 50 -40 129v60q-56 -119 -153 -189 q-98 -71 -234 -71q-103 0 -186 38q-87 39 -150 109q-63 69 -99 167t-36 212zM233 504q0 -87 27 -160q27 -74 74 -127t113 -83t147 -30q74 0 141 29q64 27 115 82q49 52 77 126q27 72 27 163t-26 163q-27 74 -75 130t-115 86q-66 30 -144 30q-85 0 -151 -30q-65 -29 -112 -86 q-47 -56 -72 -130q-26 -76 -26 -163zM401 1178q0 20 19 39l205 194q10 10 38 34q20 17 44 17q27 0 49 -19t22 -50q0 -35 -30 -56l-273 -192q-16 -12 -29 -12q-21 0 -32 14q-13 16 -13 31z" />
<glyph unicode="&#xe2;" horiz-adv-x="1255" d="M94 506q0 118 37 214q38 99 101 168q63 68 152 110q86 40 187 40q143 0 235 -68q93 -69 146 -184v172q0 26 19 43t49 17t50 -17t20 -43v-729q0 -43 11 -73q12 -33 52 -33q47 0 47 -57q0 -66 -80 -66q-92 0 -128 51q-35 50 -40 129v60q-56 -119 -153 -189 q-98 -71 -234 -71q-103 0 -186 38q-87 39 -150 109q-63 69 -99 167t-36 212zM233 504q0 -87 27 -160q27 -74 74 -127t113 -83t147 -30q74 0 141 29q64 27 115 82q49 52 77 126q27 72 27 163t-26 163q-27 74 -75 130t-115 86q-66 30 -144 30q-85 0 -151 -30q-65 -29 -112 -86 q-47 -56 -72 -130q-26 -76 -26 -163zM289 1174q0 8 8 21q7 12 18 24l224 221q22 22 51 22q31 0 53 -22l221 -221q25 -30 25 -46t-12 -28t-29 -12q-15 0 -39 18l-219 176l-219 -176q-2 -1 -23 -14q-7 -4 -18 -4q-17 0 -29 12t-12 29z" />
<glyph unicode="&#xe3;" horiz-adv-x="1255" d="M94 506q0 118 37 214q38 99 101 168q63 68 152 110q86 40 187 40q143 0 235 -68q93 -69 146 -184v172q0 26 19 43t49 17t50 -17t20 -43v-729q0 -43 11 -73q12 -33 52 -33q47 0 47 -57q0 -66 -80 -66q-92 0 -128 51q-35 50 -40 129v60q-56 -119 -153 -189 q-98 -71 -234 -71q-103 0 -186 38q-87 39 -150 109q-63 69 -99 167t-36 212zM233 504q0 -87 27 -160q27 -74 74 -127t113 -83t147 -30q74 0 141 29q64 27 115 82q49 52 77 126q27 72 27 163t-26 163q-27 74 -75 130t-115 86q-66 30 -144 30q-85 0 -151 -30q-65 -29 -112 -86 q-47 -56 -72 -130q-26 -76 -26 -163zM291 1257q0 31 20 52q34 40 77 66t112 26q46 0 79 -13t64 -30q27 -15 59 -30q27 -13 66 -13q34 0 54 16q22 18 44 45q16 27 41 27q21 0 37 -15q17 -15 17 -42t-21 -54q-28 -42 -67 -65q-42 -25 -91 -25t-82 13q-38 15 -65 31 q-24 14 -61 31q-29 13 -68 13q-47 0 -71 -17q-25 -18 -48 -42q-8 -11 -18 -17q-11 -6 -27 -6q-22 0 -37 15q-14 14 -14 34z" />
<glyph unicode="&#xe4;" horiz-adv-x="1255" d="M94 506q0 118 37 214q38 99 101 168q63 68 152 110q86 40 187 40q143 0 235 -68q93 -69 146 -184v172q0 26 19 43t49 17t50 -17t20 -43v-729q0 -43 11 -73q12 -33 52 -33q47 0 47 -57q0 -66 -80 -66q-92 0 -128 51q-35 50 -40 129v60q-56 -119 -153 -189 q-98 -71 -234 -71q-103 0 -186 38q-87 39 -150 109q-63 69 -99 167t-36 212zM233 504q0 -87 27 -160q27 -74 74 -127t113 -83t147 -30q74 0 141 29q64 27 115 82q49 52 77 126q27 72 27 163t-26 163q-27 74 -75 130t-115 86q-66 30 -144 30q-85 0 -151 -30q-65 -29 -112 -86 q-47 -56 -72 -130q-26 -76 -26 -163zM369 1300q0 84 82 84q36 0 60 -21t24 -63q0 -81 -84 -81q-82 0 -82 81zM678 1300q0 84 82 84q35 0 59 -21q25 -22 25 -63q0 -40 -23 -61q-21 -20 -61 -20q-82 0 -82 81z" />
<glyph unicode="&#xe5;" horiz-adv-x="1255" d="M94 506q0 118 37 214q38 99 101 168q63 68 152 110q86 40 187 40q143 0 235 -68q93 -69 146 -184v172q0 26 19 43t49 17t50 -17t20 -43v-729q0 -43 11 -73q12 -33 52 -33q47 0 47 -57q0 -66 -80 -66q-92 0 -128 51q-35 50 -40 129v60q-56 -119 -153 -189 q-98 -71 -234 -71q-103 0 -186 38q-87 39 -150 109q-63 69 -99 167t-36 212zM233 504q0 -87 27 -160q27 -74 74 -127t113 -83t147 -30q74 0 141 29q64 27 115 82q49 52 77 126q27 72 27 163t-26 163q-27 74 -75 130t-115 86q-66 30 -144 30q-85 0 -151 -30q-65 -29 -112 -86 q-47 -56 -72 -130q-26 -76 -26 -163zM401 1333q0 49 18 86t45 64q26 26 63 40q35 13 73 13q85 0 142 -57t57 -146q0 -86 -57 -143t-142 -57q-38 0 -73 13q-36 14 -63 39t-45 63t-18 85zM500 1335q0 -40 24 -73t76 -33q55 0 78 35q22 34 22 69q0 40 -22 74q-23 35 -78 35 q-31 0 -51 -10t-31 -27q-9 -14 -14 -35q-4 -16 -4 -35z" />
<glyph unicode="&#xe6;" horiz-adv-x="2009" d="M94 506q0 118 37 214q38 99 101 168q63 68 152 110q86 40 187 40q147 0 242 -67q99 -69 150 -178v165q0 27 16 43q17 17 41 17t41 -17q16 -16 16 -43v-176q61 137 158 196q99 60 215 60q99 0 182 -34t144 -95q58 -58 93 -137q34 -77 34 -162q0 -49 -17 -81 q-16 -31 -69 -31h-725q2 -87 28 -158q26 -70 74 -124q45 -51 114 -82q66 -30 150 -30q104 0 179 36q74 35 126 83q22 17 37 17q26 0 44 -21t18 -43q0 -34 -29 -55q-60 -57 -159 -99t-226 -42q-172 0 -282 88q-112 89 -158 235q-61 -157 -177 -241q-113 -82 -262 -82 q-105 0 -188 38q-86 39 -151 109q-63 68 -100 167q-36 98 -36 212zM233 504q0 -87 27 -160q27 -74 74 -127t113 -83t147 -30q74 0 141 29q64 27 115 82q49 52 77 126q27 72 27 163t-26 163q-27 74 -75 130t-115 86q-66 30 -144 30q-85 0 -151 -30q-65 -29 -112 -86 q-47 -56 -72 -130q-26 -76 -26 -163zM1096 590h671q4 58 -17 118q-21 58 -63 103t-104 74q-60 28 -137 28q-64 0 -122 -21q-57 -20 -105 -64q-47 -43 -80 -102q-32 -59 -43 -136z" />
<glyph unicode="&#xe7;" horiz-adv-x="1081" d="M94 508q0 114 37 209q39 99 102 168q65 71 156 112t195 41q73 0 130 -16q56 -16 104 -42q47 -26 82 -58q37 -34 61 -64q9 -10 25 -38q11 -19 11 -42q0 -28 -18 -45q-17 -16 -41 -16q-20 0 -32 9q-8 6 -21 19q-13 19 -37 48q-22 26 -62 55q-37 27 -86 46q-48 19 -112 19 q-79 0 -144 -31t-112 -87q-48 -58 -73 -129q-26 -75 -26 -158q0 -85 26 -160q26 -74 72 -128q49 -56 110 -85q67 -31 145 -31q91 0 163 42q71 42 128 112q25 25 51 25q23 0 41 -15t18 -45t-18 -51q-56 -79 -154 -135q-96 -55 -225 -57v-64q57 -11 103 -47q48 -37 48 -115 q0 -53 -19 -90q-19 -36 -49 -60q-28 -22 -66 -35q-33 -11 -70 -11q-48 0 -64 13t-16 40q0 25 17 36q16 11 40 11q59 0 87 25t28 63q0 41 -26 59q-28 19 -68 25q-19 1 -31 10q-10 7 -10 31v117q-94 16 -164 60q-74 47 -126 115q-53 70 -81 156q-29 90 -29 189z" />
<glyph unicode="&#xe8;" horiz-adv-x="1146" d="M94 504q0 113 38 212q37 96 104 169q66 72 154 112q90 41 194 41q101 0 184 -34t144 -95q62 -62 95 -137t33 -162q0 -50 -16 -81t-70 -31h-725q1 -85 29 -158q26 -70 74 -124q45 -51 113 -82q66 -30 151 -30q104 0 179 36q74 35 126 83q22 17 37 17q26 0 44 -21 q17 -20 17 -43q0 -15 -8 -31q-6 -12 -18 -24q-60 -57 -160 -99q-101 -42 -225 -42q-114 0 -202 39q-92 41 -156 111q-63 69 -100 166q-36 94 -36 208zM233 590h672q6 60 -15 118q-20 57 -65 103q-45 47 -104 74q-60 28 -137 28q-64 0 -122 -21t-106 -64q-47 -43 -80 -102 q-32 -59 -43 -136zM389 1393q0 30 22 50q20 19 48 19q26 0 46 -17q28 -24 38 -34l205 -194q18 -18 18 -39q0 -17 -13 -31t-32 -14q-13 0 -31 12l-272 192q-29 21 -29 56z" />
<glyph unicode="&#xe9;" horiz-adv-x="1146" d="M94 504q0 113 38 212q37 96 104 169q66 72 154 112q90 41 194 41q101 0 184 -34t144 -95q62 -62 95 -137t33 -162q0 -50 -16 -81t-70 -31h-725q1 -85 29 -158q26 -70 74 -124q45 -51 113 -82q66 -30 151 -30q104 0 179 36q74 35 126 83q22 17 37 17q26 0 44 -21 q17 -20 17 -43q0 -15 -8 -31q-6 -12 -18 -24q-60 -57 -160 -99q-101 -42 -225 -42q-114 0 -202 39q-92 41 -156 111q-63 69 -100 166q-36 94 -36 208zM233 590h672q6 60 -15 118q-20 57 -65 103q-45 47 -104 74q-60 28 -137 28q-64 0 -122 -21t-106 -64q-47 -43 -80 -102 q-32 -59 -43 -136zM430 1178q0 20 19 39l204 194q10 10 38 34q20 17 44 17q27 0 49 -19q23 -20 23 -50q0 -34 -31 -56l-272 -192q-16 -12 -29 -12q-22 0 -33 14q-12 15 -12 31z" />
<glyph unicode="&#xea;" horiz-adv-x="1146" d="M94 504q0 113 38 212q37 96 104 169q66 72 154 112q90 41 194 41q101 0 184 -34t144 -95q62 -62 95 -137t33 -162q0 -50 -16 -81t-70 -31h-725q1 -85 29 -158q26 -70 74 -124q45 -51 113 -82q66 -30 151 -30q104 0 179 36q74 35 126 83q22 17 37 17q26 0 44 -21 q17 -20 17 -43q0 -15 -8 -31q-6 -12 -18 -24q-60 -57 -160 -99q-101 -42 -225 -42q-114 0 -202 39q-92 41 -156 111q-63 69 -100 166q-36 94 -36 208zM233 590h672q6 60 -15 118q-20 57 -65 103q-45 47 -104 74q-60 28 -137 28q-64 0 -122 -21t-106 -64q-47 -43 -80 -102 q-32 -59 -43 -136zM291 1174q0 8 8 21q7 12 18 24l224 221q22 22 51 22q31 0 53 -22l221 -221q25 -30 25 -45q0 -17 -12 -29t-29 -12q-15 0 -39 18l-219 176l-219 -176q-2 -1 -23 -14q-7 -4 -18 -4q-17 0 -29 12t-12 29z" />
<glyph unicode="&#xeb;" horiz-adv-x="1146" d="M94 504q0 113 38 212q37 96 104 169q66 72 154 112q90 41 194 41q101 0 184 -34t144 -95q62 -62 95 -137t33 -162q0 -50 -16 -81t-70 -31h-725q1 -85 29 -158q26 -70 74 -124q45 -51 113 -82q66 -30 151 -30q104 0 179 36q74 35 126 83q22 17 37 17q26 0 44 -21 q17 -20 17 -43q0 -15 -8 -31q-6 -12 -18 -24q-60 -57 -160 -99q-101 -42 -225 -42q-114 0 -202 39q-92 41 -156 111q-63 69 -100 166q-36 94 -36 208zM233 590h672q6 60 -15 118q-20 57 -65 103q-45 47 -104 74q-60 28 -137 28q-64 0 -122 -21t-106 -64q-47 -43 -80 -102 q-32 -59 -43 -136zM356 1300q0 84 82 84q37 0 61 -21q23 -20 23 -63q0 -81 -84 -81q-82 0 -82 81zM666 1300q0 84 82 84q35 0 59 -21t24 -63q0 -40 -22 -61q-21 -20 -61 -20q-82 0 -82 81z" />
<glyph unicode="&#xec;" horiz-adv-x="456" d="M4 1393q0 30 22 50q20 19 48 19q26 0 46 -17q28 -24 38 -34l204 -194q19 -19 19 -39q0 -17 -13 -31t-32 -14q-13 0 -31 12l-272 192q-29 21 -29 56zM156 215v737q0 29 18 47q19 19 51 19q30 0 49 -19t19 -47v-731q0 -45 12 -70q12 -26 51 -26q24 0 35 -17q12 -18 12 -40 q0 -32 -19 -50q-20 -18 -60 -18q-93 0 -130 55q-38 56 -38 160z" />
<glyph unicode="&#xed;" horiz-adv-x="456" d="M86 1178q0 21 18 39l205 194q10 10 38 34q20 17 44 17q27 0 49 -19q23 -20 23 -50q0 -34 -31 -56l-272 -192q-16 -12 -29 -12q-22 0 -33 14q-12 15 -12 31zM156 215v737q0 29 18 47q19 19 51 19q30 0 49 -19t19 -47v-731q0 -45 12 -70q12 -26 51 -26q24 0 35 -17 q12 -18 12 -40q0 -32 -19 -50q-20 -18 -60 -18q-93 0 -130 55q-38 56 -38 160z" />
<glyph unicode="&#xee;" horiz-adv-x="456" d="M-68 1174q0 7 9 21q7 12 18 24l223 221q22 22 51 22q32 0 54 -22l221 -221q24 -29 24 -45q0 -17 -12 -29t-28 -12q-15 0 -39 18l-220 176l-219 -176q-8 -6 -22 -14q-7 -4 -19 -4q-16 0 -28 12q-13 13 -13 29zM156 215v737q0 29 18 47q19 19 51 19q30 0 49 -19t19 -47 v-731q0 -45 12 -70q12 -26 51 -26q24 0 35 -17q12 -18 12 -40q0 -32 -19 -50q-20 -18 -60 -18q-93 0 -130 55q-38 56 -38 160z" />
<glyph unicode="&#xef;" horiz-adv-x="456" d="M-8 1300q0 84 82 84q36 0 60 -21t24 -63q0 -81 -84 -81q-82 0 -82 81zM156 215v737q0 29 18 47q19 19 51 19q30 0 49 -19t19 -47v-731q0 -45 12 -70q12 -26 51 -26q24 0 35 -17q12 -18 12 -40q0 -32 -19 -50q-20 -18 -60 -18q-93 0 -130 55q-38 56 -38 160zM301 1300 q0 84 82 84q35 0 59 -21q25 -22 25 -63q0 -40 -23 -61q-21 -20 -61 -20q-82 0 -82 81z" />
<glyph unicode="&#xf0;" horiz-adv-x="1181" d="M94 502q0 111 36 207q37 99 101 167q64 69 156 110q89 40 199 40q74 0 133 -17q66 -19 117 -48q-39 70 -80 121q-53 66 -88 102l-54 -56q-3 -2 -9.5 -7t-9.5 -7q-9 -6 -26 -6q-21 0 -38 14t-17 41q0 20 21 41l53 56l-27 24q-35 29 -55 49q-21 21 -21 39q0 22 17 42t43 20 q22 0 48 -17q25 -17 54 -39q2 -2 4.5 -4t5.5 -4.5t5 -3.5q10 -8 16 -14l63 63q14 10 20 13q12 6 23 6q23 0 39 -16q15 -15 15 -38q0 -19 -17 -41l-61 -63q44 -46 106 -124q57 -72 103 -163q48 -94 79 -204q30 -107 35 -246q2 -14 2 -19v-18q0 -114 -35 -207 q-37 -98 -102 -166q-68 -71 -156 -110t-202 -39t-202 39q-90 40 -157 110q-64 67 -101 166q-36 96 -36 207zM236 504q0 -85 24 -158t70 -127q48 -56 110 -84q68 -31 150 -31q81 0 149 31q63 29 112 84q47 53 71 126q24 72 24 157q0 84 -24 156q-24 73 -71 127t-113 86 q-67 32 -148 32q-82 0 -150 -31q-63 -29 -110 -85q-46 -55 -70 -127t-24 -156z" />
<glyph unicode="&#xf1;" horiz-adv-x="1163" d="M156 66v892q0 24 17 41q19 19 52 19q34 0 51 -19t17 -41v-120q40 88 127 145q85 55 207 55q99 0 171 -30t122 -86q49 -55 73 -131q25 -80 25 -166v-559q0 -30 -20 -48t-50 -18q-29 0 -47 18t-18 48v530q0 140 -75 228q-75 89 -212 89q-73 0 -130 -24q-56 -23 -94 -68 q-39 -45 -59 -101t-20 -126v-528q0 -30 -20 -48q-19 -18 -48 -18q-28 0 -49 18q-20 17 -20 48zM246 1257q0 31 20 52q34 40 77 66t112 26q45 0 78 -13q36 -14 65 -30q27 -15 59 -30q27 -13 66 -13q34 0 54 16q22 18 44 45q17 27 41 27q20 0 37 -15q16 -15 16 -42 q0 -28 -20 -54q-28 -42 -67 -65q-42 -25 -91 -25t-82 13q-38 15 -65 31q-24 14 -61 31q-29 13 -68 13q-47 0 -71 -17q-26 -18 -48 -42q-8 -11 -18 -17t-27 -6q-22 0 -37 15q-14 14 -14 34z" />
<glyph unicode="&#xf2;" horiz-adv-x="1181" d="M94 508q0 113 36 209q37 98 101 168q66 72 157 112q93 41 202 41t202 -41q90 -40 156 -112t102 -168q35 -93 35 -209q0 -115 -35 -210q-36 -98 -102 -168q-67 -72 -156 -111q-88 -39 -202 -39t-202 39q-91 40 -157 111q-64 69 -101 168q-36 98 -36 210zM236 508 q0 -85 24 -158q24 -72 70 -128t110 -86q67 -32 150 -32q81 0 149 31q64 29 112 85q47 55 71 128t24 158q0 86 -24 160q-24 73 -71 129q-46 55 -113 87q-65 31 -148 31q-85 0 -150 -31q-64 -30 -110 -86t-70 -128q-24 -74 -24 -160zM406 1393q0 31 21 50q20 19 48 19 q26 0 46 -17q28 -24 38 -34l205 -194q18 -18 18 -39q0 -17 -13 -31t-32 -14q-12 0 -30 12l-273 192q-28 21 -28 56z" />
<glyph unicode="&#xf3;" horiz-adv-x="1181" d="M94 508q0 113 36 209q37 98 101 168q66 72 157 112q93 41 202 41t202 -41q90 -40 156 -112t102 -168q35 -93 35 -209q0 -115 -35 -210q-36 -98 -102 -168q-67 -72 -156 -111q-88 -39 -202 -39t-202 39q-91 40 -157 111q-64 69 -101 168q-36 98 -36 210zM236 508 q0 -85 24 -158q24 -72 70 -128t110 -86q67 -32 150 -32q81 0 149 31q64 29 112 85q47 55 71 128t24 158q0 86 -24 160q-24 73 -71 129q-46 55 -113 87q-65 31 -148 31q-85 0 -150 -31q-64 -30 -110 -86t-70 -128q-24 -74 -24 -160zM406 1178q0 21 18 39l205 194q10 10 38 34 q20 17 44 17q27 0 49 -19t22 -50q0 -35 -30 -56l-273 -192q-17 -12 -28 -12q-22 0 -33 14q-12 15 -12 31z" />
<glyph unicode="&#xf4;" horiz-adv-x="1181" d="M94 508q0 113 36 209q37 98 101 168q66 72 157 112q93 41 202 41t202 -41q90 -40 156 -112t102 -168q35 -93 35 -209q0 -115 -35 -210q-36 -98 -102 -168q-67 -72 -156 -111q-88 -39 -202 -39t-202 39q-91 40 -157 111q-64 69 -101 168q-36 98 -36 210zM236 508 q0 -85 24 -158q24 -72 70 -128t110 -86q67 -32 150 -32q81 0 149 31q64 29 112 85q47 55 71 128t24 158q0 86 -24 160q-24 73 -71 129q-46 55 -113 87q-65 31 -148 31q-85 0 -150 -31q-64 -30 -110 -86t-70 -128q-24 -74 -24 -160zM293 1174q0 8 8 21q7 12 18 24l224 221 q22 22 51 22q31 0 53 -22l221 -221q25 -30 25 -45q0 -17 -12 -29t-29 -12q-15 0 -39 18l-219 176l-219 -176q-2 -1 -23 -14q-7 -4 -18 -4q-17 0 -29 12t-12 29z" />
<glyph unicode="&#xf5;" horiz-adv-x="1181" d="M94 508q0 113 36 209q37 98 101 168q66 72 157 112q93 41 202 41t202 -41q90 -40 156 -112t102 -168q35 -93 35 -209q0 -115 -35 -210q-36 -98 -102 -168q-67 -72 -156 -111q-88 -39 -202 -39t-202 39q-91 40 -157 111q-64 69 -101 168q-36 98 -36 210zM236 508 q0 -85 24 -158q24 -72 70 -128t110 -86q67 -32 150 -32q81 0 149 31q64 29 112 85q47 55 71 128t24 158q0 86 -24 160q-24 73 -71 129q-46 55 -113 87q-65 31 -148 31q-85 0 -150 -31q-64 -30 -110 -86t-70 -128q-24 -74 -24 -160zM254 1257q0 31 20 52q34 40 77 66t112 26 q46 0 79 -13t64 -30q21 -11 60 -30q27 -13 65 -13q34 0 54 16q22 18 44 45q17 27 41 27q20 0 37 -15t17 -42t-21 -54q-29 -43 -66 -65q-42 -25 -92 -25q-48 0 -81 13q-41 16 -66 31q-27 16 -60 31q-29 13 -69 13q-47 0 -71 -17q-26 -18 -48 -42q-8 -11 -18 -17t-27 -6 q-22 0 -37 15q-14 14 -14 34z" />
<glyph unicode="&#xf6;" horiz-adv-x="1181" d="M94 508q0 113 36 209q37 98 101 168q66 72 157 112q93 41 202 41t202 -41q90 -40 156 -112t102 -168q35 -93 35 -209q0 -115 -35 -210q-36 -98 -102 -168q-67 -72 -156 -111q-88 -39 -202 -39t-202 39q-91 40 -157 111q-64 69 -101 168q-36 98 -36 210zM236 508 q0 -85 24 -158q24 -72 70 -128t110 -86q67 -32 150 -32q81 0 149 31q64 29 112 85q47 55 71 128t24 158q0 86 -24 160q-24 73 -71 129q-46 55 -113 87q-65 31 -148 31q-85 0 -150 -31q-64 -30 -110 -86t-70 -128q-24 -74 -24 -160zM352 1300q0 84 82 84q37 0 61 -21 q23 -20 23 -63q0 -81 -84 -81q-82 0 -82 81zM662 1300q0 84 81 84q36 0 60 -21t24 -63q0 -40 -22 -61q-21 -20 -62 -20q-81 0 -81 81z" />
<glyph unicode="&#xf7;" d="M270 651q0 25 17 40q18 16 43 16h626q25 0 43 -16q17 -15 17 -40q0 -24 -17 -41q-16 -16 -43 -16h-626q-27 0 -43 16q-17 17 -17 41zM526 293q0 49 28 77q27 27 75 27q45 0 74 -28q30 -28 30 -76q0 -51 -28 -78q-29 -27 -76 -27t-75 28t-28 77zM526 991q0 49 28 77t75 28 q43 0 74 -29q30 -29 30 -76q0 -51 -28 -78q-27 -26 -76 -26q-48 0 -75 27q-28 28 -28 77z" />
<glyph unicode="&#xf8;" horiz-adv-x="1181" d="M94 508q0 113 36 209q37 98 101 168q66 72 157 112q93 41 202 41q70 0 128 -16q61 -17 113 -45l25 35q20 26 47 26q26 0 41 -15q14 -14 14 -38q0 -19 -10 -33l-28 -41q78 -72 121 -176q44 -106 44 -227q0 -115 -35 -210q-36 -98 -102 -168q-67 -72 -156 -111 q-88 -39 -202 -39q-153 0 -268 75l-31 -45q-23 -30 -49 -30q-25 0 -40 15q-16 16 -16 36q0 13 4 21l9 18l39 55q-70 74 -106 169q-38 99 -38 214zM236 508q0 -82 20 -148q22 -72 59 -122l443 632q-31 19 -78 32q-40 11 -90 11q-85 0 -150 -31q-64 -30 -110 -86t-70 -128 q-24 -74 -24 -160zM395 160q85 -56 195 -56q81 0 149 31q64 29 112 85q47 55 71 128t24 158q0 91 -26 165q-27 77 -76 132z" />
<glyph unicode="&#xf9;" horiz-adv-x="1105" d="M154 389v563q0 29 19 47q21 19 48 19t48 -19q20 -18 20 -47v-567q0 -123 67 -202t197 -79t197 79t67 202v567q0 29 21 47q22 19 49 19t48 -19q19 -18 19 -47v-563q0 -91 -26 -163q-26 -73 -77 -130q-50 -56 -125 -86t-173 -30q-99 0 -172 30q-74 30 -125 86 q-52 57 -77 130q-25 74 -25 163zM328 1393q0 31 21 50q20 19 48 19q26 0 46 -17q28 -24 38 -34l205 -194q19 -19 19 -39q0 -15 -14 -31q-13 -14 -32 -14q-12 0 -30 12l-273 192q-28 21 -28 56z" />
<glyph unicode="&#xfa;" horiz-adv-x="1105" d="M154 389v563q0 29 19 47q21 19 48 19t48 -19q20 -18 20 -47v-567q0 -123 67 -202t197 -79t197 79t67 202v567q0 29 21 47q22 19 49 19t48 -19q19 -18 19 -47v-563q0 -91 -26 -163q-26 -73 -77 -130q-50 -56 -125 -86t-173 -30q-99 0 -172 30q-74 30 -125 86 q-52 57 -77 130q-25 74 -25 163zM410 1178q0 21 18 39l205 194q10 10 38 34q20 17 44 17q27 0 49 -19t22 -50q0 -35 -30 -56l-273 -192q-17 -12 -28 -12q-22 0 -33 14q-12 15 -12 31z" />
<glyph unicode="&#xfb;" horiz-adv-x="1105" d="M154 389v563q0 29 19 47q21 19 48 19t48 -19q20 -18 20 -47v-567q0 -123 67 -202t197 -79t197 79t67 202v567q0 29 21 47q22 19 49 19t48 -19q19 -18 19 -47v-563q0 -91 -26 -163q-26 -73 -77 -130q-50 -56 -125 -86t-173 -30q-99 0 -172 30q-74 30 -125 86 q-52 57 -77 130q-25 74 -25 163zM256 1174q0 8 8 21q5 8 19 24l223 221q22 22 51 22q31 0 53 -22l221 -221q25 -30 25 -45q0 -17 -12 -29t-29 -12q-15 0 -39 18l-219 176l-219 -176q-2 -1 -23 -14q-7 -4 -18 -4q-17 0 -29 12t-12 29z" />
<glyph unicode="&#xfc;" horiz-adv-x="1105" d="M154 389v563q0 29 19 47q21 19 48 19t48 -19q20 -18 20 -47v-567q0 -123 67 -202t197 -79t197 79t67 202v567q0 29 21 47q22 19 49 19t48 -19q19 -18 19 -47v-563q0 -91 -26 -163q-26 -73 -77 -130q-50 -56 -125 -86t-173 -30q-99 0 -172 30q-74 30 -125 86 q-52 57 -77 130q-25 74 -25 163zM315 1300q0 84 82 84q37 0 61 -21q23 -20 23 -63q0 -81 -84 -81q-82 0 -82 81zM625 1300q0 84 82 84q35 0 59 -21q25 -22 25 -63q0 -40 -23 -61q-21 -20 -61 -20q-82 0 -82 81z" />
<glyph unicode="&#xfd;" horiz-adv-x="1011" d="M63 954q0 26 22 45t52 19q44 0 60 -43l305 -795l317 795q7 17 21 31q12 12 34 12q30 0 49 -18t19 -46q0 -9 -3 -21q-3 -13 -7 -18l-412 -1005q-34 -81 -64 -136t-72 -92q-41 -37 -92 -54q-50 -17 -126 -17q-84 0 -84 61q0 64 70 64q63 0 101 14q41 15 68 39q28 25 46 59 q14 27 34 76l37 94l-366 897q-4 11 -6 21q0 2 -1.5 8.5t-1.5 9.5zM322 1178q0 21 18 39l205 194q10 10 38 34q20 17 44 17q27 0 49 -19t22 -50q0 -35 -30 -56l-273 -192q-17 -12 -28 -12q-22 0 -33 14q-12 15 -12 31z" />
<glyph unicode="&#xfe;" horiz-adv-x="1243" d="M156 -324v1678q0 24 17 41q18 18 52 18q35 0 51 -17q17 -19 17 -42v-568q52 108 146 180q95 72 235 72q103 0 189 -40q90 -42 151 -110q63 -70 99 -168q36 -97 36 -212t-36 -211q-36 -97 -99 -167t-152 -111q-85 -39 -192 -39q-135 0 -230 67q-96 67 -147 186v-557 q0 -28 -19 -47q-18 -18 -49 -18t-50 18t-19 47zM293 508q0 -89 26 -160q27 -73 74 -128t114 -85q68 -31 144 -31q80 0 146 30q65 30 112 84q48 56 73 128q26 75 26 162q0 85 -26 160q-25 71 -73 129q-47 56 -112 87t-146 31q-79 0 -144 -31q-68 -33 -114 -87 q-47 -57 -74 -129q-26 -71 -26 -160z" />
<glyph unicode="&#xff;" horiz-adv-x="1011" d="M63 954q0 26 22 45t52 19q44 0 60 -43l305 -795l317 795q7 17 21 31q12 12 34 12q30 0 49 -18t19 -46q0 -9 -3 -21q-3 -13 -7 -18l-412 -1005q-34 -81 -64 -136t-72 -92q-41 -37 -92 -54q-50 -17 -126 -17q-84 0 -84 61q0 64 70 64q63 0 101 14q41 15 68 39q28 25 46 59 q14 27 34 76l37 94l-366 897q-4 11 -6 21q0 2 -1.5 8.5t-1.5 9.5zM268 1300q0 84 82 84q37 0 61 -21q23 -20 23 -63q0 -81 -84 -81q-82 0 -82 81zM578 1300q0 84 81 84q36 0 60 -21t24 -63q0 -40 -22 -61q-21 -20 -62 -20q-81 0 -81 81z" />
<glyph unicode="&#x152;" horiz-adv-x="2226" d="M82 709q0 157 47 292q46 132 133 230q86 96 205 149q122 54 260 54q187 0 317 -89q128 -88 201 -235v240q0 27 19 46q17 17 51 17h778q32 0 49 -16q19 -17 19 -45q0 -27 -19 -46q-18 -18 -49 -18h-711v-502h492q29 0 49 -16q21 -16 21 -45t-21 -45q-20 -16 -49 -16h-492 v-539h713q30 0 47 -17q19 -19 19 -47t-19 -45q-17 -16 -47 -16h-776q-74 0 -74 63v244q-37 -71 -88 -131q-50 -59 -117 -103q-71 -47 -145 -69q-79 -24 -174 -24q-138 0 -257 54q-118 54 -203 151t-132 231q-47 135 -47 293zM225 711q0 -124 36 -232q36 -107 103 -188 q68 -82 160 -127q96 -47 211 -47q116 0 210 47q93 47 160 127q66 79 102 186t36 228t-35 231t-100 188q-66 80 -160 126q-93 46 -213 46q-119 0 -212 -46q-97 -48 -161 -125q-65 -78 -101 -185t-36 -229z" />
<glyph unicode="&#x153;" horiz-adv-x="1998" d="M94 508q0 113 36 209q37 98 101 168q66 72 157 112q93 41 202 41q148 0 257 -70q108 -70 169 -188q63 121 171 189q109 69 249 69q101 0 184 -34t144 -95q62 -62 95 -137t33 -162q0 -50 -16 -81t-70 -31h-725q1 -85 29 -158q26 -70 74 -124q45 -51 113 -82 q66 -30 151 -30q104 0 179 36q74 35 126 83q22 17 37 17q26 0 44 -21q17 -20 17 -43q0 -34 -28 -55q-60 -57 -159 -99t-226 -42q-148 0 -256 66t-168 183q-61 -117 -170 -183q-108 -66 -254 -66q-114 0 -202 39q-91 40 -157 111q-64 69 -101 168q-36 98 -36 210zM236 508 q0 -85 24 -158q24 -72 70 -128t110 -86q67 -32 150 -32q81 0 149 31q64 29 112 85q47 55 71 128t24 158q0 86 -24 160q-24 73 -71 129q-46 55 -113 87q-65 31 -148 31q-85 0 -150 -31q-64 -30 -110 -86t-70 -128q-24 -74 -24 -160zM1085 590h672q4 58 -17 118 q-20 56 -64 103q-43 46 -103 74t-137 28q-64 0 -122 -21t-106 -64q-47 -43 -80 -102q-32 -59 -43 -136z" />
<glyph unicode="&#x178;" horiz-adv-x="1280" d="M84 1348q0 25 17 45t51 20q16 0 33 -7q18 -7 28 -28l428 -702l424 696q11 19 26 31q13 10 37 10q27 0 47 -17q21 -18 21 -44t-18 -54l-467 -757v-473q0 -29 -20 -49q-19 -19 -50 -19q-33 0 -52 19q-20 20 -20 49v473l-475 764q-10 20 -10 43zM401 1710q0 84 82 84 q37 0 61 -21q23 -20 23 -63q0 -82 -84 -82q-82 0 -82 82zM711 1710q0 84 82 84q35 0 59 -21q25 -22 25 -63q0 -40 -23 -61q-22 -21 -61 -21q-82 0 -82 82z" />
<glyph unicode="&#x2c6;" horiz-adv-x="1024" d="M215 1174q0 8 8 21q5 8 19 24l223 221q22 22 51 22q31 0 53 -22l222 -221q24 -29 24 -45q0 -17 -12 -29t-29 -12q-15 0 -39 18l-219 176l-219 -176q-2 -1 -23 -14q-7 -4 -18 -4q-17 0 -29 12t-12 29z" />
<glyph unicode="&#x2dc;" horiz-adv-x="1024" d="M176 1257q0 30 21 52q35 41 76 66q43 26 112 26q46 0 79 -13t64 -30q21 -11 60 -30q27 -13 65 -13q35 0 55 16q22 18 44 45q16 27 41 27q20 0 36 -15q17 -15 17 -42t-21 -54q-29 -43 -66 -65q-42 -25 -91 -25t-82 13q-41 16 -66 31q-27 16 -60 31q-29 13 -69 13 q-46 0 -70 -17q-28 -20 -49 -42q-8 -11 -18 -17t-27 -6q-22 0 -37 15q-14 14 -14 34z" />
<glyph unicode="&#x2000;" horiz-adv-x="973" />
<glyph unicode="&#x2001;" horiz-adv-x="1946" />
<glyph unicode="&#x2002;" horiz-adv-x="973" />
<glyph unicode="&#x2003;" horiz-adv-x="1946" />
<glyph unicode="&#x2004;" horiz-adv-x="648" />
<glyph unicode="&#x2005;" horiz-adv-x="486" />
<glyph unicode="&#x2006;" horiz-adv-x="324" />
<glyph unicode="&#x2007;" horiz-adv-x="324" />
<glyph unicode="&#x2008;" horiz-adv-x="243" />
<glyph unicode="&#x2009;" horiz-adv-x="389" />
<glyph unicode="&#x200a;" horiz-adv-x="108" />
<glyph unicode="&#x2010;" horiz-adv-x="843" d="M135 526q0 29 20 47q21 19 48 19h438q27 0 48 -19q20 -18 20 -47t-20 -47q-19 -18 -48 -18h-438q-29 0 -48 18q-20 18 -20 47z" />
<glyph unicode="&#x2011;" horiz-adv-x="843" d="M135 526q0 29 20 47q21 19 48 19h438q27 0 48 -19q20 -18 20 -47t-20 -47q-19 -18 -48 -18h-438q-29 0 -48 18q-20 18 -20 47z" />
<glyph unicode="&#x2012;" horiz-adv-x="843" d="M135 526q0 29 20 47q21 19 48 19h438q27 0 48 -19q20 -18 20 -47t-20 -47q-19 -18 -48 -18h-438q-29 0 -48 18q-20 18 -20 47z" />
<glyph unicode="&#x2013;" horiz-adv-x="987" d="M135 526q0 29 20 47q21 19 48 19h581q28 0 49 -19q19 -18 19 -47t-19 -47t-49 -18h-581q-29 0 -48 18q-20 18 -20 47z" />
<glyph unicode="&#x2014;" horiz-adv-x="1734" d="M135 526q0 29 20 47q21 19 48 19h1329q27 0 48 -19q19 -18 19 -47t-19 -47q-20 -18 -48 -18h-1329q-29 0 -48 18q-20 18 -20 47z" />
<glyph unicode="&#x2018;" horiz-adv-x="477" d="M135 1057v82q0 95 32 157q31 61 77 113q24 27 53 27q21 0 39 -16q16 -15 16 -40q0 -22 -14 -37q-38 -39 -64 -81q-26 -43 -26 -123v-82q0 -28 -14 -45t-41 -17q-58 0 -58 62z" />
<glyph unicode="&#x2019;" horiz-adv-x="477" d="M125 1051q0 20 16 36q37 40 62 82q26 43 26 123v82q0 28 15 45t41 17q57 0 57 -62v-82q0 -95 -32 -157q-31 -61 -77 -113q-24 -27 -53 -27q-21 0 -39 16q-16 15 -16 40z" />
<glyph unicode="&#x201a;" horiz-adv-x="477" d="M125 -229q0 20 16 36q37 40 62 82q26 43 26 123v82q0 28 15 45t41 17q57 0 57 -62v-82q0 -97 -32 -158t-77 -112q-24 -27 -53 -27q-21 0 -39 16q-16 15 -16 40z" />
<glyph unicode="&#x201c;" horiz-adv-x="757" d="M135 1057v82q0 95 32 157q31 61 77 113q24 27 53 27q21 0 39 -16q16 -15 16 -40q0 -22 -14 -37q-38 -39 -64 -81q-26 -43 -26 -123v-82q0 -28 -14 -45t-41 -17q-58 0 -58 62zM414 1057v82q0 96 31 157t77 113q24 27 53 27q21 0 39 -16q17 -15 17 -40q0 -20 -15 -37 q-36 -36 -63 -81t-27 -123v-82q0 -29 -13 -45q-14 -17 -42 -17q-57 0 -57 62z" />
<glyph unicode="&#x201d;" horiz-adv-x="757" d="M125 1051q0 20 16 36q37 40 62 82q26 43 26 123v82q0 28 15 45t41 17q57 0 57 -62v-82q0 -95 -32 -157q-31 -61 -77 -113q-24 -27 -53 -27q-21 0 -39 16q-16 15 -16 40zM403 1051q0 19 17 36q34 37 61 82t27 123v82q0 30 14 45q15 17 41 17q58 0 58 -62v-82 q0 -95 -32 -157q-31 -61 -77 -113q-24 -27 -53 -27q-21 0 -39 16q-17 15 -17 40z" />
<glyph unicode="&#x201e;" horiz-adv-x="757" d="M125 -229q0 20 16 36q37 40 62 82q26 43 26 123v82q0 28 15 45t41 17q57 0 57 -62v-82q0 -97 -32 -158t-77 -112q-24 -27 -53 -27q-21 0 -39 16q-16 15 -16 40zM403 -229q0 19 17 36q34 37 61 82t27 123v82q0 30 14 45q15 17 41 17q58 0 58 -62v-82q0 -97 -32 -158 t-77 -112q-24 -27 -53 -27q-21 0 -39 16q-17 15 -17 40z" />
<glyph unicode="&#x2022;" horiz-adv-x="962" d="M264 510q0 105 57 162t160 57q102 0 159 -57q56 -56 56 -162q0 -105 -56 -161t-159 -56q-104 0 -160 56q-57 57 -57 161z" />
<glyph unicode="&#x2026;" horiz-adv-x="1347" d="M147 104q0 49 28 77t75 28q44 0 75 -29q29 -28 29 -76q0 -50 -28 -77t-76 -27q-47 0 -75 28t-28 76zM569 104q0 49 28 77t75 28q43 0 74 -29q30 -28 30 -76q0 -50 -28 -77t-76 -27q-47 0 -75 28t-28 76zM991 104q0 49 28 77t75 28q43 0 74 -29q30 -29 30 -76 q0 -50 -29 -77t-75 -27q-47 0 -75 28t-28 76z" />
<glyph unicode="&#x202f;" horiz-adv-x="389" />
<glyph unicode="&#x2039;" horiz-adv-x="720" d="M88 510q0 27 25 49l417 336q20 16 45 16q23 0 39 -16q17 -17 17 -39q0 -27 -25 -49l-377 -293l375 -301q27 -21 27 -49q0 -21 -16 -39q-15 -16 -37 -16q-13 0 -25 5q-7 3 -21 11l-419 336q-25 22 -25 49z" />
<glyph unicode="&#x203a;" horiz-adv-x="720" d="M88 164q0 28 27 49l374 301l-376 293q-25 22 -25 49q0 23 16 39t39 16q25 0 45 -16l418 -336q25 -22 25 -49t-25 -49l-420 -336q-16 -9 -21 -11q-13 -5 -24 -5q-23 0 -38 16q-15 17 -15 39z" />
<glyph unicode="&#x205f;" horiz-adv-x="486" />
<glyph unicode="&#x20ac;" d="M-2 543q0 25 16 41t43 16h84q-1 9 -2 26.5t-1 26.5q-1 18 -1 56v49q0 28 4 49h-84q-27 0 -43 16t-16 41t16 41q17 17 43 17h101q23 114 78 213q52 94 126 160q75 67 166 103t199 36q90 0 168 -26q79 -26 133 -62q58 -38 96 -79q41 -44 62 -75q37 -55 37 -96 q0 -34 -22 -50t-44 -16q-38 0 -55 29q-29 43 -68 87q-38 43 -83 76q-43 32 -101 54q-53 20 -123 20q-80 0 -146 -27q-65 -27 -121 -78q-53 -49 -93 -119t-60 -150h449q23 0 42 -17q17 -16 17 -41t-17 -41t-42 -16h-469q-1 -8 -2 -24.5t-1 -24.5q-1 -16 -1 -49q0 -58 6 -109 h467q25 0 42 -16t17 -41t-17 -41q-19 -17 -42 -17h-445q22 -79 62 -149q39 -68 93 -117q53 -48 122 -76q65 -26 147 -26q122 0 210 61q90 63 155 166q24 33 53 33q26 0 44 -20q17 -18 17 -46q0 -14 -4 -27q-5 -17 -16 -32q-20 -30 -60 -79q-33 -41 -96 -89q-58 -44 -134 -74 t-177 -30q-107 0 -197 34q-89 33 -165 102q-73 66 -126 159q-52 92 -79 210h-103q-26 0 -43 17q-16 16 -16 41z" />
<glyph unicode="&#x2122;" horiz-adv-x="1437" d="M27 1364q0 22 15 36q14 13 38 13h473q26 0 40 -13q15 -14 15 -36t-15 -36q-14 -13 -40 -13h-180v-494q0 -25 -16 -41q-14 -14 -40 -14t-41 14q-16 15 -16 41v494h-180q-24 0 -38 13q-15 14 -15 36zM662 819v531q0 29 17 46t46 17q23 0 36 -12t30 -39l217 -350l223 350 q30 51 65 51q24 0 42 -15t18 -48v-531q0 -24 -17 -39q-15 -14 -39 -14q-25 0 -40 14q-17 15 -17 39v373l-186 -295q-12 -20 -22 -28q-12 -9 -29 -9q-29 0 -50 37l-180 293v-371q0 -24 -16 -39q-15 -14 -41 -14t-41 14q-16 15 -16 39z" />
<glyph unicode="&#x25fc;" horiz-adv-x="1013" d="M0 0v1014h1014v-1014h-1014z" />
</font>
</defs>
</svg>
