<?xml version="1.0" standalone="no"?>
<!DOCTYPE svg PUBLIC "-//W3C//DTD SVG 1.1//EN" "http://www.w3.org/Graphics/SVG/1.1/DTD/svg11.dtd" >
<svg xmlns="http://www.w3.org/2000/svg">
<metadata></metadata>
<defs>
<font id="booster_next_fythin" horiz-adv-x="1286" >
<font-face units-per-em="2048" ascent="1593" descent="-455" />
<missing-glyph horiz-adv-x="450" />
<glyph unicode="&#xfb01;" horiz-adv-x="1038" d="M164 33v973q0 200 97 313q98 115 288 115q92 0 158 -15q69 -16 112 -35q33 -15 33 -34q0 -37 -33 -37q-13 0 -35 8q-34 12 -52 19q-34 13 -74 20q-45 8 -99 8q-87 0 -150 -25q-62 -25 -99 -71q-36 -45 -55 -115q-17 -65 -19 -153h593q35 0 35 -33v-809q0 -45 14 -71 q13 -25 58 -25q37 0 37 -35q0 -31 -43 -31q-86 0 -112 48q-25 47 -25 116v772h-557v-903q0 -33 -35 -33q-17 0 -27 9t-10 24z" />
<glyph unicode="&#xfb02;" horiz-adv-x="1038" d="M162 78q0 27 1 40t1 36v852q0 200 98 313q100 115 297 115q87 0 148 -12q70 -14 112 -31q21 -10 34 -23q11 -11 11 -37v-1169q0 -45 14 -71q13 -25 58 -25q37 0 37 -35q0 -31 -43 -31q-86 0 -112 48q-25 47 -25 116v1159q-36 13 -91 29t-141 16t-149 -26t-100 -72 q-38 -47 -56 -115q-19 -70 -20 -151h262q34 0 34 -33q0 -35 -34 -35h-262v-903q0 -33 -35 -33q-25 0 -32 24q-7 22 -7 54z" />
<glyph horiz-adv-x="0" />
<glyph horiz-adv-x="0" />
<glyph unicode="&#xd;" horiz-adv-x="0" />
<glyph unicode=" "  horiz-adv-x="450" />
<glyph unicode="&#x09;" horiz-adv-x="450" />
<glyph unicode="&#xa0;" horiz-adv-x="450" />
<glyph unicode="!" horiz-adv-x="520" d="M184 78q0 78 76 78t76 -78q0 -34 -20 -56t-56 -22q-33 0 -55 22q-21 21 -21 56zM211 1356q-5 78 49 78q28 0 40 -21q11 -19 11 -57l-18 -934q0 -37 -31 -37q-29 0 -29 37z" />
<glyph unicode="&#x22;" horiz-adv-x="698" d="M186 1370q-2 23 10 36t29 13q20 0 32 -13q11 -12 9 -36l-14 -364q-4 -27 -25 -27q-23 0 -28 27zM432 1370q-2 24 9 36q12 13 30 13q20 0 32 -13q11 -12 9 -36l-14 -364q-4 -27 -25 -27q-25 0 -29 27z" />
<glyph unicode="#" horiz-adv-x="1380" d="M92 432q0 17 12 26t29 9h166l215 491h-135q-16 0 -29 10q-12 9 -12 25q0 17 12 26t29 9h166l166 375q6 16 13 20t17 4q33 0 33 -34q0 -9 -2 -15l-154 -350h416l164 373q6 16 13 20t18 4q33 0 33 -34q0 -9 -2 -15l-154 -348h141q17 0 29 -9t12 -26q0 -16 -12 -25 q-13 -10 -29 -10h-172l-215 -491h141q17 0 29 -9t12 -26q0 -16 -12 -25q-13 -10 -29 -10h-172l-167 -383q-6 -15 -15 -24q-6 -6 -18 -6q-15 0 -25 9t-10 25q0 9 2 17l160 362h-414l-168 -383q-7 -17 -14 -24q-6 -6 -19 -6t-24 9t-11 25q0 5 3 17l159 362h-135q-16 0 -29 10 q-12 9 -12 25zM373 467h413l218 491h-416z" />
<glyph unicode="$" d="M180 268q0 13 10 23t27 10q20 0 37 -25q20 -32 50 -69q29 -36 76 -71q43 -32 109 -57q61 -23 152 -28v649q-6 0 -14 5q-55 13 -117 34q-67 22 -128 65q-60 42 -102 105t-42 156q0 78 31 143q31 64 86 115q54 49 128 78q73 28 158 33v186q0 35 37 35t37 -35v-190 q67 -6 119 -24q54 -18 92 -39q36 -19 65 -42q27 -21 39 -33q14 -14 14 -28q0 -12 -9 -24q-8 -11 -25 -11q-14 0 -24 5q-9 4 -15 9q-9 6 -32 25q-20 17 -50 35q-29 18 -74 33q-48 17 -100 22v-600l22 -6q69 -18 132 -40q69 -24 126 -66q61 -45 96 -107q37 -65 37 -166 q0 -70 -27 -136q-28 -68 -80 -120q-53 -53 -129 -89q-78 -37 -177 -44v-191q0 -35 -37 -35t-37 35v187q-103 2 -180 31q-75 29 -133 71q-53 39 -89 84q-33 42 -49 72q-10 16 -10 30zM313 1069q0 -60 26 -107q24 -44 71 -80t104 -59q62 -25 127 -45v584q-75 -1 -136 -26 q-64 -25 -104 -63q-42 -39 -65 -93t-23 -111zM715 53q71 6 134 33q60 26 107 68q45 41 71 94q26 54 26 112q0 76 -24 127q-24 52 -67 87q-43 36 -107 60q-61 23 -140 46v-627z" />
<glyph unicode="%" horiz-adv-x="1435" d="M96 1092q0 79 22 145t57 108q36 43 84 66q49 23 103 23q117 0 194 -91t77 -251q0 -163 -76 -251q-77 -89 -192 -89q-117 0 -193 88t-76 252zM152 35q0 13 18 37l1042 1310q20 24 21 25q6 6 16 6q17 0 27 -9t10 -26q0 -6 -3 -13q-3 -8 -19 -28l-1039 -1306l-21 -25 q-8 -6 -20 -6q-9 0 -21 9q-11 8 -11 26zM170 1092q0 -136 53 -206q52 -69 142 -69q89 0 141 69q53 70 53 206t-53 206t-141 70q-89 0 -142 -70t-53 -206zM803 319q0 83 21 146q21 62 58 107t84 67q49 23 103 23q117 0 194 -91q76 -89 76 -252t-75 -250q-77 -89 -193 -89 t-192 88t-76 251zM877 319q0 -135 53 -205q52 -69 141 -69t141 69q54 71 54 205q0 136 -54 207q-53 70 -141 70t-141 -70t-53 -207z" />
<glyph unicode="&#x26;" horiz-adv-x="1341" d="M123 332q0 73 30 136q32 66 77 116q48 53 110 101q56 44 125 93l-33 35q-53 51 -89 95q-32 39 -58 82q-23 39 -32 75q-9 37 -9 76q0 61 21 115q21 55 62 94t96 61q58 23 126 23q59 0 116 -22q52 -20 94 -59q37 -35 63 -89q24 -51 24 -111q0 -59 -23 -111q-23 -51 -61 -97 q-40 -48 -88 -87q-54 -44 -105 -80l383 -381l158 183q11 14 29 14q14 0 23 -9t9 -22q0 -8 -10 -22l-164 -191l287 -282q16 -16 16 -33q0 -15 -10 -25t-26 -10q-17 0 -31 14l-283 281l-24 -27q-51 -59 -110 -118q-60 -60 -106 -92q-53 -36 -114 -58q-57 -20 -131 -20 q-79 0 -141 25q-65 26 -108 72q-47 50 -69 110q-24 64 -24 145zM197 334q0 -61 19 -112q19 -52 55 -92q35 -39 88 -62q54 -23 118 -23q57 0 106 21q56 24 98 54q50 36 92 78q45 45 85 91l45 53l-393 393q-40 -29 -116 -87q-55 -42 -100 -93t-71 -103t-26 -118zM317 1151 q0 -20 5 -48q5 -29 17 -57q14 -33 40 -69q25 -34 72 -80l73 -76q57 43 94 74q46 39 79 77q34 40 55 82q20 40 20 91q0 47 -17 85q-18 40 -48 70q-33 33 -73 50q-42 18 -91 18q-54 0 -96 -18q-38 -16 -70 -50q-29 -31 -44 -69q-16 -42 -16 -80z" />
<glyph unicode="'" horiz-adv-x="452" d="M186 1370q-2 23 10 36t29 13q20 0 32 -13q11 -12 9 -36l-14 -364q-4 -27 -25 -27q-23 0 -28 27z" />
<glyph unicode="(" horiz-adv-x="612" d="M154 573q0 178 35 315q36 141 85 248q48 105 102 182q63 90 85 120q14 19 35 40q17 17 34 17q16 0 23 -10q8 -11 8 -23q0 -14 -10 -28q-3 -4 -27 -37q-43 -55 -90 -125q-50 -75 -97 -178q-46 -101 -78 -233q-32 -133 -32 -288q0 -154 32 -287q31 -130 78 -234t97 -178 q49 -71 90 -124q24 -33 27 -37q10 -14 10 -28q0 -12 -8 -23q-7 -10 -23 -10q-17 0 -34 17q-21 21 -35 40q-22 30 -85 120q-54 77 -102 182q-49 106 -85 247q-35 136 -35 315z" />
<glyph unicode=")" horiz-adv-x="612" d="M51 -315q0 14 10 28q3 4 27 37q41 53 90 124q50 74 97 178t78 234q32 133 32 287q0 155 -32 288q-32 132 -78 233q-47 103 -97 178q-47 70 -90 125q-24 33 -27 37q-10 14 -10 28q0 12 8 23q7 10 23 10q18 0 35 -17q21 -21 35 -40q22 -30 85 -120q51 -73 101 -182 q49 -107 85 -248t36 -315q0 -175 -36 -315q-36 -141 -85 -247q-50 -109 -101 -182q-63 -90 -85 -120q-14 -19 -35 -40q-17 -17 -35 -17q-16 0 -23 10q-8 11 -8 23z" />
<glyph unicode="*" horiz-adv-x="954" d="M168 1188q15 45 61 24l232 -102l-23 252q-2 24 8 36q10 13 31 13q46 0 41 -47l-24 -252l233 98q43 16 59 -20q8 -23 -2 -37t-30 -18l-246 -58l162 -188q30 -38 -2 -64q-17 -14 -35 -9q-15 4 -27 24l-131 217l-129 -213q-27 -41 -61 -17q-19 13 -19 30t15 34l165 188 l-243 58q-47 11 -35 51z" />
<glyph unicode="+" d="M293 653q0 35 41 35h274v283q0 41 35 41t35 -41v-283h274q41 0 41 -35t-41 -35h-274v-286q0 -41 -35 -41t-35 41v286h-274q-41 0 -41 35z" />
<glyph unicode="," horiz-adv-x="520" d="M129 -242q0 18 21 25q14 6 34 17t40 36q20 24 35 64q16 43 22 98q-45 -4 -71 17t-26 63q0 78 76 78q36 0 59 -24q23 -25 23 -85q0 -76 -21 -133q-19 -51 -53 -97q-29 -40 -63 -61q-31 -20 -53 -20q-23 0 -23 22z" />
<glyph unicode="-" horiz-adv-x="827" d="M143 526q0 16 13 29q12 12 30 12h455q19 0 31 -12t12 -29q0 -16 -12 -28q-13 -13 -31 -13h-455q-17 0 -30 13t-13 28z" />
<glyph unicode="." horiz-adv-x="520" d="M184 78q0 78 76 78q32 0 54 -22t22 -56t-20 -56t-56 -22q-33 0 -55 22q-21 21 -21 56z" />
<glyph unicode="/" horiz-adv-x="802" d="M41 37q0 10 6 22l645 1330q6 14 16 20q7 4 17 4q17 0 27 -9t10 -26q0 -8 -8 -26l-639 -1323q-11 -19 -19 -24t-20 -5q-15 0 -25 10t-10 27z" />
<glyph unicode="0" horiz-adv-x="1204" d="M131 700q0 171 32 308q31 135 92 230q61 96 147 145q90 51 200 51q114 0 205 -51q86 -48 147 -144q59 -93 89 -230t30 -309q0 -352 -123 -538q-124 -187 -348 -187q-234 0 -352 186q-119 187 -119 539zM207 700q0 -154 25 -273q26 -122 75 -206t123 -129t172 -45t172 45 t123 129t75 206q25 119 25 273q0 151 -25 270q-26 122 -75 209t-123 135t-172 48t-172 -48t-123 -135t-75 -209q-25 -119 -25 -270z" />
<glyph unicode="1" horiz-adv-x="731" d="M82 1075q0 5 3 14q3 8 15 19l324 274q28 24 34 27q7 4 17 4q39 0 39 -35l2 -1345q0 -15 -10 -24t-27 -9q-37 0 -37 33v1274l-286 -240q-6 -6 -22 -16q-11 -7 -19 -7q-17 0 -25 11t-8 20z" />
<glyph unicode="2" horiz-adv-x="1019" d="M113 29q0 10 5 22t19 27l414 555q53 72 117 163q50 72 80 128q30 58 45 106q14 46 14 96q0 96 -71 165q-71 70 -206 71q-118 0 -189 -47q-70 -46 -105 -115q-11 -23 -21 -29t-20 -6q-17 0 -26 11q-9 10 -9 26q0 21 20 58t65 76q45 38 114 68q71 30 169 30q76 0 141 -21 q67 -22 111 -60q48 -42 74 -100q27 -60 27 -135q0 -54 -18 -111q-20 -63 -51 -117q-39 -68 -82 -127q-105 -144 -107 -147l-408 -548h651q41 0 41 -35q0 -33 -41 -33h-714q-39 0 -39 29z" />
<glyph unicode="3" horiz-adv-x="1017" d="M92 127q0 20 11 28q12 9 26 9q11 0 16 -4l13 -8q57 -51 131 -78q73 -27 157 -27q74 0 143 25q68 25 116 70q47 45 77 113q29 67 29 151q0 68 -23 131q-22 61 -67 106q-46 45 -110 71q-63 25 -150 25h-53q-41 0 -41 37q0 33 41 33h53q68 0 122 21q50 20 94 60q39 36 61 88 t22 107q0 70 -26 124q-26 53 -66 87t-95 53q-50 17 -110 17q-84 0 -144 -24q-61 -24 -124 -66q-11 -8 -23 -8q-11 0 -21 8t-10 22q0 19 17 31q41 33 113 68q75 37 192 37q77 0 147 -25q67 -24 118 -70q52 -47 78 -108q28 -65 28 -139q0 -219 -230 -314q143 -43 212 -142 t69 -230q0 -101 -34 -179q-35 -80 -92 -136q-59 -58 -137 -87q-82 -31 -169 -31q-119 0 -204 33q-86 33 -143 90q-10 10 -12 19q-2 10 -2 12z" />
<glyph unicode="4" horiz-adv-x="1044" d="M72 377q0 16 16 39l602 960q15 22 27 30q11 7 28 7q33 0 33 -43v-960h160q33 0 33 -33t-33 -33h-162v-309q0 -35 -35 -35q-36 0 -36 35v309h-594q-39 0 -39 33zM162 410h543v874z" />
<glyph unicode="5" horiz-adv-x="1112" d="M154 272q0 17 10 27t29 10q20 0 30 -22q27 -71 66 -118q39 -46 85 -73q44 -26 95 -38q45 -11 98 -11q77 0 144 29q65 28 112 81q48 54 74 124q27 72 27 155q0 76 -24 144t-69 117q-47 51 -108 79q-64 29 -143 29q-93 0 -168 -34q-78 -35 -146 -112l-17 -17q-7 -7 -22 -7 q-25 0 -24 39l26 692q1 20 9 30q6 7 22 7h635q35 0 35 -35t-35 -35h-596l-27 -581q45 51 127 88q81 37 174 37t172 -29q78 -28 135 -84q57 -55 88 -136q31 -80 31 -186q0 -110 -34 -194q-34 -86 -95 -146q-60 -60 -137 -91t-164 -31q-117 0 -195 37q-76 36 -128 88 q-49 49 -71 99q-21 48 -21 68z" />
<glyph unicode="6" horiz-adv-x="1134" d="M133 543q0 184 47 349q46 163 138 283t222 189q132 70 296 70q22 0 41 -8q18 -7 18 -31q0 -23 -16 -27q-15 -4 -29 -4q-281 -6 -444 -187q-164 -181 -207 -573q18 51 56 98q37 46 89 81q48 33 112 55q57 20 124 20q94 0 175 -32q77 -31 134 -89q56 -58 86 -137 q31 -82 31 -176q0 -91 -35 -173t-94 -141q-63 -63 -139 -96q-78 -34 -165 -34q-94 0 -170 33q-80 35 -140 104t-95 175q-35 107 -35 251zM213 422q0 -73 28 -143q27 -68 75 -119t114 -81t143 -30q72 0 140 28q64 26 113 77q50 52 77 117q29 70 29 153q0 79 -25 149 q-24 68 -70 117q-45 48 -113 76q-66 27 -151 27q-73 0 -139 -30q-64 -29 -115 -80q-47 -47 -77 -118q-29 -69 -29 -143z" />
<glyph unicode="7" horiz-adv-x="899" d="M72 1378q0 14 9 25q9 10 25 10h699q26 0 34 -7q9 -8 9 -24q0 -12 -17 -51l-622 -1282q-16 -30 -25 -39q-10 -10 -20 -10q-16 0 -27 9q-10 9 -10 26q0 11 6 23l12 24l619 1264h-658q-34 0 -34 32z" />
<glyph unicode="8" horiz-adv-x="1091" d="M123 406q0 131 77 237q77 105 206 152q-98 40 -147 125q-50 86 -50 178q0 67 25 127q24 58 70 107q44 47 106 74q64 28 135 28t135 -28q61 -27 105 -74q47 -50 69 -107q25 -64 25 -127q0 -96 -50 -176q-50 -81 -147 -129q64 -18 117 -56q55 -39 91 -87q37 -49 58 -112 t21 -132q0 -89 -32 -168q-33 -81 -88 -136q-58 -58 -134 -90t-172 -32q-97 0 -171 32q-76 33 -132 90t-86 136q-31 81 -31 168zM197 403q0 -75 26 -139q27 -66 73 -112q49 -49 110 -75q65 -28 139 -28q73 0 140 28q62 26 111 75q44 44 72 112q27 66 27 139q0 72 -25 138 q-24 63 -70 109q-45 45 -110 73q-63 27 -143 27q-79 0 -143 -27t-110 -73q-47 -47 -72 -109t-25 -138zM283 1098q0 -55 19 -103q19 -49 54 -88q33 -38 83 -61q49 -23 106 -23q54 0 102 23t83 61t55 89t20 104q0 50 -19 101q-18 47 -53 84q-34 36 -83 57q-50 22 -105 22 q-58 0 -108 -22q-47 -21 -82 -57q-33 -34 -53 -84q-19 -47 -19 -103z" />
<glyph unicode="9" horiz-adv-x="1134" d="M129 989q0 96 35 180q35 83 94 141q60 59 138 91q80 33 165 33q92 0 170 -34q80 -35 140 -104q62 -71 96 -176t34 -250q0 -184 -47 -349q-46 -161 -138 -282q-93 -123 -221 -190q-130 -69 -296 -69q-24 0 -41 7q-18 8 -18 31t16 27q15 4 29 4q277 6 450 196 q173 189 201 564q-18 -51 -56 -99q-35 -44 -89 -80q-48 -33 -112 -55q-57 -20 -124 -20q-89 0 -170 31q-78 30 -135 87q-58 58 -89 136q-32 81 -32 180zM203 989q0 -82 24 -148q24 -67 71 -115q46 -48 113 -75q64 -26 150 -26q75 0 138 28t114 79q48 48 78 117q29 67 29 142 q0 77 -27 144t-75 118q-49 52 -113 81q-66 30 -144 30q-75 0 -141 -30q-65 -30 -114 -80q-50 -52 -76 -118q-27 -69 -27 -147z" />
<glyph unicode=":" horiz-adv-x="520" d="M184 78q0 78 76 78q32 0 54 -22t22 -56t-20 -56t-56 -22q-33 0 -55 22q-21 21 -21 56zM184 922q0 77 76 77q33 0 54 -21q22 -22 22 -56q0 -35 -20 -57q-19 -21 -56 -21q-34 0 -55 21t-21 57z" />
<glyph unicode=";" horiz-adv-x="520" d="M129 -242q0 18 21 25q14 6 34 17t40 36q20 24 35 64q16 43 22 98q-45 -4 -71 17t-26 63q0 78 76 78q36 0 59 -24q23 -25 23 -85q0 -76 -21 -133q-19 -51 -53 -97q-29 -40 -63 -61q-31 -20 -53 -20q-23 0 -23 22zM184 922q0 77 76 77q33 0 54 -21q22 -22 22 -56 q0 -35 -20 -57q-19 -21 -56 -21q-34 0 -55 21t-21 57z" />
<glyph unicode="&#x3c;" d="M342 647q0 16 23 33l481 301q3 2 9 4.5t8 3.5q8 4 20 4q10 0 22 -9q13 -10 13 -26q0 -17 -23 -32l-453 -279l453 -278q23 -15 23 -33q0 -16 -13 -26q-12 -9 -22 -9q-12 0 -20 4q-2 1 -8 3.5t-9 4.5l-481 301q-23 15 -23 33z" />
<glyph unicode="=" d="M293 475q0 35 41 35h618q41 0 41 -35t-41 -35h-618q-41 0 -41 35zM293 823q0 35 41 35h618q41 0 41 -35t-41 -35h-618q-41 0 -41 35z" />
<glyph unicode="&#x3e;" d="M369 336q0 18 22 33l453 278l-453 279q-22 15 -22 32t12 26t22 9q12 0 20 -4q2 -1 8 -3.5t9 -4.5l482 -301q22 -16 22 -33q0 -18 -22 -33l-482 -301q-3 -2 -9 -4.5t-8 -3.5q-8 -4 -20 -4q-10 0 -22 9t-12 26z" />
<glyph unicode="?" horiz-adv-x="1030" d="M154 1194q0 18 8 37t20 37q45 65 128 116q82 50 196 50q80 0 149 -25q64 -23 110 -69q45 -45 68 -103q23 -57 23 -127q0 -82 -28 -147q-28 -66 -75 -111q-50 -49 -112 -78q-67 -32 -135 -49v-305q0 -35 -37 -35q-35 0 -35 35v328q0 22 10 32q11 11 31 15q147 28 226 109 q79 80 79 206q0 50 -18 97q-17 45 -54 80q-33 31 -86 54q-50 21 -114 21q-68 0 -128 -27q-62 -28 -108 -80q-24 -26 -44 -60q-18 -32 -40 -32q-14 0 -24 7t-10 24zM391 78q0 78 76 78t76 -78q0 -34 -20 -56t-56 -22q-33 0 -55 22q-21 21 -21 56z" />
<glyph unicode="@" horiz-adv-x="1576" d="M123 469q0 143 48 269q48 125 137 219q91 95 216 147q129 53 287 53q143 0 261 -45q116 -44 203 -128q84 -82 132 -198q47 -115 47 -251q0 -108 -22 -183t-61 -123q-37 -47 -87 -69q-51 -23 -100 -23q-51 0 -88 16q-34 15 -56 40q-18 20 -30 55q-12 33 -13 59 q-29 -79 -94 -125q-67 -47 -149 -47q-62 0 -117 25q-54 25 -92 67q-41 46 -61 103q-21 60 -21 129t21 129q19 56 61 102q39 44 92 68t117 24q77 0 141 -38q63 -38 102 -123v108q0 35 29 35t29 -33v-387q0 -66 32 -108q33 -43 99 -43q41 0 75 20q37 22 64 60q28 39 46 99 q18 58 18 134q0 114 -34 219t-105 188q-69 80 -179 131q-109 50 -258 50q-144 0 -261 -50q-119 -51 -196 -134q-81 -87 -122 -198q-42 -114 -42 -241q0 -124 45 -243q43 -115 123 -202q81 -88 191 -139q111 -51 244 -51q53 0 84 4q29 4 62 13q22 6 51 17q27 10 46 19 q10 4 24 11q8 4 17 4q10 0 18 -8q7 -7 7 -19q0 -9 -3 -17q-2 -6 -16 -18q-29 -22 -109 -46q-76 -23 -196 -23q-146 0 -266 55q-121 55 -208 150q-86 94 -135 223q-48 127 -48 268zM535 459q0 -59 17 -103q19 -49 49 -82q31 -34 74 -54q41 -19 91 -19t91 19q43 20 74 54 q30 33 49 82q17 44 17 103q0 58 -17 102q-19 49 -49 82q-31 34 -74 54t-91 20t-91 -20t-74 -54q-30 -33 -49 -82q-17 -44 -17 -102z" />
<glyph unicode="A" horiz-adv-x="1376" d="M92 31q0 11 7 28q21 50 34 80l504 1221q11 29 21 40q12 13 30 13q19 0 31 -13q11 -13 22 -40l502 -1221q13 -30 34 -80q7 -17 7 -28q0 -17 -13 -24t-26 -7q-20 0 -32 19q-7 11 -37 85l-127 316h-730l-159 -391q-7 -16 -16 -23q-8 -6 -17 -6q-12 0 -23 7q-12 7 -12 24z M346 485h676l-334 826z" />
<glyph unicode="B" horiz-adv-x="1243" d="M195 37v1341q0 35 34 35h451q101 0 170 -30q72 -31 115 -77t65 -108q21 -60 21 -121q0 -63 -19 -118q-17 -50 -49 -90q-28 -35 -68 -64q-37 -27 -73 -41q52 -11 105 -40q50 -27 89 -71q41 -46 62 -102q22 -59 22 -135q0 -92 -30 -169q-29 -75 -88 -132q-56 -55 -136 -85 t-178 -30h-459q-34 0 -34 37zM268 66h426q153 0 253 89t100 261q0 137 -90 224q-88 85 -269 85h-420v-659zM268 791h453q64 0 110 25q47 26 80 66q34 42 50 89q16 48 16 94q0 57 -16 105q-16 49 -52 91q-32 37 -88 63q-52 24 -127 24h-426v-557z" />
<glyph unicode="C" horiz-adv-x="1417" d="M123 711q0 166 49 298q50 133 135 228q84 93 203 145t254 52q94 0 172 -24t140 -58q60 -33 109 -77q48 -43 75 -79q18 -23 33 -51q12 -22 12 -41q0 -18 -12 -25q-13 -8 -23 -8q-25 0 -37 23q-29 45 -76 95t-103 86q-60 38 -131 62q-75 25 -159 25q-132 0 -236 -52 t-178 -141q-73 -88 -112 -206q-39 -119 -39 -250q0 -134 40 -253q41 -122 113 -210q75 -92 178 -145q105 -54 234 -54q147 0 267 70q118 69 192 188q19 31 37 31q12 0 24 -9t12 -28q0 -1 -2 -13q-1 -8 -8 -20q-18 -30 -59 -80q-38 -47 -105 -96q-62 -46 -152 -81 q-85 -33 -206 -33q-138 0 -254 52q-119 53 -203 148q-85 95 -135 232q-49 134 -49 299z" />
<glyph unicode="D" horiz-adv-x="1378" d="M195 35v1343q0 35 36 35h416q140 0 255 -53q112 -52 192 -147q77 -91 119 -220q42 -127 42 -274q0 -143 -42 -274q-42 -132 -119 -229q-79 -100 -192 -158t-255 -58h-418q-34 0 -34 35zM268 66h375q122 0 220 52q100 53 170 141q72 90 109 208q38 120 38 252 q0 130 -38 247q-37 113 -109 199q-70 84 -172 133q-103 50 -228 50h-365v-1282z" />
<glyph unicode="E" horiz-adv-x="1159" d="M195 37v1339q0 37 38 37h799q35 0 35 -33q0 -32 -35 -32h-764v-586h547q35 0 35 -33t-35 -33h-547v-630h764q35 0 35 -33t-35 -33h-801q-36 0 -36 37z" />
<glyph unicode="F" horiz-adv-x="1128" d="M195 35v1341q0 37 38 37h779q35 0 35 -33q0 -32 -35 -32h-744v-607h527q34 0 34 -32q0 -33 -34 -33h-527v-641q0 -35 -37 -35q-36 0 -36 35z" />
<glyph unicode="G" horiz-adv-x="1464" d="M123 707q0 166 49 298q50 135 135 229t203 147t254 53q174 0 305 -71t215 -206q23 -38 23 -53q0 -35 -33 -35q-16 0 -23 7q-6 6 -30 38q-91 134 -202 192q-108 56 -255 56q-130 0 -236 -53q-101 -51 -178 -143q-72 -87 -112 -209q-39 -120 -39 -250q0 -135 40 -252 q42 -122 113 -208q77 -92 178 -143q106 -53 234 -53q119 0 212 40q98 42 162 112q67 73 101 173q30 88 30 188q0 17 -1 34h-389q-37 0 -37 33t37 33h413q49 0 49 -86q0 -132 -39 -236q-40 -108 -114 -189q-73 -81 -181 -127q-107 -46 -243 -46q-138 0 -254 52 q-118 53 -203 147q-84 93 -135 230q-49 132 -49 298z" />
<glyph unicode="H" horiz-adv-x="1447" d="M195 35v1343q0 35 36 35q37 0 37 -35v-616h912v616q0 35 37 35q36 0 36 -35v-1343q0 -35 -36 -35q-37 0 -37 35v661h-912v-661q0 -35 -37 -35q-36 0 -36 35z" />
<glyph unicode="I" horiz-adv-x="462" d="M195 35v1343q0 35 36 35q37 0 37 -35v-1343q0 -35 -37 -35q-36 0 -36 35z" />
<glyph unicode="J" horiz-adv-x="1103" d="M92 281q0 14 10 25t27 11q19 0 35 -30q16 -35 43 -83q23 -40 62 -76q36 -33 95 -55q60 -22 138 -22q60 0 121 18q62 18 110 59q49 42 81 111q32 70 32 173v966q0 35 37 35t37 -35v-966q0 -112 -34 -193q-35 -85 -90 -135q-59 -54 -133 -79q-75 -25 -163 -25 q-95 0 -160 25q-64 25 -112 65q-44 37 -74 84q-34 54 -48 84q-14 27 -14 43z" />
<glyph unicode="K" horiz-adv-x="1216" d="M195 35v1343q0 35 36 35q37 0 37 -35v-792l721 811q15 16 31 16q15 0 26 -10t11 -27q0 -15 -19 -37l-520 -581l590 -688q16 -17 16 -33q0 -17 -11 -27t-26 -10q-20 0 -36 20l-586 682l-197 -217v-450q0 -35 -37 -35q-36 0 -36 35z" />
<glyph unicode="L" horiz-adv-x="1097" d="M195 37v1341q0 35 36 35q37 0 37 -35v-1312h723q35 0 35 -33t-35 -33h-758q-38 0 -38 37z" />
<glyph unicode="M" horiz-adv-x="1665" d="M195 35v1343q0 35 34 35q20 0 28 -7q11 -10 22 -28l555 -962l552 962q11 18 22 28q8 7 28 7q34 0 34 -35v-1345q0 -35 -36 -35q-37 0 -37 35v1227l-541 -934q-13 -19 -29 -19q-18 0 -26 19l-533 929v-1220q0 -35 -37 -35q-36 0 -36 35z" />
<glyph unicode="N" horiz-adv-x="1400" d="M195 35v1325q0 29 8 42q7 11 22 11q21 0 37 -22l871 -1235v1220q0 35 36 35q37 0 37 -35v-1341q0 -35 -30 -35q-20 0 -39 25l-869 1237v-1227q0 -35 -37 -35q-36 0 -36 35z" />
<glyph unicode="O" horiz-adv-x="1531" d="M123 711q0 156 47 289q47 134 132 229q86 97 203 150q121 55 261 55t261 -55q117 -53 203 -150q85 -95 132 -229q47 -133 47 -289q0 -157 -47 -292t-132 -232t-203 -152q-117 -55 -261 -55t-261 55q-118 55 -203 152t-132 232t-47 292zM199 711q0 -133 39 -252 q39 -120 112 -210q75 -93 179 -145q106 -53 237 -53q135 0 241 53q105 53 178 145q73 93 110 210q38 120 38 252q0 131 -39 250t-112 207q-74 89 -180 142q-104 52 -236 52q-137 0 -241 -52q-105 -53 -178 -142q-73 -90 -110 -207q-38 -120 -38 -250z" />
<glyph unicode="P" horiz-adv-x="1198" d="M195 35v1343q0 35 36 35h414q229 0 340 -117t111 -327q0 -200 -119 -314t-340 -114h-369v-506q0 -35 -37 -35q-36 0 -36 35zM268 606h369q102 0 178 28q73 27 120 77q45 48 66 114t21 144q0 181 -98 279q-100 100 -291 100h-365v-742z" />
<glyph unicode="Q" horiz-adv-x="1531" d="M123 711q0 156 47 289q47 134 132 229q86 97 203 150q121 55 261 55t261 -55q117 -53 203 -150q85 -95 132 -229q47 -133 47 -289q0 -183 -60 -330t-171 -246q46 -56 85 -78q36 -20 91 -20q37 0 58 8t38 8q10 0 16 -9q7 -10 7 -19q0 -24 -35 -39q-34 -15 -88 -15 q-60 0 -117 26t-109 93q-79 -54 -165 -82q-87 -28 -193 -28q-144 0 -261 55q-118 55 -203 152t-132 232t-47 292zM199 711q0 -133 39 -252q39 -120 112 -210q75 -93 179 -145q106 -53 237 -53q181 0 313 98q-95 113 -215 113q-20 0 -29 9q-10 10 -10 22q0 15 10 25t35 10 q56 0 126 -29t137 -106q97 90 149 228q51 137 51 290q0 131 -39 250t-112 207q-74 89 -180 142q-104 52 -236 52q-137 0 -241 -52q-105 -53 -178 -142q-73 -90 -110 -207q-38 -120 -38 -250z" />
<glyph unicode="R" horiz-adv-x="1220" d="M195 35v1341q0 37 38 37h392q230 0 340 -109t110 -305q0 -73 -21 -138q-21 -63 -67 -116q-45 -51 -114 -87t-160 -48l379 -536q16 -23 16 -41q0 -15 -10 -24t-27 -9q-23 0 -45 33l-391 571h-367v-569q0 -35 -37 -35q-36 0 -36 35zM268 668h348q108 0 179 26q72 26 119 72 q46 44 67 105q20 57 20 128q0 166 -98 257q-100 92 -291 92h-344v-680z" />
<glyph unicode="S" horiz-adv-x="1163" d="M102 268q0 12 11 23q10 10 26 10q20 0 37 -25q22 -37 53 -73q33 -39 82 -73q46 -32 119 -56q71 -23 166 -23q77 0 149 25t120 66q50 43 80 99q30 57 30 119q0 87 -30 141t-85 91q-54 36 -134 62q-103 33 -177 51q-55 13 -117 34q-67 22 -128 65q-60 42 -102 105t-42 156 q0 79 33 147q34 69 89 117q58 51 133 77q79 28 165 28q79 0 142 -18q62 -18 108 -40t77 -47q11 -9 26 -21.5t19 -15.5q15 -15 15 -28q0 -11 -10 -24q-8 -11 -25 -11q-14 0 -24 5q-9 4 -15 9q-4 3 -9 7.5t-13.5 11t-14.5 11.5q-21 17 -62 40q-32 18 -93 35q-50 14 -128 14 q-77 0 -140 -24q-65 -25 -106 -63q-44 -41 -68 -93q-23 -50 -23 -113q0 -76 35 -124q36 -50 95 -86q58 -36 135 -60q95 -30 158 -47q73 -19 133 -40q69 -24 126 -66q59 -43 95 -107q38 -67 38 -166q0 -73 -32 -145q-31 -70 -92 -126q-58 -53 -149 -89q-85 -33 -203 -33 q-109 0 -186 29t-136 71q-54 38 -91 85q-31 40 -49 73q-11 17 -11 30z" />
<glyph unicode="T" horiz-adv-x="1216" d="M72 1380q0 33 32 33h1008q33 0 33 -33q0 -32 -33 -32h-467v-1313q0 -35 -37 -35t-37 35v1313h-467q-32 0 -32 32z" />
<glyph unicode="U" horiz-adv-x="1404" d="M184 481v897q0 35 37 35t37 -35v-897q0 -96 33 -175q32 -78 91 -135q58 -57 140 -88q84 -32 180 -32q97 0 181 32q81 31 140 90q58 58 91 139t33 177v889q0 35 37 35t37 -35v-891q0 -111 -38 -205q-37 -91 -108 -161q-68 -66 -165 -105q-91 -36 -208 -36t-208 36 q-94 37 -164 104t-108 159q-38 93 -38 202z" />
<glyph unicode="V" horiz-adv-x="1361" d="M92 1376q0 19 12 28t27 9q23 0 35 -29l516 -1265l520 1270q10 24 33 24q15 0 25 -9t10 -24q0 -9 -4 -20l-549 -1329q-11 -31 -37 -31t-37 31l-547 1325q-4 11 -4 20z" />
<glyph unicode="W" horiz-adv-x="1830" d="M92 1380q0 33 37 33q24 0 35 -29l409 -1249l312 989q8 23 30 23q25 0 33 -23l314 -989l407 1251q11 27 33 27q11 0 24 -8t13 -25q0 -11 -4 -22l-441 -1329q-8 -29 -32 -29q-25 0 -33 29l-318 983l-307 -983q-11 -29 -33 -29q-21 0 -32 29l-443 1329q-2 8 -3 11t-1 11z " />
<glyph unicode="X" horiz-adv-x="1298" d="M133 35q0 6 8 22l461 664l-446 635q-9 13 -9 22q0 10 9 24q7 11 26 11q16 0 23 -9t18 -24l430 -612l430 621q15 24 37 24q13 0 22 -9t9 -22q0 -14 -12 -32l-443 -641l459 -650q10 -11 10 -26t-10 -24q-11 -9 -25 -9q-12 0 -21 6q-10 6 -22 25l-444 631l-446 -644 q-12 -18 -27 -18q-13 0 -25 9t-12 26z" />
<glyph unicode="Y" horiz-adv-x="1267" d="M92 1378q0 12 9 24q8 11 26 11q26 0 37 -20l469 -766l473 764q12 22 33 22q13 0 25 -9t12 -24q0 -6 -7 -20l-497 -807v-518q0 -35 -37 -35t-37 35v518l-500 801q-6 12 -6 24z" />
<glyph unicode="Z" horiz-adv-x="1187" d="M113 29q0 6 2 16q1 6 10 18l854 1283h-764q-37 0 -37 34q0 33 37 33h825q35 0 35 -27q0 -11 -4 -22q-6 -16 -16 -31l-842 -1265h809q17 0 26 -11q9 -10 9 -24q0 -33 -35 -33h-877q-32 0 -32 29z" />
<glyph unicode="[" horiz-adv-x="595" d="M184 -313v1773q0 35 39 35h295q16 0 27 -9q10 -9 10 -24q0 -12 -10 -22t-25 -10h-262v-1713h258q16 0 27 -9q10 -9 10 -23q0 -13 -10 -23t-25 -10h-297q-37 0 -37 35z" />
<glyph unicode="\" horiz-adv-x="802" d="M41 1378q0 17 10 26q11 9 27 9q10 0 17 -4q10 -6 16 -20l645 -1330q6 -12 6 -22q0 -17 -10 -27t-25 -10q-12 0 -20 5t-19 24l-639 1323q-8 18 -8 26z" />
<glyph unicode="]" horiz-adv-x="595" d="M41 1462q0 15 10 24q11 9 27 9h295q39 0 39 -35v-1773q0 -35 -37 -35h-297q-15 0 -25 10t-10 23q0 14 10 23q11 9 27 9h258v1713h-262q-15 0 -25 10t-10 22z" />
<glyph unicode="^" horiz-adv-x="1024" d="M184 791q0 11 4 19q6 12 9 17l290 584q15 23 33 23q16 0 33 -23l293 -584q2 -3 4.5 -9t3.5 -8q4 -8 4 -19q0 -15 -9 -25t-26 -10q-22 0 -37 24l-266 553l-264 -553q-16 -24 -37 -24q-16 0 -25 10q-10 12 -10 25z" />
<glyph unicode="_" horiz-adv-x="1165" d="M143 -33q0 33 37 33h805q37 0 37 -33t-37 -33h-805q-37 0 -37 33z" />
<glyph unicode="`" horiz-adv-x="1024" d="M344 1384q0 23 16 36q17 14 33 14q23 0 44 -21q7 -7 20 -19.5t18 -17.5l199 -188q10 -10 10 -23q0 -24 -27 -24q-11 0 -18 6l-272 199q-23 17 -23 38z" />
<glyph unicode="a" horiz-adv-x="1239" d="M102 502q0 112 37 207q37 96 102 165q66 71 152 110q87 40 191 40q150 0 250 -76q99 -75 159 -200v223q0 33 35 33q15 0 27 -10q10 -9 10 -23v-793q0 -11 2 -39q1 -20 9 -38q7 -16 22 -27q16 -11 39 -11q37 0 37 -32q0 -31 -37 -31q-89 0 -116 51q-28 53 -28 129v78 q-60 -124 -163 -201q-102 -77 -246 -77q-108 0 -193 39q-86 39 -152 110q-65 69 -101 166q-36 96 -36 207zM176 498q0 -96 29 -180q28 -82 83 -143t130 -95q78 -35 168 -35q89 0 163 34q77 35 130 93q57 61 86 142q30 82 30 182q0 98 -30 183q-29 83 -86 146t-130 98 t-163 35q-96 0 -170 -35q-76 -36 -129 -99q-55 -66 -82 -146q-29 -85 -29 -180z" />
<glyph unicode="b" horiz-adv-x="1228" d="M164 33v1347q0 15 10 24t27 9q35 0 35 -33v-635q51 121 152 200t257 79q111 0 198 -40q88 -40 151 -111q64 -71 98 -165q34 -93 34 -206q0 -111 -34 -204t-99 -166q-64 -72 -152 -112q-87 -40 -196 -40q-148 0 -252 73t-157 197v-217q0 -33 -35 -33q-37 0 -37 33z M236 502q0 -96 30 -180t86 -146t130 -96q76 -35 163 -35t163 35q75 34 129 96q55 63 85 146q31 87 31 180t-31 180q-29 81 -85 145q-55 63 -129 97t-163 34t-163 -34q-73 -33 -130 -97q-57 -63 -86 -145q-30 -84 -30 -180z" />
<glyph unicode="c" horiz-adv-x="1079" d="M102 500q0 111 36 207q35 94 101 166q65 71 152 111t191 40q77 0 135 -19q52 -17 104 -48q45 -27 77 -59q31 -31 52 -58q9 -10 24 -32q13 -19 13 -36q0 -33 -33 -33q-15 0 -30 21q-10 16 -42 56q-26 33 -70 66q-43 32 -98 54q-56 22 -128 22q-90 0 -163 -35t-130 -98 t-86 -145q-31 -87 -31 -180q0 -97 31 -182q29 -79 84 -144q51 -59 128 -95q74 -34 163 -34q103 0 188 50q81 48 143 130q15 21 33 21q33 0 33 -33q0 -14 -6 -20q-63 -93 -164 -153q-102 -60 -227 -60q-108 0 -193 39q-87 40 -151 110t-100 165q-36 94 -36 206z" />
<glyph unicode="d" horiz-adv-x="1228" d="M102 502q0 112 37 207q37 96 102 165q66 71 152 110q87 40 191 40q151 0 249 -76q99 -76 160 -200v632q0 15 11 24q10 9 26 9q35 0 35 -33v-1347q0 -33 -35 -33q-37 0 -37 33v225q-61 -122 -164 -201q-101 -77 -245 -77q-108 0 -193 39q-86 39 -152 110q-65 69 -101 166 q-36 96 -36 207zM176 498q0 -96 29 -180q28 -82 83 -143t130 -95q78 -35 168 -35q89 0 163 34q75 34 130 94q56 61 86 143q30 83 30 184q0 96 -30 180q-29 82 -86 145t-130 98t-163 35q-96 0 -170 -35q-76 -36 -129 -99q-55 -66 -82 -146q-29 -85 -29 -180z" />
<glyph unicode="e" horiz-adv-x="1142" d="M102 498q0 116 37 211q38 97 102 167t151 109t188 39q99 0 180 -34q83 -35 141 -90q59 -56 93 -132q34 -75 34 -160q0 -41 -12 -65q-12 -25 -60 -25h-782q0 -98 27 -184q28 -88 79 -151t130 -101q77 -37 178 -37q112 0 194 39q84 40 146 100q15 15 26 15q14 0 25 -12 q10 -11 10 -23q0 -17 -14 -31q-59 -60 -163 -107q-102 -46 -228 -46q-114 0 -199 39q-89 41 -152 110q-62 68 -97 164q-34 93 -34 205zM176 580h778q1 14 1 28q0 55 -19 110q-23 67 -75 122q-49 52 -123 86q-70 32 -158 32q-73 0 -141 -25q-69 -25 -123 -75 q-55 -50 -92 -120q-38 -71 -48 -158z" />
<glyph unicode="f" horiz-adv-x="667" d="M164 33v973q0 200 94 313q95 115 262 115q29 0 61 -2q20 -1 33 -7q21 -5 27 -13q6 -9 6 -19q0 -31 -31 -31q-19 0 -37 3t-49 3q-75 0 -133 -25q-55 -24 -90 -71q-33 -45 -52 -115q-17 -65 -19 -153h262q34 0 34 -33q0 -35 -34 -35h-262v-903q0 -33 -35 -33q-17 0 -27 9 t-10 24z" />
<glyph unicode="g" horiz-adv-x="1228" d="M102 500q0 112 37 207t102 166t152 111t191 40q152 0 250 -76q97 -75 159 -200v223q0 33 35 33q15 0 27 -10q10 -9 10 -23v-901q0 -246 -108 -363t-332 -117q-120 0 -199 33q-78 32 -143 68q-33 18 -33 41q0 14 10 25q10 12 25 12q17 0 44 -18q25 -16 69 -37 q39 -18 99 -37q54 -17 132 -17q198 0 281 110t83 316v172q-60 -123 -162 -201q-101 -77 -247 -77q-106 0 -191 39q-86 39 -152 110q-63 68 -102 165q-37 93 -37 206zM174 498q0 -95 31 -180q30 -82 86 -143q57 -61 130 -95q76 -35 163 -35q86 0 162 35q75 35 131 95 q56 61 86 143t30 180q0 96 -30 180q-29 81 -86 146q-55 63 -131 99q-73 35 -162 35q-90 0 -163 -35q-74 -36 -130 -99q-57 -65 -86 -146q-31 -87 -31 -180z" />
<glyph unicode="h" horiz-adv-x="1120" d="M164 33v1347q0 15 10 24t27 9q35 0 35 -33v-561q45 88 122 146q78 59 209 59q99 0 176 -33q76 -33 125 -88q51 -57 74 -130q25 -78 25 -159v-581q0 -15 -11 -24q-10 -9 -26 -9q-35 0 -35 33v583q0 64 -22 130q-21 64 -63 110q-45 49 -103 75q-61 27 -142 27 q-79 0 -141 -27q-58 -26 -103 -75q-43 -48 -64 -110q-21 -63 -21 -130v-583q0 -33 -35 -33q-17 0 -27 9t-10 24z" />
<glyph unicode="i" horiz-adv-x="409" d="M139 1311q0 61 60 61q61 0 61 -61q0 -62 -61 -62q-60 0 -60 62zM164 164v807q0 33 37 33q35 0 35 -33v-809q0 -46 13 -71t58 -25q37 0 37 -35q0 -31 -43 -31q-87 0 -112 48q-25 47 -25 116z" />
<glyph unicode="j" horiz-adv-x="399" d="M-96 -354q0 30 37 30q72 0 118 26t68 66q23 40 30 90q7 46 7 101v1012q0 33 37 33q35 0 35 -33v-1043q0 -146 -72 -232q-72 -85 -223 -85q-37 0 -37 35zM139 1311q0 61 60 61q61 0 61 -61q0 -62 -61 -62q-60 0 -60 62z" />
<glyph unicode="k" horiz-adv-x="1013" d="M164 33v1347q0 33 37 33q35 0 35 -33v-891l573 498q17 17 33 17t23 -12q7 -11 7 -21q0 -21 -22 -39l-408 -352l463 -512q17 -17 17 -31q0 -17 -12 -27q-11 -10 -27 -10q-17 0 -33 18l-463 514l-151 -131v-368q0 -33 -35 -33q-37 0 -37 33z" />
<glyph unicode="l" horiz-adv-x="409" d="M164 164v1216q0 33 37 33q35 0 35 -33v-1218q0 -46 13 -71t58 -25q37 0 37 -35q0 -31 -43 -31q-87 0 -112 48q-25 47 -25 116z" />
<glyph unicode="m" horiz-adv-x="1681" d="M164 33v938q0 33 35 33q37 0 37 -33v-152q34 95 105 150q70 55 187 55q131 0 209 -62q80 -64 119 -171q40 103 117 168t198 65q90 0 157 -29q66 -29 112 -79q45 -50 66 -120q22 -74 22 -155v-608q0 -33 -35 -33q-37 0 -37 33v610q0 137 -74 226t-211 89q-70 0 -120 -23 q-56 -26 -92 -66q-38 -42 -57 -100q-19 -57 -19 -128v-606q0 -35 -37 -35q-35 0 -35 35v608q0 137 -75 226t-212 89q-133 0 -211 -88q-77 -87 -77 -227v-610q0 -33 -35 -33q-37 0 -37 33z" />
<glyph unicode="n" horiz-adv-x="1140" d="M164 33v938q0 33 37 33q35 0 35 -33v-152q44 86 132 146q87 59 220 59q101 0 177 -32q74 -31 124 -87q51 -57 74 -130q24 -75 24 -161v-581q0 -15 -10 -24q-11 -9 -27 -9q-35 0 -35 33v583q0 70 -21 133q-20 60 -64 109q-43 47 -102 74q-58 26 -140 26q-84 0 -150 -27 q-62 -25 -110 -75q-45 -46 -69 -110q-23 -60 -23 -130v-583q0 -33 -35 -33q-37 0 -37 33z" />
<glyph unicode="o" horiz-adv-x="1163" d="M102 500q0 110 35 207q35 96 97 166q63 71 151 111q87 40 197 40q108 0 195 -40q89 -41 152 -111q62 -70 97 -166q35 -97 35 -207t-35 -206q-36 -98 -97 -165q-63 -69 -152 -110q-85 -39 -195 -39q-112 0 -197 39q-87 40 -151 110q-61 67 -97 165q-35 96 -35 206z M176 500q0 -95 29 -179t81 -145q53 -62 127 -96q76 -35 169 -35t169 35q74 34 127 96q50 59 80 145q29 84 29 179t-29 180t-80 145q-54 63 -128 98t-168 35t-168 -35t-128 -98q-53 -62 -81 -145q-29 -85 -29 -180z" />
<glyph unicode="p" horiz-adv-x="1226" d="M164 -356v1327q0 33 37 33q35 0 35 -33v-223q52 116 158 197q104 79 251 79q104 0 191 -40t152 -111q66 -72 101 -166q35 -93 35 -207t-35 -206q-37 -96 -101 -165q-66 -71 -152 -110q-85 -39 -191 -39q-142 0 -246 71q-102 70 -163 207v-614q0 -33 -35 -33q-37 0 -37 33 zM236 500q0 -96 30 -179t86 -145t130 -96q76 -35 163 -35q90 0 162 34q77 36 128 93q56 62 85 143q31 87 31 185q0 93 -31 180q-29 80 -85 146q-54 63 -128 99q-73 36 -162 36q-88 0 -163 -36q-74 -36 -130 -99q-57 -65 -86 -146q-30 -84 -30 -180z" />
<glyph unicode="q" horiz-adv-x="1226" d="M102 500q0 111 36 207q35 94 101 166q65 71 152 111t191 40q142 0 249 -74q108 -75 160 -202v223q0 33 35 33q15 0 27 -10q10 -9 10 -23v-1327q0 -33 -37 -33q-35 0 -35 33v614q-59 -126 -162 -203q-100 -75 -247 -75q-106 0 -191 39q-86 39 -152 110q-64 69 -101 165 q-36 94 -36 206zM176 500q0 -94 31 -179q30 -82 85 -145q54 -61 128 -96q75 -35 162 -35q86 0 162 35q74 34 130 96q57 64 87 145q30 83 30 179t-30 180q-29 80 -87 145q-57 63 -130 98t-162 35q-91 0 -162 -35q-74 -36 -128 -98q-56 -64 -85 -145q-31 -87 -31 -180z" />
<glyph unicode="r" horiz-adv-x="712" d="M164 33v938q0 33 37 33q35 0 35 -33v-187q57 115 139 177q84 63 237 63q39 0 39 -31q0 -35 -35 -35q-180 0 -280 -107t-100 -292v-526q0 -33 -35 -33q-37 0 -37 33z" />
<glyph unicode="s" horiz-adv-x="929" d="M102 186q0 9 11 22q10 11 26 11q13 0 31 -22q19 -26 43 -50q28 -28 63 -49q38 -23 88 -38t113 -15q125 0 201 58t76 157q0 68 -45 110q-43 40 -112 70q-74 32 -145 52q-85 24 -146 56q-66 34 -111 84t-45 134q0 60 25 106q25 45 70 81q44 35 104 53t130 18q95 0 171 -38 q74 -37 114 -83q12 -15 12 -31q0 -8 -8 -21q-7 -11 -23 -11q-14 0 -28 14q-31 30 -89 68q-56 36 -151 36q-47 0 -92 -9q-46 -9 -81 -31t-58 -60t-23 -92q0 -65 45 -104q46 -40 112 -67q67 -28 145 -51q81 -24 146 -57t111 -83q45 -50 45 -132q0 -64 -25 -117 q-26 -54 -73 -94q-46 -39 -113 -60q-66 -21 -147 -21q-118 0 -206 46q-89 47 -150 130q-11 16 -11 30z" />
<glyph unicode="t" horiz-adv-x="686" d="M72 971q0 33 34 33h121v215q0 32 37 32q35 0 35 -32v-215h231q35 0 35 -33t-35 -33h-231v-692q0 -108 32 -155q31 -46 103 -46q37 0 62 7t45 17q22 11 30 16q11 7 21 7q12 0 22 -9q11 -9 11 -26q0 -14 -15 -26q-31 -25 -83 -38q-51 -13 -97 -13q-110 0 -157 66 q-46 65 -46 181v711h-121q-34 0 -34 33z" />
<glyph unicode="u" horiz-adv-x="1079" d="M164 358v613q0 33 35 33q14 0 26 -10q11 -9 11 -23v-615q0 -70 20 -124q21 -57 59 -98q37 -40 96 -65q57 -24 128 -24q72 0 129 24q59 25 96 65q38 41 59 98t21 124v615q0 14 10 23q12 10 27 10q34 0 34 -33v-613q0 -83 -23 -149q-24 -70 -71 -121t-118 -80 q-69 -28 -164 -28q-96 0 -164 28q-71 29 -117 80q-47 51 -71 121q-23 66 -23 149z" />
<glyph unicode="v" horiz-adv-x="1026" d="M72 971q0 17 11 24q14 9 26 9q22 0 30 -19l375 -879l373 873q11 25 31 25q14 0 26 -10q10 -9 10 -21q0 -4 -2 -12q-1 -2 -2.5 -6t-1.5 -5l-399 -921q-12 -29 -35 -29q-27 0 -39 29l-395 915q-8 18 -8 27z" />
<glyph unicode="w" horiz-adv-x="1456" d="M72 975q0 10 10 19q12 10 27 10q23 0 30 -27l330 -875l225 723q6 23 31 23q27 0 33 -23l241 -723l320 879q8 23 29 23q10 0 24 -7q12 -6 12 -22q0 -10 -4 -21l-352 -929q-11 -25 -33 -25q-28 0 -34 25l-236 708l-221 -708q-11 -25 -35 -25q-27 0 -35 25l-358 929 q-2 8 -3 11t-1 10z" />
<glyph unicode="x" horiz-adv-x="968" d="M92 971q0 8 8 21q8 12 25 12q13 0 21 -8q11 -11 18 -19l315 -428l330 440q11 15 25 15q11 0 28 -10q15 -9 15 -25q0 -12 -7 -21l-348 -456l326 -439q6 -11 6 -20t-8 -22q-7 -11 -27 -11t-35 18l-313 426l-309 -430q-10 -14 -31 -14q-13 0 -25 9t-12 24t10 26l324 441 l-326 444q-10 14 -10 27z" />
<glyph unicode="y" horiz-adv-x="974" d="M72 973q0 10 10 20q11 11 29 11q19 0 30 -23l344 -868l351 870q8 21 28 21q12 0 25 -9q10 -7 10 -24q0 -10 -4 -17l-438 -1071q-17 -41 -54 -119q-24 -51 -58 -85q-32 -32 -82 -51q-45 -17 -124 -17q-47 0 -47 35q0 30 41 30q69 0 113 18q42 17 71 48q30 32 48 72 q16 36 36 86l52 129l-377 923q-4 11 -4 21z" />
<glyph unicode="z" horiz-adv-x="894" d="M78 33q0 15 16 37l633 868h-563q-35 0 -35 31q0 35 35 35h622q35 0 35 -25q0 -17 -22 -49l-627 -864h596q35 0 35 -33t-35 -33h-655q-35 0 -35 33z" />
<glyph unicode="{" horiz-adv-x="651" d="M113 573q0 18 10 29q11 12 39 12q56 0 87 34q32 35 32 104v342q0 94 14 164q15 77 47 127q33 53 87 81q55 29 136 29q45 0 45 -37t-43 -37q-117 0 -165 -85q-48 -86 -48 -244v-340q0 -77 -20 -113q-21 -37 -72 -66q52 -29 72 -65t20 -113v-340q0 -159 48 -244t165 -85 q43 0 43 -37t-45 -37q-81 0 -136 29t-87 80q-32 50 -47 127q-14 70 -14 165v342q0 69 -32 104q-30 33 -87 33q-28 0 -39 13q-10 11 -10 28z" />
<glyph unicode="|" horiz-adv-x="462" d="M195 -354v1974q0 35 36 35q37 0 37 -35v-1974q0 -35 -37 -35q-36 0 -36 35z" />
<glyph unicode="}" horiz-adv-x="651" d="M41 -311q0 37 43 37q117 0 165 85q48 86 48 244v340q0 77 20 113t72 65q-51 29 -72 66q-20 36 -20 113v340q0 158 -48 244q-48 85 -165 85q-43 0 -43 37t45 37q81 0 136 -29q54 -28 87 -81q32 -50 47 -127q15 -75 15 -164v-342q0 -70 31 -104t87 -34q29 0 39 -12 q11 -13 11 -29q0 -15 -11 -28t-39 -13q-57 0 -87 -33q-31 -34 -31 -104v-342q0 -90 -15 -165q-15 -77 -47 -127q-32 -51 -87 -80t-136 -29q-45 0 -45 37z" />
<glyph unicode="~" d="M326 649q0 15 10 29q34 45 79 71q46 27 111 27q47 0 78 -14q41 -19 61 -32q18 -12 54 -32q25 -14 63 -14q71 0 111 61q17 23 33 23q12 0 23 -11q12 -12 12 -26q0 -2 -3 -11q-2 -5 -6 -11q-31 -50 -71 -75q-45 -28 -97 -28q-44 0 -77 15q-46 21 -62 31q-12 7 -56 32 q-25 14 -65 14q-54 0 -82 -19q-27 -19 -51 -44q-15 -17 -33 -17q-9 0 -22 9q-10 7 -10 22z" />
<glyph unicode="&#xa1;" horiz-adv-x="520" d="M184 946q0 34 20 56t56 22q33 0 55 -22q21 -21 21 -56q0 -78 -76 -78t-76 78zM209 -332l18 934q0 37 31 37q29 0 29 -37l22 -934q5 -78 -49 -78q-28 0 -40 21q-11 19 -11 57z" />
<glyph unicode="&#xa2;" d="M217 500q0 101 32 192q31 90 87 159q56 70 132 113q77 44 169 56v190q0 35 37 35t37 -35v-186q69 -1 129 -22q54 -19 100 -47q44 -27 74 -59q25 -26 51 -56q9 -10 24 -32q13 -19 13 -36q0 -33 -33 -33q-16 0 -31 21q-18 26 -41 55q-30 36 -67 64q-40 29 -95 54 q-53 23 -124 25v-913q100 5 178 53q79 49 139 127q15 21 33 21q33 0 33 -33q0 -13 -7 -20q-62 -95 -157 -151q-97 -57 -219 -62v-187q0 -35 -37 -35t-37 35v191q-94 11 -170 53q-79 44 -133 111q-56 70 -86 158q-31 91 -31 194zM291 500q0 -92 25 -168q25 -75 71 -137 q45 -60 109 -98q63 -37 141 -48v903q-77 -12 -139 -52q-66 -43 -110 -99q-47 -60 -72 -136q-25 -75 -25 -165z" />
<glyph unicode="&#xa3;" d="M172 33q0 33 53 33q60 0 117 20q61 21 109 62t79 107q31 67 31 151q0 10 -1 15t-1 15h-205q-16 0 -27 10q-12 10 -12 27t12 27q11 10 29 10h189q-23 71 -63 133q-36 57 -79 132q-35 62 -68 146q-30 77 -30 173q0 72 27 132q28 63 72 104q49 46 110 69q63 24 135 24 q91 0 161 -30q72 -31 112 -90q24 -33 39 -77q14 -41 14 -81q0 -49 -39 -49q-37 0 -39 47q-6 89 -66 149t-190 60q-111 0 -186 -70q-74 -69 -74 -186q0 -91 31 -169q32 -79 70 -143q27 -45 81 -133q44 -71 60 -141h264q16 0 27 -10q12 -10 12 -27t-12 -27q-11 -10 -27 -10 h-252q2 -14 2 -26q0 -57 -14 -106q-15 -53 -44 -98t-76 -83q-43 -35 -108 -57h467q76 0 121 11q49 12 70 34q15 16 23 39q2 6 7 18.5t7 19.5q5 16 14 30q7 11 26 11q27 0 27 -32q0 -42 -13 -77q-14 -36 -45 -63t-83 -42q-51 -15 -125 -15h-672q-23 0 -35 6t-12 27z" />
<glyph unicode="&#xa4;" d="M287 332q0 14 14 28l76 76q-28 44 -45 100t-17 115q0 124 64 217l-78 78q-14 14 -14 29q0 11 9 23t26 12q13 0 28 -15l74 -75q40 39 96 60t121 21q67 0 121 -22q56 -23 96 -61l78 77q15 15 29 15q10 0 23 -10q11 -8 11 -25q0 -15 -14 -29l-82 -82q29 -45 45 -99 q17 -56 17 -114q0 -55 -16 -113q-15 -54 -44 -98l80 -80q14 -14 14 -28q0 -12 -9 -24q-8 -11 -25 -11q-15 0 -29 14l-76 76q-86 -86 -219 -86q-62 0 -122 22q-56 21 -97 60l-72 -72q-14 -14 -31 -14q-9 0 -21 9q-11 8 -11 26zM389 651q0 -59 18 -111q18 -53 49 -91 q32 -40 79 -61t106 -21q57 0 104 21t79 59q30 36 49 91q18 52 18 111q0 61 -18 114q-19 54 -50 90q-33 38 -79 60q-48 23 -103 23q-57 0 -105 -23q-46 -22 -79 -60q-31 -36 -50 -90q-18 -53 -18 -112z" />
<glyph unicode="&#xa5;" d="M102 1378q0 11 10 24q8 11 25 11q26 0 37 -20l465 -760h8l469 758q12 22 33 22q14 0 26 -9q11 -8 11 -24q0 -8 -6 -20l-449 -727h264q17 0 28 -10t11 -27t-11 -27t-28 -10h-309l-4 -6v-248h313q17 0 28 -10t11 -27q0 -16 -11 -26q-13 -11 -28 -11h-313v-196 q0 -35 -37 -35t-37 35v196h-309q-15 0 -28 11q-11 10 -11 26q0 17 11 27t30 10h307v248l-4 6h-305q-17 0 -28 10t-11 27t11 27t30 10h256l-448 721q-7 14 -7 24z" />
<glyph unicode="&#xa6;" horiz-adv-x="462" d="M195 -354v745q0 35 36 35q37 0 37 -35v-745q0 -35 -37 -35q-36 0 -36 35zM195 874v746q0 35 36 35q37 0 37 -35v-746q0 -34 -37 -34q-36 0 -36 34z" />
<glyph unicode="&#xa7;" horiz-adv-x="950" d="M113 186q0 11 10 22t27 11q12 0 30 -22q19 -26 43 -50q26 -27 64 -49q39 -24 87 -38q50 -15 113 -15q125 0 201 58t76 157q0 68 -45 110q-43 40 -112 70q-74 32 -145 52q-85 24 -146 56q-66 34 -111 84t-45 134q0 69 37 119q39 52 96 84q-56 32 -96 82q-37 46 -37 125 q0 60 25 106q25 45 70 81q42 33 104 52q63 19 130 19q95 0 171 -38q74 -37 114 -83q12 -15 12 -31q0 -8 -8 -21q-8 -12 -22 -12t-29 15q-28 28 -89 67q-58 37 -151 37q-47 0 -92 -9q-44 -9 -81 -32q-36 -23 -58 -59q-23 -38 -23 -92q0 -65 46 -105q45 -39 111 -66 q74 -30 146 -52q83 -25 145 -56q67 -33 112 -83t45 -132q0 -139 -121 -215q53 -33 87 -79t34 -116q0 -62 -26 -117q-26 -54 -73 -94q-47 -39 -112 -60q-66 -21 -148 -21q-118 0 -206 46q-89 47 -150 130q-10 14 -10 30zM233 766q0 -61 41 -100q41 -40 105 -67 q69 -30 137 -49q67 -19 141 -52q43 24 75 63q32 40 32 109q0 63 -39 102q-42 42 -98 67q-68 31 -131 49q-68 20 -138 50q-50 -18 -87 -57q-38 -40 -38 -115z" />
<glyph unicode="&#xa8;" horiz-adv-x="1024" d="M305 1303q0 63 62 63q28 0 46 -15q17 -14 17 -48q0 -62 -63 -62q-62 0 -62 62zM594 1303q0 63 61 63q28 0 46 -15t18 -48q0 -62 -64 -62q-61 0 -61 62z" />
<glyph unicode="&#xa9;" horiz-adv-x="1581" d="M84 692q0 161 52 295q53 136 146 232t222 150t282 54q155 0 283 -52q129 -53 222 -147q92 -94 146 -227q52 -129 52 -286q0 -161 -52 -295q-53 -136 -146 -232t-222 -150t-283 -54t-282 52q-129 52 -222 147q-94 95 -146 225q-52 129 -52 288zM164 694q0 -140 46 -256 q46 -115 129 -200q83 -84 197 -131q118 -48 250 -48q135 0 251 49q114 48 197 134t129 205t46 264q0 141 -46 255q-46 115 -129 199t-197 131q-115 47 -251 47t-250 -48t-197 -134q-82 -85 -129 -205q-46 -117 -46 -262zM395 694q0 102 30 184t84 142q53 59 128 91t160 32 q58 0 111 -16q52 -16 89 -37q40 -23 67 -50q33 -33 44 -47q27 -33 27 -59q0 -17 -13 -25t-22 -8q-19 0 -31 17q-39 58 -106 105q-67 48 -166 48q-77 0 -137 -30q-61 -31 -102 -80q-41 -50 -64 -120q-23 -71 -23 -147q0 -75 23 -146q23 -70 65 -121q44 -53 104 -83 q62 -31 136 -31q88 0 153 40q67 41 113 108q14 20 31 20q12 0 22 -10t10 -27q0 -2 -2 -12q-1 -6 -8 -18q-15 -21 -40 -49q-30 -33 -64 -57q-41 -28 -93 -47q-53 -19 -124 -19q-89 0 -160 32q-74 33 -128 93t-84 142q-30 83 -30 185z" />
<glyph unicode="&#xaa;" horiz-adv-x="829" d="M66 1061q0 76 24 139q25 65 68 111t101 73q59 27 126 27q97 0 160 -48q62 -47 100 -126v129q0 31 37 31q35 0 35 -31v-504q0 -24 8 -50q7 -24 37 -24q29 0 29 -30q0 -33 -41 -33q-60 0 -81 35q-22 36 -22 86v45q-40 -82 -106 -130q-68 -50 -160 -50q-70 0 -125 26 q-58 27 -99 73q-44 48 -67 111q-24 65 -24 140zM139 1059q0 -59 19 -113q19 -53 52 -89q36 -39 80 -59q49 -22 103 -22q55 0 101 21t80 58t54 89q19 50 19 113t-19 114q-20 55 -54 93q-36 41 -79 60q-49 22 -102 22q-57 0 -105 -23q-45 -22 -80 -60q-32 -34 -51 -91 q-18 -52 -18 -113z" />
<glyph unicode="&#xab;" horiz-adv-x="1128" d="M100 510q0 19 21 37l424 340q15 12 33 12q12 0 23 -11t11 -26q0 -21 -16 -33l-406 -315l404 -324q20 -16 20 -34q0 -13 -11 -24t-23 -11q-18 0 -33 12l-426 342q-21 18 -21 35zM510 510q0 20 20 37l424 340q15 12 33 12q13 0 24 -11t11 -26q0 -21 -16 -33l-406 -315 l404 -324q20 -16 20 -34q0 -13 -11 -24t-24 -11q-18 0 -33 12l-426 342q-20 17 -20 35z" />
<glyph unicode="&#xac;" d="M293 823q0 35 41 35h624q35 0 35 -37v-340q0 -41 -35 -41q-34 0 -34 41v307h-590q-41 0 -41 35z" />
<glyph unicode="&#xad;" horiz-adv-x="827" />
<glyph unicode="&#xae;" horiz-adv-x="1327" d="M92 840q0 128 42 235q42 106 119 185q74 76 181 120q104 43 232 43q126 0 230 -43q108 -45 182 -120q77 -79 119 -185q42 -107 42 -235q0 -129 -42 -236q-41 -105 -119 -184q-75 -77 -182 -121q-104 -43 -230 -43q-128 0 -232 43q-105 43 -181 121q-78 79 -119 184 q-42 107 -42 236zM162 840q0 -114 37 -207q38 -95 104 -163q66 -67 160 -106q93 -38 203 -38q109 0 202 38q94 39 160 106q68 69 105 163q36 91 36 207t-36 207q-36 92 -105 162q-68 69 -160 107q-93 38 -202 38q-110 0 -203 -38q-92 -38 -160 -107q-67 -68 -104 -162 q-37 -93 -37 -207zM449 561v563q0 17 10 27t26 10h193q115 0 176 -53q59 -52 59 -143q0 -67 -40 -116q-42 -52 -119 -69l155 -184q10 -12 14 -21q3 -7 3 -18t-11 -22t-26 -11q-22 0 -41 25l-178 223h-148v-211q0 -37 -37 -37q-36 0 -36 37zM522 838h154q87 0 125 35 q39 36 39 92q0 61 -44 96t-122 35h-152v-258z" />
<glyph unicode="&#xaf;" horiz-adv-x="1024" d="M264 1333q0 37 41 37h414q41 0 41 -37q0 -16 -11 -26q-13 -11 -30 -11h-414q-17 0 -30 11q-11 10 -11 26z" />
<glyph unicode="&#xb0;" horiz-adv-x="792" d="M133 1118q0 61 20 115t54 91q35 38 83 59q50 22 105 22q56 0 106 -22q47 -21 84 -59q35 -36 55 -91q19 -51 19 -115q0 -128 -73 -207q-74 -80 -191 -80q-114 0 -188 80t-74 207zM199 1118q0 -39 12 -78q11 -36 37 -70q25 -33 61 -53t86 -20q51 0 87 20q39 22 63 53 q26 34 37 70q12 39 12 78q0 37 -12 76q-11 37 -37 72q-22 30 -63 53q-36 20 -87 20q-50 0 -86 -20q-38 -21 -61 -53q-26 -35 -37 -72q-12 -39 -12 -76z" />
<glyph unicode="&#xb1;" d="M293 35q0 35 41 35h618q41 0 41 -35t-41 -35h-618q-41 0 -41 35zM293 653q0 35 41 35h274v283q0 41 35 41t35 -41v-283h274q41 0 41 -35t-41 -35h-274v-286q0 -41 -35 -41t-35 41v286h-274q-41 0 -41 35z" />
<glyph unicode="&#xb2;" horiz-adv-x="645" d="M100 735q0 18 19 37l246 240q81 77 112 132q31 56 31 107q0 50 -39 80q-40 31 -113 31q-66 0 -103 -21t-58 -51q-17 -24 -37 -24q-14 0 -25 9q-10 9 -10 28q0 15 14 36q15 22 43 43q28 20 73 36q46 16 103 16q100 0 162 -46q64 -47 64 -139q0 -64 -39 -127 q-40 -64 -115 -135l-223 -217h356q39 0 39 -35q0 -33 -39 -33h-422q-14 0 -27 8q-12 8 -12 25z" />
<glyph unicode="&#xb3;" horiz-adv-x="645" d="M94 782q0 17 10 26t27 9q10 0 23 -8q67 -47 165 -47q88 0 144 40q57 40 57 111q0 63 -48 103q-49 41 -140 41h-39q-16 0 -28 9q-11 8 -11 26q0 16 12 24q13 8 29 8h35q72 0 116 36q43 36 43 83q0 60 -48 90q-50 31 -113 31q-47 0 -83 -9t-71 -32q-12 -6 -20 -6 q-12 0 -22 8q-9 7 -9 23q0 20 16 30q21 16 70 36q48 20 119 20q103 0 171 -51q66 -49 66 -128q0 -54 -34 -95q-34 -42 -101 -64q85 -18 125 -69q39 -49 39 -114q0 -51 -21 -92q-22 -42 -57 -70q-38 -30 -86 -45q-53 -16 -106 -16q-139 0 -213 62q-17 15 -17 30z" />
<glyph unicode="&#xb4;" horiz-adv-x="1024" d="M344 1165q0 13 10 23l199 188q5 5 18 17.5t20 19.5q21 21 44 21q16 0 33 -14q16 -13 16 -36q0 -22 -22 -38l-273 -199q-11 -6 -18 -6q-27 0 -27 24z" />
<glyph unicode="&#xb5;" horiz-adv-x="1093" d="M166 -305q2 28 2 37v1151q0 9 -2 37q-1 20 0 38q1 16 10 32q8 14 29 14q35 0 35 -33v-615q0 -70 20 -124q21 -57 59 -98q37 -40 96 -65q57 -24 128 -24q68 0 125 23q56 22 95 62q40 40 61 94q23 58 24 118v539q0 17 -1 27t-1 32q0 26 7 44q8 20 32 20q21 0 29 -20 q8 -21 8 -44q0 -22 -1 -32t-1 -27v-719q0 -46 13 -71t58 -25q37 0 37 -35q0 -31 -43 -31q-87 0 -112 48q-25 47 -25 116q-94 -184 -305 -184q-106 0 -186 44q-77 42 -117 130v-433q0 -20 1 -33q1 -20 0 -36q-1 -15 -10 -29q-8 -12 -26 -12q-22 0 -29 13q-9 16 -10 32 q-2 18 0 39z" />
<glyph unicode="&#xb6;" horiz-adv-x="911" d="M72 1075q0 74 24 134q24 59 70 104q43 42 107 66q63 24 141 24h282q31 0 31 -31v-1339q0 -33 -31 -33q-32 0 -32 33v1304h-82v-1304q0 -33 -33 -33q-31 0 -31 33v721h-104q-70 0 -131 21t-109 64q-50 45 -75 101q-27 60 -27 135z" />
<glyph unicode="&#xb7;" horiz-adv-x="1024" d="M377 723q0 63 59 63q29 0 45 -16q17 -17 17 -47q0 -29 -17 -44t-45 -15q-59 0 -59 59z" />
<glyph unicode="&#xb8;" horiz-adv-x="1024" d="M383 -399q0 32 43 32q71 0 101 32q30 31 30 79q0 46 -28 71q-25 22 -72 27q-17 1 -31 11q-10 7 -10 30v117h69v-94q52 -7 100 -46q46 -37 46 -110q0 -50 -19 -86q-18 -34 -46 -56t-61 -32t-65 -10q-34 0 -46 9q-11 8 -11 26z" />
<glyph unicode="&#xb9;" horiz-adv-x="645" d="M121 1233q0 18 14 29l199 143q18 13 23 15q8 3 14 3q39 0 39 -34v-652q0 -16 -11 -25q-12 -10 -26 -10q-35 0 -35 35v586l-152 -111q-17 -12 -32 -12t-24 10t-9 23z" />
<glyph unicode="&#xba;" horiz-adv-x="780" d="M66 1061q0 76 23 138q25 67 67 112q44 47 102 73q60 27 133 27q71 0 131 -27t103 -73q40 -43 66 -112q24 -65 24 -138t-24 -138q-26 -69 -66 -112q-45 -48 -103 -74t-131 -26q-75 0 -133 26q-57 25 -102 74q-42 45 -67 112q-23 62 -23 138zM139 1061q0 -59 18 -112 t49 -91t79 -60q49 -22 106 -22q56 0 105 22q46 21 78 59q32 39 50 90q17 50 17 112q0 63 -17 113q-19 54 -51 91q-34 39 -78 60q-48 23 -104 23q-57 0 -105 -23q-46 -22 -79 -60q-31 -35 -50 -91q-18 -52 -18 -111z" />
<glyph unicode="&#xbb;" horiz-adv-x="1128" d="M100 156q0 18 21 34l403 324l-405 315q-17 12 -17 33q0 14 12 26q11 11 23 11q17 0 33 -12l424 -340q20 -17 20 -37q0 -18 -20 -35l-426 -342q-16 -12 -33 -12q-12 0 -23 11q-12 12 -12 24zM510 156q0 18 20 34l404 324l-406 315q-16 12 -16 33q0 15 11 26t24 11 q17 0 33 -12l424 -340q20 -17 20 -37q0 -18 -20 -35l-426 -342q-16 -12 -33 -12q-13 0 -24 11t-11 24z" />
<glyph unicode="&#xbc;" horiz-adv-x="1400" d="M121 1233q0 18 14 29l199 143q18 13 23 15q8 3 14 3q39 0 39 -34v-652q0 -16 -11 -25q-12 -10 -26 -10q-35 0 -35 35v586l-152 -111q-17 -12 -32 -12t-24 10t-9 23zM195 35q0 13 18 37l1042 1310q20 24 21 25q6 6 16 6q16 0 27 -9q10 -9 10 -26q0 -6 -3 -13 q-3 -8 -19 -28l-1039 -1306l-21 -25q-7 -6 -20 -6q-9 0 -21 9q-11 8 -11 26zM811 193q0 9 12 26l361 475q18 27 43 27q35 0 35 -39v-457h81q33 0 33 -32q0 -35 -33 -35h-83v-123q0 -35 -35 -35t-35 35v123h-342q-37 0 -37 35zM899 225h291v379z" />
<glyph unicode="&#xbd;" horiz-adv-x="1400" d="M119 35q0 13 18 37l1043 1310q5 6 11.5 14.5t8.5 10.5q6 6 17 6q15 0 26 -9q10 -9 10 -26q0 -6 -3 -13q-3 -8 -19 -28l-1038 -1306q-19 -22 -22 -25q-7 -6 -19 -6q-10 0 -22 9q-11 8 -11 26zM121 1233q0 18 14 29l199 143q18 13 23 15q8 3 14 3q39 0 39 -34v-652 q0 -16 -11 -25q-12 -10 -26 -10q-35 0 -35 35v586l-152 -111q-17 -12 -32 -12t-24 10t-9 23zM856 33q0 19 18 37l246 239q84 79 113 132q31 56 31 108q0 50 -39 80t-113 30q-67 0 -103 -20q-38 -21 -59 -51q-17 -25 -37 -25q-13 0 -24 9q-10 9 -10 28q0 16 14 37 q15 22 43 43q28 20 73 36q43 15 103 15q100 0 162 -46q63 -47 63 -138q0 -64 -39 -127q-41 -66 -114 -135l-223 -217h356q39 0 39 -35q0 -33 -39 -33h-422q-17 0 -28 7t-11 26z" />
<glyph unicode="&#xbe;" horiz-adv-x="1400" d="M94 782q0 17 10 26t27 9q10 0 23 -8q67 -47 165 -47q88 0 144 40q57 40 57 111q0 63 -48 103q-49 41 -140 41h-39q-16 0 -28 9q-11 8 -11 26q0 16 12 24q13 8 29 8h35q72 0 116 36q43 36 43 83q0 60 -48 90q-50 31 -113 31q-47 0 -83 -9t-71 -32q-12 -6 -20 -6 q-12 0 -22 8q-9 7 -9 23q0 20 16 30q21 16 70 36q48 20 119 20q103 0 171 -51q66 -49 66 -128q0 -54 -34 -95q-34 -42 -101 -64q85 -18 125 -69q39 -49 39 -114q0 -51 -21 -92q-22 -42 -57 -70q-38 -30 -86 -45q-53 -16 -106 -16q-139 0 -213 62q-17 15 -17 30zM231 35 q0 12 19 37l1042 1310q20 24 21 25q6 6 16 6q17 0 27 -9t10 -26q0 -6 -3 -13q-2 -5 -20 -28l-1038 -1306l-21 -25q-8 -6 -20 -6q-9 0 -21 9t-12 26zM811 193q0 9 12 26l361 475q18 27 43 27q35 0 35 -39v-457h81q33 0 33 -32q0 -35 -33 -35h-83v-123q0 -35 -35 -35t-35 35 v123h-342q-37 0 -37 35zM899 225h291v379z" />
<glyph unicode="&#xbf;" horiz-adv-x="1030" d="M174 -86q0 82 28 147t74 111q48 48 112 78q70 32 136 49v305q0 35 37 35q35 0 35 -35v-328q0 -22 -10 -32q-11 -11 -31 -15q-147 -28 -226 -109q-79 -80 -79 -206q0 -50 18 -97q17 -43 55 -80q33 -31 86 -54q49 -21 113 -21q68 0 128 27q62 28 108 80q24 26 44 60 q18 32 40 32q14 0 24 -7q11 -8 11 -24q0 -15 -9 -37q-8 -19 -20 -37q-45 -65 -128 -116q-82 -50 -196 -50q-80 0 -149 25q-64 23 -111 69q-45 43 -67 103q-23 61 -23 127zM487 946q0 34 20 56t56 22q33 0 55 -22q21 -21 21 -56q0 -78 -76 -78t-76 78z" />
<glyph unicode="&#xc0;" horiz-adv-x="1376" d="M92 31q0 11 7 28q21 50 34 80l504 1221q11 29 21 40q12 13 30 13q19 0 31 -13q11 -13 22 -40l502 -1221q13 -30 34 -80q7 -17 7 -28q0 -17 -13 -24t-26 -7q-20 0 -32 19q-7 11 -37 85l-127 316h-730l-159 -391q-7 -16 -16 -23q-8 -6 -17 -6q-12 0 -23 7q-12 7 -12 24z M346 485h676l-334 826zM520 1794q0 22 17 36q16 13 32 13q24 0 44 -20q7 -7 20 -19.5t18 -17.5l199 -189q10 -10 10 -22q0 -25 -26 -25q-12 0 -19 6l-272 199q-23 17 -23 39z" />
<glyph unicode="&#xc1;" horiz-adv-x="1376" d="M92 31q0 11 7 28q21 50 34 80l504 1221q11 29 21 40q12 13 30 13q19 0 31 -13q11 -13 22 -40l502 -1221q13 -30 34 -80q7 -17 7 -28q0 -17 -13 -24t-26 -7q-20 0 -32 19q-7 11 -37 85l-127 316h-730l-159 -391q-7 -16 -16 -23q-8 -6 -17 -6q-12 0 -23 7q-12 7 -12 24z M346 485h676l-334 826zM520 1575q0 12 10 22l199 189q5 5 18 17.5t20 19.5q20 20 44 20q17 0 33 -13t16 -36t-22 -39l-273 -199q-11 -6 -18 -6q-27 0 -27 25z" />
<glyph unicode="&#xc2;" horiz-adv-x="1376" d="M92 31q0 11 7 28q21 50 34 80l504 1221q11 29 21 40q12 13 30 13q19 0 31 -13q11 -13 22 -40l502 -1221q13 -30 34 -80q7 -17 7 -28q0 -17 -13 -24t-26 -7q-20 0 -32 19q-7 11 -37 85l-127 316h-730l-159 -391q-7 -16 -16 -23q-8 -6 -17 -6q-12 0 -23 7q-12 7 -12 24z M346 485h676l-334 826zM403 1577q0 7 7 16q12 15 16 19l223 213q18 18 39 18q23 0 41 -18l221 -213q9 -9 17 -19q6 -8 6 -16q0 -10 -8 -18q-9 -9 -19 -9t-35 19l-223 188l-223 -188q-25 -19 -35 -19q-9 0 -18 9t-9 18z" />
<glyph unicode="&#xc3;" horiz-adv-x="1376" d="M92 31q0 11 7 28q21 50 34 80l504 1221q11 29 21 40q12 13 30 13q19 0 31 -13q11 -13 22 -40l502 -1221q13 -30 34 -80q7 -17 7 -28q0 -17 -13 -24t-26 -7q-20 0 -32 19q-7 11 -37 85l-127 316h-730l-159 -391q-7 -16 -16 -23q-8 -6 -17 -6q-12 0 -23 7q-12 7 -12 24z M346 485h676l-334 826zM375 1663q0 13 10 27q32 38 76 67q41 27 110 27q43 0 77 -15q45 -19 64 -31q25 -15 59 -32q28 -14 65 -14q34 0 58 18q23 17 46 51q17 23 31 23q11 0 23 -9t12 -26q0 -5 -9 -25q-29 -48 -70 -74q-44 -28 -96 -28q-46 0 -77 14q-40 18 -62 32 q-23 14 -58 32q-28 14 -69 14q-51 0 -77 -19q-27 -20 -50 -44q-12 -17 -28 -17q-14 0 -25 8q-10 7 -10 21z" />
<glyph unicode="&#xc4;" horiz-adv-x="1376" d="M92 31q0 11 7 28q21 50 34 80l504 1221q11 29 21 40q12 13 30 13q19 0 31 -13q11 -13 22 -40l502 -1221q13 -30 34 -80q7 -17 7 -28q0 -17 -13 -24t-26 -7q-20 0 -32 19q-7 11 -37 85l-127 316h-730l-159 -391q-7 -16 -16 -23q-8 -6 -17 -6q-12 0 -23 7q-12 7 -12 24z M346 485h676l-334 826zM481 1712q0 64 62 64q27 0 46 -16q17 -14 17 -48q0 -61 -63 -61q-62 0 -62 61zM770 1712q0 64 61 64q28 0 47 -16q17 -14 17 -48q0 -61 -64 -61q-61 0 -61 61z" />
<glyph unicode="&#xc5;" horiz-adv-x="1376" d="M92 31q0 11 7 28q21 50 34 80l504 1221q11 29 21 40q12 13 30 13q19 0 31 -13q11 -13 22 -40l502 -1221q13 -30 34 -80q7 -17 7 -28q0 -17 -13 -24t-26 -7q-20 0 -32 19q-7 11 -37 85l-127 316h-730l-159 -391q-7 -16 -16 -23q-8 -6 -17 -6q-12 0 -23 7q-12 7 -12 24z M346 485h676l-334 826zM508 1733q0 46 17 79q19 37 43 58q26 23 58 35t62 12q78 0 129 -53q51 -52 51 -131q0 -77 -51 -130t-129 -53q-30 0 -62 12q-36 14 -59 34q-27 24 -43 58q-16 33 -16 79zM578 1735q0 -46 26 -81q27 -36 84 -36q33 0 52 11q23 13 35 29q15 20 19 37 q5 22 5 38q0 17 -5 40q-4 18 -19 38q-12 16 -35 29q-19 11 -52 11q-37 0 -58 -12q-22 -12 -34 -31q-12 -18 -15 -39t-3 -34z" />
<glyph unicode="&#xc6;" horiz-adv-x="1832" d="M57 33q0 10 9 28l821 1328q15 24 43 24h799q34 0 34 -33q0 -32 -34 -32h-764v-586h546q35 0 35 -33t-35 -33h-546v-630h764q34 0 34 -33t-34 -33h-801q-37 0 -37 37v397h-510l-252 -407q-17 -27 -41 -27q-31 0 -31 33zM422 502h469v766z" />
<glyph unicode="&#xc7;" horiz-adv-x="1417" d="M123 711q0 166 49 298q50 133 135 228q84 93 203 145t254 52q94 0 172 -24t140 -58q60 -33 109 -77q48 -43 75 -79q18 -23 33 -51q12 -22 12 -41q0 -18 -12 -25q-13 -8 -23 -8q-25 0 -37 23q-29 45 -76 95t-103 86q-60 38 -131 62q-75 25 -159 25q-132 0 -236 -52 t-178 -141q-73 -88 -112 -206q-39 -119 -39 -250q0 -134 40 -253q41 -122 113 -210q75 -92 178 -145q105 -54 234 -54q147 0 267 70q118 69 192 188q19 31 37 31q12 0 24 -9t12 -28q0 -1 -2 -13q-1 -8 -8 -20q-18 -30 -59 -80q-38 -47 -105 -96q-62 -46 -152 -81 q-85 -33 -206 -33h-2v-74q51 -7 99 -46q46 -37 46 -110q0 -52 -18 -86t-46 -56t-62 -32q-33 -10 -64 -10q-34 0 -46 9t-12 26q0 32 43 32q72 0 102 32q30 31 30 79q0 46 -28 71q-25 22 -73 27q-17 1 -31 11q-10 7 -10 30v101q-123 12 -227 70q-102 57 -180 153 q-75 92 -119 222q-43 126 -43 282z" />
<glyph unicode="&#xc8;" horiz-adv-x="1159" d="M195 37v1339q0 37 38 37h799q35 0 35 -33q0 -32 -35 -32h-764v-586h547q35 0 35 -33t-35 -33h-547v-630h764q35 0 35 -33t-35 -33h-801q-36 0 -36 37zM473 1794q0 23 16 36t33 13q24 0 44 -20q7 -7 20 -19.5t18 -17.5l199 -189q10 -10 10 -22q0 -25 -27 -25q-10 0 -18 6 l-272 199q-23 17 -23 39z" />
<glyph unicode="&#xc9;" horiz-adv-x="1159" d="M195 37v1339q0 37 38 37h799q35 0 35 -33q0 -32 -35 -32h-764v-586h547q35 0 35 -33t-35 -33h-547v-630h764q35 0 35 -33t-35 -33h-801q-36 0 -36 37zM473 1575q0 12 10 22l199 189q5 5 18 17.5t20 19.5q20 20 44 20q17 0 33 -13t16 -36t-22 -39l-273 -199q-10 -6 -18 -6 q-27 0 -27 25z" />
<glyph unicode="&#xca;" horiz-adv-x="1159" d="M195 37v1339q0 37 38 37h799q35 0 35 -33q0 -32 -35 -32h-764v-586h547q35 0 35 -33t-35 -33h-547v-630h764q35 0 35 -33t-35 -33h-801q-36 0 -36 37zM356 1577q0 9 6 16q8 10 17 19l223 213q18 18 39 18q23 0 41 -18l221 -213q9 -9 17 -19q6 -8 6 -16q0 -10 -8 -18 q-9 -9 -19 -9t-35 19l-223 188l-223 -188q-25 -19 -35 -19q-9 0 -18 9t-9 18z" />
<glyph unicode="&#xcb;" horiz-adv-x="1159" d="M195 37v1339q0 37 38 37h799q35 0 35 -33q0 -32 -35 -32h-764v-586h547q35 0 35 -33t-35 -33h-547v-630h764q35 0 35 -33t-35 -33h-801q-36 0 -36 37zM434 1712q0 64 62 64q27 0 46 -16q17 -14 17 -48q0 -61 -63 -61q-62 0 -62 61zM723 1712q0 64 61 64q27 0 46 -16 q18 -15 18 -48q0 -61 -64 -61q-61 0 -61 61z" />
<glyph unicode="&#xcc;" horiz-adv-x="462" d="M63 1794q0 22 17 36q16 13 33 13q24 0 44 -20q7 -7 20 -19.5t18 -17.5l198 -189q10 -10 10 -22q0 -25 -26 -25q-11 0 -19 6l-272 199q-23 17 -23 39zM195 35v1343q0 35 36 35q37 0 37 -35v-1343q0 -35 -37 -35q-36 0 -36 35z" />
<glyph unicode="&#xcd;" horiz-adv-x="462" d="M63 1575q0 11 11 22l198 189q5 5 18 17.5t20 19.5q20 20 44 20q17 0 33 -13t16 -36t-22 -39l-272 -199q-10 -6 -19 -6q-27 0 -27 25zM195 35v1343q0 35 36 35q37 0 37 -35v-1343q0 -35 -37 -35q-36 0 -36 35z" />
<glyph unicode="&#xce;" horiz-adv-x="462" d="M-53 1577q0 9 6 16q12 15 16 19l224 213q18 18 38 18q23 0 41 -18l222 -213q4 -4 16 -19q6 -7 6 -16q0 -10 -8 -18q-9 -9 -19 -9q-9 0 -34 19l-224 188l-223 -188q-25 -19 -35 -19q-9 0 -18 9q-8 8 -8 18zM195 35v1343q0 35 36 35q37 0 37 -35v-1343q0 -35 -37 -35 q-36 0 -36 35z" />
<glyph unicode="&#xcf;" horiz-adv-x="462" d="M25 1712q0 64 61 64q27 0 46 -16q18 -15 18 -48q0 -61 -64 -61q-61 0 -61 61zM195 35v1343q0 35 36 35q37 0 37 -35v-1343q0 -35 -37 -35q-36 0 -36 35zM313 1712q0 64 62 64q27 0 46 -16q17 -14 17 -48q0 -61 -63 -61q-62 0 -62 61z" />
<glyph unicode="&#xd0;" horiz-adv-x="1378" d="M27 731q0 35 39 35h129v612q0 35 36 35h416q140 0 255 -53q112 -52 192 -147q77 -91 119 -220q42 -127 42 -274q0 -143 -42 -274q-42 -132 -119 -229q-79 -100 -192 -158t-255 -58h-418q-34 0 -34 35v661h-129q-15 0 -28 11q-11 10 -11 24zM268 66h375q122 0 220 52 q100 53 170 141q72 90 109 208q38 120 38 252q0 130 -38 247q-37 113 -109 199q-70 84 -172 133q-103 50 -228 50h-365v-582h334q39 0 39 -35q0 -14 -11 -24q-13 -11 -28 -11h-334v-630z" />
<glyph unicode="&#xd1;" horiz-adv-x="1400" d="M195 35v1325q0 29 8 42q7 11 22 11q21 0 37 -22l871 -1235v1220q0 35 36 35q37 0 37 -35v-1341q0 -35 -30 -35q-20 0 -39 25l-869 1237v-1227q0 -35 -37 -35q-36 0 -36 35zM387 1663q0 13 10 27q32 38 76 67q41 27 111 27q42 0 76 -15q45 -19 64 -31q25 -15 59 -32 q28 -14 65 -14q34 0 58 18q23 17 46 51q17 23 31 23q12 0 24 -9q11 -8 11 -26q0 -7 -8 -25q-29 -47 -71 -74q-44 -28 -95 -28q-47 0 -78 14q-37 17 -61 32q-19 12 -59 32q-28 14 -68 14q-51 0 -77 -19q-27 -20 -50 -44q-12 -17 -29 -17q-14 0 -25 8q-10 7 -10 21z" />
<glyph unicode="&#xd2;" horiz-adv-x="1531" d="M123 711q0 156 47 289q47 134 132 229q86 97 203 150q121 55 261 55t261 -55q117 -53 203 -150q85 -95 132 -229q47 -133 47 -289q0 -157 -47 -292t-132 -232t-203 -152q-117 -55 -261 -55t-261 55q-118 55 -203 152t-132 232t-47 292zM199 711q0 -133 39 -252 q39 -120 112 -210q75 -93 179 -145q106 -53 237 -53q135 0 241 53q105 53 178 145q73 93 110 210q38 120 38 252q0 131 -39 250t-112 207q-74 89 -180 142q-104 52 -236 52q-137 0 -241 -52q-105 -53 -178 -142q-73 -90 -110 -207q-38 -120 -38 -250zM598 1794q0 23 16 36 t33 13q24 0 44 -20q7 -7 20 -19.5t18 -17.5l199 -189q10 -10 10 -22q0 -25 -27 -25q-11 0 -18 6l-272 199q-23 17 -23 39z" />
<glyph unicode="&#xd3;" horiz-adv-x="1531" d="M123 711q0 156 47 289q47 134 132 229q86 97 203 150q121 55 261 55t261 -55q117 -53 203 -150q85 -95 132 -229q47 -133 47 -289q0 -157 -47 -292t-132 -232t-203 -152q-117 -55 -261 -55t-261 55q-118 55 -203 152t-132 232t-47 292zM199 711q0 -133 39 -252 q39 -120 112 -210q75 -93 179 -145q106 -53 237 -53q135 0 241 53q105 53 178 145q73 93 110 210q38 120 38 252q0 131 -39 250t-112 207q-74 89 -180 142q-104 52 -236 52q-137 0 -241 -52q-105 -53 -178 -142q-73 -90 -110 -207q-38 -120 -38 -250zM598 1575q0 12 10 22 l199 189q5 5 18 17.5t20 19.5q20 20 44 20q17 0 33 -13t16 -36q0 -22 -23 -39l-272 -199q-11 -6 -18 -6q-27 0 -27 25z" />
<glyph unicode="&#xd4;" horiz-adv-x="1531" d="M123 711q0 156 47 289q47 134 132 229q86 97 203 150q121 55 261 55t261 -55q117 -53 203 -150q85 -95 132 -229q47 -133 47 -289q0 -157 -47 -292t-132 -232t-203 -152q-117 -55 -261 -55t-261 55q-118 55 -203 152t-132 232t-47 292zM199 711q0 -133 39 -252 q39 -120 112 -210q75 -93 179 -145q106 -53 237 -53q135 0 241 53q105 53 178 145q73 93 110 210q38 120 38 252q0 131 -39 250t-112 207q-74 89 -180 142q-104 52 -236 52q-137 0 -241 -52q-105 -53 -178 -142q-73 -90 -110 -207q-38 -120 -38 -250zM481 1577q0 9 6 16 q8 10 17 19l223 213q18 18 39 18q23 0 41 -18l221 -213q4 -4 16 -19q7 -9 7 -16q0 -9 -9 -18t-18 -9q-10 0 -35 19l-223 188l-223 -188q-25 -19 -35 -19t-19 9q-8 8 -8 18z" />
<glyph unicode="&#xd5;" horiz-adv-x="1531" d="M123 711q0 156 47 289q47 134 132 229q86 97 203 150q121 55 261 55t261 -55q117 -53 203 -150q85 -95 132 -229q47 -133 47 -289q0 -157 -47 -292t-132 -232t-203 -152q-117 -55 -261 -55t-261 55q-118 55 -203 152t-132 232t-47 292zM199 711q0 -133 39 -252 q39 -120 112 -210q75 -93 179 -145q106 -53 237 -53q135 0 241 53q105 53 178 145q73 93 110 210q38 120 38 252q0 131 -39 250t-112 207q-74 89 -180 142q-104 52 -236 52q-137 0 -241 -52q-105 -53 -178 -142q-73 -90 -110 -207q-38 -120 -38 -250zM453 1663q0 13 10 27 q32 38 76 67q41 27 110 27q43 0 77 -15q45 -19 64 -31q25 -15 59 -32q28 -14 64 -14q35 0 59 18q23 17 46 51q17 23 31 23q11 0 23 -9q11 -8 11 -26q0 -7 -8 -25q-29 -48 -70 -74q-44 -28 -96 -28q-47 0 -78 14q-37 17 -61 32q-23 14 -58 32q-28 14 -69 14q-51 0 -77 -19 q-27 -20 -50 -44q-12 -17 -29 -17q-13 0 -24 8q-10 7 -10 21z" />
<glyph unicode="&#xd6;" horiz-adv-x="1531" d="M123 711q0 156 47 289q47 134 132 229q86 97 203 150q121 55 261 55t261 -55q117 -53 203 -150q85 -95 132 -229q47 -133 47 -289q0 -157 -47 -292t-132 -232t-203 -152q-117 -55 -261 -55t-261 55q-118 55 -203 152t-132 232t-47 292zM199 711q0 -133 39 -252 q39 -120 112 -210q75 -93 179 -145q106 -53 237 -53q135 0 241 53q105 53 178 145q73 93 110 210q38 120 38 252q0 131 -39 250t-112 207q-74 89 -180 142q-104 52 -236 52q-137 0 -241 -52q-105 -53 -178 -142q-73 -90 -110 -207q-38 -120 -38 -250zM559 1712q0 64 62 64 q27 0 46 -16q17 -14 17 -48q0 -61 -63 -61q-62 0 -62 61zM848 1712q0 64 61 64q27 0 46 -16q18 -15 18 -48q0 -61 -64 -61q-61 0 -61 61z" />
<glyph unicode="&#xd7;" d="M348 393q0 15 14 29l232 231l-232 232q-14 14 -14 28q0 12 9 24q8 11 26 11q15 0 29 -14l231 -232l231 232q14 14 29 14q12 0 24 -9q11 -8 11 -26q0 -14 -14 -28l-232 -232l232 -231q14 -14 14 -29q0 -11 -9 -23t-26 -12q-14 0 -29 15l-231 231l-231 -231 q-15 -15 -31 -15q-9 0 -22 10q-11 8 -11 25z" />
<glyph unicode="&#xd8;" horiz-adv-x="1531" d="M123 711q0 156 47 289q47 134 132 229q86 97 203 150q121 55 261 55q104 0 199 -31q90 -30 168 -86l69 98q13 19 31 19q19 0 28 -11q9 -10 9 -26q0 -13 -6 -21l-74 -106q105 -99 162 -241q57 -143 57 -318q0 -157 -47 -292t-132 -232t-203 -152q-117 -55 -261 -55 q-117 0 -210 33q-97 34 -175 96l-74 -107q-16 -22 -33 -22q-18 0 -28 11t-10 23q0 13 10 27l82 119q-100 100 -152 239q-53 142 -53 312zM199 711q0 -140 44 -269q43 -126 130 -219l717 1032q-66 49 -147 78q-82 29 -177 29q-137 0 -241 -52q-105 -53 -178 -142 q-73 -90 -110 -207q-38 -120 -38 -250zM426 172q69 -58 153 -89q87 -32 187 -32q135 0 241 53q105 53 178 145q73 93 110 210q38 120 38 252q0 147 -48 275t-140 220z" />
<glyph unicode="&#xd9;" horiz-adv-x="1404" d="M184 481v897q0 35 37 35t37 -35v-897q0 -96 33 -175q32 -78 91 -135q58 -57 140 -88q84 -32 180 -32q97 0 181 32q81 31 140 90q58 58 91 139t33 177v889q0 35 37 35t37 -35v-891q0 -111 -38 -205q-37 -91 -108 -161q-68 -66 -165 -105q-91 -36 -208 -36t-208 36 q-94 37 -164 104t-108 159q-38 93 -38 202zM535 1794q0 23 16 36t33 13q24 0 44 -20q7 -7 20 -19.5t18 -17.5l198 -189q10 -10 10 -22q0 -25 -26 -25q-12 0 -19 6l-272 199q-22 16 -22 39z" />
<glyph unicode="&#xda;" horiz-adv-x="1404" d="M184 481v897q0 35 37 35t37 -35v-897q0 -96 33 -175q32 -78 91 -135q58 -57 140 -88q84 -32 180 -32q97 0 181 32q81 31 140 90q58 58 91 139t33 177v889q0 35 37 35t37 -35v-891q0 -111 -38 -205q-37 -91 -108 -161q-68 -66 -165 -105q-91 -36 -208 -36t-208 36 q-94 37 -164 104t-108 159q-38 93 -38 202zM535 1575q0 12 10 22l198 189q5 5 18 17.5t20 19.5q20 20 44 20q17 0 33 -13t16 -36t-22 -39l-272 -199q-10 -6 -19 -6q-26 0 -26 25z" />
<glyph unicode="&#xdb;" horiz-adv-x="1404" d="M184 481v897q0 35 37 35t37 -35v-897q0 -96 33 -175q32 -78 91 -135q58 -57 140 -88q84 -32 180 -32q97 0 181 32q81 31 140 90q58 58 91 139t33 177v889q0 35 37 35t37 -35v-891q0 -111 -38 -205q-37 -91 -108 -161q-68 -66 -165 -105q-91 -36 -208 -36t-208 36 q-94 37 -164 104t-108 159q-38 93 -38 202zM418 1577q0 9 6 16q12 15 16 19l224 213q18 18 38 18q23 0 41 -18l222 -213q4 -4 16 -19q6 -8 6 -16q0 -10 -8 -18q-9 -9 -18 -9q-10 0 -35 19l-224 188l-223 -188q-25 -19 -35 -19q-9 0 -18 9q-8 8 -8 18z" />
<glyph unicode="&#xdc;" horiz-adv-x="1404" d="M184 481v897q0 35 37 35t37 -35v-897q0 -96 33 -175q32 -78 91 -135q58 -57 140 -88q84 -32 180 -32q97 0 181 32q81 31 140 90q58 58 91 139t33 177v889q0 35 37 35t37 -35v-891q0 -111 -38 -205q-37 -91 -108 -161q-68 -66 -165 -105q-91 -36 -208 -36t-208 36 q-94 37 -164 104t-108 159q-38 93 -38 202zM496 1712q0 64 61 64q27 0 46 -16q18 -15 18 -48q0 -61 -64 -61q-61 0 -61 61zM784 1712q0 64 62 64q27 0 46 -16q17 -14 17 -48q0 -61 -63 -61q-62 0 -62 61z" />
<glyph unicode="&#xdd;" horiz-adv-x="1267" d="M92 1378q0 12 9 24q8 11 26 11q26 0 37 -20l469 -766l473 764q12 22 33 22q13 0 25 -9t12 -24q0 -6 -7 -20l-497 -807v-518q0 -35 -37 -35t-37 35v518l-500 801q-6 12 -6 24zM465 1575q0 12 10 22l199 189q5 5 18 17.5t20 19.5q20 20 44 20q16 0 32 -13q17 -14 17 -36 t-23 -39l-272 -199q-10 -6 -18 -6q-27 0 -27 25z" />
<glyph unicode="&#xde;" horiz-adv-x="1198" d="M195 35v1343q0 35 36 35q37 0 37 -35v-252h377q230 0 340 -110q111 -111 111 -314q0 -188 -119 -298q-118 -109 -340 -109h-369v-260q0 -35 -37 -35q-36 0 -36 35zM268 360h369q105 0 178 27q74 27 120 73q45 45 66 108t21 134q0 171 -98 265t-291 94h-365v-701z" />
<glyph unicode="&#xdf;" horiz-adv-x="1114" d="M164 1014q0 116 30 196q31 82 79 130q51 51 118 72q71 22 144 22q169 0 258 -114q88 -113 88 -325q0 -34 -15 -49q-14 -14 -61 -14q-123 0 -176 -45q-54 -46 -54 -111q0 -57 35 -98t86 -77q46 -32 113 -70q72 -40 113 -73q52 -41 86 -90t34 -120q0 -49 -18 -97t-56 -86 t-97 -62q-56 -23 -138 -23q-111 0 -197 52q-87 53 -126 130q0 1 -1.5 4.5t-2.5 5.5q-3 12 -3 16q0 9 10 22q8 11 25 11q19 0 31 -22q10 -19 35 -49q23 -28 55 -51q33 -24 77 -39t101 -15q111 0 171 54q61 55 61 147q0 56 -35 99q-34 41 -86 78q-53 37 -113 71 q-64 36 -112 74q-53 42 -86 91q-35 52 -35 121q0 53 23 92q25 42 66 70q42 29 97 42q52 13 119 11q4 173 -69 274q-72 99 -214 99q-76 0 -131 -25q-53 -24 -87 -70q-32 -44 -48 -111q-14 -60 -14 -142v-981q0 -39 -39 -39t-39 39z" />
<glyph unicode="&#xe0;" horiz-adv-x="1239" d="M102 502q0 112 37 207q37 96 102 165q66 71 152 110q87 40 191 40q150 0 250 -76q99 -75 159 -200v223q0 33 35 33q15 0 27 -10q10 -9 10 -23v-793q0 -11 2 -39q1 -20 9 -38q7 -16 22 -27q16 -11 39 -11q37 0 37 -32q0 -31 -37 -31q-89 0 -116 51q-28 53 -28 129v78 q-60 -124 -163 -201q-102 -77 -246 -77q-108 0 -193 39q-86 39 -152 110q-65 69 -101 166q-36 96 -36 207zM176 498q0 -96 29 -180q28 -82 83 -143t130 -95q78 -35 168 -35q89 0 163 34q77 35 130 93q57 61 86 142q30 82 30 182q0 98 -30 183q-29 83 -86 146t-130 98 t-163 35q-96 0 -170 -35q-76 -36 -129 -99q-55 -66 -82 -146q-29 -85 -29 -180zM451 1384q0 23 16 36q17 14 33 14q23 0 44 -21q7 -7 20 -19.5t18 -17.5l198 -188q11 -11 11 -23q0 -24 -27 -24q-12 0 -19 6l-272 199q-22 16 -22 38z" />
<glyph unicode="&#xe1;" horiz-adv-x="1239" d="M102 502q0 112 37 207q37 96 102 165q66 71 152 110q87 40 191 40q150 0 250 -76q99 -75 159 -200v223q0 33 35 33q15 0 27 -10q10 -9 10 -23v-793q0 -11 2 -39q1 -20 9 -38q7 -16 22 -27q16 -11 39 -11q37 0 37 -32q0 -31 -37 -31q-89 0 -116 51q-28 53 -28 129v78 q-60 -124 -163 -201q-102 -77 -246 -77q-108 0 -193 39q-86 39 -152 110q-65 69 -101 166q-36 96 -36 207zM176 498q0 -96 29 -180q28 -82 83 -143t130 -95q78 -35 168 -35q89 0 163 34q77 35 130 93q57 61 86 142q30 82 30 182q0 98 -30 183q-29 83 -86 146t-130 98 t-163 35q-96 0 -170 -35q-76 -36 -129 -99q-55 -66 -82 -146q-29 -85 -29 -180zM410 1165q0 13 10 23l198 188q5 5 18 17.5t20 19.5q21 21 44 21q16 0 33 -14t17 -36q0 -21 -23 -38l-272 -199q-11 -6 -19 -6q-26 0 -26 24z" />
<glyph unicode="&#xe2;" horiz-adv-x="1239" d="M102 502q0 112 37 207q37 96 102 165q66 71 152 110q87 40 191 40q150 0 250 -76q99 -75 159 -200v223q0 33 35 33q15 0 27 -10q10 -9 10 -23v-793q0 -11 2 -39q1 -20 9 -38q7 -16 22 -27q16 -11 39 -11q37 0 37 -32q0 -31 -37 -31q-89 0 -116 51q-28 53 -28 129v78 q-60 -124 -163 -201q-102 -77 -246 -77q-108 0 -193 39q-86 39 -152 110q-65 69 -101 166q-36 96 -36 207zM176 498q0 -96 29 -180q28 -82 83 -143t130 -95q78 -35 168 -35q89 0 163 34q77 35 130 93q57 61 86 142q30 82 30 182q0 98 -30 183q-29 83 -86 146t-130 98 t-163 35q-96 0 -170 -35q-76 -36 -129 -99q-55 -66 -82 -146q-29 -85 -29 -180zM293 1167q0 9 6 17q8 10 16 18l224 213q19 19 39 19q21 0 40 -19l222 -213q8 -8 16 -18q6 -8 6 -17q0 -10 -8 -18t-18 -8q-11 0 -35 18l-223 189l-224 -189q-24 -18 -35 -18q-10 0 -18 8t-8 18 z" />
<glyph unicode="&#xe3;" horiz-adv-x="1239" d="M102 502q0 112 37 207q37 96 102 165q66 71 152 110q87 40 191 40q150 0 250 -76q99 -75 159 -200v223q0 33 35 33q15 0 27 -10q10 -9 10 -23v-793q0 -11 2 -39q1 -20 9 -38q7 -16 22 -27q16 -11 39 -11q37 0 37 -32q0 -31 -37 -31q-89 0 -116 51q-28 53 -28 129v78 q-60 -124 -163 -201q-102 -77 -246 -77q-108 0 -193 39q-86 39 -152 110q-65 69 -101 166q-36 96 -36 207zM176 498q0 -96 29 -180q28 -82 83 -143t130 -95q78 -35 168 -35q89 0 163 34q77 35 130 93q57 61 86 142q30 82 30 182q0 98 -30 183q-29 83 -86 146t-130 98 t-163 35q-96 0 -170 -35q-76 -36 -129 -99q-55 -66 -82 -146q-29 -85 -29 -180zM305 1253q0 13 10 27q34 40 76 68q39 26 111 26q45 0 77 -14q35 -15 63 -32q25 -15 59 -32q28 -14 65 -14q34 0 58 18q22 16 46 52q16 22 31 22q12 0 24 -9q11 -8 11 -26q0 -6 -8 -24 q-30 -48 -71 -75q-44 -28 -95 -28q-45 0 -78 15q-43 19 -61 31q-19 12 -59 32q-30 15 -68 15q-49 0 -77 -20q-27 -20 -50 -44q-12 -16 -29 -16q-14 0 -25 8q-10 7 -10 20z" />
<glyph unicode="&#xe4;" horiz-adv-x="1239" d="M102 502q0 112 37 207q37 96 102 165q66 71 152 110q87 40 191 40q150 0 250 -76q99 -75 159 -200v223q0 33 35 33q15 0 27 -10q10 -9 10 -23v-793q0 -11 2 -39q1 -20 9 -38q7 -16 22 -27q16 -11 39 -11q37 0 37 -32q0 -31 -37 -31q-89 0 -116 51q-28 53 -28 129v78 q-60 -124 -163 -201q-102 -77 -246 -77q-108 0 -193 39q-86 39 -152 110q-65 69 -101 166q-36 96 -36 207zM176 498q0 -96 29 -180q28 -82 83 -143t130 -95q78 -35 168 -35q89 0 163 34q77 35 130 93q57 61 86 142q30 82 30 182q0 98 -30 183q-29 83 -86 146t-130 98 t-163 35q-96 0 -170 -35q-76 -36 -129 -99q-55 -66 -82 -146q-29 -85 -29 -180zM391 1303q0 63 62 63q28 0 46 -15q17 -14 17 -48q0 -62 -63 -62q-62 0 -62 62zM680 1303q0 63 61 63q28 0 46 -15t18 -48q0 -62 -64 -62q-61 0 -61 62z" />
<glyph unicode="&#xe5;" horiz-adv-x="1239" d="M102 502q0 112 37 207q37 96 102 165q66 71 152 110q87 40 191 40q150 0 250 -76q99 -75 159 -200v223q0 33 35 33q15 0 27 -10q10 -9 10 -23v-793q0 -11 2 -39q1 -20 9 -38q7 -16 22 -27q16 -11 39 -11q37 0 37 -32q0 -31 -37 -31q-89 0 -116 51q-28 53 -28 129v78 q-60 -124 -163 -201q-102 -77 -246 -77q-108 0 -193 39q-86 39 -152 110q-65 69 -101 166q-36 96 -36 207zM176 498q0 -96 29 -180q28 -82 83 -143t130 -95q78 -35 168 -35q89 0 163 34q77 35 130 93q57 61 86 142q30 82 30 182q0 98 -30 183q-29 83 -86 146t-130 98 t-163 35q-96 0 -170 -35q-76 -36 -129 -99q-55 -66 -82 -146q-29 -85 -29 -180zM418 1323q0 47 17 80q18 35 43 57q26 23 58 35q31 12 62 12q78 0 129 -53t51 -131q0 -77 -51 -130q-51 -52 -129 -52q-33 0 -62 11q-34 13 -59 35q-27 24 -43 57t-16 79zM487 1325 q0 -45 27 -81t84 -36q31 0 52 12q24 14 35 28q14 18 18 37q6 26 6 38t-6 40q-5 21 -18 39q-12 16 -35 29q-19 11 -52 11q-37 0 -58 -12q-22 -12 -34 -31q-13 -20 -16 -39q-3 -21 -3 -35z" />
<glyph unicode="&#xe6;" horiz-adv-x="2037" d="M102 502q0 112 37 207q37 96 102 165q66 71 152 110q87 40 191 40q150 0 250 -76q99 -75 159 -200v223q0 33 35 33q15 0 27 -10q10 -9 10 -23v-228q66 146 176 213q112 68 234 68q99 0 180 -34q83 -35 141 -90q59 -56 93 -132q34 -75 34 -160q0 -41 -12 -65 q-13 -25 -60 -25h-782q0 -98 27 -184q28 -88 79 -151t130 -101q77 -37 178 -37q111 0 194 39q84 40 146 100q15 15 26 15q15 0 25 -12q10 -11 10 -23q0 -17 -14 -31q-59 -60 -163 -107q-102 -46 -228 -46q-180 0 -291 98q-114 100 -154 254q-61 -176 -180 -263 q-122 -89 -270 -89q-108 0 -193 39q-86 39 -152 110q-65 69 -101 166q-36 96 -36 207zM176 498q0 -96 29 -180q28 -82 83 -143t130 -95q78 -35 168 -35q89 0 163 34q77 35 130 93q57 61 86 142q30 82 30 182q0 98 -30 183q-29 83 -86 146t-130 98t-163 35q-96 0 -170 -35 q-76 -36 -129 -99q-55 -66 -82 -146q-29 -85 -29 -180zM1071 580h778q6 69 -18 138q-23 67 -75 122q-49 52 -123 86q-70 32 -158 32q-73 0 -141 -25q-69 -25 -123 -75q-55 -50 -92 -120q-38 -71 -48 -158z" />
<glyph unicode="&#xe7;" horiz-adv-x="1079" d="M102 500q0 111 36 207q35 94 101 166q65 71 152 111t191 40q77 0 135 -19q52 -17 104 -48q45 -27 77 -59q31 -31 52 -58q9 -10 24 -32q13 -19 13 -36q0 -33 -33 -33q-15 0 -30 21q-10 16 -42 56q-26 33 -70 66q-43 32 -98 54q-56 22 -128 22q-90 0 -163 -35t-130 -98 t-86 -145q-31 -87 -31 -180q0 -97 31 -182q29 -79 84 -144q51 -59 128 -95q74 -34 163 -34q103 0 188 50q81 48 143 130q15 21 33 21q33 0 33 -33q0 -14 -6 -20q-63 -93 -164 -153q-102 -60 -227 -60h-7v-74q52 -7 100 -46q46 -37 46 -110q0 -50 -19 -86q-18 -34 -46 -56 t-61 -32t-65 -10q-34 0 -46 9q-11 8 -11 26q0 32 43 32q71 0 101 32q30 31 30 79q0 47 -27 71q-25 22 -73 27q-17 1 -31 11q-10 7 -10 30v103q-90 12 -164 56t-127 112q-54 69 -83 155q-30 88 -30 191z" />
<glyph unicode="&#xe8;" horiz-adv-x="1142" d="M102 498q0 116 37 211q38 97 102 167t151 109t188 39q99 0 180 -34q83 -35 141 -90q59 -56 93 -132q34 -75 34 -160q0 -41 -12 -65q-12 -25 -60 -25h-782q0 -98 27 -184q28 -88 79 -151t130 -101q77 -37 178 -37q112 0 194 39q84 40 146 100q15 15 26 15q14 0 25 -12 q10 -11 10 -23q0 -17 -14 -31q-59 -60 -163 -107q-102 -46 -228 -46q-114 0 -199 39q-89 41 -152 110q-62 68 -97 164q-34 93 -34 205zM176 580h778q6 69 -18 138q-23 67 -75 122q-49 52 -123 86q-70 32 -158 32q-73 0 -141 -25q-69 -25 -123 -75q-55 -50 -92 -120 q-38 -71 -48 -158zM403 1384q0 22 17 36t33 14q23 0 44 -21q7 -7 20 -19.5t18 -17.5l198 -188q10 -10 10 -23q0 -24 -26 -24q-11 0 -19 6l-272 199q-23 17 -23 38z" />
<glyph unicode="&#xe9;" horiz-adv-x="1142" d="M102 498q0 116 37 211q38 97 102 167t151 109t188 39q99 0 180 -34q83 -35 141 -90q59 -56 93 -132q34 -75 34 -160q0 -41 -12 -65q-12 -25 -60 -25h-782q0 -98 27 -184q28 -88 79 -151t130 -101q77 -37 178 -37q112 0 194 39q84 40 146 100q15 15 26 15q14 0 25 -12 q10 -11 10 -23q0 -17 -14 -31q-59 -60 -163 -107q-102 -46 -228 -46q-114 0 -199 39q-89 41 -152 110q-62 68 -97 164q-34 93 -34 205zM176 580h778q6 69 -18 138q-23 67 -75 122q-49 52 -123 86q-70 32 -158 32q-73 0 -141 -25q-69 -25 -123 -75q-55 -50 -92 -120 q-38 -71 -48 -158zM444 1165q0 12 11 23l198 188q5 5 18 17.5t20 19.5q21 21 44 21q16 0 33 -14q16 -13 16 -36q0 -22 -22 -38l-273 -199q-11 -6 -18 -6q-27 0 -27 24z" />
<glyph unicode="&#xea;" horiz-adv-x="1142" d="M102 498q0 116 37 211q38 97 102 167t151 109t188 39q99 0 180 -34q83 -35 141 -90q59 -56 93 -132q34 -75 34 -160q0 -41 -12 -65q-12 -25 -60 -25h-782q0 -98 27 -184q28 -88 79 -151t130 -101q77 -37 178 -37q112 0 194 39q84 40 146 100q15 15 26 15q14 0 25 -12 q10 -11 10 -23q0 -17 -14 -31q-59 -60 -163 -107q-102 -46 -228 -46q-114 0 -199 39q-89 41 -152 110q-62 68 -97 164q-34 93 -34 205zM176 580h778q6 69 -18 138q-23 67 -75 122q-49 52 -123 86q-70 32 -158 32q-73 0 -141 -25q-69 -25 -123 -75q-55 -50 -92 -120 q-38 -71 -48 -158zM307 1167q0 9 6 17q4 5 17 18l223 213q19 19 39 19q22 0 41 -19l221 -213q8 -8 16 -18q7 -9 7 -17q0 -9 -9 -18q-8 -8 -18 -8q-11 0 -35 18l-223 189l-223 -189q-24 -18 -35 -18t-19 8t-8 18z" />
<glyph unicode="&#xeb;" horiz-adv-x="1142" d="M102 498q0 116 37 211q38 97 102 167t151 109t188 39q99 0 180 -34q83 -35 141 -90q59 -56 93 -132q34 -75 34 -160q0 -41 -12 -65q-12 -25 -60 -25h-782q0 -98 27 -184q28 -88 79 -151t130 -101q77 -37 178 -37q112 0 194 39q84 40 146 100q15 15 26 15q14 0 25 -12 q10 -11 10 -23q0 -17 -14 -31q-59 -60 -163 -107q-102 -46 -228 -46q-114 0 -199 39q-89 41 -152 110q-62 68 -97 164q-34 93 -34 205zM176 580h778q6 69 -18 138q-23 67 -75 122q-49 52 -123 86q-70 32 -158 32q-73 0 -141 -25q-69 -25 -123 -75q-55 -50 -92 -120 q-38 -71 -48 -158zM385 1303q0 63 61 63q29 0 47 -15q17 -14 17 -48q0 -62 -64 -62q-61 0 -61 62zM674 1303q0 63 61 63q28 0 46 -15t18 -48q0 -62 -64 -62q-61 0 -61 62z" />
<glyph unicode="&#xec;" horiz-adv-x="409" d="M-4 1384q0 23 16 36q17 14 33 14q23 0 44 -21q7 -7 20 -19.5t18 -17.5l199 -188q10 -10 10 -23q0 -24 -27 -24q-11 0 -18 6l-273 199q-22 16 -22 38zM164 164v807q0 33 37 33q35 0 35 -33v-809q0 -46 13 -71t58 -25q37 0 37 -35q0 -31 -43 -31q-87 0 -112 48 q-25 47 -25 116z" />
<glyph unicode="&#xed;" horiz-adv-x="409" d="M78 1165q0 13 10 23l199 188q5 5 18 17.5t20 19.5q21 21 44 21q15 0 32 -14t17 -36q0 -21 -23 -38l-272 -199q-10 -6 -19 -6q-26 0 -26 24zM164 164v807q0 33 37 33q35 0 35 -33v-809q0 -46 13 -71t58 -25q37 0 37 -35q0 -31 -43 -31q-87 0 -112 48q-25 47 -25 116z" />
<glyph unicode="&#xee;" horiz-adv-x="409" d="M-80 1167q0 9 6 17q4 5 17 18l223 213q19 19 39 19q22 0 41 -19l221 -213q8 -8 16 -18q6 -8 6 -17q0 -10 -8 -18t-18 -8q-11 0 -35 18l-223 189l-223 -189q-24 -18 -35 -18t-19 8t-8 18zM164 164v807q0 33 37 33q35 0 35 -33v-809q0 -46 13 -71t58 -25q37 0 37 -35 q0 -31 -43 -31q-87 0 -112 48q-25 47 -25 116z" />
<glyph unicode="&#xef;" horiz-adv-x="409" d="M-2 1303q0 63 61 63q28 0 46 -15t18 -48q0 -62 -64 -62q-61 0 -61 62zM164 164v807q0 33 37 33q35 0 35 -33v-809q0 -46 13 -71t58 -25q37 0 37 -35q0 -31 -43 -31q-87 0 -112 48q-25 47 -25 116zM287 1303q0 63 61 63q28 0 46 -15t18 -48q0 -62 -64 -62q-61 0 -61 62z " />
<glyph unicode="&#xf0;" horiz-adv-x="1163" d="M102 500q0 110 35 207q35 96 97 166q63 71 151 111q87 40 197 40q100 0 184 -36q83 -36 145 -99q-51 121 -117 207q-67 88 -135 157l-67 -67l-12 -8q-5 -4 -17 -4q-8 0 -21 8q-12 8 -12 24q0 12 15 27l69 67l-41 37q-16 15 -42 35q-19 15 -19 29q0 11 8 22t23 11 q16 0 40 -18q20 -15 50 -40l31 -28l75 73q1 1 5 4t5 5q4 4 15 4q16 0 24 -10q9 -11 9 -21q0 -14 -13 -27l-73 -73q35 -36 110 -126q58 -69 111 -168q52 -96 86 -212q35 -119 41 -254q2 -14 2 -22v-21q0 -110 -35 -206q-36 -98 -97 -165q-63 -69 -152 -110q-85 -39 -195 -39 q-112 0 -197 39q-87 40 -151 110q-61 67 -97 165q-35 96 -35 206zM176 500q0 -95 29 -179t81 -145q53 -62 127 -96q76 -35 169 -35t169 35q74 34 127 96q50 59 80 145q29 84 29 179t-29 180t-80 145q-54 63 -128 98t-168 35t-168 -35t-128 -98q-53 -62 -81 -145 q-29 -85 -29 -180z" />
<glyph unicode="&#xf1;" horiz-adv-x="1140" d="M164 33v938q0 33 37 33q35 0 35 -33v-152q44 86 132 146q87 59 220 59q101 0 177 -32q74 -31 124 -87q51 -57 74 -130q24 -75 24 -161v-581q0 -15 -10 -24q-11 -9 -27 -9q-35 0 -35 33v583q0 70 -21 133q-20 60 -64 109q-43 47 -102 74q-58 26 -140 26q-84 0 -150 -27 q-62 -25 -110 -75q-45 -46 -69 -110q-23 -60 -23 -130v-583q0 -33 -35 -33q-37 0 -37 33zM256 1253q0 13 10 27q34 40 76 68q39 26 111 26q44 0 76 -14q39 -17 64 -32t59 -32q28 -14 65 -14q34 0 58 18q22 16 46 52q16 22 31 22q12 0 24 -9q11 -8 11 -26q0 -6 -8 -24 q-30 -48 -71 -75q-44 -28 -95 -28q-45 0 -78 15q-46 21 -62 31q-23 14 -58 32q-30 15 -69 15q-48 0 -76 -20q-30 -22 -51 -44q-12 -16 -28 -16q-14 0 -25 8q-10 7 -10 20z" />
<glyph unicode="&#xf2;" horiz-adv-x="1163" d="M102 500q0 110 35 207q35 96 97 166q63 71 151 111q87 40 197 40q108 0 195 -40q89 -41 152 -111q62 -70 97 -166q35 -97 35 -207t-35 -206q-36 -98 -97 -165q-63 -69 -152 -110q-85 -39 -195 -39q-112 0 -197 39q-87 40 -151 110q-61 67 -97 165q-35 96 -35 206z M176 500q0 -95 29 -179t81 -145q53 -62 127 -96q76 -35 169 -35t169 35q74 34 127 96q50 59 80 145q29 84 29 179t-29 180t-80 145q-54 63 -128 98t-168 35t-168 -35t-128 -98q-53 -62 -81 -145q-29 -85 -29 -180zM414 1384q0 23 16 36q17 14 33 14q23 0 44 -21 q7 -7 20 -19.5t18 -17.5l198 -188q11 -11 11 -23q0 -24 -27 -24q-11 0 -18 6l-273 199q-22 16 -22 38z" />
<glyph unicode="&#xf3;" horiz-adv-x="1163" d="M102 500q0 110 35 207q35 96 97 166q63 71 151 111q87 40 197 40q108 0 195 -40q89 -41 152 -111q62 -70 97 -166q35 -97 35 -207t-35 -206q-36 -98 -97 -165q-63 -69 -152 -110q-85 -39 -195 -39q-112 0 -197 39q-87 40 -151 110q-61 67 -97 165q-35 96 -35 206z M176 500q0 -95 29 -179t81 -145q53 -62 127 -96q76 -35 169 -35t169 35q74 34 127 96q50 59 80 145q29 84 29 179t-29 180t-80 145q-54 63 -128 98t-168 35t-168 -35t-128 -98q-53 -62 -81 -145q-29 -85 -29 -180zM414 1165q0 13 10 23l199 188l37 37q21 21 45 21 q15 0 32 -14t17 -36q0 -21 -23 -38l-272 -199q-10 -6 -19 -6q-26 0 -26 24z" />
<glyph unicode="&#xf4;" horiz-adv-x="1163" d="M102 500q0 110 35 207q35 96 97 166q63 71 151 111q87 40 197 40q108 0 195 -40q89 -41 152 -111q62 -70 97 -166q35 -97 35 -207t-35 -206q-36 -98 -97 -165q-63 -69 -152 -110q-85 -39 -195 -39q-112 0 -197 39q-87 40 -151 110q-61 67 -97 165q-35 96 -35 206z M176 500q0 -95 29 -179t81 -145q53 -62 127 -96q76 -35 169 -35t169 35q74 34 127 96q50 59 80 145q29 84 29 179t-29 180t-80 145q-54 63 -128 98t-168 35t-168 -35t-128 -98q-53 -62 -81 -145q-29 -85 -29 -180zM297 1167q0 9 6 17q8 10 16 18l224 213q19 19 39 19 q22 0 41 -19l221 -213q8 -8 16 -18q6 -8 6 -17q0 -10 -8 -18t-18 -8q-11 0 -35 18l-223 189l-224 -189q-24 -18 -34 -18q-11 0 -19 8t-8 18z" />
<glyph unicode="&#xf5;" horiz-adv-x="1163" d="M102 500q0 110 35 207q35 96 97 166q63 71 151 111q87 40 197 40q108 0 195 -40q89 -41 152 -111q62 -70 97 -166q35 -97 35 -207t-35 -206q-36 -98 -97 -165q-63 -69 -152 -110q-85 -39 -195 -39q-112 0 -197 39q-87 40 -151 110q-61 67 -97 165q-35 96 -35 206z M176 500q0 -95 29 -179t81 -145q53 -62 127 -96q76 -35 169 -35t169 35q74 34 127 96q50 59 80 145q29 84 29 179t-29 180t-80 145q-54 63 -128 98t-168 35t-168 -35t-128 -98q-53 -62 -81 -145q-29 -85 -29 -180zM268 1253q0 11 11 27q35 42 75 68q39 26 111 26 q45 0 77 -14q35 -15 63 -32q20 -12 60 -32q28 -14 64 -14q34 0 58 18t47 52q16 22 30 22q12 0 24 -9q11 -8 11 -26q0 -6 -8 -24q-30 -48 -71 -75q-44 -28 -95 -28q-45 0 -78 15q-43 19 -61 31q-19 12 -59 32q-30 15 -68 15q-49 0 -77 -20q-27 -20 -50 -44q-12 -16 -29 -16 q-13 0 -24 8t-11 20z" />
<glyph unicode="&#xf6;" horiz-adv-x="1163" d="M102 500q0 110 35 207q35 96 97 166q63 71 151 111q87 40 197 40q108 0 195 -40q89 -41 152 -111q62 -70 97 -166q35 -97 35 -207t-35 -206q-36 -98 -97 -165q-63 -69 -152 -110q-85 -39 -195 -39q-112 0 -197 39q-87 40 -151 110q-61 67 -97 165q-35 96 -35 206z M176 500q0 -95 29 -179t81 -145q53 -62 127 -96q76 -35 169 -35t169 35q74 34 127 96q50 59 80 145q29 84 29 179t-29 180t-80 145q-54 63 -128 98t-168 35t-168 -35t-128 -98q-53 -62 -81 -145q-29 -85 -29 -180zM375 1303q0 63 61 63q28 0 46 -15t18 -48q0 -62 -64 -62 q-61 0 -61 62zM664 1303q0 63 61 63q28 0 46 -15q17 -14 17 -48q0 -62 -63 -62q-61 0 -61 62z" />
<glyph unicode="&#xf7;" d="M293 653q0 35 41 35h618q41 0 41 -35t-41 -35h-618q-41 0 -41 35zM551 303q0 78 76 78q32 0 54 -22q21 -21 21 -56q0 -36 -19 -56q-20 -22 -56 -22q-34 0 -56 22q-20 20 -20 56zM551 983q0 78 76 78q32 0 54 -22q21 -21 21 -56q0 -36 -19 -56q-20 -22 -56 -22 q-34 0 -56 22q-20 20 -20 56z" />
<glyph unicode="&#xf8;" horiz-adv-x="1163" d="M102 500q0 110 35 207q35 96 97 166q63 71 151 111q87 40 197 40q138 0 247 -68l35 50q12 18 31 18q17 0 26 -10q9 -11 9 -25q0 -13 -6 -20l-37 -54q82 -71 128 -179q46 -107 46 -236q0 -110 -35 -206q-36 -98 -97 -165q-63 -69 -152 -110q-85 -39 -195 -39 q-87 0 -155 23q-73 25 -128 67l-47 -68q-16 -22 -33 -22q-20 0 -28 11q-9 12 -9 21t8 27l54 78q-68 72 -105 169q-37 96 -37 214zM176 500q0 -95 28 -181q26 -78 81 -143l506 725q-91 57 -209 57q-94 0 -168 -35t-128 -98q-53 -62 -81 -145q-29 -85 -29 -180zM338 125 q100 -80 244 -80q93 0 169 35q74 34 127 96q50 59 80 145q29 84 29 179q0 112 -37 202q-39 95 -104 156z" />
<glyph unicode="&#xf9;" horiz-adv-x="1079" d="M164 358v613q0 33 35 33q14 0 26 -10q11 -9 11 -23v-615q0 -70 20 -124q21 -57 59 -98q37 -40 96 -65q57 -24 128 -24q72 0 129 24q59 25 96 65q38 41 59 98t21 124v615q0 14 10 23q12 10 27 10q34 0 34 -33v-613q0 -83 -23 -149q-24 -70 -71 -121t-118 -80 q-69 -28 -164 -28q-96 0 -164 28q-71 29 -117 80q-47 51 -71 121q-23 66 -23 149zM330 1384q0 23 16 36q17 14 33 14q23 0 44 -21q7 -7 20 -19.5t18 -17.5l198 -188q11 -11 11 -23q0 -24 -27 -24q-11 0 -18 6l-273 199q-22 16 -22 38z" />
<glyph unicode="&#xfa;" horiz-adv-x="1079" d="M164 358v613q0 33 35 33q14 0 26 -10q11 -9 11 -23v-615q0 -70 20 -124q21 -57 59 -98q37 -40 96 -65q57 -24 128 -24q72 0 129 24q59 25 96 65q38 41 59 98t21 124v615q0 14 10 23q12 10 27 10q34 0 34 -33v-613q0 -83 -23 -149q-24 -70 -71 -121t-118 -80 q-69 -28 -164 -28q-96 0 -164 28q-71 29 -117 80q-47 51 -71 121q-23 66 -23 149zM412 1165q0 13 10 23l199 188l37 37q21 21 44 21q16 0 33 -14t17 -36q0 -21 -23 -38l-272 -199q-10 -6 -19 -6q-26 0 -26 24z" />
<glyph unicode="&#xfb;" horiz-adv-x="1079" d="M164 358v613q0 33 35 33q14 0 26 -10q11 -9 11 -23v-615q0 -70 20 -124q21 -57 59 -98q37 -40 96 -65q57 -24 128 -24q72 0 129 24q59 25 96 65q38 41 59 98t21 124v615q0 14 10 23q12 10 27 10q34 0 34 -33v-613q0 -83 -23 -149q-24 -70 -71 -121t-118 -80 q-69 -28 -164 -28q-96 0 -164 28q-71 29 -117 80q-47 51 -71 121q-23 66 -23 149zM254 1167q0 9 6 17q8 10 16 18l224 213q19 19 39 19q22 0 41 -19l221 -213q8 -8 16 -18q6 -8 6 -17q0 -10 -8 -18t-18 -8q-11 0 -35 18l-223 189l-224 -189q-24 -18 -34 -18q-11 0 -19 8 t-8 18z" />
<glyph unicode="&#xfc;" horiz-adv-x="1079" d="M164 358v613q0 33 35 33q14 0 26 -10q11 -9 11 -23v-615q0 -70 20 -124q21 -57 59 -98q37 -40 96 -65q57 -24 128 -24q72 0 129 24q59 25 96 65q38 41 59 98t21 124v615q0 14 10 23q12 10 27 10q34 0 34 -33v-613q0 -83 -23 -149q-24 -70 -71 -121t-118 -80 q-69 -28 -164 -28q-96 0 -164 28q-71 29 -117 80q-47 51 -71 121q-23 66 -23 149zM332 1303q0 63 61 63q28 0 46 -15t18 -48q0 -62 -64 -62q-61 0 -61 62zM621 1303q0 63 61 63q28 0 46 -15q17 -14 17 -48q0 -62 -63 -62q-61 0 -61 62z" />
<glyph unicode="&#xfd;" horiz-adv-x="974" d="M72 973q0 10 10 20q11 11 29 11q19 0 30 -23l344 -868l351 870q8 21 28 21q12 0 25 -9q10 -7 10 -24q0 -10 -4 -17l-438 -1071q-17 -41 -54 -119q-24 -51 -58 -85q-32 -32 -82 -51q-45 -17 -124 -17q-47 0 -47 35q0 30 41 30q69 0 113 18q42 17 71 48q30 32 48 72 q16 36 36 86l52 129l-377 923q-4 11 -4 21zM319 1165q0 12 11 23l198 188q5 5 18 17.5t20 19.5q21 21 44 21q16 0 33 -14q16 -13 16 -36q0 -22 -22 -38l-272 -199q-11 -6 -19 -6q-27 0 -27 24z" />
<glyph unicode="&#xfe;" horiz-adv-x="1226" d="M164 -356v1736q0 33 37 33q35 0 35 -33v-632q52 116 158 197q104 79 251 79q104 0 191 -40t152 -111q66 -72 101 -166q35 -93 35 -207t-35 -206q-37 -96 -101 -165q-66 -71 -152 -110q-85 -39 -191 -39q-142 0 -246 71q-102 70 -163 207v-614q0 -33 -35 -33q-37 0 -37 33 zM236 500q0 -96 30 -179t86 -145t130 -96q76 -35 163 -35q90 0 162 34q77 36 128 93q56 62 85 143q31 87 31 185q0 93 -31 180q-29 80 -85 146q-54 63 -128 99q-73 36 -162 36q-88 0 -163 -36q-74 -36 -130 -99q-57 -65 -86 -146q-30 -84 -30 -180z" />
<glyph unicode="&#xff;" horiz-adv-x="974" d="M72 973q0 10 10 20q11 11 29 11q19 0 30 -23l344 -868l351 870q8 21 28 21q12 0 25 -9q10 -7 10 -24q0 -10 -4 -17l-438 -1071q-17 -41 -54 -119q-24 -51 -58 -85q-32 -32 -82 -51q-45 -17 -124 -17q-47 0 -47 35q0 30 41 30q69 0 113 18q42 17 71 48q30 32 48 72 q16 36 36 86l52 129l-377 923q-4 11 -4 21zM281 1303q0 63 61 63q28 0 46 -15t18 -48q0 -62 -64 -62q-61 0 -61 62zM569 1303q0 63 62 63q28 0 46 -15q17 -14 17 -48q0 -62 -63 -62q-62 0 -62 62z" />
<glyph unicode="&#x152;" horiz-adv-x="2250" d="M96 711q0 156 47 289q47 134 132 229q86 97 203 150q121 55 261 55q101 0 190 -29q83 -27 157 -79q69 -48 126 -121t95 -154v325q0 37 39 37h798q35 0 35 -33q0 -32 -35 -32h-764v-586h547q35 0 35 -33t-35 -33h-547v-630h764q35 0 35 -33t-35 -33h-801q-36 0 -36 37v330 q-38 -85 -93 -155q-57 -72 -127 -122q-73 -52 -158 -81q-84 -29 -190 -29q-144 0 -261 55q-118 55 -203 152t-132 232t-47 292zM172 711q0 -135 40 -252q40 -119 114 -210q75 -93 179 -145q106 -53 234 -53q131 0 237 53q104 52 179 144q74 91 113 209t39 250q0 130 -39 250 t-113 209q-76 91 -179 143q-106 53 -237 53q-132 0 -236 -52t-179 -142q-74 -89 -113 -207q-39 -119 -39 -250z" />
<glyph unicode="&#x153;" horiz-adv-x="2029" d="M102 500q0 110 35 207q35 96 97 166q63 71 151 111q87 40 197 40q162 0 277 -87q117 -88 167 -230q52 145 170 231t270 86q100 0 181 -34q83 -35 141 -90q59 -56 93 -132q34 -75 34 -160q0 -41 -12 -65q-13 -25 -60 -25h-782v-18q1 -91 31 -177t80 -145q52 -61 128 -97 t175 -36q111 0 194 39q84 40 146 100q15 15 26 15q15 0 25 -12q10 -11 10 -23q0 -17 -14 -31q-59 -60 -163 -107q-102 -46 -229 -46q-167 0 -280 85q-116 87 -166 224q-52 -141 -168 -226q-113 -83 -274 -83q-112 0 -197 39q-87 40 -151 110q-61 67 -97 165q-35 96 -35 206z M176 500q0 -95 29 -179t81 -145q53 -62 127 -96q76 -35 169 -35t169 35q74 34 127 96q50 59 80 145q29 84 29 179t-29 180t-80 145q-54 63 -128 98t-168 35t-168 -35t-128 -98q-53 -62 -81 -145q-29 -85 -29 -180zM1063 580h778q6 69 -18 138q-23 67 -75 122q-49 52 -123 86 q-70 32 -159 32q-72 0 -140 -25q-69 -25 -123 -75q-55 -50 -92 -120q-38 -71 -48 -158z" />
<glyph unicode="&#x178;" horiz-adv-x="1267" d="M92 1378q0 12 9 24q8 11 26 11q26 0 37 -20l469 -766l473 764q12 22 33 22q13 0 25 -9t12 -24q0 -6 -7 -20l-497 -807v-518q0 -35 -37 -35t-37 35v518l-500 801q-6 12 -6 24zM426 1712q0 64 61 64q28 0 47 -16q17 -14 17 -48q0 -61 -64 -61q-61 0 -61 61zM715 1712 q0 64 61 64q27 0 46 -16q18 -15 18 -48q0 -61 -64 -61q-61 0 -61 61z" />
<glyph unicode="&#x2c6;" horiz-adv-x="1024" d="M227 1167q0 9 6 17q4 5 17 18l223 213q19 19 39 19q22 0 41 -19l221 -213q13 -13 17 -18q6 -8 6 -17t-9 -18q-8 -8 -18 -8q-11 0 -35 18l-223 189l-223 -189q-24 -18 -35 -18q-10 0 -18 8q-9 9 -9 18z" />
<glyph unicode="&#x2dc;" horiz-adv-x="1024" d="M199 1253q0 13 10 27q34 40 76 68q39 26 110 26q45 0 77 -14q39 -17 64 -32t59 -32q28 -14 64 -14q35 0 59 18q22 16 46 52q16 22 31 22q11 0 23 -9q11 -8 11 -26q0 -6 -8 -24q-30 -50 -70 -75q-44 -28 -96 -28q-44 0 -77 15q-46 21 -62 31q-23 14 -58 32q-30 15 -69 15 q-49 0 -77 -20q-27 -20 -50 -44q-12 -16 -29 -16q-13 0 -24 8q-10 7 -10 20z" />
<glyph unicode="&#x2000;" horiz-adv-x="958" />
<glyph unicode="&#x2001;" horiz-adv-x="1917" />
<glyph unicode="&#x2002;" horiz-adv-x="958" />
<glyph unicode="&#x2003;" horiz-adv-x="1917" />
<glyph unicode="&#x2004;" horiz-adv-x="639" />
<glyph unicode="&#x2005;" horiz-adv-x="479" />
<glyph unicode="&#x2006;" horiz-adv-x="319" />
<glyph unicode="&#x2007;" horiz-adv-x="319" />
<glyph unicode="&#x2008;" horiz-adv-x="239" />
<glyph unicode="&#x2009;" horiz-adv-x="383" />
<glyph unicode="&#x200a;" horiz-adv-x="106" />
<glyph unicode="&#x2010;" horiz-adv-x="827" d="M143 526q0 16 13 29q12 12 30 12h455q19 0 31 -12t12 -29q0 -16 -12 -28q-13 -13 -31 -13h-455q-17 0 -30 13t-13 28z" />
<glyph unicode="&#x2011;" horiz-adv-x="827" d="M143 526q0 16 13 29q12 12 30 12h455q19 0 31 -12t12 -29q0 -16 -12 -28q-13 -13 -31 -13h-455q-17 0 -30 13t-13 28z" />
<glyph unicode="&#x2012;" horiz-adv-x="827" d="M143 526q0 16 13 29q12 12 30 12h455q19 0 31 -12t12 -29q0 -16 -12 -28q-13 -13 -31 -13h-455q-17 0 -30 13t-13 28z" />
<glyph unicode="&#x2013;" horiz-adv-x="1024" d="M143 526q0 16 13 29q12 12 30 12h652q18 0 30 -12q13 -13 13 -29q0 -15 -13 -28t-30 -13h-652q-17 0 -30 13t-13 28z" />
<glyph unicode="&#x2014;" horiz-adv-x="2048" d="M143 526q0 16 13 29q12 12 30 12h1676q18 0 30 -12q13 -13 13 -29q0 -15 -13 -28t-30 -13h-1676q-17 0 -30 13t-13 28z" />
<glyph unicode="&#x2018;" horiz-adv-x="460" d="M143 1053v86q0 91 32 152q33 63 81 114q18 18 35 18q16 0 26 -11q11 -13 11 -28q0 -13 -13 -26q-44 -44 -70 -93t-26 -126v-86q0 -45 -37 -45q-39 0 -39 45z" />
<glyph unicode="&#x2019;" horiz-adv-x="460" d="M133 1047q0 14 12 26q46 46 71 93q26 49 26 126v86q0 45 37 45q38 0 38 -45v-86q0 -93 -31 -152q-33 -63 -81 -114q-18 -18 -35 -18t-27 11t-10 28z" />
<glyph unicode="&#x201a;" horiz-adv-x="460" d="M133 -221q0 14 12 26q45 45 71 94t26 126v86q0 45 37 45q38 0 38 -45v-86q0 -94 -31 -153q-33 -63 -81 -114q-18 -18 -35 -18t-27 11t-10 28z" />
<glyph unicode="&#x201c;" horiz-adv-x="706" d="M143 1053v86q0 91 32 152q33 63 81 114q18 18 35 18q16 0 26 -11q11 -13 11 -28q0 -13 -13 -26q-44 -44 -70 -93t-26 -126v-86q0 -45 -37 -45q-39 0 -39 45zM389 1053v86q0 91 32 152q33 63 81 114q18 18 35 18q16 0 26 -11t10 -28q0 -14 -12 -26q-46 -46 -71 -93 t-25 -126v-86q0 -45 -37 -45q-39 0 -39 45z" />
<glyph unicode="&#x201d;" horiz-adv-x="706" d="M133 1047q0 14 12 26q46 46 71 93q26 49 26 126v86q0 45 37 45q38 0 38 -45v-86q0 -93 -31 -152q-33 -63 -81 -114q-18 -18 -35 -18t-27 11t-10 28zM379 1047q0 14 12 26q46 46 71 93t25 126v86q0 45 37 45q39 0 39 -45v-86q0 -91 -32 -152q-35 -66 -80 -114 q-18 -18 -35 -18t-27 11t-10 28z" />
<glyph unicode="&#x201e;" horiz-adv-x="706" d="M133 -221q0 14 12 26q45 45 71 94t26 126v86q0 45 37 45q38 0 38 -45v-86q0 -94 -31 -153q-33 -63 -81 -114q-18 -18 -35 -18t-27 11t-10 28zM379 -221q0 14 12 26q45 45 71 94q25 47 25 126v86q0 45 37 45q39 0 39 -45v-86q0 -92 -32 -153q-35 -66 -80 -114 q-18 -18 -35 -18t-27 11t-10 28z" />
<glyph unicode="&#x2022;" horiz-adv-x="894" d="M264 512q0 88 48 136t134 48q87 0 135 -48t48 -136t-48 -136t-135 -48q-86 0 -134 48t-48 136z" />
<glyph unicode="&#x2026;" horiz-adv-x="1204" d="M154 78q0 78 75 78q33 0 55 -22q21 -21 21 -56q0 -36 -19 -56q-20 -22 -57 -22q-33 0 -55 22q-20 20 -20 56zM524 78q0 78 76 78q32 0 54 -22t22 -56t-20 -56t-56 -22q-33 0 -55 22q-21 21 -21 56zM899 78q0 78 76 78q32 0 54 -22t22 -56t-20 -56t-56 -22q-33 0 -55 22 q-21 21 -21 56z" />
<glyph unicode="&#x202f;" horiz-adv-x="383" />
<glyph unicode="&#x2039;" horiz-adv-x="718" d="M100 510q0 19 21 37l424 340q15 12 33 12q12 0 23 -11t11 -26q0 -21 -16 -33l-406 -315l404 -324q20 -16 20 -34q0 -13 -11 -24t-23 -11q-18 0 -33 12l-426 342q-21 18 -21 35z" />
<glyph unicode="&#x203a;" horiz-adv-x="718" d="M100 156q0 18 21 34l403 324l-405 315q-17 12 -17 33q0 14 12 26q11 11 23 11q17 0 33 -12l424 -340q20 -17 20 -37q0 -18 -20 -35l-426 -342q-16 -12 -33 -12q-12 0 -23 11q-12 12 -12 24z" />
<glyph unicode="&#x205f;" horiz-adv-x="479" />
<glyph unicode="&#x20ac;" d="M4 535q0 16 11 26t30 10h98q-4 33 -6 68q-2 46 -2 72q0 59 6 114h-98q-15 0 -28 11q-11 10 -11 26q0 17 11 27t30 10h107q23 126 74 222q54 103 128 169q78 71 170 107q93 37 201 37q87 0 159 -24q76 -25 130 -58q56 -34 99 -77q46 -46 67 -79q41 -61 41 -92 q0 -18 -12 -25q-13 -8 -23 -8q-25 0 -37 23q-30 48 -69 95q-42 50 -94 86q-56 39 -120 62q-69 25 -141 25q-97 0 -179 -35q-84 -36 -145 -97q-65 -65 -107 -148q-45 -88 -65 -183h531q16 0 27 -10q12 -11 12 -27t-12 -26q-13 -11 -27 -11h-543q-6 -55 -6 -112q0 -37 3 -72 q4 -49 7 -70h539q16 0 27 -10q12 -11 12 -26q0 -17 -12 -27q-11 -10 -27 -10h-522q24 -94 68 -177q44 -81 106 -142q61 -60 140 -94q78 -34 173 -34q134 0 242 70q106 69 174 188q19 31 37 31q11 0 23 -9q11 -8 11 -28q0 -1 -2 -13q-1 -8 -8 -20q-21 -36 -55 -80 q-39 -51 -95 -96q-58 -46 -140 -81q-77 -33 -187 -33q-108 0 -197 35q-92 36 -166 104q-73 67 -126 164t-80 215h-113q-17 0 -28 10t-11 27z" />
<glyph unicode="&#x2122;" horiz-adv-x="1398" d="M31 1380q0 33 35 33h489q35 0 35 -33q0 -32 -35 -32h-209v-535q0 -37 -37 -37q-16 0 -26 10q-11 11 -11 27v535h-206q-35 0 -35 32zM643 811v561q0 41 39 41q17 0 26 -9q7 -7 19 -26l248 -387l250 387q23 35 45 35q39 0 39 -41v-561q0 -17 -11 -26q-10 -9 -26 -9 q-37 0 -37 35v453l-229 -351q-16 -22 -33 -22q-15 0 -31 22l-225 351v-453q0 -35 -37 -35t-37 35z" />
<glyph unicode="&#x25fc;" horiz-adv-x="1003" d="M0 0v1004h1004v-1004h-1004z" />
</font>
</defs>
</svg>
