<?xml version="1.0" standalone="no"?>
<!DOCTYPE svg PUBLIC "-//W3C//DTD SVG 1.1//EN" "http://www.w3.org/Graphics/SVG/1.1/DTD/svg11.dtd" >
<svg xmlns="http://www.w3.org/2000/svg">
<metadata></metadata>
<defs>
<font id="booster_next_fymedium" horiz-adv-x="1286" >
<font-face units-per-em="2048" ascent="1593" descent="-455" />
<missing-glyph horiz-adv-x="436" />
<glyph unicode="&#xfb01;" horiz-adv-x="1130" d="M150 86v889q0 219 111 339t319 120q104 0 186 -11q83 -11 125 -26q37 -10 52 -33q15 -22 15 -47q0 -42 -24 -63t-55 -21q-43 0 -110 16q-71 17 -171 17q-72 0 -123 -17q-50 -17 -80 -48t-45 -79q-13 -40 -18 -110h557q33 0 58 -23q24 -23 24 -57v-672q0 -43 12 -70 q12 -26 47 -26q29 0 41 -23t12 -51q0 -41 -24 -65q-25 -25 -78 -25q-188 0 -188 250v598h-463v-762q0 -36 -25 -61t-65 -25q-38 0 -65 25q-25 24 -25 61z" />
<glyph unicode="&#xfb02;" horiz-adv-x="1130" d="M150 154v821q0 220 112 339q113 120 326 120q118 0 200 -11q81 -11 130 -34q53 -29 53 -89v-1040q0 -43 12 -70q12 -26 47 -26q29 0 41 -23t12 -51q0 -41 -24 -65q-25 -25 -78 -25q-93 0 -140 56q-48 57 -48 194v987q-13 3 -45 9.5t-40 8.5q-52 11 -114 11 q-137 0 -197 -65q-59 -63 -65 -189h209q33 0 58 -23q24 -23 24 -57q0 -37 -24 -61q-23 -23 -58 -23h-211v-762q0 -36 -25 -61t-65 -25q-27 0 -44 14q-18 15 -28 37q-9 19 -14 49q-4 24 -4 54z" />
<glyph horiz-adv-x="0" />
<glyph horiz-adv-x="0" />
<glyph unicode="&#xd;" horiz-adv-x="0" />
<glyph unicode=" "  horiz-adv-x="436" />
<glyph unicode="&#x09;" horiz-adv-x="436" />
<glyph unicode="&#xa0;" horiz-adv-x="436" />
<glyph unicode="!" horiz-adv-x="585" d="M170 123q0 57 34 90t89 33q53 0 88 -33t35 -90q0 -59 -35 -91t-88 -32q-54 0 -89 32q-34 31 -34 91zM193 1313q-2 53 20 86q23 35 80 35q56 0 78 -34t22 -89l-18 -815q0 -34 -22 -61q-21 -25 -60 -25q-36 0 -57 25q-21 26 -21 61z" />
<glyph unicode="&#x22;" horiz-adv-x="780" d="M172 1362q-5 41 19 62q25 22 57 22q33 0 58 -23q24 -23 20 -63l-19 -338q-5 -26 -19 -40q-15 -15 -40 -15q-22 0 -39 15q-18 16 -19 42zM455 1362q-5 41 19 62q25 22 56 22q34 0 59 -23q24 -22 19 -63l-18 -338q-5 -25 -20 -40t-40 -15q-22 0 -38 15q-18 16 -19 42z" />
<glyph unicode="#" horiz-adv-x="1433" d="M78 442q0 32 20 52t54 20h151l170 389h-96q-31 0 -53 19q-21 18 -21 49q0 30 21 51q20 20 53 20h158l153 351q10 26 29 37q18 10 35 12q29 0 50 -18t21 -52q0 -9 -1 -15q-2 -12 -5 -16l-131 -299h348l154 351q10 22 29 35q18 12 34 12q30 2 51 -16q22 -18 23 -52 q0 -18 -6 -33l-131 -297h94q33 0 53 -19q21 -19 21 -50t-21 -50q-22 -20 -53 -20h-156l-170 -389h101q33 0 53 -19q21 -19 21 -51q0 -30 -21 -50q-20 -19 -53 -19h-160l-149 -342q-12 -28 -30 -40q-17 -12 -38 -13q-29 0 -50 18q-22 19 -22 51q0 12 1 17q2 11 5 16l127 293 h-346l-147 -342q-24 -53 -68 -53q-30 -2 -50 17q-23 21 -24 52q0 14 7 33l129 293h-90q-33 0 -54 18q-20 17 -20 49zM457 514h346l170 389h-346z" />
<glyph unicode="$" d="M133 266q0 24 9 42q9 17 24 28q16 11 29 15q17 5 26 5q21 0 40 -8q17 -7 34 -24q37 -39 59 -58q32 -28 76 -52q45 -25 99 -39q57 -15 130 -15q61 0 117 15q54 15 96 44q42 30 66 70q25 42 25 92q0 59 -24 100t-71 71q-43 28 -119 53q-56 18 -171 50q-64 17 -142 46 q-68 26 -129 72q-56 42 -93 111q-36 66 -36 160q0 80 30 146t82 115q51 48 124 80t153 42v138q0 41 26 65q27 25 66 25q38 0 66 -25q27 -24 27 -65v-140q102 -15 164 -48q76 -40 110 -62q28 -21 42 -45q13 -23 13 -49q0 -46 -28 -67q-29 -21 -58 -21q-27 0 -46 8 q-17 7 -34 18q-18 11 -42 27q-28 19 -56 32q-30 14 -77 25q-41 10 -105 10q-133 0 -199 -62q-67 -63 -67 -144q0 -53 25 -90t74 -66q45 -26 118 -52q62 -21 155 -46q71 -18 145 -44q71 -25 132 -71q57 -43 96 -114q37 -68 37 -173q0 -71 -26 -138q-26 -68 -75 -121 q-50 -54 -125 -92q-74 -37 -173 -52v-140q0 -41 -27 -65q-28 -25 -66 -25q-39 0 -66 25q-26 24 -26 65v136q-77 6 -139 27q-61 21 -110 50q-41 24 -81 61q-36 33 -57 58q-18 18 -32 39q-15 23 -15 47z" />
<glyph unicode="%" horiz-adv-x="1527" d="M78 1081q0 85 22 150q22 63 62 110q39 45 92 69q52 24 115 24q125 0 209 -93q81 -90 81 -260q0 -172 -81 -263q-82 -93 -209 -93q-126 0 -209 92q-82 91 -82 264zM178 57q0 16 6 28q3 6 19 28l1005 1263q17 23 31 30t31 7q29 0 48 -19t19 -51q0 -13 -6 -25 q-7 -13 -20 -28l-1002 -1261q-18 -24 -31 -31q-16 -8 -30 -8q-30 0 -50 21q-20 22 -20 46zM215 1081q0 -117 43 -173t111 -56q67 0 110 56t43 173q0 115 -43 171q-44 57 -110 57q-67 0 -111 -56q-43 -55 -43 -172zM866 334q0 83 23 150q23 69 61 112q39 45 92 69 q50 23 115 23q126 0 209 -92q82 -91 82 -260q0 -173 -82 -264q-83 -92 -209 -92t-209 92q-82 91 -82 262zM1004 336q0 -118 43 -174q44 -58 110 -58q67 0 111 58q43 56 43 174q0 115 -43 170t-111 55q-67 0 -110 -54q-43 -53 -43 -171z" />
<glyph unicode="&#x26;" horiz-adv-x="1349" d="M109 334q0 76 26 134q28 62 70 113q44 53 99 98q62 50 116 87l-29 29q-87 87 -125 160q-39 75 -39 157q0 70 26 131q25 59 72 103q46 43 109 67q66 25 139 25q67 0 128 -23q62 -23 106 -63q44 -39 72 -99q26 -55 26 -129q0 -59 -20 -106q-20 -48 -56 -93t-79 -84 q-35 -32 -95 -77l297 -291l123 127q17 16 30 21q12 4 30 4q35 0 57 -24q22 -23 22 -52q0 -34 -36 -66l-115 -118l225 -218q33 -33 33 -67q0 -28 -23 -54t-55 -26q-39 0 -74 35l-219 213l-14 -17q-62 -62 -121 -113q-60 -52 -109 -79q-57 -32 -111 -46q-61 -16 -122 -16 q-77 0 -147 28q-66 26 -116 75q-48 46 -75 113q-26 64 -26 141zM293 358q0 -91 56 -154q57 -65 155 -65q83 0 156 54q67 50 147 133l31 32l-316 308q-89 -65 -162 -143q-67 -71 -67 -165zM397 1108q0 -41 21 -86t80 -104l57 -58q78 56 135 116q55 58 55 128q0 72 -49 121 t-127 49q-79 0 -126 -50q-46 -49 -46 -116z" />
<glyph unicode="'" horiz-adv-x="497" d="M172 1362q-5 41 19 62q25 22 57 22q33 0 58 -23q24 -23 20 -63l-19 -338q-5 -26 -19 -40q-15 -15 -40 -15q-22 0 -39 15q-18 16 -19 42z" />
<glyph unicode="(" horiz-adv-x="649" d="M131 573q0 169 38 316q37 144 89 257q50 109 102 187q48 72 76 107q22 28 42 42q19 13 48 13q35 0 61 -26q25 -25 25 -54q0 -28 -47 -98q-26 -36 -76 -113q-38 -59 -81 -160q-39 -93 -66 -209q-27 -119 -27 -262t27 -261t66 -210q42 -98 81 -159q50 -77 76 -113 q27 -43 36 -59q11 -21 11 -41q0 -28 -25 -53t-61 -25q-29 0 -48 13q-20 13 -42 42q-28 35 -76 107q-52 78 -102 187q-52 113 -89 257q-38 147 -38 315z" />
<glyph unicode=")" horiz-adv-x="649" d="M37 -270q0 18 12 41q4 7 37 59q26 36 76 113q42 65 82 159q37 86 65 210q27 119 27 261q0 143 -27 262q-28 121 -65 209q-41 97 -82 160q-50 77 -76 113q-33 52 -37 59q-12 22 -12 39q0 29 26 54q28 26 62 26q27 0 47 -13t43 -42q28 -35 76 -107q52 -78 102 -187 q52 -113 89 -257q38 -147 38 -316q0 -168 -38 -315q-37 -144 -89 -257q-50 -109 -102 -187q-48 -72 -76 -107q-23 -29 -43 -42t-47 -13q-36 0 -62 25t-26 53z" />
<glyph unicode="*" horiz-adv-x="964" d="M160 1194q15 41 45 53t65 -12l181 -102l-37 200q-11 41 9 68q19 26 60 26t62 -25q20 -25 8 -67l-39 -202l176 94q35 23 68 12q32 -10 47 -47q15 -40 -7 -70q-20 -28 -69 -26l-194 -29l141 -137q35 -29 35 -62t-31 -55q-35 -27 -68 -15q-32 12 -47 54l-86 180l-84 -174 q-15 -43 -47 -55q-33 -12 -65 10q-35 23 -35 57q0 35 35 62l145 139l-190 29q-48 2 -69 28q-21 27 -9 66z" />
<glyph unicode="+" d="M254 649q0 31 20 50q22 20 54 20h245v252q0 32 21 53q20 20 49 20q31 0 51 -20q21 -21 21 -53v-252h243q32 0 54 -20q20 -19 20 -50t-20 -50t-54 -19h-245v-254q0 -33 -20 -53q-19 -19 -50 -19t-50 19q-20 20 -20 53v254h-245q-34 0 -54 19t-20 50z" />
<glyph unicode="," horiz-adv-x="585" d="M125 -240q0 30 35 45q53 18 91 62t44 131q-70 8 -97 42q-28 36 -28 79q0 61 35 93t86 32q60 0 94 -40q35 -41 35 -124q0 -93 -26 -163t-63 -113q-38 -44 -80 -65q-44 -22 -75 -22q-51 0 -51 43z" />
<glyph unicode="-" horiz-adv-x="854" d="M129 526q0 39 25 61q24 21 59 21h428q36 0 60 -21t24 -61q0 -36 -24 -59q-25 -23 -60 -23h-428q-34 0 -59 23t-25 59z" />
<glyph unicode="." horiz-adv-x="585" d="M170 121q0 57 33 90t90 33q50 0 87 -32q36 -32 36 -89q0 -62 -35 -92q-36 -31 -88 -31q-53 0 -89 31q-34 30 -34 90z" />
<glyph unicode="/" horiz-adv-x="829" d="M27 84q0 25 16 57l582 1202q33 70 86 70q39 0 65 -22q27 -23 27 -62q0 -15 -6 -31q-2 -6 -6.5 -16t-6.5 -14l-577 -1194q-22 -45 -43 -59q-22 -15 -51 -15q-32 0 -60 23q-26 22 -26 61z" />
<glyph unicode="0" horiz-adv-x="1249" d="M119 707q0 174 34 306q35 137 99 228q65 93 159 143t214 50t215 -50q93 -49 158 -142q64 -93 99 -228q33 -129 33 -307q0 -358 -130 -543q-131 -187 -375 -187q-251 0 -378 186q-128 187 -128 544zM301 707q0 -263 82 -409t242 -146t240 146q81 147 81 409q0 130 -20 227 q-21 101 -62 174q-40 71 -101 111q-58 38 -138 38q-81 0 -139 -38q-61 -40 -101 -111q-41 -73 -62 -174q-22 -107 -22 -227z" />
<glyph unicode="1" horiz-adv-x="811" d="M68 1022q0 41 36 70l332 284q31 25 49 31t31 6q45 0 68 -23q24 -24 24 -65v-1239q0 -34 -24 -60t-66 -26q-35 0 -63 23q-27 23 -27 63v1053l-207 -174q-19 -15 -33 -21q-19 -8 -34 -8q-38 0 -62 26t-24 60z" />
<glyph unicode="2" horiz-adv-x="1077" d="M98 82q0 41 37 84l400 493q48 59 104 137q41 57 70 108q27 49 39 88q12 40 12 79q0 76 -55 131t-166 55q-100 0 -155 -36q-57 -37 -87 -93q-37 -61 -88 -57q-35 0 -60 23q-24 22 -24 65q0 37 27 84q29 50 78 89q53 42 130 72q78 30 181 30q84 0 161 -25q73 -24 128 -71 t84 -113q30 -68 30 -154q0 -62 -16 -114q-16 -54 -48 -111q-29 -52 -79 -120q-38 -51 -107 -136l-332 -420h525q40 0 66 -23t26 -63q0 -38 -26 -61t-66 -23h-694q-31 0 -62 17q-33 18 -33 65z" />
<glyph unicode="3" horiz-adv-x="1083" d="M78 176q0 38 26 61t62 23q29 0 51 -16q59 -48 121 -69q63 -21 143 -21q63 0 119 18q53 17 95 53q40 34 63 85q22 48 22 112q0 108 -69 179t-205 71h-76q-40 0 -66 23q-28 25 -28 63q0 40 30 61t72 21h64q54 0 95 16q42 16 72 45q29 28 45 67q15 38 15 81q0 96 -70 154 q-69 57 -172 57q-71 0 -126 -20q-56 -20 -109 -56q-25 -19 -53 -19q-29 0 -54 22q-24 21 -24 56q0 41 45 80q16 14 46 34q30 19 72 36q40 16 94 28q57 13 116 13q89 0 170 -28q74 -26 133 -75q56 -47 87 -112t31 -140q0 -104 -54 -185q-53 -80 -163 -124q136 -38 201 -134 q66 -97 66 -214q0 -103 -37 -184q-38 -82 -102 -141t-150 -90q-87 -32 -187 -32q-122 0 -213 32q-90 32 -157 91q-41 38 -41 78z" />
<glyph unicode="4" horiz-adv-x="1116" d="M57 375q0 25 25 67l598 910q22 34 44 48q20 13 50 13q42 0 66 -24t24 -68v-862h105q38 0 63 -22t25 -62q0 -41 -25 -63q-24 -21 -63 -21h-107v-203q0 -41 -23 -64q-24 -24 -65 -24q-39 0 -63 24q-25 25 -25 64v203h-536q-42 0 -67 21q-26 21 -26 63zM274 459h412v643z " />
<glyph unicode="5" horiz-adv-x="1148" d="M139 270q0 36 24 61t60 25q38 0 70 -32q61 -104 138 -139q73 -33 155 -33q63 0 114 22q55 24 93 63q39 41 61 96q23 58 23 124q0 61 -21 116q-22 58 -57 96t-88 63q-51 24 -115 24q-86 0 -144 -30q-61 -31 -112 -85q-6 -4 -17 -14t-16 -14q-18 -15 -53 -15q-77 0 -76 94 l27 635q5 43 24 64q21 22 62 22h602q36 0 60 -23q26 -24 26 -61q0 -38 -26 -61t-60 -23h-520l-19 -422q40 43 112 72t157 29q91 0 172 -31q77 -30 135 -89t89 -144q32 -87 32 -191q0 -112 -37 -201q-37 -88 -101 -154q-65 -66 -148 -100q-84 -34 -179 -34q-119 0 -199 33 q-85 35 -139 80q-56 47 -82 95q-27 49 -27 82z" />
<glyph unicode="6" horiz-adv-x="1181" d="M119 561q0 189 53 350q52 158 150 276q95 114 230 181q133 66 298 66q46 0 86 -17q39 -17 39 -69q0 -38 -24 -60t-77 -24q-238 -4 -378 -134q-141 -130 -187 -405q39 83 129 135q91 53 197 53q100 0 176 -33q78 -34 136 -95q57 -60 87 -143q31 -85 31 -183 q0 -101 -38 -191q-36 -86 -101 -152q-63 -64 -150 -101q-83 -35 -180 -35q-110 0 -195 39q-87 40 -150 115t-97 182q-35 110 -35 245zM309 451q0 -59 22 -117q21 -56 60 -96q39 -41 92 -65q50 -23 115 -23q61 0 112 22q53 23 91 62q38 40 61 96q23 57 23 121q0 129 -78 212 q-78 82 -209 82q-62 0 -112 -23q-52 -24 -92 -64q-39 -39 -62 -93t-23 -114z" />
<glyph unicode="7" horiz-adv-x="954" d="M57 1331q0 37 25 60q23 22 63 22h672q43 0 70 -17q28 -18 28 -61q0 -17 -6 -35q-4 -12 -12 -34l-582 -1203q-33 -63 -86 -63q-33 0 -61 22q-27 21 -27 62q0 11 5 28q0 1 14 31l534 1108h-549q-35 0 -62 22q-26 21 -26 58z" />
<glyph unicode="8" horiz-adv-x="1140" d="M109 410q0 65 20 121q23 64 57 106q39 49 85 83q45 34 104 56q-92 51 -138 130q-47 80 -47 167q0 74 29 141q27 63 79 115q49 49 120 77q72 28 153 28q82 0 154 -28q71 -28 120 -77q52 -52 78 -115q27 -66 27 -141q0 -96 -48 -173q-49 -78 -136 -124q116 -40 191 -138 t75 -228q0 -90 -35 -171q-35 -80 -96 -137q-62 -58 -146 -90q-83 -32 -188 -32t-186 32q-84 33 -144 90t-95 137q-33 76 -33 171zM295 426q0 -62 20 -111q21 -51 58 -88t87 -58q52 -22 109 -22q58 0 111 22q51 21 88 58q35 35 57 88q21 51 21 111q0 59 -20 110t-56 87 q-35 35 -87 57q-47 20 -112 20q-63 0 -112 -20q-53 -22 -87 -57q-36 -37 -57 -87q-20 -47 -20 -110zM371 1061q0 -41 15 -79q16 -39 42 -67q27 -28 64 -46q35 -17 79 -17q45 0 79 17q38 19 62 46q26 29 41 67t15 79q0 86 -54 143q-55 58 -143 58q-89 0 -145 -58 q-55 -56 -55 -143z" />
<glyph unicode="9" horiz-adv-x="1181" d="M117 963q0 101 38 188q37 85 101 149q66 66 148 99q87 35 182 35q107 0 193 -40q89 -42 151 -115q64 -77 98 -182q35 -110 35 -245q0 -189 -53 -350q-52 -158 -150 -276q-95 -114 -230 -181q-131 -65 -298 -65q-48 0 -86 16q-39 16 -39 70q0 37 23 59q25 24 77 25 q238 5 381 137q144 133 184 401q-39 -82 -128 -135t-191 -53q-97 0 -174 32q-78 32 -138 94q-57 59 -91 146q-33 86 -33 191zM297 961q0 -129 78 -210t209 -81q60 0 111 22q52 22 91 63q40 41 62 93q22 51 22 115q0 61 -21 116q-20 53 -60 96q-34 37 -91 63q-52 24 -114 24 t-114 -24q-55 -25 -90 -63q-39 -42 -61 -96t-22 -118z" />
<glyph unicode=":" horiz-adv-x="585" d="M170 121q0 57 33 90t90 33q50 0 87 -32q36 -32 36 -89q0 -62 -35 -92q-36 -31 -88 -31q-53 0 -89 31q-34 30 -34 90zM170 885q0 57 33 90t90 33q50 0 87 -32q36 -32 36 -89q0 -62 -35 -92q-36 -31 -88 -31q-53 0 -89 31q-34 30 -34 90z" />
<glyph unicode=";" horiz-adv-x="585" d="M125 -240q0 30 35 45q53 18 91 62t44 131q-70 8 -97 42q-28 36 -28 79q0 61 35 93t86 32q60 0 94 -40q35 -41 35 -124q0 -93 -26 -163t-63 -113q-38 -44 -80 -65q-44 -22 -75 -22q-51 0 -51 43zM170 885q0 57 33 90t90 33q50 0 87 -32q36 -32 36 -89q0 -62 -35 -92 q-36 -31 -88 -31q-53 0 -89 31q-34 30 -34 90z" />
<glyph unicode="&#x3c;" d="M301 655q0 24 12 39q11 14 31 27l485 289q17 10 30 15q15 5 30 5q29 0 48 -19t19 -53q0 -41 -49 -69l-407 -234l407 -235q23 -15 36 -30q13 -14 13 -38q0 -29 -18 -50t-47 -21q-14 0 -31 5q-7 2 -31 13l-485 289q-21 12 -31 26q-12 16 -12 41z" />
<glyph unicode="=" d="M254 471q0 31 20 50q22 20 54 20h630q32 0 54 -20q20 -19 20 -50t-20 -50q-22 -20 -54 -20h-630q-32 0 -54 20q-20 19 -20 50zM254 827q0 32 20 51t54 19h630q34 0 54 -19t20 -51q0 -31 -20 -50t-54 -19h-630q-34 0 -54 19t-20 50z" />
<glyph unicode="&#x3e;" d="M330 352q0 23 12 38q11 14 37 30l407 235l-407 234q-49 27 -49 69q0 34 19 53t48 19q15 0 30 -5q13 -5 30 -15l485 -289q20 -13 31 -27q12 -15 12 -39q0 -25 -12 -41q-10 -14 -31 -26l-485 -289q-24 -11 -31 -13q-17 -5 -31 -5q-29 0 -47 21t-18 50z" />
<glyph unicode="?" horiz-adv-x="1089" d="M139 1157q0 38 16 68q15 29 31 49q50 63 140 112q88 48 211 48q178 0 286 -96q107 -95 107 -263q0 -78 -26 -141t-71 -108q-44 -44 -111 -80q-62 -33 -140 -56v-196q0 -37 -24 -61q-23 -23 -64 -23q-44 0 -66 23t-22 61v245q0 41 24 65t59 32q254 56 254 235 q0 77 -53 133t-155 56q-121 0 -203 -99q-28 -35 -51 -60q-23 -26 -58 -26q-41 0 -62 24q-22 25 -22 58zM371 123q0 58 33 90q34 33 90 33q53 0 88 -33q34 -33 34 -90q0 -60 -34 -91q-35 -32 -88 -32q-55 0 -90 32q-33 30 -33 91z" />
<glyph unicode="@" horiz-adv-x="1644" d="M109 459q0 152 49 286q50 138 142 238q93 102 230 162q134 59 316 59q154 0 280 -49q129 -50 219 -137q92 -89 141 -212q50 -126 50 -271q0 -111 -28 -197q-27 -82 -71 -135t-103 -79q-60 -26 -120 -26q-52 0 -92 16q-34 14 -60 38q-23 22 -37 51q-13 27 -19 57 q-30 -77 -94 -120q-63 -42 -140 -42q-68 0 -127 28q-57 27 -98 77q-43 52 -64 115q-22 65 -22 145q0 88 26 152q28 68 70 113q43 46 98 70q53 23 111 23q158 0 221 -141v63q0 26 20 44q19 18 50 18q32 0 53 -15q20 -14 20 -47v-385q0 -54 26 -85q25 -29 73 -29q55 0 105 66 q50 67 50 196q0 114 -29 211q-30 100 -94 176q-64 75 -167 121q-102 45 -246 45q-146 0 -255 -48q-110 -48 -183 -130q-75 -85 -112 -190q-38 -109 -38 -226q0 -115 38 -224q36 -104 111 -190q71 -81 178 -130q105 -48 242 -48q76 0 119 11q46 12 90 30q28 14 52 14 q28 0 45 -21q16 -20 16 -46q0 -20 -8 -39t-31 -31q-36 -23 -111 -44q-77 -21 -186 -21q-170 0 -299 61q-131 62 -222 163q-92 103 -138 234q-47 135 -47 275zM623 459q0 -91 53 -152q52 -59 131 -59q78 0 129 58t51 151q0 90 -50 151q-49 60 -130 60q-82 0 -133 -59 t-51 -150z" />
<glyph unicode="A" horiz-adv-x="1398" d="M78 80q0 16 6 36q4 12 25 60l481 1149q18 40 43 65q23 23 65 23t68 -23q27 -24 45 -65l479 -1149q22 -47 25 -57q6 -18 6 -31q0 -40 -29 -64q-28 -24 -69 -24q-37 0 -59 22t-44 78l-104 258h-643l-121 -299q-15 -36 -34 -47q-20 -12 -50 -12q-36 0 -64 22q-26 20 -26 58z M434 514h520l-258 645z" />
<glyph unicode="B" horiz-adv-x="1280" d="M172 92v1231q0 42 24 66t66 24h424q106 0 188 -28q81 -28 132 -74q50 -46 75 -111q25 -66 25 -133q0 -111 -54 -188q-54 -76 -128 -111q118 -40 183 -128q64 -86 64 -216q0 -97 -31 -175q-31 -77 -92 -134q-58 -54 -147 -85q-85 -30 -194 -30h-445q-90 0 -90 92zM356 164 h355q123 0 197 68q75 69 75 196q0 112 -70 176t-208 64h-349v-504zM356 821h359q46 0 86 19q33 16 63 49q26 29 40 68t14 79q0 93 -57 153t-171 60h-334v-428z" />
<glyph unicode="C" horiz-adv-x="1413" d="M109 707q0 161 48 295q49 136 135 231q87 96 208 148q123 53 264 53q106 0 191 -27t149 -65q63 -38 106 -79q41 -39 66 -73q37 -55 37 -100q0 -44 -29 -65q-28 -21 -57 -21q-44 0 -68 30q-28 35 -74 83q-39 41 -86 71t-105 48q-55 17 -130 17q-110 0 -195 -42t-145 -115 q-58 -71 -92 -174q-33 -100 -33 -217q0 -116 33 -215q34 -101 94 -173t151 -115q89 -42 199 -42q130 0 221 54q92 55 164 153q27 34 66 34q35 0 57 -27q23 -28 23 -57q0 -13 -5 -36q-4 -18 -22 -41q-22 -31 -68 -78q-43 -45 -106 -85q-62 -40 -149 -69q-84 -28 -193 -28 q-144 0 -264 52q-121 52 -208 147q-86 93 -135 230q-48 133 -48 298z" />
<glyph unicode="D" horiz-adv-x="1404" d="M172 90v1233q0 41 23 66q23 24 69 24h408q144 0 258 -51q112 -50 196 -143q82 -91 126 -222q44 -130 44 -282q0 -151 -45 -282t-127 -226q-84 -97 -196 -152q-113 -55 -256 -55h-410q-47 0 -69 25q-21 24 -21 65zM356 164h303q104 0 188 41q83 41 140 114q58 75 88 176 q31 105 31 220t-31 217q-29 97 -89 169q-58 70 -143 109t-194 39h-293v-1085z" />
<glyph unicode="E" horiz-adv-x="1196" d="M172 92v1229q0 40 25 67q24 25 69 25h766q40 0 63 -22t23 -60q0 -37 -23 -59q-25 -23 -63 -23h-676v-444h455q39 0 65 -23q25 -22 25 -59t-25 -59q-26 -23 -65 -23h-455v-477h676q41 0 64 -23q22 -22 22 -59t-22 -59q-23 -23 -64 -23h-768q-44 0 -68 26t-24 66z" />
<glyph unicode="F" horiz-adv-x="1161" d="M172 90v1233q0 42 27 66t67 24h742q39 0 61 -22q23 -23 23 -60q0 -36 -23 -59t-61 -23h-652v-477h439q41 0 63 -21q23 -21 23 -61q0 -37 -23 -58q-24 -22 -63 -22h-439v-520q0 -42 -23 -65q-25 -25 -69 -25q-43 0 -68 25q-24 24 -24 65z" />
<glyph unicode="G" horiz-adv-x="1478" d="M109 705q0 165 50 300q49 133 139 229q88 94 210 147q123 53 260 53q160 0 281 -57q122 -57 217 -173q32 -32 44 -59q11 -25 11 -49q0 -40 -25 -65q-23 -23 -59 -23q-25 0 -44 11q-24 14 -46 44q-70 97 -162 144q-89 46 -213 46q-110 0 -199 -42q-88 -42 -148 -115 q-60 -74 -93 -175q-33 -102 -33 -219q0 -116 34 -214q36 -104 96 -172q63 -72 150 -114t193 -42q92 0 168 27q74 26 130 79q54 51 83 125q29 75 29 164h-308q-40 0 -66 23t-26 57q0 36 26 60t66 24h381q66 0 90 -36q23 -35 23 -101q0 -126 -41 -237q-40 -107 -119 -191 q-77 -81 -190 -128q-111 -46 -254 -46q-141 0 -261 51q-119 51 -207 146q-87 94 -137 230q-50 135 -50 298z" />
<glyph unicode="H" horiz-adv-x="1447" d="M172 90v1233q0 42 26 66t66 24q42 0 67 -24t25 -66v-514h736v514q0 42 25 66t67 24q40 0 66 -24t26 -66v-1233q0 -41 -26 -65q-27 -25 -66 -25q-40 0 -67 25q-25 24 -25 65v557h-736v-557q0 -41 -25 -65q-27 -25 -67 -25q-39 0 -66 25q-26 24 -26 65z" />
<glyph unicode="I" horiz-adv-x="526" d="M172 90v1233q0 42 26 66t66 24q42 0 67 -24t25 -66v-1233q0 -41 -25 -65q-27 -25 -67 -25q-39 0 -66 25q-26 24 -26 65z" />
<glyph unicode="J" horiz-adv-x="1171" d="M78 334q0 46 33 69q34 23 63 23q50 0 80 -66q21 -43 44 -78q27 -41 57 -64q37 -29 79 -43q45 -15 107 -15q54 0 102 14q54 16 92 48q43 36 67 92q25 57 25 145v864q0 42 26 66q25 24 67 24q40 0 66 -24t26 -66v-864q0 -123 -39 -214t-105 -150t-151 -87q-84 -28 -180 -28 q-97 0 -166 24q-67 23 -121 63q-48 35 -85 85q-35 48 -59 92q-28 56 -28 90z" />
<glyph unicode="K" horiz-adv-x="1257" d="M172 94v1225q0 39 26 67q26 27 66 27q42 0 67 -27q25 -26 25 -67v-617l598 674q19 20 34 28q18 9 42 9q38 0 63 -25t25 -59q0 -16 -6 -34q-5 -14 -25 -38l-450 -503l502 -584q25 -29 32 -43q9 -20 9 -35q0 -44 -32 -68t-61 -24q-47 0 -77 37l-508 586l-146 -164v-365 q0 -41 -25 -67q-25 -27 -67 -27q-40 0 -66 27q-26 28 -26 67z" />
<glyph unicode="L" horiz-adv-x="1124" d="M172 92v1231q0 42 26 66t66 24q42 0 67 -24t25 -66v-1159h619q40 0 65 -23t25 -59t-25 -59t-65 -23h-709q-45 0 -69 26q-25 27 -25 66z" />
<glyph unicode="M" horiz-adv-x="1699" d="M172 90v1223q0 46 27 73t73 27q38 0 61 -19t48 -67l471 -829l471 829q28 49 52 67q25 19 57 19q41 0 68 -24q28 -25 28 -76v-1225q0 -41 -26 -65q-27 -25 -66 -25q-40 0 -67 25q-26 24 -26 65v959l-417 -744q-16 -29 -35 -45q-17 -14 -47 -14q-48 0 -80 59l-408 735v-948 q0 -41 -25 -65q-27 -25 -67 -25q-39 0 -66 25q-26 24 -26 65z" />
<glyph unicode="N" horiz-adv-x="1411" d="M172 90v1215q0 47 21 77q22 31 67 31q50 0 80 -45l717 -1010v965q0 41 25 65q24 23 67 23q39 0 65 -23q27 -24 27 -65v-1233q0 -42 -22 -65q-23 -25 -64 -25q-29 0 -48 10q-20 11 -38 35l-713 989v-944q0 -41 -25 -65q-27 -25 -67 -25q-39 0 -66 25q-26 24 -26 65z" />
<glyph unicode="O" horiz-adv-x="1536" d="M109 709q0 161 48 295t135 228q89 97 208 148q125 54 268 54q142 0 267 -54q121 -52 209 -148q87 -94 135 -228t48 -295t-48 -294q-49 -135 -135 -232q-87 -97 -209 -150q-123 -53 -267 -53q-145 0 -268 53q-121 52 -208 150q-86 97 -135 232q-48 133 -48 294zM299 709 q0 -117 33 -217q34 -103 94 -175q61 -73 147 -115q85 -42 195 -42q109 0 196 42q88 42 147 115t93 175q33 100 33 217t-33 216q-34 102 -94 172q-62 72 -148 114q-87 42 -194 42q-109 0 -196 -42t-147 -114q-59 -71 -93 -172q-33 -99 -33 -216z" />
<glyph unicode="P" horiz-adv-x="1245" d="M172 90v1233q0 42 26 66t66 24h395q240 0 369 -126t129 -345q0 -216 -135 -341q-134 -124 -371 -124h-295v-387q0 -41 -25 -65q-27 -25 -67 -25q-39 0 -66 25q-26 24 -26 65zM356 641h295q165 0 242 83q76 82 76 218q0 148 -82 227q-83 80 -240 80h-291v-608z" />
<glyph unicode="Q" horiz-adv-x="1536" d="M109 709q0 161 48 295t135 228q89 97 208 148q125 54 268 54q142 0 267 -54q121 -52 209 -148q87 -94 135 -228t48 -295q0 -166 -49 -298q-50 -135 -139 -233q56 -47 113 -47q28 0 46 6t40 6q35 0 48 -22t13 -47q0 -51 -47 -75q-46 -24 -113 -24q-55 0 -110 25t-107 80 q-78 -48 -165 -74q-85 -26 -189 -26q-145 0 -268 53q-121 52 -208 150q-86 97 -135 232q-48 133 -48 294zM299 709q0 -117 33 -217q34 -103 94 -175q61 -73 147 -115q85 -42 195 -42q134 0 236 63q-43 44 -82 66q-44 24 -97 24q-34 0 -55 23q-20 21 -20 49q0 35 22 58 q22 24 68 24q74 0 141 -40t129 -110q60 72 94 175q33 100 33 217t-33 216q-34 102 -94 172q-62 72 -148 114q-87 42 -194 42q-109 0 -196 -42t-147 -114q-59 -71 -93 -172q-33 -99 -33 -216z" />
<glyph unicode="R" horiz-adv-x="1247" d="M172 90v1231q0 41 26 67q25 25 66 25h383q232 0 357 -119q124 -118 124 -321q0 -148 -77 -255q-78 -108 -232 -153l287 -383q26 -33 34 -56q7 -20 7 -44q0 -28 -24 -55t-68 -27q-32 0 -54 15q-22 14 -45 44l-340 480h-260v-449q0 -41 -25 -65q-27 -25 -67 -25 q-39 0 -66 25q-26 24 -26 65zM356 702h287q152 0 224 75q73 76 73 196q0 132 -80 204q-79 72 -221 72h-283v-547z" />
<glyph unicode="S" horiz-adv-x="1206" d="M88 266q0 24 9 42q9 17 24 28q16 11 29 15q17 5 26 5q42 0 74 -32q37 -39 59 -58q32 -28 76 -52q45 -25 99 -39q57 -15 130 -15q62 0 117 15q53 14 97 44q41 28 66 70q23 39 23 92q0 61 -23 100q-24 41 -71 71q-42 27 -120 53q-56 18 -171 50q-62 16 -140 46 q-68 26 -128 72q-55 42 -94 111q-37 65 -37 160q0 90 37 161q39 76 101 123q67 52 151 78q89 28 184 28q70 0 127 -12q64 -13 104 -29q45 -17 82 -39q28 -16 62 -39q31 -22 44 -45t13 -49q0 -47 -29 -67q-30 -21 -59 -21q-27 0 -46 8q-17 7 -34 18q-18 11 -42 27 q-28 19 -56 32q-30 14 -77 25q-41 10 -105 10q-133 0 -199 -62q-67 -63 -67 -144q0 -53 25 -90t75 -66q48 -28 118 -52q65 -22 154 -46q71 -18 145 -44q71 -25 132 -71q57 -43 96 -114q37 -68 37 -173q0 -82 -33 -157t-98 -131q-63 -54 -162 -90q-92 -33 -221 -33 q-96 0 -166 20q-72 21 -130 51q-48 26 -96 66q-42 36 -65 63q-18 18 -32 39q-15 23 -15 47z" />
<glyph unicode="T" horiz-adv-x="1255" d="M57 1331q0 37 25 60q23 22 65 22h961q39 0 64 -22q26 -23 26 -60q0 -36 -26 -59t-64 -23h-389v-1159q0 -41 -26 -65q-27 -25 -66 -25q-40 0 -67 25q-25 24 -25 65v1159h-388q-40 0 -65 23t-25 59z" />
<glyph unicode="U" horiz-adv-x="1433" d="M162 518v805q0 42 25 66t67 24t67 -24t25 -66v-782q0 -184 97 -282q97 -99 274 -99q176 0 274 101q99 102 99 288v774q0 42 25 66t67 24q40 0 66 -24t26 -66v-799q0 -122 -40 -221t-113 -172q-71 -71 -175 -112q-98 -39 -229 -39t-230 38q-104 40 -175 111 q-73 73 -111 170q-39 99 -39 219z" />
<glyph unicode="V" horiz-adv-x="1370" d="M78 1327q0 38 27 62t63 24q64 0 88 -63l434 -1063l432 1069q10 22 28 40q17 17 48 17q43 0 67 -20q25 -21 25 -58q0 -17 -4 -29q-1 -4 -3.5 -13t-4.5 -13l-500 -1204q-16 -37 -35 -56q-20 -20 -57 -20q-38 0 -59 20t-37 56l-504 1206q0 2 -1 5t-2 7.5t-2 7.5q-3 12 -3 25 z" />
<glyph unicode="W" horiz-adv-x="1849" d="M78 1333q0 30 25 55t71 25q37 0 56 -22t30 -52l332 -1020l252 785q11 29 28 48q18 19 56 19q37 0 55 -19q19 -20 29 -48l252 -785l329 1024q11 30 31 50t53 20q37 0 64 -20q28 -21 28 -60q0 -5 -2 -25q-1 -14 -8 -34l-416 -1208q-24 -66 -83 -66q-29 0 -53 15 q-22 13 -33 51l-252 778l-248 -778q-11 -34 -33 -50t-51 -16q-62 0 -84 66l-416 1206q-12 38 -12 61z" />
<glyph unicode="X" horiz-adv-x="1306" d="M104 82q0 17 7 34q7 18 22 38l406 577l-389 541q-14 20 -19 33q-4 11 -4 26q0 27 23 55q22 27 65 27q28 0 45 -13q19 -15 37 -38l365 -500l348 496q18 28 36 42q17 13 46 13q37 0 63 -23q27 -24 27 -57q0 -21 -6 -37t-27 -43l-379 -540l404 -553q10 -15 21 -39 q7 -15 7 -37q0 -31 -25 -57q-25 -27 -65 -27q-51 0 -90 57l-377 523l-369 -529q-25 -35 -46 -43q-22 -8 -37 -8q-41 0 -65 27t-24 55z" />
<glyph unicode="Y" horiz-adv-x="1288" d="M78 1327q0 36 22 61t68 25q22 0 42 -9q18 -9 36 -34l399 -661l393 651q16 26 33 40q16 13 51 13q32 0 60 -22t28 -58q0 -17 -8 -39q-7 -20 -18 -37l-449 -725v-442q0 -41 -25 -65q-27 -25 -67 -25q-39 0 -66 25q-26 24 -26 65v442l-459 740q-14 27 -14 55z" />
<glyph unicode="Z" horiz-adv-x="1202" d="M100 80q0 31 23 65l735 1104h-629q-40 0 -65 22t-25 60q0 37 25 60q23 22 65 22h787q40 0 63 -21t23 -57q0 -16 -6 -37q-5 -19 -23 -43l-727 -1091h658q40 0 65 -23t25 -59t-25 -59t-65 -23h-816q-39 0 -64 23q-24 23 -24 57z" />
<glyph unicode="[" horiz-adv-x="655" d="M170 -283v1713q0 29 19 47q20 18 49 18h319q31 0 51 -20q21 -21 21 -58q0 -35 -21 -56q-22 -22 -51 -22h-203v-1532h201q31 0 51 -20q21 -21 21 -57t-21 -57t-49 -21h-319q-30 0 -49 18t-19 47z" />
<glyph unicode="\" horiz-adv-x="829" d="M27 1329q0 40 26 62t66 22q53 0 86 -70l581 -1202q17 -34 17 -57q0 -38 -27 -61q-28 -23 -59 -23q-29 0 -51 15q-21 14 -43 59l-578 1194q-1 3 -3.5 9t-4.5 11l-4 10q-6 16 -6 31z" />
<glyph unicode="]" horiz-adv-x="655" d="M27 1417q0 38 20 58t51 20h320q28 0 48 -18q19 -18 19 -47v-1713q0 -29 -19 -47q-20 -18 -48 -18h-320q-28 0 -49 21q-20 20 -20 57t20 57t49 20h203v1532h-205q-27 0 -49 22q-20 20 -20 56z" />
<glyph unicode="^" horiz-adv-x="1024" d="M150 748q0 29 18 59l283 577q11 23 25 36q16 14 44 14q27 0 43 -14q14 -13 25 -36l286 -577q19 -32 19 -59q0 -26 -21 -45q-20 -19 -49 -19q-42 0 -69 47l-234 494l-231 -494q-24 -47 -70 -47q-29 0 -49 19t-20 45z" />
<glyph unicode="_" horiz-adv-x="1200" d="M129 -70q0 34 19 52q20 18 53 18h798q33 0 53 -18q19 -18 19 -52q0 -31 -19 -49q-20 -18 -53 -18h-798q-33 0 -53 18q-19 18 -19 49z" />
<glyph unicode="`" horiz-adv-x="1024" d="M315 1399q0 35 27 59q28 25 59 25q24 0 46 -16q25 -18 38 -31l209 -201q25 -25 25 -49q0 -21 -17 -40q-16 -18 -40 -18q-16 0 -39 15l-273 188q-35 23 -35 68z" />
<glyph unicode="a" horiz-adv-x="1265" d="M88 510q0 118 38 218t102 170q65 71 151 110q85 39 184 39q133 0 223 -64q89 -63 140 -172v139q0 36 23 56t65 20t65 -20q25 -22 25 -56v-688q0 -41 12 -71q12 -29 47 -29q24 0 40 -19t16 -53q0 -90 -111 -90q-49 0 -80 14q-33 15 -54 39q-20 23 -33 58q-10 28 -15 69v47 q-52 -113 -149 -181q-95 -66 -226 -66q-98 0 -181 38t-148 109q-61 67 -98 167q-36 98 -36 216zM272 508q0 -78 25 -148q23 -66 68 -115q44 -48 103 -75q60 -27 132 -27q67 0 127 27q58 26 103 74t70 114q26 69 26 150q0 79 -25 151t-67 120q-46 52 -103 78q-62 28 -131 28 q-75 0 -136 -29q-59 -28 -104 -79q-42 -47 -65 -119q-23 -71 -23 -150z" />
<glyph unicode="b" horiz-adv-x="1255" d="M150 86v1241q0 38 25 62q26 24 65 24q38 0 64 -24t26 -62v-516q49 104 139 170t223 66q106 0 192 -40q85 -40 149 -111q62 -70 97 -169q35 -100 35 -215t-38 -215q-37 -98 -102 -169t-154 -110q-86 -38 -189 -38q-125 0 -215 62q-92 63 -137 171v-127q0 -32 -24 -59 t-68 -27q-46 0 -67 26t-21 60zM330 512q0 -80 23 -145q24 -68 67 -117q45 -51 102 -78q61 -29 133 -29t133 29q58 27 103 79q40 46 66 118q24 68 24 143q0 77 -24 146q-25 73 -66 119q-45 52 -103 79q-61 29 -133 29q-71 0 -132 -29q-58 -27 -103 -79q-42 -48 -67 -118 q-23 -65 -23 -147z" />
<glyph unicode="c" horiz-adv-x="1083" d="M88 514q0 111 38 210q37 96 104 169q66 72 158 113q93 41 198 41q135 0 230 -53q97 -54 151 -124q8 -11 27 -44q12 -21 12 -44q0 -40 -26 -60t-54 -20q-24 0 -40 11q-17 12 -26 22q-10 13 -35 42q-22 25 -55 49q-30 22 -78 41q-45 18 -102 18q-71 0 -131 -30 q-61 -30 -101 -81t-63 -119q-23 -69 -23 -143t23 -143t63 -118q41 -50 100 -79q60 -29 130 -29q80 0 145 37q67 38 119 99q30 30 63 30q28 0 53 -19t25 -59q0 -44 -28 -71q-51 -70 -149 -126q-94 -54 -230 -54q-113 0 -203 40q-92 41 -158 113q-65 71 -101 169t-36 212z" />
<glyph unicode="d" horiz-adv-x="1255" d="M88 510q0 119 38 219q37 98 102 169t153 110t186 39q137 0 223 -65q85 -64 136 -171v516q0 38 25 62t65 24q39 0 63 -24q25 -25 25 -62v-1235q0 -46 -25 -69t-65 -23q-46 0 -67 26t-21 60v141q-55 -111 -148 -180q-91 -67 -221 -67q-98 0 -182 37q-87 38 -150 107 t-100 167t-37 219zM272 510q0 -78 25 -148q23 -65 68 -116q43 -49 103 -76t132 -27q67 0 127 27q58 26 103 74t70 114q26 69 26 152q0 78 -25 150q-24 69 -68 119q-45 52 -104 78q-62 28 -129 28q-75 0 -136 -29q-59 -28 -104 -79q-42 -47 -65 -119q-23 -71 -23 -148z" />
<glyph unicode="e" horiz-adv-x="1148" d="M88 508q0 113 38 213q38 99 105 171q70 75 159 114q93 41 198 41q102 0 187 -36t146 -97q60 -60 94 -139q34 -78 34 -165q0 -53 -19 -91q-18 -36 -78 -36h-686q12 -152 101 -246t235 -94q97 0 169 35q73 36 112 72q26 16 45 16q35 0 57 -25q23 -26 23 -57q0 -23 -12 -41 q-13 -20 -25 -28q-61 -56 -158 -96q-95 -39 -223 -39q-117 0 -205 39q-94 42 -159 111q-66 70 -102 167q-36 96 -36 211zM270 598h602q1 9 1 18q0 41 -15 84q-19 53 -56 93q-38 41 -93 66q-57 26 -123 26q-117 0 -205 -76q-89 -77 -111 -211z" />
<glyph unicode="f" horiz-adv-x="749" d="M150 86v889q0 219 108 339t299 120q41 0 70 -3q27 -3 41 -8q38 -11 52 -33q15 -24 15 -49q0 -43 -23 -62t-57 -19q-22 0 -43 3t-53 3q-116 0 -168 -64t-59 -190h209q33 0 58 -23q24 -23 24 -57q0 -37 -24 -61q-23 -23 -58 -23h-211v-762q0 -36 -25 -61t-65 -25 q-38 0 -65 25q-25 24 -25 61z" />
<glyph unicode="g" horiz-adv-x="1249" d="M88 508q0 120 38 220q38 101 103 170q66 71 152 110q85 39 182 39q142 0 228 -68q85 -67 135 -168v139q0 35 23 55q24 21 65 21q47 0 68 -22q22 -24 22 -54v-864q0 -247 -129 -371q-130 -125 -361 -125q-100 0 -180 23q-76 22 -137 57q-51 24 -51 74q0 35 19 57 q20 23 52 23q28 0 53 -11q10 -5 33 -14t30 -12q29 -12 83 -26q43 -11 111 -11q158 0 228 91q71 92 71 247v139q-61 -115 -152 -181q-92 -66 -223 -66q-97 0 -180 37t-148 108q-63 69 -99 167t-36 216zM272 510q0 -79 26 -148q24 -64 70 -116q43 -49 103 -76t127 -27 q68 0 128 27q61 27 104 75q46 50 70 115q26 69 26 150q0 78 -25 150q-25 71 -67 119q-45 52 -104 78q-62 28 -132 28q-71 0 -132 -29q-59 -28 -104 -79q-41 -46 -66 -119q-24 -69 -24 -148z" />
<glyph unicode="h" horiz-adv-x="1167" d="M150 86v1241q0 38 24 62t66 24t66 -24t24 -62v-475q41 86 117 140q78 55 194 55q93 0 167 -31q72 -30 122 -86q51 -57 74 -131q24 -76 24 -166v-547q0 -37 -27 -61q-28 -25 -63 -25q-38 0 -65 25q-25 24 -25 61v496q0 134 -68 219q-68 84 -192 84q-126 0 -192 -85 q-66 -86 -66 -222v-492q0 -37 -26 -61q-27 -25 -64 -25q-38 0 -65 25q-25 24 -25 61z" />
<glyph unicode="i" horiz-adv-x="489" d="M137 1294q0 50 29 77q30 28 76 28q45 0 76 -28q30 -27 30 -77q0 -54 -30 -79q-29 -25 -76 -25q-48 0 -76 27q-29 27 -29 77zM150 250v690q0 37 24 61q25 25 66 25q40 0 65 -25t25 -61v-680q0 -43 12 -70q12 -26 47 -26q29 0 41 -23t12 -51q0 -41 -24 -65q-25 -25 -78 -25 q-98 0 -144 61t-46 189z" />
<glyph unicode="j" horiz-adv-x="479" d="M-109 -303q0 33 22 57q21 23 62 23q61 0 95 19t52 51q17 30 22 74q6 56 6 87v932q0 37 24 61q25 25 66 25q40 0 65 -25t25 -61v-958q0 -173 -80 -273q-79 -98 -244 -98q-61 0 -87 25q-28 26 -28 61zM133 1294q0 50 29 77q30 28 76 28q45 0 76 -28q30 -27 30 -77 q0 -54 -30 -79q-29 -25 -76 -25q-48 0 -76 27q-29 27 -29 77z" />
<glyph unicode="k" horiz-adv-x="1075" d="M150 86v1241q0 35 21 61q21 25 69 25q47 0 68 -25q22 -27 22 -61v-756l475 414q19 17 38 29t42 12q37 0 59 -25q21 -24 21 -53q0 -26 -12 -44q-13 -19 -29 -34l-342 -292l383 -428q12 -15 21 -30t9 -38q0 -41 -27 -62q-26 -20 -59 -20q-22 0 -38 8q-12 6 -31 27l-387 432 l-123 -105v-276q0 -34 -23 -60t-67 -26q-45 0 -68 26q-22 25 -22 60z" />
<glyph unicode="l" horiz-adv-x="489" d="M150 250v1077q0 35 24 61q24 25 66 25q41 0 65 -25q25 -27 25 -61v-1067q0 -43 12 -70q12 -26 47 -26q29 0 41 -23t12 -51q0 -41 -24 -65q-25 -25 -78 -25q-98 0 -144 61t-46 189z" />
<glyph unicode="m" horiz-adv-x="1697" d="M150 86v854q0 38 24 62t70 24q38 0 61 -20q25 -22 25 -60v-94q34 83 102 139t178 56q117 0 193 -57t110 -156q37 97 107 155t184 58q174 0 264 -107q91 -108 91 -291v-563q0 -33 -25 -60q-24 -26 -66 -26q-41 0 -65 26q-25 27 -25 60v551q0 114 -56 180q-57 68 -161 68 q-103 0 -160 -68q-57 -67 -57 -180v-549q0 -36 -24 -62t-66 -26t-66 26t-24 62v549q0 114 -56 180q-57 68 -161 68q-103 0 -160 -68q-57 -67 -57 -180v-551q0 -33 -25 -60q-24 -26 -65 -26q-39 0 -65 24q-25 24 -25 62z" />
<glyph unicode="n" horiz-adv-x="1177" d="M150 86v862q0 30 22 53q23 25 70 25q46 0 67 -24t21 -52v-98q40 89 125 142t198 53q191 0 288 -114q97 -113 97 -300v-547q0 -35 -25 -60q-26 -26 -65 -26t-63 26q-25 27 -25 60v496q0 139 -68 220q-69 83 -192 83q-130 0 -200 -85t-70 -222v-492q0 -33 -25 -60 q-24 -26 -65 -26q-37 0 -64 24q-26 23 -26 62z" />
<glyph unicode="o" horiz-adv-x="1191" d="M90 512q0 113 37 211t103 170t160 113t206 41t206 -41t160 -113t103 -170t37 -211q0 -114 -37 -210q-38 -98 -103 -169q-66 -72 -160 -113q-92 -40 -206 -40t-206 40q-94 41 -160 113q-65 71 -103 169q-37 96 -37 210zM274 514q0 -75 22 -144q21 -67 62 -118t101 -80 q61 -29 137 -29q75 0 136 29q62 30 102 78q41 50 62 116q22 69 22 144q0 74 -22 146q-21 69 -62 119q-40 49 -102 80q-60 30 -136 30q-74 0 -135 -29q-59 -28 -102 -79q-42 -49 -63 -118q-22 -71 -22 -145z" />
<glyph unicode="p" horiz-adv-x="1253" d="M150 -303v1253q0 29 22 52q23 24 70 24q46 0 67 -22q21 -23 21 -54v-139q49 97 138 167q88 69 224 69q107 0 191 -40q86 -41 149 -111q64 -72 98 -169q35 -100 35 -215q0 -114 -36 -212q-36 -99 -98 -169q-63 -72 -150 -112q-85 -39 -193 -39q-129 0 -220 64t-138 173 v-520q0 -37 -25 -62q-24 -24 -63 -24q-41 0 -67 24q-25 24 -25 62zM330 512q0 -80 23 -145q24 -68 67 -117q44 -50 103 -78q61 -29 132 -29q72 0 133 29q59 28 103 78q41 47 66 117q24 67 24 145q0 77 -24 146q-25 73 -66 119q-45 52 -103 79q-61 29 -133 29q-71 0 -132 -29 q-58 -28 -103 -80q-42 -50 -67 -119q-23 -65 -23 -145z" />
<glyph unicode="q" horiz-adv-x="1253" d="M88 508q0 114 36 213q37 101 98 171q65 75 150 114q88 41 191 41q139 0 228 -66q88 -66 133 -170v139q0 32 22 54t68 22q36 0 62 -19q28 -20 28 -57v-1253q0 -37 -25 -62q-24 -24 -63 -24q-42 0 -67 24t-25 62v520q-60 -117 -153 -177t-220 -60q-99 0 -181 36 q-84 37 -148 107q-61 67 -98 167q-36 98 -36 218zM272 510q0 -78 25 -148q22 -63 69 -116q43 -49 103 -76t129 -27q67 0 127 27q59 27 103 75q46 50 70 115q26 69 26 150q0 78 -25 150q-24 69 -68 119q-46 52 -103 78q-62 28 -130 28q-70 0 -132 -28q-59 -26 -104 -78 q-41 -46 -66 -119q-24 -69 -24 -150z" />
<glyph unicode="r" horiz-adv-x="786" d="M150 86v860q0 33 22 56q23 24 64 24q83 0 83 -80v-117q46 97 128 158q81 60 208 60q48 0 72 -22q23 -21 23 -56q0 -37 -22 -62q-21 -24 -66 -24q-70 0 -131 -23t-105 -67q-46 -46 -71 -111t-25 -152v-444q0 -38 -27 -62t-63 -24q-39 0 -65 24q-25 24 -25 62z" />
<glyph unicode="s" horiz-adv-x="958" d="M92 195q0 25 23 53q22 26 53 26q18 0 36 -9q17 -9 29 -19q39 -39 98 -74t148 -35q93 0 148 37t55 107q0 53 -41 86t-103 57q-56 21 -136 48q-76 25 -135 59q-60 34 -103 90q-41 53 -41 139q0 63 28 117t75 91q46 36 115 58q66 21 146 21q110 0 188 -35q76 -34 120 -80 q16 -16 22 -34t6 -34q0 -27 -17 -52q-19 -28 -52 -28q-11 0 -31 9q-15 7 -31 18q-28 23 -78 51q-50 29 -125 29q-71 0 -127 -30q-55 -30 -55 -99q0 -49 41 -79q40 -30 104 -54q63 -24 135 -48t135 -60t103 -88q41 -53 41 -134q0 -69 -27 -128q-26 -55 -79 -101 q-50 -43 -123 -67q-69 -23 -160 -23q-126 0 -211 39q-88 40 -145 108q-29 29 -29 68z" />
<glyph unicode="t" horiz-adv-x="772" d="M57 946q0 36 24 58q23 22 58 22h84v174q0 39 25 64q24 24 65 24t65 -24q23 -23 23 -64v-174h197q34 0 58 -21t24 -59q0 -34 -24 -57q-25 -23 -58 -23h-197v-557q0 -88 30 -127t91 -39q59 0 87 17q26 16 50 16q32 0 49 -23t17 -49q0 -49 -37 -73q-37 -28 -88 -40 q-47 -11 -108 -11q-76 0 -127 24t-83 68t-45 99q-14 59 -14 120v575h-84q-33 0 -58 22q-24 21 -24 58z" />
<glyph unicode="u" horiz-adv-x="1124" d="M145 408v532q0 37 26 61q27 25 65 25q35 0 63 -25q27 -24 27 -61v-537q0 -116 60 -188t177 -72t177 72q61 73 61 188v537q0 37 25 61q27 25 65 25t63 -25t25 -61v-532q0 -89 -28 -171q-26 -78 -81 -137q-53 -57 -131 -89q-77 -31 -176 -31q-101 0 -178 31q-78 32 -131 89 q-55 59 -81 137q-28 82 -28 171z" />
<glyph unicode="v" horiz-adv-x="1064" d="M61 942q0 36 26 60q25 24 67 24q37 0 55 -18t24 -35l299 -715l302 711q12 27 27 41q17 16 46 16q44 0 70 -22q27 -22 27 -64q0 -20 -11 -45l-372 -832q-17 -33 -36 -48t-55 -15q-34 0 -54 15q-18 14 -36 51l-362 821q-7 13 -11 26q-6 22 -6 29z" />
<glyph unicode="w" horiz-adv-x="1484" d="M57 938q0 47 32 68q30 20 67 20q62 0 80 -57l243 -697l178 566q10 35 35 51q22 14 51 14t51 -14q23 -14 35 -49l187 -568l237 691q21 63 80 63q44 0 69 -22t25 -64q0 -11 -1 -19q-2 -12 -9 -30l-313 -828q-12 -30 -35 -47q-22 -16 -51 -16q-30 0 -54 15q-23 15 -34 53 l-189 571l-182 -573q-10 -37 -37 -52q-25 -14 -51 -14q-63 0 -90 66l-311 825q-1 3 -5 13t-5 14q-3 10 -3 20z" />
<glyph unicode="x" horiz-adv-x="1019" d="M88 76q0 31 21 61l282 387l-270 361q-19 24 -22 35q-5 17 -5 30q0 31 26 54q25 22 62 22q33 0 51 -15q20 -16 37 -38l256 -340l265 356q22 37 61 37q29 0 58 -19q30 -19 30 -55q0 -31 -20 -57l-295 -393l268 -352q29 -35 29 -68t-25 -58q-24 -24 -59 -24q-51 0 -86 47 l-260 342l-244 -344q-16 -19 -33 -32t-43 -13q-34 0 -59 23t-25 53z" />
<glyph unicode="y" horiz-adv-x="1034" d="M57 940q0 38 29 62t70 24q56 0 77 -55l281 -744l293 742q11 26 28 41q17 16 48 16q35 0 61 -22q27 -22 27 -60q0 -18 -4 -31q-3 -10 -9 -24l-395 -961q-41 -93 -74 -146q-39 -63 -80 -98q-44 -38 -99 -56q-51 -17 -126 -17q-110 0 -110 80q0 39 21 61q21 23 69 23 q56 0 93 12q38 12 66 34q26 20 45 52q12 19 33 68l27 69l-360 881q-11 28 -11 49z" />
<glyph unicode="z" horiz-adv-x="931" d="M76 84q0 35 26 68l519 712h-431q-37 0 -62 23q-24 22 -24 59q0 36 24 58q23 22 62 22h580q44 0 65 -21t21 -55q0 -18 -9 -38q-8 -18 -26 -42l-512 -706h465q40 0 62 -21t22 -59q0 -41 -22 -62q-24 -22 -62 -22h-614q-42 0 -63 24t-21 60z" />
<glyph unicode="{" horiz-adv-x="714" d="M90 573q0 35 19 64q18 27 59 27q94 0 94 112v273q0 90 16 178q15 82 52 141t99 93t159 34q51 0 75 -26q23 -24 23 -60q0 -40 -23 -63q-25 -25 -63 -25q-85 0 -120 -65q-34 -64 -34 -212v-266q0 -74 -25 -125q-26 -53 -95 -80q70 -27 95 -79q25 -51 25 -125v-269 q0 -146 34 -210t120 -64q38 0 63 -25q23 -23 23 -63q0 -37 -23 -61q-24 -25 -75 -25q-97 0 -159 34t-99 93t-52 141q-16 88 -16 178v273q0 112 -94 112q-40 0 -59 25t-19 65z" />
<glyph unicode="|" horiz-adv-x="544" d="M180 -299v1864q0 41 26 65q27 25 66 25q40 0 67 -25q26 -24 26 -65v-1864q0 -42 -26 -66t-67 -24q-40 0 -66 24t-26 66z" />
<glyph unicode="}" horiz-adv-x="714" d="M27 -262q0 39 24 63q25 25 62 25q86 0 120 64q35 65 35 210v269q0 71 26 125q25 52 95 79q-69 27 -95 80q-26 54 -26 125v266q0 147 -35 212t-120 65q-37 0 -62 25q-24 24 -24 63q0 36 23 60q24 26 75 26q98 0 160 -34q64 -35 100 -93q37 -59 52 -141q16 -88 16 -178 v-273q0 -112 92 -112q43 0 61 -27q19 -29 19 -64q0 -40 -19 -65t-61 -25q-92 0 -92 -112v-273q0 -90 -16 -178q-15 -82 -52 -141q-36 -58 -100 -93q-62 -34 -160 -34q-51 0 -75 25q-23 24 -23 61z" />
<glyph unicode="~" d="M295 639q0 13 3 28q3 16 19 33q24 35 74 68q49 33 127 33q47 0 83 -14q38 -15 61 -29q32 -19 53 -30q26 -13 63 -13q62 0 103 53q21 23 45 23q26 0 46 -20q19 -19 19 -44q0 -31 -20 -57q-28 -40 -73 -71q-44 -30 -103 -30q-48 0 -85 14q-42 16 -66 29q-30 16 -57 30 q-26 13 -63 13q-47 0 -72 -14q-30 -17 -51 -39q-16 -20 -47 -20q-24 0 -41 16q-18 16 -18 41z" />
<glyph unicode="&#xa1;" horiz-adv-x="585" d="M170 926q0 57 35 89t88 32q54 0 89 -32q34 -31 34 -89q0 -57 -34 -90t-89 -33q-53 0 -88 33t-35 90zM193 -264l18 815q0 35 21 60q21 26 61 26q36 0 56 -26q21 -27 22 -60l20 -817q5 -51 -18 -86t-80 -35q-55 0 -78 35q-22 34 -22 88z" />
<glyph unicode="&#xa2;" d="M199 514q0 100 28 185q29 88 81 155q55 70 124 115q73 47 158 65v144q0 41 25 65q27 25 67 25t67 -25q25 -24 25 -65v-138q106 -15 179 -62q76 -49 122 -108q13 -18 28 -44q11 -19 11 -44q0 -41 -25 -60q-26 -20 -53 -20q-24 0 -41 11q-15 10 -26 22q-10 13 -35 42 q-22 25 -55 49q-30 22 -78 41q-45 18 -103 18q-72 0 -130 -30t-99 -81q-40 -51 -63 -119q-23 -69 -23 -143q0 -75 21 -143q21 -66 63 -118q42 -51 99 -79q60 -29 130 -29q82 0 147 37q69 39 120 99q16 16 32 23q15 7 29 7q30 0 53 -19q25 -20 25 -59q0 -44 -27 -71 q-46 -61 -122 -111q-72 -48 -179 -63v-138q0 -41 -25 -65q-27 -25 -67 -25t-67 25q-25 24 -25 65v142q-91 18 -162 64t-123 116q-52 71 -79 157q-27 87 -27 187z" />
<glyph unicode="&#xa3;" d="M129 82q0 38 26 61t68 23q53 0 103 18q47 17 87 54q37 34 60 84q23 51 23 110q0 14 -1 20q-2 12 -3 19h-191q-30 0 -50 20t-20 50q0 29 20 51q19 20 52 20h137q-32 59 -58 102q-37 62 -59 108q-33 69 -47 119q-18 63 -18 134q0 77 31 145q29 65 85 114q55 49 127 76 q75 28 158 28q104 0 189 -41q84 -40 131 -115q21 -29 36 -69q13 -36 13 -78q0 -45 -23 -69q-24 -26 -67 -26q-31 0 -53 20q-20 19 -31 54q-12 73 -61 110q-50 38 -142 38q-94 0 -150 -54q-55 -53 -55 -139q0 -64 23 -124q22 -57 54 -112q28 -48 67 -109q35 -54 59 -112h230 q31 0 51 -20t20 -51q0 -32 -20 -51t-51 -19h-193v-20q0 -96 -51 -171t-156 -114h379q58 0 95 8q32 7 48 37q16 28 22 42q9 21 21 39q9 14 28 27q16 11 38 11q34 0 56 -25t22 -59q0 -104 -71 -175t-234 -71h-664q-40 0 -65 22t-25 60z" />
<glyph unicode="&#xa4;" d="M252 328q0 31 22 53l56 55q-56 92 -56 213q0 120 58 213l-56 58q-24 24 -24 49q0 30 19 50q19 21 53 21q29 0 51 -22l53 -55q44 30 96 48q50 17 115 17q67 0 117 -17q56 -19 98 -50l57 57q22 22 52 22q28 0 49 -20q22 -21 22 -51q0 -29 -22 -51l-64 -64q24 -45 39 -96 q14 -48 14 -109q0 -62 -14 -110q-16 -53 -39 -97l64 -63q22 -21 22 -51q0 -28 -20 -48q-22 -22 -49 -22q-31 0 -54 23l-57 55q-91 -68 -215 -68q-125 0 -213 66l-51 -51q-23 -25 -51 -25q-27 0 -50 20q-22 19 -22 50zM438 651q0 -47 14 -92t37 -75t63 -51q37 -19 87 -19 q49 0 86 18q35 17 62 50q25 31 39 74q14 44 14 91t-14 91q-14 42 -39 75q-26 34 -62 51q-40 19 -86 19q-98 0 -150 -67q-51 -66 -51 -165z" />
<glyph unicode="&#xa5;" d="M78 1327q0 36 22 61t68 25q22 0 42 -9q18 -9 36 -34l399 -661l393 651q16 26 33 40q16 13 51 13q32 0 60 -22t28 -58q0 -17 -8 -39q-7 -20 -18 -37l-350 -569h178q31 0 51 -19t20 -51q0 -31 -20 -51t-51 -20h-267l-8 -15v-161h275q30 0 51 -21q20 -20 20 -51t-20 -50 q-22 -20 -51 -20h-275v-139q0 -41 -25 -65q-27 -25 -67 -25q-39 0 -66 25q-26 24 -26 65v139h-272q-30 0 -52 20q-20 19 -20 50t20 51q21 21 52 21h272v161l-10 15h-262q-32 0 -52 20t-20 51q0 32 20 51t52 19h174l-363 584q-14 27 -14 55z" />
<glyph unicode="&#xa6;" horiz-adv-x="544" d="M180 -299v635q0 41 26 65q27 25 66 25q40 0 67 -25q26 -24 26 -65v-635q0 -42 -26 -66t-67 -24q-40 0 -66 24t-26 66zM180 930v635q0 41 26 65q27 25 66 25q40 0 67 -25q26 -24 26 -65v-635q0 -42 -26 -66t-67 -24q-40 0 -66 24t-26 66z" />
<glyph unicode="&#xa7;" horiz-adv-x="970" d="M98 195q0 25 22 53q20 26 54 26q18 0 36 -9t28 -19q41 -41 97 -74q59 -35 150 -35q93 0 148 37t55 107q0 53 -41 85q-40 31 -103 55t-135 45q-76 22 -136 55q-63 35 -103 86q-41 53 -41 138q0 66 31 116q30 48 80 83q-50 35 -80 83q-31 50 -31 120q0 62 28 116 q27 53 75 90q48 38 115 59q69 22 145 22q109 0 187 -35q76 -34 122 -80q16 -16 22 -34t6 -34q0 -26 -18 -53t-51 -27q-11 0 -31 9q-15 7 -31 18q-33 26 -77 50q-51 28 -125 28q-71 0 -127 -29t-56 -100q0 -52 41 -82q41 -31 104 -53t135 -45q70 -22 135 -56q62 -33 103 -84 q41 -52 41 -133q0 -71 -25 -121q-24 -49 -73 -88q46 -35 71 -77q27 -45 27 -111q0 -67 -27 -126q-26 -55 -79 -101q-50 -43 -123 -67q-69 -23 -160 -23q-126 0 -211 39q-86 39 -147 108q-27 29 -27 68zM295 762q0 -45 32 -74q30 -28 82 -51q53 -24 111 -41q51 -15 123 -43 q27 17 46 44q18 25 18 71q0 44 -30 74q-31 31 -78 53q-53 25 -107 41q-48 15 -119 41q-35 -16 -56 -41q-22 -26 -22 -74z" />
<glyph unicode="&#xa8;" horiz-adv-x="1024" d="M254 1298q0 47 26 73t70 26q41 0 70 -26t29 -73q0 -48 -27 -71q-28 -23 -72 -23t-70 24t-26 70zM575 1300q0 48 26 72q27 25 71 25q39 0 69 -25q29 -24 29 -72q0 -50 -28 -73t-70 -23t-70 25q-27 24 -27 71z" />
<glyph unicode="&#xa9;" horiz-adv-x="1581" d="M84 694q0 162 51 296q51 133 145 232q93 97 223 151q131 54 285 54q157 0 286 -52q131 -53 223 -146q95 -96 145 -226q51 -132 51 -290q0 -163 -51 -296t-145 -232q-93 -97 -223 -151t-286 -54t-285 52q-131 53 -223 146q-95 96 -145 226q-51 132 -51 290zM215 696 q0 -121 41 -230q40 -106 117 -186q75 -78 181 -125q104 -46 234 -46t235 45q104 45 180 125q75 80 117 190q42 111 42 244q0 121 -41 229q-40 105 -117 185q-75 78 -181 125q-104 46 -235 46q-128 0 -234 -44q-103 -43 -180 -124q-75 -80 -117 -190q-42 -111 -42 -244z M395 698q0 97 29 181q27 79 82 140q52 58 127 90t164 32q68 0 122 -18q58 -19 93 -41q40 -25 63 -49q28 -30 37 -42q10 -17 15 -33q6 -22 6 -30q0 -34 -24 -52t-46 -18q-30 0 -51 23q-41 47 -90 83q-44 33 -125 33q-118 0 -184 -83q-66 -82 -66 -218q0 -130 68 -211 q69 -82 192 -82q72 0 119 29q45 27 90 82q23 23 51 23q26 0 44 -24q17 -23 17 -46q0 -15 -4 -28q-5 -17 -18 -31q-20 -27 -43 -49q-28 -27 -66 -47q-44 -24 -88 -37q-50 -15 -112 -15q-88 0 -164 31q-74 30 -127 88q-54 59 -82 138q-29 82 -29 181z" />
<glyph unicode="&#xaa;" horiz-adv-x="897" d="M57 1047q0 86 27 155q28 72 73 120q49 52 106 78q60 27 128 27q91 0 149 -41q55 -39 89 -110v70q0 31 22 49q23 18 58 18q37 0 58 -18t21 -49v-451q0 -27 9 -49q8 -19 28 -19q45 0 45 -61q0 -82 -100 -82q-69 0 -102 38q-32 37 -37 89v25q-35 -78 -101 -122 q-67 -44 -151 -44q-68 0 -124 26q-59 27 -102 76q-45 51 -70 119q-26 70 -26 156zM221 1047q0 -104 59 -169t146 -65q85 0 145 63t60 168q0 107 -57 173q-56 65 -148 65q-98 0 -151 -65q-54 -66 -54 -170z" />
<glyph unicode="&#xab;" horiz-adv-x="1206" d="M78 510q0 23 10 36q7 9 21 23l413 332q12 9 24 14q16 7 29 7q27 0 47 -21q19 -20 19 -49q0 -15 -5 -32q-4 -14 -22 -27l-360 -279l356 -287q31 -25 31 -59q0 -26 -18 -47t-48 -21q-15 0 -29 6q-8 4 -24 15l-413 332q-31 25 -31 57zM561 510q0 23 10 36q7 9 21 23l414 332 q14 10 23 14q16 7 30 7q27 0 46 -21q19 -20 19 -49q0 -15 -5 -32q-5 -15 -21 -27l-361 -279l357 -287q30 -24 30 -59q0 -26 -18 -47t-47 -21q-14 0 -30 7q-9 4 -23 14l-414 332q-31 25 -31 57z" />
<glyph unicode="&#xac;" d="M254 827q0 32 19 51t53 19h637q31 0 50 -19t19 -51v-354q0 -33 -19 -52q-20 -20 -50 -20q-31 0 -51 20q-19 19 -19 52v285h-567q-34 0 -53 19t-19 50z" />
<glyph unicode="&#xad;" horiz-adv-x="854" />
<glyph unicode="&#xae;" horiz-adv-x="1331" d="M74 829q0 133 44 245t122 193t187 126q110 45 239 45q131 0 239 -45t188 -125q78 -78 122 -191q45 -115 45 -241q0 -130 -45 -245q-45 -114 -122 -193q-79 -81 -188 -126q-108 -45 -239 -45q-128 0 -239 44q-107 43 -187 124q-79 80 -122 191q-44 112 -44 243zM199 829 q0 -105 33 -190q34 -89 96 -153t147 -102q87 -38 193 -38q104 0 190 36q88 37 148 100q60 62 95 155q34 89 34 199q0 101 -34 188q-35 90 -95 153q-61 64 -148 102t-192 38q-106 0 -191 -36q-86 -36 -147 -100t-96 -154q-33 -85 -33 -198zM428 578v518q0 31 19 50t51 19h186 q117 0 185 -59q69 -60 69 -158q0 -69 -33 -118t-96 -76l100 -113q24 -22 28 -37q5 -18 5 -33q0 -24 -17 -42q-18 -19 -53 -19q-23 0 -39 11q-17 11 -32 28l-146 180h-88v-151q0 -32 -19 -50q-20 -18 -50 -18q-32 0 -51 18t-19 50zM567 850h117q52 0 83 26q30 26 30 72 q0 48 -32 72t-83 24h-115v-194z" />
<glyph unicode="&#xaf;" horiz-adv-x="1024" d="M229 1337q0 34 21 55t53 21h418q32 0 53 -21t21 -55q0 -31 -21 -53t-53 -22h-418q-32 0 -53 22t-21 53z" />
<glyph unicode="&#xb0;" horiz-adv-x="800" d="M119 1118q0 66 21 121t59 96q39 42 88 65t112 23q64 0 114 -23q52 -24 90 -65t59 -96q20 -53 20 -121q0 -70 -20 -123q-21 -55 -59 -96q-37 -41 -90 -63q-54 -23 -114 -23t-112 23q-50 22 -88 63t-59 96t-21 123zM244 1118q0 -32 9 -64t29 -58q20 -27 49 -41 q30 -15 68 -15q39 0 69 15q28 14 50 41q21 25 30 58q9 32 9 64t-9 63t-30 57q-22 27 -50 42q-29 16 -69 16q-39 0 -68 -16t-49 -42q-20 -27 -29 -57q-9 -31 -9 -63z" />
<glyph unicode="&#xb1;" d="M254 72q0 29 20 49t54 20h630q34 0 54 -20t20 -51q0 -32 -20 -51t-54 -19h-630q-34 0 -54 20t-20 52zM254 649q0 31 20 50q22 20 54 20h245v225q0 30 21 51t49 21q30 0 51 -21t21 -51v-225h243q32 0 54 -20q20 -19 20 -50t-20 -50t-54 -19h-245v-226q0 -31 -20 -53 q-19 -20 -50 -20t-50 20q-20 22 -20 53v226h-245q-34 0 -54 19t-20 50z" />
<glyph unicode="&#xb2;" horiz-adv-x="694" d="M92 766q0 15 8 33q6 13 19 26l235 213q69 63 97 105q26 39 26 80q0 35 -28 57q-29 23 -84 23q-51 0 -82 -17t-47 -43q-29 -35 -68 -35q-26 1 -48 18q-20 15 -20 50q0 23 19 53q18 29 52 51q37 24 83 38q53 16 111 16q116 0 189 -55t73 -154q0 -64 -37 -120t-115 -122 l-168 -152h268q35 0 55 -18q19 -18 19 -47q0 -28 -19 -46q-20 -18 -55 -18h-407q-21 0 -49 14q-27 14 -27 50z" />
<glyph unicode="&#xb3;" horiz-adv-x="694" d="M78 811q0 28 21 46q20 17 51 17q18 0 38 -10q33 -21 69 -34q32 -11 81 -11q70 0 114 28q42 27 42 75q0 44 -34 71t-104 27h-39q-29 0 -51 16t-22 45q0 31 23 44q25 14 57 14h28q52 0 80 24q29 24 29 60q0 41 -33 63q-34 23 -84 23q-46 0 -77 -12q-35 -14 -60 -29 q-24 -13 -41 -13q-24 0 -44 17t-20 43q0 31 37 59q19 17 71 38q55 22 138 22q122 0 195 -56q71 -55 71 -131q0 -49 -31 -92q-30 -41 -94 -63q77 -16 115 -66q37 -49 37 -102t-23 -97t-62 -73q-42 -31 -95 -47q-57 -17 -119 -17q-70 0 -129 16q-55 15 -100 48q-35 24 -35 57z " />
<glyph unicode="&#xb4;" horiz-adv-x="1024" d="M315 1186q0 24 25 49l209 201q14 13 38 31q22 16 46 16q31 0 59 -25q27 -24 27 -59q0 -44 -37 -68l-272 -188q-21 -15 -37 -15q-25 0 -41 18q-17 19 -17 40z" />
<glyph unicode="&#xb5;" horiz-adv-x="1146" d="M152 -254v1155q0 19 3 41q3 24 13 41q11 19 29 31t47 12q46 0 67 -22q21 -23 21 -54v-547q0 -116 60 -188t177 -72q112 0 174 70q63 70 64 182v496q0 26 4 47q5 28 14 44q11 21 28 32q18 12 44 12q24 0 42 -12q16 -11 29 -32q10 -16 15 -44q4 -21 4 -47v-631 q0 -43 12 -70q12 -26 48 -26q28 0 40 -23q13 -24 13 -51q0 -40 -25 -65t-78 -25q-87 0 -121 42q-34 41 -40 108q-86 -170 -267 -170q-90 0 -148 39q-61 41 -89 106v-385q0 -44 -20 -87q-20 -42 -68 -42q-26 0 -44 12q-16 11 -29 32q-10 16 -15 43q-4 21 -4 48z" />
<glyph unicode="&#xb6;" horiz-adv-x="1030" d="M57 1059q0 71 28 139q26 65 78 113q49 46 120 74q72 28 153 28h357q29 0 47 -18t18 -49v-1276q0 -32 -18 -51t-47 -19q-32 0 -51 19t-19 51v1206h-84v-1206q0 -32 -19 -51t-49 -19q-31 0 -49 19q-18 20 -18 51v639h-68q-78 0 -144 23q-67 23 -121 68q-54 44 -83 109 q-31 68 -31 150z" />
<glyph unicode="&#xb7;" horiz-adv-x="1024" d="M330 727q0 54 30 84q31 31 82 31q48 0 82 -31q33 -30 33 -84q0 -59 -33 -85q-34 -26 -82 -26t-81 28q-31 27 -31 83z" />
<glyph unicode="&#xb8;" horiz-adv-x="1024" d="M354 -383q0 31 22 44q19 11 44 11q54 0 79 21t25 55q0 35 -23 51q-24 17 -67 21q-23 5 -30 11q-9 7 -9 32v137h115v-78q32 -5 54 -15q30 -13 50 -32q23 -21 36 -49q14 -30 14 -70q0 -53 -20 -91t-50 -62q-31 -25 -70 -37t-75 -12q-54 0 -74 16q-21 16 -21 47z" />
<glyph unicode="&#xb9;" horiz-adv-x="694" d="M113 1202q0 16 8 29t18 20l203 150q20 16 35 19t22 3q35 0 55 -18q19 -18 19 -47v-588q0 -29 -20 -48q-22 -20 -52 -20t-51 18q-20 17 -20 48v453l-97 -70q-14 -8 -23 -11q-15 -5 -30 -5q-29 0 -48 19t-19 48z" />
<glyph unicode="&#xba;" horiz-adv-x="847" d="M59 1049q0 80 27 149q28 71 75 121q49 52 115 80t148 28q81 0 147 -28q68 -29 116 -80q47 -50 75 -121q26 -66 26 -149q0 -84 -26 -150q-28 -71 -75 -121q-48 -51 -116 -80q-66 -28 -147 -28q-82 0 -148 28t-115 80q-47 50 -75 121q-27 69 -27 150zM223 1051 q0 -48 14 -93q13 -43 37 -74q23 -30 63 -51q38 -20 87 -20q98 0 149 68q52 69 52 166q0 96 -52 166q-51 69 -149 69t-150 -67q-51 -66 -51 -164z" />
<glyph unicode="&#xbb;" horiz-adv-x="1206" d="M80 168q0 34 31 59l356 287l-358 279q-17 13 -23 27q-6 15 -6 32q0 29 19 49q20 21 46 21q14 0 30 -7q12 -5 24 -14l413 -332q14 -14 21 -23q10 -13 10 -36q0 -32 -31 -57l-413 -332q-16 -11 -24 -15q-13 -6 -30 -6q-29 0 -47 21t-18 47zM563 168q0 34 31 59l356 287 l-358 279q-17 13 -23 27q-6 15 -6 32q0 27 20 49q19 21 46 21q13 0 29 -7q12 -5 24 -14l414 -332q9 -9 20 -23q10 -13 10 -36q0 -33 -30 -57l-414 -332q-16 -11 -24 -15q-14 -6 -29 -6q-29 0 -47 21q-19 22 -19 47z" />
<glyph unicode="&#xbc;" horiz-adv-x="1523" d="M113 1202q0 16 8 29t18 20l203 150q20 16 35 19t22 3q35 0 55 -18q19 -18 19 -47v-588q0 -29 -20 -48q-22 -20 -52 -20t-51 18q-20 17 -20 48v453l-97 -70q-14 -8 -23 -11q-15 -5 -30 -5q-29 0 -48 19t-19 48zM225 57q0 16 6 28q3 6 17 28l1005 1263q18 22 32 30 q13 7 30 7q29 0 48 -19t19 -51q0 -23 -24 -53l-1004 -1261q-19 -25 -30 -31q-16 -8 -31 -8q-31 0 -49 21q-19 22 -19 46zM872 205q0 27 25 55l328 416q23 30 44 37q22 8 50 8q29 0 51 -19q21 -18 21 -49v-399h51q29 0 47 -12t18 -41q0 -31 -18 -43q-19 -13 -45 -13h-53v-77 q0 -32 -20 -50q-19 -18 -52 -18q-30 0 -51 18t-21 50v77h-311q-27 0 -46 17q-18 17 -18 43zM1014 254h233v299z" />
<glyph unicode="&#xbd;" horiz-adv-x="1523" d="M113 1202q0 16 8 29t18 20l203 150q20 16 35 19t22 3q35 0 55 -18q19 -18 19 -47v-588q0 -29 -20 -48q-22 -20 -52 -20t-51 18q-20 17 -20 48v453l-97 -70q-14 -8 -23 -11q-15 -5 -30 -5q-29 0 -48 19t-19 48zM152 57q0 16 6 28q7 13 16 28l1006 1263q18 23 31 30t30 7 q29 0 48 -19q20 -20 20 -51q0 -22 -25 -53l-1003 -1261q-18 -24 -31 -31q-16 -8 -31 -8q-31 0 -49 21t-18 46zM922 63q0 15 8 33q8 16 18 27l236 213q68 62 96 104q27 40 27 80q0 35 -29 58q-28 22 -84 22q-53 0 -82 -16q-31 -17 -47 -43q-29 -35 -68 -35q-28 1 -48 17 q-19 15 -19 50q0 25 18 54t52 51q37 24 83 38q49 15 111 15q117 0 189 -54q73 -55 73 -155q0 -64 -37 -120q-36 -55 -114 -121l-168 -152h268q35 0 54 -18q20 -18 20 -48q0 -28 -20 -46q-18 -17 -54 -17h-408q-23 0 -49 13t-26 50z" />
<glyph unicode="&#xbe;" horiz-adv-x="1523" d="M78 811q0 28 21 46q20 17 51 17q18 0 38 -10q33 -21 69 -34q32 -11 81 -11q70 0 114 28q42 27 42 75q0 44 -34 71t-104 27h-39q-29 0 -51 16t-22 45q0 31 23 44q25 14 57 14h28q52 0 80 24q29 24 29 60q0 41 -33 63q-34 23 -84 23q-46 0 -77 -12q-35 -14 -60 -29 q-24 -13 -41 -13q-24 0 -44 17t-20 43q0 31 37 59q19 17 71 38q55 22 138 22q122 0 195 -56q71 -55 71 -131q0 -49 -31 -92q-30 -41 -94 -63q77 -16 115 -66q37 -49 37 -102t-23 -97t-62 -73q-42 -31 -95 -47q-57 -17 -119 -17q-70 0 -129 16q-55 15 -100 48q-35 24 -35 57z M266 57q0 16 6 28q3 6 17 28l1005 1263q18 22 32 30q13 7 30 7q29 0 48 -19t19 -51q0 -23 -24 -53l-1004 -1261q-19 -25 -30 -31q-16 -8 -31 -8q-31 0 -49 21q-19 22 -19 46zM872 205q0 27 25 55l328 416q23 30 44 37q22 8 50 8q29 0 51 -19q21 -18 21 -49v-399h51 q29 0 47 -12t18 -41q0 -31 -18 -43q-19 -13 -45 -13h-53v-77q0 -32 -20 -50q-19 -18 -52 -18q-30 0 -51 18t-21 50v77h-311q-27 0 -46 17q-18 17 -18 43zM1014 254h233v299z" />
<glyph unicode="&#xbf;" horiz-adv-x="1089" d="M160 -29q0 82 25 142t72 107q44 44 110 80q59 32 141 56v197q0 37 23 60q24 24 67 24q42 0 64 -24q22 -23 22 -60v-246q0 -40 -25 -63q-24 -22 -59 -33q-254 -56 -254 -236q0 -77 53 -132q53 -54 158 -54q122 0 201 98q49 57 51 59q22 25 57 25q43 0 63 -23 q21 -24 21 -59q0 -39 -15 -67q-13 -25 -32 -49q-53 -67 -138 -113q-86 -47 -212 -47q-180 0 -287 95q-106 94 -106 263zM475 926q0 57 35 89t88 32q52 0 87 -32q34 -31 34 -89q0 -57 -34 -90q-35 -33 -87 -33q-54 0 -88 33q-35 33 -35 90z" />
<glyph unicode="&#xc0;" horiz-adv-x="1398" d="M78 80q0 16 6 36q4 12 25 60l481 1149q18 40 43 65q23 23 65 23t68 -23q27 -24 45 -65l479 -1149q22 -47 25 -57q6 -18 6 -31q0 -40 -29 -64q-28 -24 -69 -24q-37 0 -59 22t-44 78l-104 258h-643l-121 -299q-15 -36 -34 -47q-20 -12 -50 -12q-36 0 -64 22q-26 20 -26 58z M434 514h520l-258 645zM502 1808q0 37 26 60q27 24 60 24q25 0 46 -15t38 -32l209 -200q24 -24 24 -50q0 -23 -16 -40t-41 -17q-18 0 -39 14l-272 189q-35 23 -35 67z" />
<glyph unicode="&#xc1;" horiz-adv-x="1398" d="M78 80q0 16 6 36q4 12 25 60l481 1149q18 40 43 65q23 23 65 23t68 -23q27 -24 45 -65l479 -1149q22 -47 25 -57q6 -18 6 -31q0 -40 -29 -64q-28 -24 -69 -24q-37 0 -59 22t-44 78l-104 258h-643l-121 -299q-15 -36 -34 -47q-20 -12 -50 -12q-36 0 -64 22q-26 20 -26 58z M434 514h520l-258 645zM502 1595q0 26 24 50l209 200q17 17 38 32t46 15q33 0 60 -24q26 -23 26 -60q0 -43 -37 -67l-272 -189q-20 -14 -37 -14q-25 0 -41 17t-16 40z" />
<glyph unicode="&#xc2;" horiz-adv-x="1398" d="M78 80q0 16 6 36q4 12 25 60l481 1149q18 40 43 65q23 23 65 23t68 -23q27 -24 45 -65l479 -1149q22 -47 25 -57q6 -18 6 -31q0 -40 -29 -64q-28 -24 -69 -24q-37 0 -59 22t-44 78l-104 258h-643l-121 -299q-15 -36 -34 -47q-20 -12 -50 -12q-36 0 -64 22q-26 20 -26 58z M395 1587q0 24 29 53l221 224q12 12 28 21q13 7 34 7q35 0 59 -28l221 -224q3 -4 7.5 -9t8 -9t5.5 -8q8 -13 8 -27q0 -19 -15 -34t-36 -15q-9 0 -18 3q-8 3 -25 15l-217 166l-216 -166q-11 -7 -25 -14q-8 -4 -20 -4q-19 0 -34 15t-15 34zM434 514h520l-258 645z" />
<glyph unicode="&#xc3;" horiz-adv-x="1398" d="M78 80q0 16 6 36q4 12 25 60l481 1149q18 40 43 65q23 23 65 23t68 -23q27 -24 45 -65l479 -1149q22 -47 25 -57q6 -18 6 -31q0 -40 -29 -64q-28 -24 -69 -24q-37 0 -59 22t-44 78l-104 258h-643l-121 -299q-15 -36 -34 -47q-20 -12 -50 -12q-36 0 -64 22q-26 20 -26 58z M348 1671q0 14 6 32q6 17 21 34q33 41 76 66q44 26 112 26q49 0 82 -13q32 -13 65 -29q44 -22 59 -28q30 -12 67 -12q31 0 51 13q19 12 41 42q14 16 22 22q12 9 29 9q25 0 44 -21q19 -20 19 -53q0 -44 -26 -71q-28 -39 -67 -62q-37 -22 -85 -22q-50 0 -86 13t-67 30 q-11 6 -62 29q-31 14 -69 14q-41 0 -67 -17q-24 -16 -46 -39q-9 -10 -23 -19q-11 -7 -34 -7q-28 0 -45 18q-17 19 -17 45zM434 514h520l-258 645z" />
<glyph unicode="&#xc4;" horiz-adv-x="1398" d="M78 80q0 16 6 36q4 12 25 60l481 1149q18 40 43 65q23 23 65 23t68 -23q27 -24 45 -65l479 -1149q22 -47 25 -57q6 -18 6 -31q0 -40 -29 -64q-28 -24 -69 -24q-37 0 -59 22t-44 78l-104 258h-643l-121 -299q-15 -36 -34 -47q-20 -12 -50 -12q-36 0 -64 22q-26 20 -26 58z M434 514h520l-258 645zM440 1708q0 47 26 73q25 25 71 25q41 0 69 -25q29 -26 29 -73q0 -50 -27 -72q-26 -22 -71 -22q-47 0 -71 23q-26 24 -26 71zM762 1710q0 48 25 72t71 24q42 0 70 -24t28 -72q0 -52 -27 -74q-26 -22 -71 -22q-43 0 -70 24q-26 23 -26 72z" />
<glyph unicode="&#xc5;" horiz-adv-x="1398" d="M78 80q0 16 6 36q4 12 25 60l481 1149q18 40 43 65q23 23 65 23t68 -23q27 -24 45 -65l479 -1149q22 -47 25 -57q6 -18 6 -31q0 -40 -29 -64q-28 -24 -69 -24q-37 0 -59 22t-44 78l-104 258h-643l-121 -299q-15 -36 -34 -47q-20 -12 -50 -12q-36 0 -64 22q-26 20 -26 58z M434 514h520l-258 645zM487 1751q0 49 18 89q19 43 47 68q32 28 68 43q38 15 78 15q46 0 84 -16q41 -17 67 -45q28 -29 44 -69q16 -39 16 -85q0 -94 -59 -153q-60 -60 -152 -60q-44 0 -80 14q-38 15 -67 42q-27 26 -46 68q-18 40 -18 89zM604 1753q0 -41 24 -71 q23 -29 70 -29q50 0 72 31q23 32 23 67q0 37 -23 69q-22 31 -72 31q-55 0 -74 -32q-20 -34 -20 -66z" />
<glyph unicode="&#xc6;" horiz-adv-x="1873" d="M53 88q0 27 17 55l739 1203q21 34 48 51q26 16 71 16h786q42 0 64 -22t22 -60q0 -37 -22 -59q-23 -23 -64 -23h-676v-444h455q41 0 66 -23q24 -23 24 -59q0 -37 -24 -59q-25 -23 -66 -23h-455v-477h678q39 0 62 -23q22 -22 22 -61q0 -37 -21 -58q-22 -22 -63 -22h-768 q-45 0 -69 26q-25 27 -25 66v285h-430l-199 -326q-17 -24 -35 -38q-17 -13 -47 -13q-34 0 -62 22t-28 66zM504 541h350v592z" />
<glyph unicode="&#xc7;" horiz-adv-x="1413" d="M109 707q0 161 48 295q49 136 135 231q87 96 208 148q123 53 264 53q106 0 191 -27t149 -65q63 -38 106 -79q41 -39 66 -73q37 -55 37 -100q0 -44 -29 -65q-28 -21 -57 -21q-44 0 -68 30q-28 35 -74 83q-39 41 -86 71t-105 48q-55 17 -130 17q-110 0 -195 -42t-145 -115 q-58 -71 -92 -174q-33 -100 -33 -217q0 -116 33 -215q34 -101 94 -173t151 -115q89 -42 199 -42q130 0 221 54q92 55 164 153q27 34 66 34q35 0 57 -27q23 -28 23 -57q0 -8 -6 -36q-4 -20 -21 -41q-22 -31 -67 -77q-43 -44 -103 -84q-63 -41 -143 -69q-83 -29 -187 -30v-58 q60 -11 106 -47q48 -37 48 -119q0 -53 -20 -91t-50 -62q-32 -26 -69 -37q-39 -12 -76 -12q-54 0 -73 16t-19 47q0 33 20 44q19 11 45 11q54 0 78 21q25 22 25 55q0 34 -23 51t-67 21q-23 5 -30 11q-9 8 -9 32v125q-129 17 -228 74q-102 59 -176 152q-73 93 -114 218 q-39 120 -39 275z" />
<glyph unicode="&#xc8;" horiz-adv-x="1196" d="M172 92v1229q0 40 25 67q24 25 69 25h766q40 0 63 -22t23 -60q0 -37 -23 -59q-25 -23 -63 -23h-676v-444h455q39 0 65 -23q25 -22 25 -59t-25 -59q-26 -23 -65 -23h-455v-477h676q41 0 64 -23q22 -22 22 -59t-22 -59q-23 -23 -64 -23h-768q-44 0 -68 26t-24 66zM453 1808 q0 37 26 60q27 24 60 24q25 0 46 -15t38 -32l208 -200q25 -25 25 -50q0 -23 -16 -40t-41 -17q-18 0 -39 14l-273 189q-34 22 -34 67z" />
<glyph unicode="&#xc9;" horiz-adv-x="1196" d="M172 92v1229q0 40 25 67q24 25 69 25h766q40 0 63 -22t23 -60q0 -37 -23 -59q-25 -23 -63 -23h-676v-444h455q39 0 65 -23q25 -22 25 -59t-25 -59q-26 -23 -65 -23h-455v-477h676q41 0 64 -23q22 -22 22 -59t-22 -59q-23 -23 -64 -23h-768q-44 0 -68 26t-24 66zM453 1595 q0 26 24 50l209 200q17 17 38 32t46 15q32 0 59 -24t27 -60q0 -43 -37 -67l-272 -189q-20 -14 -37 -14q-25 0 -41 17t-16 40z" />
<glyph unicode="&#xca;" horiz-adv-x="1196" d="M172 92v1229q0 40 25 67q24 25 69 25h766q40 0 63 -22t23 -60q0 -37 -23 -59q-25 -23 -63 -23h-676v-444h455q39 0 65 -23q25 -22 25 -59t-25 -59q-26 -23 -65 -23h-455v-477h676q41 0 64 -23q22 -22 22 -59t-22 -59q-23 -23 -64 -23h-768q-44 0 -68 26t-24 66zM346 1587 q0 24 29 53l221 224q12 12 28 21q13 7 33 7q36 0 60 -28l221 -224q17 -21 20 -26q9 -14 9 -27q0 -19 -15 -34t-37 -15q-8 0 -17 3q-10 3 -26 15l-217 166l-215 -166q-11 -7 -25 -14q-8 -4 -20 -4q-20 0 -35 15q-14 14 -14 34z" />
<glyph unicode="&#xcb;" horiz-adv-x="1196" d="M172 92v1229q0 40 25 67q24 25 69 25h766q40 0 63 -22t23 -60q0 -37 -23 -59q-25 -23 -63 -23h-676v-444h455q39 0 65 -23q25 -22 25 -59t-25 -59q-26 -23 -65 -23h-455v-477h676q41 0 64 -23q22 -22 22 -59t-22 -59q-23 -23 -64 -23h-768q-44 0 -68 26t-24 66zM391 1708 q0 47 26 73q25 25 70 25q42 0 70 -25q29 -26 29 -73q0 -50 -27 -72q-26 -22 -72 -22t-70 23q-26 24 -26 71zM713 1710q0 48 25 72t71 24q41 0 70 -24q28 -24 28 -72q0 -52 -27 -74q-26 -22 -71 -22q-43 0 -70 24q-26 23 -26 72z" />
<glyph unicode="&#xcc;" horiz-adv-x="526" d="M68 1808q0 37 26 60q27 24 60 24q25 0 46 -15t38 -32l208 -200q25 -25 25 -50q0 -23 -16 -40t-41 -17q-18 0 -39 14l-273 189q-34 22 -34 67zM172 90v1233q0 42 26 66t66 24q42 0 67 -24t25 -66v-1233q0 -41 -25 -65q-27 -25 -67 -25q-39 0 -66 25q-26 24 -26 65z" />
<glyph unicode="&#xcd;" horiz-adv-x="526" d="M68 1595q0 26 24 50l209 200q17 17 38 32t46 15q32 0 59 -24t27 -60q0 -43 -37 -67l-272 -189q-20 -14 -37 -14q-25 0 -41 17t-16 40zM172 90v1233q0 42 26 66t66 24q42 0 67 -24t25 -66v-1233q0 -41 -25 -65q-27 -25 -67 -25q-39 0 -66 25q-26 24 -26 65z" />
<glyph unicode="&#xce;" horiz-adv-x="526" d="M-39 1587q0 24 29 53l221 224q12 12 28 21q13 7 33 7q36 0 60 -28l221 -224q17 -21 20 -26q9 -14 9 -27q0 -19 -15 -34t-37 -15q-8 0 -17 3q-10 3 -26 15l-217 166l-215 -166q-11 -7 -25 -14q-8 -4 -20 -4q-20 0 -35 15q-14 14 -14 34zM172 90v1233q0 42 26 66t66 24 q42 0 67 -24t25 -66v-1233q0 -41 -25 -65q-27 -25 -67 -25q-39 0 -66 25q-26 24 -26 65z" />
<glyph unicode="&#xcf;" horiz-adv-x="526" d="M6 1708q0 47 26 73q25 25 70 25q42 0 70 -25q29 -26 29 -73q0 -50 -27 -72q-26 -22 -72 -22t-70 23q-26 24 -26 71zM172 90v1233q0 42 26 66t66 24q42 0 67 -24t25 -66v-1233q0 -41 -25 -65q-27 -25 -67 -25q-39 0 -66 25q-26 24 -26 65zM328 1710q0 48 25 72t71 24 q42 0 70 -24t28 -72q0 -52 -27 -74q-26 -22 -71 -22q-43 0 -70 24q-26 23 -26 72z" />
<glyph unicode="&#xd0;" horiz-adv-x="1404" d="M0 733q0 41 27 65q26 23 65 23h80v502q0 41 23 66q23 24 69 24h408q144 0 258 -51q112 -50 196 -143q82 -91 126 -222q44 -130 44 -282q0 -151 -45 -282t-127 -226q-84 -97 -196 -152q-113 -55 -256 -55h-410q-47 0 -69 25q-21 24 -21 65v557h-80q-37 0 -65 23 q-27 22 -27 63zM356 164h303q104 0 188 41q83 41 140 114q58 75 88 176q31 105 31 220t-31 217q-29 97 -89 169q-58 70 -143 109t-194 39h-293v-428h236q41 0 67 -23q27 -24 27 -65t-27 -63q-28 -23 -67 -23h-236v-483z" />
<glyph unicode="&#xd1;" horiz-adv-x="1411" d="M172 90v1215q0 47 21 77q22 31 67 31q50 0 80 -45l717 -1010v965q0 41 25 65q24 23 67 23q39 0 65 -23q27 -24 27 -65v-1233q0 -42 -22 -65q-23 -25 -64 -25q-29 0 -48 10q-20 11 -38 35l-713 989v-944q0 -41 -25 -65q-27 -25 -67 -25q-39 0 -66 25q-26 24 -26 65z M356 1671q0 14 6 32q6 17 21 34q33 41 76 66q44 26 112 26q49 0 82 -13q32 -13 65 -29q44 -22 59 -28q30 -12 67 -12q31 0 51 13q19 12 41 42q14 16 22 22q12 9 29 9q24 0 44 -21q20 -22 20 -53q0 -43 -27 -71q-28 -39 -67 -62q-37 -22 -85 -22q-50 0 -86 13t-67 30 q-11 6 -62 29q-31 14 -69 14q-41 0 -67 -17q-24 -16 -46 -39q-10 -12 -22 -19q-11 -7 -35 -7q-28 0 -45 18q-17 19 -17 45z" />
<glyph unicode="&#xd2;" horiz-adv-x="1536" d="M109 709q0 161 48 295t135 228q89 97 208 148q125 54 268 54q142 0 267 -54q121 -52 209 -148q87 -94 135 -228t48 -295t-48 -294q-49 -135 -135 -232q-87 -97 -209 -150q-123 -53 -267 -53q-145 0 -268 53q-121 52 -208 150q-86 97 -135 232q-48 133 -48 294zM299 709 q0 -117 33 -217q34 -103 94 -175q61 -73 147 -115q85 -42 195 -42q109 0 196 42q88 42 147 115t93 175q33 100 33 217t-33 216q-34 102 -94 172q-62 72 -148 114q-87 42 -194 42q-109 0 -196 -42t-147 -114q-59 -71 -93 -172q-33 -99 -33 -216zM571 1808q0 36 27 60t59 24 q25 0 46 -15t38 -32l209 -200q25 -25 25 -50q0 -21 -17 -40q-16 -17 -40 -17q-18 0 -39 14l-273 189q-35 23 -35 67z" />
<glyph unicode="&#xd3;" horiz-adv-x="1536" d="M109 709q0 161 48 295t135 228q89 97 208 148q125 54 268 54q142 0 267 -54q121 -52 209 -148q87 -94 135 -228t48 -295t-48 -294q-49 -135 -135 -232q-87 -97 -209 -150q-123 -53 -267 -53q-145 0 -268 53q-121 52 -208 150q-86 97 -135 232q-48 133 -48 294zM299 709 q0 -117 33 -217q34 -103 94 -175q61 -73 147 -115q85 -42 195 -42q109 0 196 42q88 42 147 115t93 175q33 100 33 217t-33 216q-34 102 -94 172q-62 72 -148 114q-87 42 -194 42q-109 0 -196 -42t-147 -114q-59 -71 -93 -172q-33 -99 -33 -216zM571 1595q0 25 25 50l209 200 q17 17 38 32t46 15q32 0 59 -24t27 -60q0 -43 -37 -67l-272 -189q-20 -14 -37 -14q-25 0 -41 17q-17 19 -17 40z" />
<glyph unicode="&#xd4;" horiz-adv-x="1536" d="M109 709q0 161 48 295t135 228q89 97 208 148q125 54 268 54q142 0 267 -54q121 -52 209 -148q87 -94 135 -228t48 -295t-48 -294q-49 -135 -135 -232q-87 -97 -209 -150q-123 -53 -267 -53q-145 0 -268 53q-121 52 -208 150q-86 97 -135 232q-48 133 -48 294zM299 709 q0 -117 33 -217q34 -103 94 -175q61 -73 147 -115q85 -42 195 -42q109 0 196 42q88 42 147 115t93 175q33 100 33 217t-33 216q-34 102 -94 172q-62 72 -148 114q-87 42 -194 42q-109 0 -196 -42t-147 -114q-59 -71 -93 -172q-33 -99 -33 -216zM465 1587q0 24 29 53l221 224 q13 14 27 21q13 7 34 7q36 0 60 -28l221 -224q17 -21 20 -26q8 -13 8 -27q0 -20 -14 -34q-15 -15 -37 -15q-8 0 -17 3q-10 3 -26 15l-217 166l-215 -166q-11 -7 -25 -14q-8 -4 -20 -4q-20 0 -35 15q-14 14 -14 34z" />
<glyph unicode="&#xd5;" horiz-adv-x="1536" d="M109 709q0 161 48 295t135 228q89 97 208 148q125 54 268 54q142 0 267 -54q121 -52 209 -148q87 -94 135 -228t48 -295t-48 -294q-49 -135 -135 -232q-87 -97 -209 -150q-123 -53 -267 -53q-145 0 -268 53q-121 52 -208 150q-86 97 -135 232q-48 133 -48 294zM299 709 q0 -117 33 -217q34 -103 94 -175q61 -73 147 -115q85 -42 195 -42q109 0 196 42q88 42 147 115t93 175q33 100 33 217t-33 216q-34 102 -94 172q-62 72 -148 114q-87 42 -194 42q-109 0 -196 -42t-147 -114q-59 -71 -93 -172q-33 -99 -33 -216zM418 1671q0 14 6 32 q6 19 20 34q33 41 76 66q44 26 113 26q49 0 82 -13q28 -11 64 -29q40 -20 60 -28q30 -12 66 -12q31 0 51 13q19 12 41 42q12 14 23 22q12 9 29 9q25 0 44 -21q19 -20 19 -53q0 -43 -27 -71q-29 -40 -66 -62t-85 -22q-50 0 -86 13q-39 14 -68 30q-16 9 -61 29q-31 14 -70 14 q-40 0 -66 -17q-24 -16 -46 -39q-9 -10 -23 -19q-11 -7 -35 -7q-29 0 -45 18q-16 17 -16 45z" />
<glyph unicode="&#xd6;" horiz-adv-x="1536" d="M109 709q0 161 48 295t135 228q89 97 208 148q125 54 268 54q142 0 267 -54q121 -52 209 -148q87 -94 135 -228t48 -295t-48 -294q-49 -135 -135 -232q-87 -97 -209 -150q-123 -53 -267 -53q-145 0 -268 53q-121 52 -208 150q-86 97 -135 232q-48 133 -48 294zM299 709 q0 -117 33 -217q34 -103 94 -175q61 -73 147 -115q85 -42 195 -42q109 0 196 42q88 42 147 115t93 175q33 100 33 217t-33 216q-34 102 -94 172q-62 72 -148 114q-87 42 -194 42q-109 0 -196 -42t-147 -114q-59 -71 -93 -172q-33 -99 -33 -216zM510 1708q0 47 26 73 q25 25 70 25q42 0 70 -25q29 -26 29 -73q0 -50 -27 -72q-26 -22 -72 -22t-70 23q-26 24 -26 71zM831 1710q0 48 26 72q25 24 71 24q40 0 69 -24t29 -72q0 -51 -28 -74q-26 -22 -70 -22q-43 0 -70 24t-27 72z" />
<glyph unicode="&#xd7;" d="M313 389q0 30 23 53l209 209l-207 207q-25 25 -25 49q0 28 20 50t52 22q28 0 51 -23l207 -208l207 208q23 23 51 23q27 0 49 -21q23 -21 23 -51q0 -28 -23 -51l-209 -207l209 -209q23 -21 23 -51q0 -27 -21 -48q-22 -22 -49 -22q-30 0 -53 23l-207 209l-207 -207 q-23 -25 -51 -25q-26 0 -49 20t-23 50z" />
<glyph unicode="&#xd8;" horiz-adv-x="1536" d="M109 709q0 161 48 295t135 228q89 97 208 148q125 54 268 54q192 0 344 -95l43 62q14 20 29 26q18 7 30 7q36 0 55 -21q19 -20 19 -49q0 -26 -14 -43l-49 -70q97 -100 149 -235q53 -138 53 -307q0 -161 -48 -294q-49 -135 -135 -232q-87 -97 -209 -150q-123 -53 -267 -53 q-108 0 -195 26q-89 27 -165 76l-46 -64q-17 -23 -31 -30q-16 -8 -32 -8q-31 0 -51 19q-21 19 -21 48q0 15 5 28l12 21l55 78q-91 99 -141 234q-49 134 -49 301zM299 709q0 -110 29 -206q29 -95 84 -167l594 852q-51 30 -111 48q-57 17 -127 17q-109 0 -196 -42t-147 -114 q-59 -71 -93 -172q-33 -99 -33 -216zM514 236q110 -76 254 -76q109 0 196 42q88 42 147 115t93 175q33 100 33 217q0 112 -32 213q-31 98 -91 170z" />
<glyph unicode="&#xd9;" horiz-adv-x="1433" d="M162 518v805q0 42 25 66t67 24t67 -24t25 -66v-782q0 -184 97 -282q97 -99 274 -99q176 0 274 101q99 102 99 288v774q0 42 25 66t67 24q40 0 66 -24t26 -66v-799q0 -122 -40 -221t-113 -172q-71 -71 -175 -112q-98 -39 -229 -39t-230 38q-104 40 -175 111 q-73 73 -111 170q-39 99 -39 219zM520 1808q0 36 27 60t59 24q25 0 46 -15t38 -32l209 -200q25 -25 25 -50q0 -21 -17 -40q-16 -17 -41 -17q-18 0 -39 14l-272 189q-35 23 -35 67z" />
<glyph unicode="&#xda;" horiz-adv-x="1433" d="M162 518v805q0 42 25 66t67 24t67 -24t25 -66v-782q0 -184 97 -282q97 -99 274 -99q176 0 274 101q99 102 99 288v774q0 42 25 66t67 24q40 0 66 -24t26 -66v-799q0 -122 -40 -221t-113 -172q-71 -71 -175 -112q-98 -39 -229 -39t-230 38q-104 40 -175 111 q-73 73 -111 170q-39 99 -39 219zM520 1595q0 25 25 50l209 200q17 17 38 32t46 15q32 0 59 -24t27 -60q0 -43 -37 -67l-273 -189q-20 -14 -36 -14q-25 0 -41 17q-17 19 -17 40z" />
<glyph unicode="&#xdb;" horiz-adv-x="1433" d="M162 518v805q0 42 25 66t67 24t67 -24t25 -66v-782q0 -184 97 -282q97 -99 274 -99q176 0 274 101q99 102 99 288v774q0 42 25 66t67 24q40 0 66 -24t26 -66v-799q0 -122 -40 -221t-113 -172q-71 -71 -175 -112q-98 -39 -229 -39t-230 38q-104 40 -175 111 q-73 73 -111 170q-39 99 -39 219zM414 1587q0 25 28 53l222 224q14 14 27 21t34 7q35 0 59 -28l222 -224q17 -21 20 -26q8 -13 8 -27q0 -20 -14 -34q-15 -15 -37 -15q-8 0 -17 3q-10 3 -26 15l-217 166l-215 -166q-7 -5 -26 -14q-8 -4 -19 -4q-20 0 -35 15q-14 14 -14 34z " />
<glyph unicode="&#xdc;" horiz-adv-x="1433" d="M162 518v805q0 42 25 66t67 24t67 -24t25 -66v-782q0 -184 97 -282q97 -99 274 -99q176 0 274 101q99 102 99 288v774q0 42 25 66t67 24q40 0 66 -24t26 -66v-799q0 -122 -40 -221t-113 -172q-71 -71 -175 -112q-98 -39 -229 -39t-230 38q-104 40 -175 111 q-73 73 -111 170q-39 99 -39 219zM459 1708q0 48 25 73t71 25q42 0 70 -25t28 -73q0 -50 -26 -72t-72 -22q-47 0 -71 23q-25 24 -25 71zM780 1710q0 48 26 72t71 24q41 0 69 -24q29 -24 29 -72q0 -51 -28 -74q-26 -22 -70 -22q-43 0 -70 24t-27 72z" />
<glyph unicode="&#xdd;" horiz-adv-x="1288" d="M78 1327q0 36 22 61t68 25q22 0 42 -9q18 -9 36 -34l399 -661l393 651q16 26 33 40q16 13 51 13q32 0 60 -22t28 -58q0 -17 -8 -39q-7 -20 -18 -37l-449 -725v-442q0 -41 -25 -65q-27 -25 -67 -25q-39 0 -66 25q-26 24 -26 65v442l-459 740q-14 27 -14 55zM446 1595 q0 25 25 50l209 200q17 17 38 32t46 15q32 0 59 -24t27 -60q0 -43 -37 -67l-272 -189q-20 -14 -37 -14q-25 0 -41 17q-17 19 -17 40z" />
<glyph unicode="&#xde;" horiz-adv-x="1245" d="M172 90v1233q0 42 26 66t66 24q42 0 67 -24t25 -66v-164h303q240 0 369 -120t129 -330q0 -103 -35 -187q-34 -82 -100 -139q-68 -59 -160 -88q-98 -31 -211 -31h-295v-174q0 -41 -25 -65q-27 -25 -67 -25q-39 0 -66 25q-26 24 -26 65zM356 426h295q166 0 242 79t76 204 q0 137 -82 212q-81 74 -240 74h-291v-569z" />
<glyph unicode="&#xdf;" horiz-adv-x="1220" d="M150 1001q0 113 32 192q33 82 91 135q59 55 138 80q81 26 169 26q98 0 176 -33q79 -34 132 -92q56 -62 82 -142q27 -82 27 -182q0 -54 -21 -84q-22 -32 -89 -33q-84 0 -129 -26q-47 -27 -47 -80q0 -44 33 -76t84 -61q49 -28 109 -59q62 -32 108 -68q49 -39 84 -90 q34 -50 34 -125q0 -65 -25 -119t-73 -96q-47 -41 -113 -65q-63 -23 -143 -23q-62 0 -116 15q-51 14 -97 41q-45 27 -75 59q-31 33 -46 69q0 1 -2 5.5t-3 7.5q-3 9 -3 24q0 29 22 54q23 26 60 26q19 0 36 -10q15 -9 25 -23q11 -16 31 -38q16 -18 43 -36q23 -16 55 -27 q29 -10 72 -10q77 0 123 38q45 37 45 106q0 47 -34 81q-37 37 -84 64q-54 31 -108 56q-59 27 -109 65q-50 37 -84 87q-34 49 -34 122q0 54 23 97t61 72t91 46t114 18q2 135 -60 210q-63 77 -180 77q-125 0 -183 -75q-58 -74 -58 -197v-914q0 -42 -26 -66t-66 -24 q-42 0 -66 24t-24 66z" />
<glyph unicode="&#xe0;" horiz-adv-x="1265" d="M88 510q0 118 38 218t102 170q65 71 151 110q85 39 184 39q133 0 223 -64q89 -63 140 -172v139q0 36 23 56t65 20t65 -20q25 -22 25 -56v-688q0 -41 12 -71q12 -29 47 -29q24 0 40 -19t16 -53q0 -90 -111 -90q-49 0 -80 14q-33 15 -54 39q-20 23 -33 58q-10 28 -15 69v47 q-52 -113 -149 -181q-95 -66 -226 -66q-98 0 -181 38t-148 109q-61 67 -98 167q-36 98 -36 216zM272 508q0 -78 25 -148q23 -66 68 -115q44 -48 103 -75q60 -27 132 -27q67 0 127 27q58 26 103 74t70 114q26 69 26 150q0 79 -25 151t-67 120q-46 52 -103 78q-62 28 -131 28 q-75 0 -136 -29q-59 -28 -104 -79q-42 -47 -65 -119q-23 -71 -23 -150zM434 1399q0 35 27 59q28 25 59 25q24 0 46 -16q25 -18 38 -31l209 -201q25 -25 25 -49q0 -21 -17 -40q-17 -18 -41 -18q-16 0 -39 15l-272 188q-35 23 -35 68z" />
<glyph unicode="&#xe1;" horiz-adv-x="1265" d="M88 510q0 118 38 218t102 170q65 71 151 110q85 39 184 39q133 0 223 -64q89 -63 140 -172v139q0 36 23 56t65 20t65 -20q25 -22 25 -56v-688q0 -41 12 -71q12 -29 47 -29q24 0 40 -19t16 -53q0 -90 -111 -90q-49 0 -80 14q-33 15 -54 39q-20 23 -33 58q-10 28 -15 69v47 q-52 -113 -149 -181q-95 -66 -226 -66q-98 0 -181 38t-148 109q-61 67 -98 167q-36 98 -36 216zM272 508q0 -78 25 -148q23 -66 68 -115q44 -48 103 -75q60 -27 132 -27q67 0 127 27q58 26 103 74t70 114q26 69 26 150q0 79 -25 151t-67 120q-46 52 -103 78q-62 28 -131 28 q-75 0 -136 -29q-59 -28 -104 -79q-42 -47 -65 -119q-23 -71 -23 -150zM393 1186q0 24 25 49l209 201q13 13 38 31q22 16 46 16q31 0 59 -25q27 -24 27 -59q0 -44 -37 -68l-273 -188q-21 -15 -36 -15q-25 0 -41 18q-17 19 -17 40z" />
<glyph unicode="&#xe2;" horiz-adv-x="1265" d="M88 510q0 118 38 218t102 170q65 71 151 110q85 39 184 39q133 0 223 -64q89 -63 140 -172v139q0 36 23 56t65 20t65 -20q25 -22 25 -56v-688q0 -41 12 -71q12 -29 47 -29q24 0 40 -19t16 -53q0 -90 -111 -90q-49 0 -80 14q-33 15 -54 39q-20 23 -33 58q-10 28 -15 69v47 q-52 -113 -149 -181q-95 -66 -226 -66q-98 0 -181 38t-148 109q-61 67 -98 167q-36 98 -36 216zM272 508q0 -78 25 -148q23 -66 68 -115q44 -48 103 -75q60 -27 132 -27q67 0 127 27q58 26 103 74t70 114q26 69 26 150q0 79 -25 151t-67 120q-46 52 -103 78q-62 28 -131 28 q-75 0 -136 -29q-59 -28 -104 -79q-42 -47 -65 -119q-23 -71 -23 -150zM287 1178q0 25 28 53l222 223q16 16 27 22q13 7 34 7q35 0 59 -29l222 -223q14 -18 20 -27q8 -13 8 -26q0 -20 -14 -34q-16 -16 -37 -16q-5 0 -17 4q-10 3 -26 15l-217 166l-215 -166q-7 -5 -26 -14 q-10 -5 -19 -5q-19 0 -35 16q-14 14 -14 34z" />
<glyph unicode="&#xe3;" horiz-adv-x="1265" d="M88 510q0 118 38 218t102 170q65 71 151 110q85 39 184 39q133 0 223 -64q89 -63 140 -172v139q0 36 23 56t65 20t65 -20q25 -22 25 -56v-688q0 -41 12 -71q12 -29 47 -29q24 0 40 -19t16 -53q0 -90 -111 -90q-49 0 -80 14q-33 15 -54 39q-20 23 -33 58q-10 28 -15 69v47 q-52 -113 -149 -181q-95 -66 -226 -66q-98 0 -181 38t-148 109q-61 67 -98 167q-36 98 -36 216zM272 508q0 -78 25 -148q23 -66 68 -115q44 -48 103 -75q60 -27 132 -27q67 0 127 27q58 26 103 74t70 114q26 69 26 150q0 79 -25 151t-67 120q-46 52 -103 78q-62 28 -131 28 q-75 0 -136 -29q-59 -28 -104 -79q-42 -47 -65 -119q-23 -71 -23 -150zM281 1262q0 13 6 31q6 19 20 34q35 43 76 67q43 25 113 25q49 0 82 -13q28 -11 64 -29q34 -17 59 -27q33 -13 67 -13q29 0 51 14q19 12 41 42q10 11 23 21q12 9 28 9q25 0 44 -20q20 -22 20 -53 q0 -44 -27 -72q-28 -38 -66 -61t-85 -23q-50 0 -86 13q-39 14 -68 30q-25 14 -61 30q-29 13 -70 13q-42 0 -67 -16q-24 -16 -46 -39q-12 -14 -22 -20q-11 -7 -35 -7q-28 0 -45 19q-16 17 -16 45z" />
<glyph unicode="&#xe4;" horiz-adv-x="1265" d="M88 510q0 118 38 218t102 170q65 71 151 110q85 39 184 39q133 0 223 -64q89 -63 140 -172v139q0 36 23 56t65 20t65 -20q25 -22 25 -56v-688q0 -41 12 -71q12 -29 47 -29q24 0 40 -19t16 -53q0 -90 -111 -90q-49 0 -80 14q-33 15 -54 39q-20 23 -33 58q-10 28 -15 69v47 q-52 -113 -149 -181q-95 -66 -226 -66q-98 0 -181 38t-148 109q-61 67 -98 167q-36 98 -36 216zM272 508q0 -78 25 -148q23 -66 68 -115q44 -48 103 -75q60 -27 132 -27q67 0 127 27q58 26 103 74t70 114q26 69 26 150q0 79 -25 151t-67 120q-46 52 -103 78q-62 28 -131 28 q-75 0 -136 -29q-59 -28 -104 -79q-42 -47 -65 -119q-23 -71 -23 -150zM352 1298q0 47 26 73t71 26q40 0 69 -26t29 -73q0 -48 -27 -71q-28 -23 -71 -23q-45 0 -71 24t-26 70zM674 1300q0 48 25 72q27 25 71 25q40 0 70 -25q28 -24 28 -72q0 -50 -27 -73q-28 -23 -71 -23 q-42 0 -70 25q-26 23 -26 71z" />
<glyph unicode="&#xe5;" horiz-adv-x="1265" d="M88 510q0 118 38 218t102 170q65 71 151 110q85 39 184 39q133 0 223 -64q89 -63 140 -172v139q0 36 23 56t65 20t65 -20q25 -22 25 -56v-688q0 -41 12 -71q12 -29 47 -29q24 0 40 -19t16 -53q0 -90 -111 -90q-49 0 -80 14q-33 15 -54 39q-20 23 -33 58q-10 28 -15 69v47 q-52 -113 -149 -181q-95 -66 -226 -66q-98 0 -181 38t-148 109q-61 67 -98 167q-36 98 -36 216zM272 508q0 -78 25 -148q23 -66 68 -115q44 -48 103 -75q60 -27 132 -27q67 0 127 27q58 26 103 74t70 114q26 69 26 150q0 79 -25 151t-67 120q-46 52 -103 78q-62 28 -131 28 q-75 0 -136 -29q-59 -28 -104 -79q-42 -47 -65 -119q-23 -71 -23 -150zM391 1341q0 49 18 90t47 67q32 29 67 43q38 15 79 15q46 0 84 -16q41 -17 67 -45q28 -29 44 -69q16 -39 16 -85q0 -93 -59 -152q-61 -61 -152 -61q-41 0 -80 15q-38 15 -67 42q-28 27 -46 67t-18 89z M508 1343q0 -41 23 -70q24 -30 71 -30q49 0 72 32q22 31 22 66q0 38 -22 69q-23 32 -72 32q-56 0 -75 -33q-19 -32 -19 -66z" />
<glyph unicode="&#xe6;" horiz-adv-x="1988" d="M88 510q0 118 38 218t102 170q65 71 151 110q85 39 184 39q145 0 236 -63q93 -64 145 -163v129q0 34 20 56q19 20 50 20q33 0 52 -20t19 -56v-141q56 123 149 181q92 57 198 57q99 0 185 -36q81 -34 144 -97q58 -58 93 -139q34 -78 34 -165q0 -55 -18 -91t-78 -36h-686 q12 -154 100 -246q89 -94 236 -94q97 0 169 35q71 34 111 72q26 16 45 16q36 0 58 -25t22 -57q0 -24 -11 -41q-12 -18 -26 -28q-62 -57 -157 -96t-223 -39q-168 0 -278 82q-111 82 -161 225q-62 -149 -173 -228q-110 -79 -259 -79q-103 0 -186 38q-87 39 -150 109 q-63 69 -99 167t-36 216zM272 508q0 -78 25 -148q23 -66 68 -115q44 -48 103 -75q60 -27 132 -27q67 0 127 27q58 26 103 74t70 114q26 69 26 150q0 79 -25 151t-67 120q-46 52 -103 78q-62 28 -131 28q-75 0 -136 -29q-59 -28 -104 -79q-42 -47 -65 -119q-23 -71 -23 -150z M1110 598h602q4 50 -14 102q-18 51 -57 93q-37 41 -93 66q-57 26 -123 26q-116 0 -204 -76q-89 -77 -111 -211z" />
<glyph unicode="&#xe7;" horiz-adv-x="1083" d="M88 514q0 111 38 210q37 96 104 169q66 72 158 113q93 41 198 41q135 0 230 -53q97 -54 151 -124q8 -11 27 -44q12 -21 12 -44q0 -40 -26 -60t-54 -20q-24 0 -40 11q-17 12 -26 22q-10 13 -35 42q-22 25 -55 49q-30 22 -78 41q-45 18 -102 18q-71 0 -131 -30 q-61 -30 -101 -81t-63 -119q-23 -69 -23 -143t23 -143t63 -118q41 -50 100 -79q60 -29 130 -29q80 0 145 37q67 38 119 99q30 30 63 30q28 0 53 -19t25 -59q0 -44 -28 -71q-51 -70 -145 -124q-90 -51 -220 -56v-58q60 -11 106 -47q48 -37 48 -119q0 -53 -20 -91t-50 -62 q-31 -25 -70 -37t-75 -12q-54 0 -73 16q-20 17 -20 47q0 32 21 44q19 11 45 11q54 0 78 21t24 55q0 35 -22 51t-68 21q-22 5 -28 11q-9 9 -9 32v127q-92 17 -163 62q-74 47 -126 115q-52 69 -81 158q-29 90 -29 189z" />
<glyph unicode="&#xe8;" horiz-adv-x="1148" d="M88 508q0 113 38 213q38 99 105 171q70 75 159 114q93 41 198 41q102 0 187 -36t146 -97q60 -60 94 -139q34 -78 34 -165q0 -53 -19 -91q-18 -36 -78 -36h-686q12 -152 101 -246t235 -94q97 0 169 35q73 36 112 72q26 16 45 16q35 0 57 -25q23 -26 23 -57q0 -23 -12 -41 q-13 -20 -25 -28q-61 -56 -158 -96q-95 -39 -223 -39q-117 0 -205 39q-94 42 -159 111q-66 70 -102 167q-36 96 -36 211zM270 598h602q4 50 -14 102q-19 53 -56 93q-38 41 -93 66q-57 26 -123 26q-117 0 -205 -76q-89 -77 -111 -211zM377 1399q0 36 26 59q28 25 60 25 q24 0 46 -16q25 -18 38 -31l209 -201q24 -24 24 -49q0 -23 -16 -40q-16 -18 -41 -18q-17 0 -39 15l-272 188q-35 23 -35 68z" />
<glyph unicode="&#xe9;" horiz-adv-x="1148" d="M88 508q0 113 38 213q38 99 105 171q70 75 159 114q93 41 198 41q102 0 187 -36t146 -97q60 -60 94 -139q34 -78 34 -165q0 -53 -19 -91q-18 -36 -78 -36h-686q12 -152 101 -246t235 -94q97 0 169 35q73 36 112 72q26 16 45 16q35 0 57 -25q23 -26 23 -57q0 -23 -12 -41 q-13 -20 -25 -28q-61 -56 -158 -96q-95 -39 -223 -39q-117 0 -205 39q-94 42 -159 111q-66 70 -102 167q-36 96 -36 211zM270 598h602q4 50 -14 102q-19 53 -56 93q-38 41 -93 66q-57 26 -123 26q-117 0 -205 -76q-89 -77 -111 -211zM418 1186q0 25 24 49l209 201 q13 13 38 31q22 16 46 16q32 0 60 -25q26 -23 26 -59q0 -44 -37 -68l-272 -188q-21 -15 -37 -15q-25 0 -41 18q-16 17 -16 40z" />
<glyph unicode="&#xea;" horiz-adv-x="1148" d="M88 508q0 113 38 213q38 99 105 171q70 75 159 114q93 41 198 41q102 0 187 -36t146 -97q60 -60 94 -139q34 -78 34 -165q0 -53 -19 -91q-18 -36 -78 -36h-686q12 -152 101 -246t235 -94q97 0 169 35q73 36 112 72q26 16 45 16q35 0 57 -25q23 -26 23 -57q0 -23 -12 -41 q-13 -20 -25 -28q-61 -56 -158 -96q-95 -39 -223 -39q-117 0 -205 39q-94 42 -159 111q-66 70 -102 167q-36 96 -36 211zM270 598h602q4 50 -14 102q-19 53 -56 93q-38 41 -93 66q-57 26 -123 26q-117 0 -205 -76q-89 -77 -111 -211zM283 1178q0 25 28 53l221 223 q14 15 28 22q13 7 34 7q35 0 59 -29l221 -223q19 -24 21 -27q8 -13 8 -26q0 -20 -14 -34q-16 -16 -37 -16q-5 0 -17 4q-10 3 -26 15l-217 166l-215 -166q-7 -5 -26 -14q-10 -5 -19 -5q-19 0 -35 16q-14 14 -14 34z" />
<glyph unicode="&#xeb;" horiz-adv-x="1148" d="M88 508q0 113 38 213q38 99 105 171q70 75 159 114q93 41 198 41q102 0 187 -36t146 -97q60 -60 94 -139q34 -78 34 -165q0 -53 -19 -91q-18 -36 -78 -36h-686q12 -152 101 -246t235 -94q97 0 169 35q73 36 112 72q26 16 45 16q35 0 57 -25q23 -26 23 -57q0 -23 -12 -41 q-13 -20 -25 -28q-61 -56 -158 -96q-95 -39 -223 -39q-117 0 -205 39q-94 42 -159 111q-66 70 -102 167q-36 96 -36 211zM270 598h602q4 50 -14 102q-19 53 -56 93q-38 41 -93 66q-57 26 -123 26q-117 0 -205 -76q-89 -77 -111 -211zM336 1298q0 48 25 73q26 26 71 26 q41 0 70 -26q28 -25 28 -73q0 -49 -26 -71q-28 -23 -72 -23q-46 0 -71 24t-25 70zM657 1300q0 48 26 72q27 25 71 25q39 0 69 -25q29 -24 29 -72q0 -50 -28 -73t-70 -23t-70 25q-27 24 -27 71z" />
<glyph unicode="&#xec;" horiz-adv-x="489" d="M8 1399q0 35 27 59q28 25 59 25q24 0 46 -16q24 -18 38 -31l209 -201q25 -25 25 -49q0 -21 -17 -40q-17 -18 -41 -18q-16 0 -39 15l-272 188q-35 23 -35 68zM150 250v690q0 37 24 61q25 25 66 25q40 0 65 -25t25 -61v-680q0 -43 12 -70q12 -26 47 -26q29 0 41 -23t12 -51 q0 -41 -24 -65q-25 -25 -78 -25q-98 0 -144 61t-46 189z" />
<glyph unicode="&#xed;" horiz-adv-x="489" d="M90 1186q0 24 25 49l209 201q16 16 37 31q22 16 47 16q31 0 59 -25q27 -24 27 -59q0 -44 -37 -68l-273 -188q-21 -15 -37 -15q-25 0 -41 18q-16 17 -16 40zM150 250v690q0 37 24 61q25 25 66 25q40 0 65 -25t25 -61v-680q0 -43 12 -70q12 -26 47 -26q29 0 41 -23t12 -51 q0 -41 -24 -65q-25 -25 -78 -25q-98 0 -144 61t-46 189z" />
<glyph unicode="&#xee;" horiz-adv-x="489" d="M-57 1178q0 25 28 53l222 223q16 16 27 22q13 7 34 7q35 0 59 -29l222 -223q14 -18 20 -27q8 -13 8 -26q0 -20 -14 -34q-16 -16 -37 -16q-5 0 -17 4q-10 3 -26 15l-217 166l-215 -166q-7 -5 -26 -14q-10 -5 -19 -5q-19 0 -35 16q-14 14 -14 34zM150 250v690q0 37 24 61 q25 25 66 25q40 0 65 -25t25 -61v-680q0 -43 12 -70q12 -26 47 -26q29 0 41 -23t12 -51q0 -41 -24 -65q-25 -25 -78 -25q-98 0 -144 61t-46 189z" />
<glyph unicode="&#xef;" horiz-adv-x="489" d="M-12 1298q0 48 25 73q26 26 71 26q41 0 70 -26q28 -25 28 -73q0 -49 -26 -71q-28 -23 -72 -23q-46 0 -71 24t-25 70zM150 250v690q0 37 24 61q25 25 66 25q40 0 65 -25t25 -61v-680q0 -43 12 -70q12 -26 47 -26q29 0 41 -23t12 -51q0 -41 -24 -65q-25 -25 -78 -25 q-98 0 -144 61t-46 189zM309 1300q0 48 26 72q27 25 71 25q39 0 69 -25q29 -24 29 -72q0 -50 -28 -73t-70 -23t-70 25q-27 24 -27 71z" />
<glyph unicode="&#xf0;" horiz-adv-x="1191" d="M90 504q0 113 37 206q39 97 103 166q66 70 158 111q93 41 202 41q56 0 103 -10q51 -11 98 -29q-58 90 -120 152q-60 60 -116 108q-44 35 -65 59t-21 46q0 28 21 54t57 26q27 0 53 -16q14 -9 57 -40q10 -10 31 -24l55 57q10 10 24 16q16 7 30 7q30 0 50 -20q19 -19 19 -48 t-22 -51l-53 -55q147 -150 229 -341t82 -401q0 -117 -37 -215q-38 -100 -103 -171q-66 -72 -160 -113q-90 -39 -206 -39t-206 39q-95 41 -160 111q-65 69 -103 167q-37 95 -37 207zM274 506q0 -72 22 -141q20 -64 62 -115q40 -49 101 -78t137 -29q74 0 136 28q61 27 102 76 q42 50 62 113q22 69 22 142t-22 142q-21 66 -62 116q-40 48 -102 78q-59 28 -136 28q-75 0 -135 -27q-59 -27 -102 -77q-42 -50 -63 -115q-22 -69 -22 -141z" />
<glyph unicode="&#xf1;" horiz-adv-x="1177" d="M150 86v862q0 30 22 53q23 25 70 25q46 0 67 -24t21 -52v-98q40 89 125 142t198 53q191 0 288 -114q97 -113 97 -300v-547q0 -35 -25 -60q-26 -26 -65 -26t-63 26q-25 27 -25 60v496q0 139 -68 220q-69 83 -192 83q-130 0 -200 -85t-70 -222v-492q0 -33 -25 -60 q-24 -26 -65 -26q-37 0 -64 24q-26 23 -26 62zM238 1262q0 13 6 31q6 19 20 34q35 43 76 67q43 25 113 25q49 0 82 -13q28 -11 64 -29q34 -17 59 -27q33 -13 67 -13q29 0 51 14q19 12 41 42q10 11 23 21q12 9 28 9q25 0 44 -20q20 -22 20 -53q0 -44 -27 -72q-28 -38 -66 -61 t-85 -23q-50 0 -86 13q-39 14 -68 30q-26 14 -61 30q-29 13 -70 13q-42 0 -67 -16q-24 -16 -46 -39q-12 -14 -22 -20q-11 -7 -35 -7q-28 0 -45 19q-16 17 -16 45z" />
<glyph unicode="&#xf2;" horiz-adv-x="1191" d="M90 512q0 113 37 211t103 170t160 113t206 41t206 -41t160 -113t103 -170t37 -211q0 -114 -37 -210q-38 -98 -103 -169q-66 -72 -160 -113q-92 -40 -206 -40t-206 40q-94 41 -160 113q-65 71 -103 169q-37 96 -37 210zM274 514q0 -75 22 -144q21 -67 62 -118t101 -80 q61 -29 137 -29q75 0 136 29q62 30 102 78q41 50 62 116q22 69 22 144q0 74 -22 146q-21 69 -62 119q-40 49 -102 80q-60 30 -136 30q-74 0 -135 -29q-59 -28 -102 -79q-42 -49 -63 -118q-22 -71 -22 -145zM399 1399q0 35 27 59q28 25 59 25q24 0 46 -16q25 -18 38 -31 l209 -201q25 -25 25 -49q0 -21 -17 -40q-16 -18 -41 -18q-15 0 -38 15l-273 188q-35 23 -35 68z" />
<glyph unicode="&#xf3;" horiz-adv-x="1191" d="M90 512q0 113 37 211t103 170t160 113t206 41t206 -41t160 -113t103 -170t37 -211q0 -114 -37 -210q-38 -98 -103 -169q-66 -72 -160 -113q-92 -40 -206 -40t-206 40q-94 41 -160 113q-65 71 -103 169q-37 96 -37 210zM274 514q0 -75 22 -144q21 -67 62 -118t101 -80 q61 -29 137 -29q75 0 136 29q62 30 102 78q41 50 62 116q22 69 22 144q0 74 -22 146q-21 69 -62 119q-40 49 -102 80q-60 30 -136 30q-74 0 -135 -29q-59 -28 -102 -79q-42 -49 -63 -118q-22 -71 -22 -145zM399 1186q0 24 25 49l209 201q14 13 38 31q22 16 46 16 q31 0 59 -25q27 -24 27 -59q0 -44 -37 -68l-272 -188q-21 -15 -37 -15q-25 0 -41 18q-17 19 -17 40z" />
<glyph unicode="&#xf4;" horiz-adv-x="1191" d="M90 512q0 113 37 211t103 170t160 113t206 41t206 -41t160 -113t103 -170t37 -211q0 -114 -37 -210q-38 -98 -103 -169q-66 -72 -160 -113q-92 -40 -206 -40t-206 40q-94 41 -160 113q-65 71 -103 169q-37 96 -37 210zM274 514q0 -75 22 -144q21 -67 62 -118t101 -80 q61 -29 137 -29q75 0 136 29q62 30 102 78q41 50 62 116q22 69 22 144q0 74 -22 146q-21 69 -62 119q-40 49 -102 80q-60 30 -136 30q-74 0 -135 -29q-59 -28 -102 -79q-42 -49 -63 -118q-22 -71 -22 -145zM293 1178q0 24 29 53l221 223q16 16 27 22q13 7 34 7q36 0 60 -29 l221 -223q14 -18 20 -27q8 -13 8 -26q0 -20 -14 -34q-16 -16 -37 -16q-5 0 -17 4q-10 3 -26 15l-217 166l-215 -166q-7 -5 -26 -14q-10 -5 -19 -5q-19 0 -35 16q-14 14 -14 34z" />
<glyph unicode="&#xf5;" horiz-adv-x="1191" d="M90 512q0 113 37 211t103 170t160 113t206 41t206 -41t160 -113t103 -170t37 -211q0 -114 -37 -210q-38 -98 -103 -169q-66 -72 -160 -113q-92 -40 -206 -40t-206 40q-94 41 -160 113q-65 71 -103 169q-37 96 -37 210zM246 1262q0 13 6 31q6 19 20 34q35 43 76 67 q43 25 113 25q49 0 82 -13q28 -11 64 -29q30 -15 60 -27q32 -13 66 -13q29 0 51 14q19 12 41 42q10 11 23 21q12 9 29 9q25 0 44 -20t19 -53q0 -44 -27 -72q-28 -38 -66 -61t-85 -23q-50 0 -86 13q-39 14 -68 30q-25 14 -61 30q-29 13 -70 13t-66 -16q-24 -16 -46 -39 q-11 -12 -23 -20q-11 -7 -35 -7q-28 0 -45 19q-16 17 -16 45zM274 514q0 -75 22 -144q21 -67 62 -118t101 -80q61 -29 137 -29q75 0 136 29q62 30 102 78q41 50 62 116q22 69 22 144q0 74 -22 146q-21 69 -62 119q-40 49 -102 80q-60 30 -136 30q-74 0 -135 -29 q-59 -28 -102 -79q-42 -49 -63 -118q-22 -71 -22 -145z" />
<glyph unicode="&#xf6;" horiz-adv-x="1191" d="M90 512q0 113 37 211t103 170t160 113t206 41t206 -41t160 -113t103 -170t37 -211q0 -114 -37 -210q-38 -98 -103 -169q-66 -72 -160 -113q-92 -40 -206 -40t-206 40q-94 41 -160 113q-65 71 -103 169q-37 96 -37 210zM274 514q0 -75 22 -144q21 -67 62 -118t101 -80 q61 -29 137 -29q75 0 136 29q62 30 102 78q41 50 62 116q22 69 22 144q0 74 -22 146q-21 69 -62 119q-40 49 -102 80q-60 30 -136 30q-74 0 -135 -29q-59 -28 -102 -79q-42 -49 -63 -118q-22 -71 -22 -145zM338 1298q0 47 26 73t70 26q41 0 70 -26q28 -25 28 -73 q0 -49 -26 -71q-28 -23 -72 -23t-70 24t-26 70zM659 1300q0 48 26 72q27 25 71 25q39 0 69 -25q29 -24 29 -72q0 -50 -28 -73t-70 -23t-70 25q-27 24 -27 71z" />
<glyph unicode="&#xf7;" d="M254 649q0 31 20 50q22 20 54 20h630q32 0 54 -20q20 -19 20 -50t-20 -50t-54 -19h-630q-34 0 -54 19t-20 50zM508 285q0 57 33 90t90 33q50 0 87 -32q36 -31 36 -89q0 -62 -35 -92q-36 -31 -88 -31q-53 0 -89 31q-34 30 -34 90zM508 995q0 57 33 90t90 33q50 0 87 -32 q36 -32 36 -89q0 -62 -35 -92q-36 -31 -88 -31q-53 0 -89 31q-34 30 -34 90z" />
<glyph unicode="&#xf8;" horiz-adv-x="1191" d="M90 512q0 113 37 211t103 170t160 113t206 41q128 0 238 -58l16 25q14 20 30 26q18 7 29 7q31 0 49 -20q19 -21 19 -46q0 -26 -12 -41l-21 -31q74 -73 116 -174q42 -102 42 -223q0 -114 -37 -210q-38 -98 -103 -169q-66 -72 -160 -113q-92 -40 -206 -40q-77 0 -138 17 q-68 19 -120 50l-21 -31q-16 -22 -30 -29t-31 -7q-28 0 -48 18t-20 45q0 13 6 27q1 4 4 10.5t5 9.5l28 41q-66 71 -104 169q-37 96 -37 212zM274 514q0 -62 16 -126q15 -58 46 -107l401 571q-66 33 -141 33q-74 0 -135 -29q-59 -28 -102 -79q-42 -49 -63 -118 q-22 -71 -22 -145zM434 184q70 -41 162 -41q75 0 136 29q62 30 102 78q41 50 62 116q22 69 22 144q0 71 -20 139q-20 67 -56 115z" />
<glyph unicode="&#xf9;" horiz-adv-x="1124" d="M145 408v532q0 37 26 61q27 25 65 25q35 0 63 -25q27 -24 27 -61v-537q0 -116 60 -188t177 -72t177 72q61 73 61 188v537q0 37 25 61q27 25 65 25t63 -25t25 -61v-532q0 -89 -28 -171q-26 -78 -81 -137q-53 -57 -131 -89q-77 -31 -176 -31q-101 0 -178 31q-78 32 -131 89 q-55 59 -81 137q-28 82 -28 171zM324 1399q0 36 26 59q28 25 60 25q24 0 46 -16q24 -18 38 -31l208 -201q25 -25 25 -49q0 -23 -16 -40q-17 -18 -41 -18q-16 0 -39 15l-273 188q-34 22 -34 68z" />
<glyph unicode="&#xfa;" horiz-adv-x="1124" d="M145 408v532q0 37 26 61q27 25 65 25q35 0 63 -25q27 -24 27 -61v-537q0 -116 60 -188t177 -72t177 72q61 73 61 188v537q0 37 25 61q27 25 65 25t63 -25t25 -61v-532q0 -89 -28 -171q-26 -78 -81 -137q-53 -57 -131 -89q-77 -31 -176 -31q-101 0 -178 31q-78 32 -131 89 q-55 59 -81 137q-28 82 -28 171zM406 1186q0 25 24 49l209 201q14 13 38 31q22 16 46 16q31 0 59 -25q27 -24 27 -59q0 -44 -37 -68l-272 -188q-21 -15 -37 -15q-25 0 -41 18q-16 17 -16 40z" />
<glyph unicode="&#xfb;" horiz-adv-x="1124" d="M145 408v532q0 37 26 61q27 25 65 25q35 0 63 -25q27 -24 27 -61v-537q0 -116 60 -188t177 -72t177 72q61 73 61 188v537q0 37 25 61q27 25 65 25t63 -25t25 -61v-532q0 -89 -28 -171q-26 -78 -81 -137q-53 -57 -131 -89q-77 -31 -176 -31q-101 0 -178 31q-78 32 -131 89 q-55 59 -81 137q-28 82 -28 171zM258 1178q0 24 29 53l221 223q14 15 28 22q13 7 33 7q36 0 60 -29l221 -223q14 -18 20 -27q9 -14 9 -26q0 -19 -15 -34q-16 -16 -37 -16q-5 0 -17 4q-10 3 -26 15l-217 166l-215 -166q-11 -7 -25 -14q-10 -5 -20 -5q-19 0 -35 16 q-14 14 -14 34z" />
<glyph unicode="&#xfc;" horiz-adv-x="1124" d="M145 408v532q0 37 26 61q27 25 65 25q35 0 63 -25q27 -24 27 -61v-537q0 -116 60 -188t177 -72t177 72q61 73 61 188v537q0 37 25 61q27 25 65 25t63 -25t25 -61v-532q0 -89 -28 -171q-26 -78 -81 -137q-53 -57 -131 -89q-77 -31 -176 -31q-101 0 -178 31q-78 32 -131 89 q-55 59 -81 137q-28 82 -28 171zM303 1298q0 47 26 73t70 26q41 0 70 -26t29 -73q0 -48 -27 -71q-28 -23 -72 -23q-45 0 -70 24q-26 24 -26 70zM625 1300q0 48 25 72q27 25 71 25q40 0 70 -25q28 -24 28 -72q0 -50 -27 -73q-28 -23 -71 -23q-42 0 -70 25q-26 23 -26 71z" />
<glyph unicode="&#xfd;" horiz-adv-x="1034" d="M57 940q0 38 29 62t70 24q56 0 77 -55l281 -744l293 742q11 26 28 41q17 16 48 16q35 0 61 -22q27 -22 27 -60q0 -18 -4 -31q-3 -10 -9 -24l-395 -961q-41 -93 -74 -146q-39 -63 -80 -98q-44 -38 -99 -56q-51 -17 -126 -17q-110 0 -110 80q0 39 21 61q21 23 69 23 q56 0 93 12q38 12 66 34q26 20 45 52q12 19 33 68l27 69l-360 881q-11 28 -11 49zM319 1186q0 24 25 49l209 201q13 13 38 31q22 16 46 16q31 0 59 -25q27 -24 27 -59q0 -44 -37 -68l-272 -188q-21 -15 -37 -15q-25 0 -41 18q-17 19 -17 40z" />
<glyph unicode="&#xfe;" horiz-adv-x="1253" d="M150 -303v1640q0 29 22 52q23 24 70 24q46 0 67 -22q21 -23 21 -56v-524q49 97 138 167q88 69 224 69q107 0 191 -40q86 -41 149 -111q64 -72 98 -169q35 -100 35 -215q0 -114 -36 -212q-36 -99 -98 -169q-63 -72 -150 -112q-85 -39 -193 -39q-129 0 -220 64t-138 173 v-520q0 -37 -25 -62q-24 -24 -63 -24q-41 0 -67 24q-25 24 -25 62zM330 512q0 -80 23 -145q24 -68 67 -117q44 -50 103 -78q61 -29 132 -29q72 0 133 29q59 28 103 78q41 47 66 117q24 67 24 145q0 77 -24 146q-25 73 -66 119q-45 52 -103 79q-61 29 -133 29q-71 0 -132 -29 q-58 -28 -103 -80q-42 -50 -67 -119q-23 -65 -23 -145z" />
<glyph unicode="&#xff;" horiz-adv-x="1034" d="M57 940q0 38 29 62t70 24q56 0 77 -55l281 -744l293 742q11 26 28 41q17 16 48 16q35 0 61 -22q27 -22 27 -60q0 -18 -4 -31q-3 -10 -9 -24l-395 -961q-41 -93 -74 -146q-39 -63 -80 -98q-44 -38 -99 -56q-51 -17 -126 -17q-110 0 -110 80q0 39 21 61q21 23 69 23 q56 0 93 12q38 12 66 34q26 20 45 52q12 19 33 68l27 69l-360 881q-11 28 -11 49zM258 1298q0 47 26 73t70 26q41 0 70 -26t29 -73q0 -48 -27 -71q-28 -23 -72 -23t-70 24t-26 70zM580 1300q0 48 25 72q27 25 71 25q39 0 69 -25q29 -24 29 -72q0 -50 -28 -73t-70 -23t-70 25 q-26 23 -26 71z" />
<glyph unicode="&#x152;" horiz-adv-x="2209" d="M72 709q0 161 48 295q48 133 134 228t205 148q122 54 262 54q175 0 297 -77q119 -75 186 -206v180q0 35 24 59q23 23 66 23h766q42 0 64 -22t22 -58q0 -39 -22 -61q-23 -23 -64 -23h-676v-444h455q39 0 65 -23q25 -22 25 -59q0 -39 -25 -60q-27 -22 -65 -22h-455v-477 h676q41 0 64 -23q22 -22 22 -59t-22 -59q-23 -23 -64 -23h-757q-99 0 -99 82v186q-72 -128 -195 -208t-302 -80q-136 0 -254 53q-117 53 -201 150q-83 97 -132 232q-48 133 -48 294zM262 711q0 -117 33 -217q34 -102 94 -176q60 -73 149 -116q87 -42 193 -42q107 0 194 42 q88 42 147 115q60 73 93 173t35 215q0 117 -32 219q-31 100 -92 174q-60 74 -147 114q-88 41 -198 41q-107 0 -194 -41q-86 -41 -148 -113q-60 -70 -94 -172q-33 -99 -33 -216z" />
<glyph unicode="&#x153;" horiz-adv-x="1976" d="M90 512q0 113 37 211t103 170t160 113t206 41q139 0 245 -62q107 -63 169 -166q66 105 170 166q106 62 235 62q103 0 188 -36q82 -35 146 -97q60 -59 95 -139q34 -78 34 -165q0 -56 -19 -91q-19 -36 -79 -36h-684q11 -154 98 -246q89 -94 236 -94q96 0 168 35 q70 34 114 72q26 16 43 16q35 0 57 -25q23 -26 23 -57q0 -24 -11 -41q-12 -18 -26 -28q-61 -56 -158 -96q-95 -39 -223 -39q-139 0 -243 58t-166 161q-65 -100 -171 -160q-103 -59 -241 -59q-114 0 -206 40q-94 41 -160 113q-65 71 -103 169q-37 96 -37 210zM274 514 q0 -75 22 -144q21 -67 62 -118t101 -80q61 -29 137 -29q75 0 136 29q62 30 102 78q41 50 62 116q22 69 22 144q0 74 -22 146q-21 69 -62 119q-40 49 -102 80q-60 30 -136 30q-74 0 -135 -29q-59 -28 -102 -79q-42 -49 -63 -118q-22 -71 -22 -145zM1100 598h600q4 50 -14 102 q-18 51 -57 93q-37 41 -93 66q-57 26 -123 26q-118 0 -204 -76q-87 -76 -109 -211z" />
<glyph unicode="&#x178;" horiz-adv-x="1288" d="M78 1327q0 36 22 61t68 25q22 0 42 -9q18 -9 36 -34l399 -661l393 651q16 26 33 40q16 13 51 13q32 0 60 -22t28 -58q0 -17 -8 -39q-7 -20 -18 -37l-449 -725v-442q0 -41 -25 -65q-27 -25 -67 -25q-39 0 -66 25q-26 24 -26 65v442l-459 740q-14 27 -14 55zM385 1708 q0 47 26 73q25 25 70 25q42 0 70 -25q29 -26 29 -73q0 -50 -27 -72q-26 -22 -72 -22t-70 23q-26 24 -26 71zM707 1710q0 48 25 72q26 24 71 24q41 0 69 -24q29 -24 29 -72q0 -51 -28 -74q-26 -22 -70 -22q-43 0 -70 24q-26 23 -26 72z" />
<glyph unicode="&#x2c6;" horiz-adv-x="1024" d="M209 1178q0 24 29 53l221 223q16 16 27 22q13 7 34 7q36 0 60 -29l221 -223q14 -18 20 -27q8 -13 8 -26q0 -20 -14 -34q-16 -16 -37 -16q-5 0 -17 4q-10 3 -26 15l-217 166l-215 -166q-11 -7 -25 -14q-10 -5 -20 -5q-19 0 -35 16q-14 14 -14 34z" />
<glyph unicode="&#x2dc;" horiz-adv-x="1024" d="M162 1262q0 13 6 31q6 19 20 34q35 43 76 67q43 25 113 25q49 0 82 -13q28 -11 64 -29q30 -15 60 -27q33 -13 66 -13q29 0 51 14q19 12 41 42q10 11 23 21q12 9 29 9q25 0 44 -20t19 -53q0 -44 -27 -72q-28 -38 -66 -61t-85 -23q-50 0 -86 13q-39 14 -68 30 q-25 14 -61 30q-29 13 -70 13t-66 -16q-24 -16 -46 -39q-11 -12 -23 -20q-11 -7 -35 -7q-28 0 -45 19q-16 17 -16 45z" />
<glyph unicode="&#x2000;" horiz-adv-x="983" />
<glyph unicode="&#x2001;" horiz-adv-x="1966" />
<glyph unicode="&#x2002;" horiz-adv-x="983" />
<glyph unicode="&#x2003;" horiz-adv-x="1966" />
<glyph unicode="&#x2004;" horiz-adv-x="655" />
<glyph unicode="&#x2005;" horiz-adv-x="491" />
<glyph unicode="&#x2006;" horiz-adv-x="327" />
<glyph unicode="&#x2007;" horiz-adv-x="327" />
<glyph unicode="&#x2008;" horiz-adv-x="245" />
<glyph unicode="&#x2009;" horiz-adv-x="393" />
<glyph unicode="&#x200a;" horiz-adv-x="109" />
<glyph unicode="&#x2010;" horiz-adv-x="854" d="M129 526q0 39 25 61q24 21 59 21h428q36 0 60 -21t24 -61q0 -36 -24 -59q-25 -23 -60 -23h-428q-34 0 -59 23t-25 59z" />
<glyph unicode="&#x2011;" horiz-adv-x="854" d="M129 526q0 39 25 61q24 21 59 21h428q36 0 60 -21t24 -61q0 -36 -24 -59q-25 -23 -60 -23h-428q-34 0 -59 23t-25 59z" />
<glyph unicode="&#x2012;" horiz-adv-x="854" d="M129 526q0 39 25 61q24 21 59 21h428q36 0 60 -21t24 -61q0 -36 -24 -59q-25 -23 -60 -23h-428q-34 0 -59 23t-25 59z" />
<glyph unicode="&#x2013;" horiz-adv-x="962" d="M129 526q0 39 25 61q24 21 59 21h537q35 0 59 -21q25 -22 25 -61q0 -36 -25 -59t-59 -23h-537q-34 0 -59 23t-25 59z" />
<glyph unicode="&#x2014;" horiz-adv-x="1525" d="M129 526q0 39 25 61q24 21 59 21h1100q36 0 60 -21t24 -61q0 -36 -24 -59q-25 -23 -60 -23h-1100q-34 0 -59 23t-25 59z" />
<glyph unicode="&#x2018;" horiz-adv-x="489" d="M129 1061v78q0 97 33 160t76 112q27 33 63 33q27 0 49 -19q21 -18 21 -49q0 -18 -19 -43q-30 -33 -57 -75t-27 -119v-78q0 -36 -17 -54q-18 -20 -50 -20q-72 0 -72 74z" />
<glyph unicode="&#x2019;" horiz-adv-x="489" d="M119 1055q0 19 18 43q20 22 30 34q20 24 28 39q11 20 19 53q7 28 7 68v78q0 34 18 54t50 20q71 0 71 -74v-78q0 -99 -32 -160q-33 -63 -76 -112q-27 -33 -64 -33q-27 0 -49 19q-20 17 -20 49z" />
<glyph unicode="&#x201a;" horiz-adv-x="489" d="M119 -233q0 17 18 40q35 40 57 76q27 43 27 121v78q0 34 18 54t50 20q71 0 71 -74v-78q0 -101 -32 -162q-34 -65 -76 -110q-29 -35 -64 -35q-29 0 -49 19t-20 51z" />
<glyph unicode="&#x201c;" horiz-adv-x="790" d="M129 1061v78q0 97 33 160t76 112q27 33 63 33q27 0 49 -19q21 -18 21 -49q0 -18 -19 -43q-30 -33 -57 -75t-27 -119v-78q0 -36 -17 -54q-18 -20 -50 -20q-72 0 -72 74zM430 1061v78q0 97 33 160t76 112q27 33 63 33q27 0 49 -19q21 -18 21 -49q0 -18 -19 -43 q-30 -33 -57 -75t-27 -119v-78q0 -36 -17 -54q-18 -20 -50 -20q-72 0 -72 74z" />
<glyph unicode="&#x201d;" horiz-adv-x="790" d="M119 1055q0 19 18 43q20 22 30 34q20 24 28 39q11 20 19 53q7 28 7 68v78q0 34 18 54t50 20q71 0 71 -74v-78q0 -99 -32 -160q-33 -63 -76 -112q-27 -33 -64 -33q-27 0 -49 19q-20 17 -20 49zM420 1055q0 19 18 43q20 22 30 34q20 24 28 39q11 20 19 53q7 28 7 68v78 q0 34 18 54t50 20q72 0 72 -74v-78q0 -97 -33 -160t-76 -112q-27 -33 -64 -33q-27 0 -49 19q-20 17 -20 49z" />
<glyph unicode="&#x201e;" horiz-adv-x="790" d="M119 -233q0 17 18 40q35 40 57 76q27 43 27 121v78q0 34 18 54t50 20q71 0 71 -74v-78q0 -101 -32 -162q-34 -65 -76 -110q-29 -35 -64 -35q-29 0 -49 19t-20 51zM420 -233q0 17 18 40q35 40 57 76q27 43 27 121v78q0 34 18 54t50 20q71 0 71 -74v-78q0 -101 -32 -162 q-34 -65 -76 -110q-29 -35 -64 -35q-29 0 -49 19t-20 51z" />
<glyph unicode="&#x2022;" horiz-adv-x="1007" d="M264 510q0 113 64 177q63 63 176 63q112 0 175 -63q62 -62 62 -177t-62 -177q-63 -63 -175 -63q-113 0 -176 63q-64 64 -64 177z" />
<glyph unicode="&#x2026;" horiz-adv-x="1443" d="M143 121q0 57 33 90t90 33q50 0 87 -32q36 -32 36 -89q0 -62 -35 -92q-36 -31 -88 -31q-53 0 -89 31q-34 30 -34 90zM598 121q0 57 33 90t90 33q50 0 87 -32q36 -32 36 -89q0 -62 -35 -92q-36 -31 -88 -31q-53 0 -89 31q-34 30 -34 90zM1053 121q0 58 32 90q33 33 91 33 q50 0 87 -32q35 -31 35 -89q0 -62 -34 -92q-36 -31 -88 -31q-54 0 -90 31q-33 29 -33 90z" />
<glyph unicode="&#x202f;" horiz-adv-x="393" />
<glyph unicode="&#x2039;" horiz-adv-x="722" d="M78 510q0 23 10 36q7 9 21 23l413 332q12 9 24 14q16 7 29 7q27 0 47 -21q19 -20 19 -49q0 -15 -5 -32q-4 -14 -22 -27l-360 -279l356 -287q31 -25 31 -59q0 -26 -18 -47t-48 -21q-15 0 -29 6q-8 4 -24 15l-413 332q-31 25 -31 57z" />
<glyph unicode="&#x203a;" horiz-adv-x="722" d="M80 168q0 34 31 59l356 287l-358 279q-17 13 -23 27q-6 15 -6 32q0 29 19 49q20 21 46 21q14 0 30 -7q12 -5 24 -14l413 -332q14 -14 21 -23q10 -13 10 -36q0 -32 -31 -57l-413 -332q-16 -11 -24 -15q-13 -6 -30 -6q-29 0 -47 21t-18 47z" />
<glyph unicode="&#x205f;" horiz-adv-x="491" />
<glyph unicode="&#x20ac;" d="M-6 547q0 31 20 51t54 20h73q-2 30 -2 45v44q0 30 1 44t3 44h-77q-32 0 -52 20t-20 51t20 50q22 20 54 20h96q28 118 79 207q52 91 125 156q74 66 164 100q93 35 197 35q99 0 175 -27t134 -65q62 -41 96 -79q37 -42 56 -73q33 -52 33 -100q0 -44 -29 -65q-28 -21 -57 -21 q-19 0 -36 7q-18 7 -32 23q-29 41 -64 83q-33 39 -75 70q-40 30 -90 48t-111 18q-136 0 -230 -87q-96 -89 -139 -230h394q29 0 51 -20q20 -19 20 -50t-20 -51t-51 -20h-420q-4 -20 -4 -45v-45v-45q0 -23 4 -42h420q31 0 51 -20t20 -51t-20 -50q-22 -20 -51 -20h-394 q43 -143 141 -230q97 -87 240 -87q112 0 189 55q75 54 143 152q13 19 30 27q14 7 36 7q35 0 56 -27q22 -28 22 -57q0 -8 -6 -36q-4 -20 -21 -41q-19 -26 -64 -78q-39 -46 -95 -85q-59 -42 -132 -69q-75 -28 -170 -28q-108 0 -198 34q-88 33 -164 100q-74 65 -125 156 q-50 90 -78 207h-98q-30 0 -52 20q-20 19 -20 50z" />
<glyph unicode="&#x2122;" horiz-adv-x="1464" d="M23 1352q0 29 19 45t48 16h463q29 0 48 -16q20 -17 20 -45q0 -29 -20 -44q-21 -16 -48 -16h-162v-467q0 -31 -19 -49q-20 -18 -50 -18q-32 0 -51 18t-19 49v467h-162q-27 0 -48 16q-19 15 -19 44zM676 823v512q0 37 21 58q20 20 57 20q26 0 44 -15t36 -48l196 -326 l203 326q41 63 80 63q30 0 53 -18t23 -60v-512q0 -29 -21 -47t-49 -18q-31 0 -50 18q-20 18 -20 47v320l-157 -256q-15 -22 -28 -34q-12 -11 -36 -11q-34 0 -61 45l-152 254v-318q0 -30 -20 -47q-21 -18 -52 -18q-29 0 -48 18t-19 47z" />
<glyph unicode="&#x25fc;" horiz-adv-x="1024" d="M0 0v1024h1024v-1024h-1024z" />
</font>
</defs>
</svg>
